<?xml version="1.0" encoding="utf-8" standalone="no"?>
<!DOCTYPE svg PUBLIC "-//W3C//DTD SVG 1.1//EN"
  "http://www.w3.org/Graphics/SVG/1.1/DTD/svg11.dtd">
<!-- Created with matplotlib (https://matplotlib.org/) -->
<svg height="345.6pt" version="1.1" viewBox="0 0 460.8 345.6" width="460.8pt" xmlns="http://www.w3.org/2000/svg" xmlns:xlink="http://www.w3.org/1999/xlink">
 <metadata>
  <rdf:RDF xmlns:cc="http://creativecommons.org/ns#" xmlns:dc="http://purl.org/dc/elements/1.1/" xmlns:rdf="http://www.w3.org/1999/02/22-rdf-syntax-ns#">
   <cc:Work>
    <dc:type rdf:resource="http://purl.org/dc/dcmitype/StillImage"/>
    <dc:date>2022-04-13T13:47:54.554510</dc:date>
    <dc:format>image/svg+xml</dc:format>
    <dc:creator>
     <cc:Agent>
      <dc:title>Matplotlib v3.3.4, https://matplotlib.org/</dc:title>
     </cc:Agent>
    </dc:creator>
   </cc:Work>
  </rdf:RDF>
 </metadata>
 <defs>
  <style type="text/css">*{stroke-linecap:butt;stroke-linejoin:round;}</style>
 </defs>
 <g id="figure_1">
  <g id="patch_1">
   <path d="M 0 345.6 
L 460.8 345.6 
L 460.8 0 
L 0 0 
z
" style="fill:#ffffff;"/>
  </g>
  <g id="axes_1">
   <g id="patch_2">
    <path d="M 41.692054 297.448 
L 450 297.448 
L 450 10.8 
L 41.692054 10.8 
z
" style="fill:#ffffff;"/>
   </g>
   <g id="matplotlib.axis_1">
    <g id="xtick_1">
     <g id="line2d_1">
      <defs>
       <path d="M 0 0 
L 0 3.5 
" id="m9f9e2d325f" style="stroke:#000000;stroke-width:0.8;"/>
      </defs>
      <g>
       <use style="stroke:#000000;stroke-width:0.8;" x="60.251506" xlink:href="#m9f9e2d325f" y="297.448"/>
      </g>
     </g>
     <g id="text_1">
      <!-- $\mathdefault{10^{0}}$ -->
      <g transform="translate(51.451506 312.046437)scale(0.1 -0.1)">
       <defs>
        <path d="M 12.40625 8.296875 
L 28.515625 8.296875 
L 28.515625 63.921875 
L 10.984375 60.40625 
L 10.984375 69.390625 
L 28.421875 72.90625 
L 38.28125 72.90625 
L 38.28125 8.296875 
L 54.390625 8.296875 
L 54.390625 0 
L 12.40625 0 
z
" id="DejaVuSans-49"/>
        <path d="M 31.78125 66.40625 
Q 24.171875 66.40625 20.328125 58.90625 
Q 16.5 51.421875 16.5 36.375 
Q 16.5 21.390625 20.328125 13.890625 
Q 24.171875 6.390625 31.78125 6.390625 
Q 39.453125 6.390625 43.28125 13.890625 
Q 47.125 21.390625 47.125 36.375 
Q 47.125 51.421875 43.28125 58.90625 
Q 39.453125 66.40625 31.78125 66.40625 
z
M 31.78125 74.21875 
Q 44.046875 74.21875 50.515625 64.515625 
Q 56.984375 54.828125 56.984375 36.375 
Q 56.984375 17.96875 50.515625 8.265625 
Q 44.046875 -1.421875 31.78125 -1.421875 
Q 19.53125 -1.421875 13.0625 8.265625 
Q 6.59375 17.96875 6.59375 36.375 
Q 6.59375 54.828125 13.0625 64.515625 
Q 19.53125 74.21875 31.78125 74.21875 
z
" id="DejaVuSans-48"/>
       </defs>
       <use transform="translate(0 0.765625)" xlink:href="#DejaVuSans-49"/>
       <use transform="translate(63.623047 0.765625)" xlink:href="#DejaVuSans-48"/>
       <use transform="translate(128.203125 39.046875)scale(0.7)" xlink:href="#DejaVuSans-48"/>
      </g>
     </g>
    </g>
    <g id="xtick_2">
     <g id="line2d_2">
      <g>
       <use style="stroke:#000000;stroke-width:0.8;" x="160.161052" xlink:href="#m9f9e2d325f" y="297.448"/>
      </g>
     </g>
     <g id="text_2">
      <!-- $\mathdefault{10^{1}}$ -->
      <g transform="translate(151.361052 312.046437)scale(0.1 -0.1)">
       <use transform="translate(0 0.684375)" xlink:href="#DejaVuSans-49"/>
       <use transform="translate(63.623047 0.684375)" xlink:href="#DejaVuSans-48"/>
       <use transform="translate(128.203125 38.965625)scale(0.7)" xlink:href="#DejaVuSans-49"/>
      </g>
     </g>
    </g>
    <g id="xtick_3">
     <g id="line2d_3">
      <g>
       <use style="stroke:#000000;stroke-width:0.8;" x="260.070597" xlink:href="#m9f9e2d325f" y="297.448"/>
      </g>
     </g>
     <g id="text_3">
      <!-- $\mathdefault{10^{2}}$ -->
      <g transform="translate(251.270597 312.046437)scale(0.1 -0.1)">
       <defs>
        <path d="M 19.1875 8.296875 
L 53.609375 8.296875 
L 53.609375 0 
L 7.328125 0 
L 7.328125 8.296875 
Q 12.9375 14.109375 22.625 23.890625 
Q 32.328125 33.6875 34.8125 36.53125 
Q 39.546875 41.84375 41.421875 45.53125 
Q 43.3125 49.21875 43.3125 52.78125 
Q 43.3125 58.59375 39.234375 62.25 
Q 35.15625 65.921875 28.609375 65.921875 
Q 23.96875 65.921875 18.8125 64.3125 
Q 13.671875 62.703125 7.8125 59.421875 
L 7.8125 69.390625 
Q 13.765625 71.78125 18.9375 73 
Q 24.125 74.21875 28.421875 74.21875 
Q 39.75 74.21875 46.484375 68.546875 
Q 53.21875 62.890625 53.21875 53.421875 
Q 53.21875 48.921875 51.53125 44.890625 
Q 49.859375 40.875 45.40625 35.40625 
Q 44.1875 33.984375 37.640625 27.21875 
Q 31.109375 20.453125 19.1875 8.296875 
z
" id="DejaVuSans-50"/>
       </defs>
       <use transform="translate(0 0.765625)" xlink:href="#DejaVuSans-49"/>
       <use transform="translate(63.623047 0.765625)" xlink:href="#DejaVuSans-48"/>
       <use transform="translate(128.203125 39.046875)scale(0.7)" xlink:href="#DejaVuSans-50"/>
      </g>
     </g>
    </g>
    <g id="xtick_4">
     <g id="line2d_4">
      <g>
       <use style="stroke:#000000;stroke-width:0.8;" x="359.980143" xlink:href="#m9f9e2d325f" y="297.448"/>
      </g>
     </g>
     <g id="text_4">
      <!-- $\mathdefault{10^{3}}$ -->
      <g transform="translate(351.180143 312.046437)scale(0.1 -0.1)">
       <defs>
        <path d="M 40.578125 39.3125 
Q 47.65625 37.796875 51.625 33 
Q 55.609375 28.21875 55.609375 21.1875 
Q 55.609375 10.40625 48.1875 4.484375 
Q 40.765625 -1.421875 27.09375 -1.421875 
Q 22.515625 -1.421875 17.65625 -0.515625 
Q 12.796875 0.390625 7.625 2.203125 
L 7.625 11.71875 
Q 11.71875 9.328125 16.59375 8.109375 
Q 21.484375 6.890625 26.8125 6.890625 
Q 36.078125 6.890625 40.9375 10.546875 
Q 45.796875 14.203125 45.796875 21.1875 
Q 45.796875 27.640625 41.28125 31.265625 
Q 36.765625 34.90625 28.71875 34.90625 
L 20.21875 34.90625 
L 20.21875 43.015625 
L 29.109375 43.015625 
Q 36.375 43.015625 40.234375 45.921875 
Q 44.09375 48.828125 44.09375 54.296875 
Q 44.09375 59.90625 40.109375 62.90625 
Q 36.140625 65.921875 28.71875 65.921875 
Q 24.65625 65.921875 20.015625 65.03125 
Q 15.375 64.15625 9.8125 62.3125 
L 9.8125 71.09375 
Q 15.4375 72.65625 20.34375 73.4375 
Q 25.25 74.21875 29.59375 74.21875 
Q 40.828125 74.21875 47.359375 69.109375 
Q 53.90625 64.015625 53.90625 55.328125 
Q 53.90625 49.265625 50.4375 45.09375 
Q 46.96875 40.921875 40.578125 39.3125 
z
" id="DejaVuSans-51"/>
       </defs>
       <use transform="translate(0 0.765625)" xlink:href="#DejaVuSans-49"/>
       <use transform="translate(63.623047 0.765625)" xlink:href="#DejaVuSans-48"/>
       <use transform="translate(128.203125 39.046875)scale(0.7)" xlink:href="#DejaVuSans-51"/>
      </g>
     </g>
    </g>
    <g id="xtick_5">
     <g id="line2d_5">
      <defs>
       <path d="M 0 0 
L 0 2 
" id="mf62b2ab617" style="stroke:#000000;stroke-width:0.6;"/>
      </defs>
      <g>
       <use style="stroke:#000000;stroke-width:0.6;" x="44.775322" xlink:href="#mf62b2ab617" y="297.448"/>
      </g>
     </g>
    </g>
    <g id="xtick_6">
     <g id="line2d_6">
      <g>
       <use style="stroke:#000000;stroke-width:0.6;" x="50.569271" xlink:href="#mf62b2ab617" y="297.448"/>
      </g>
     </g>
    </g>
    <g id="xtick_7">
     <g id="line2d_7">
      <g>
       <use style="stroke:#000000;stroke-width:0.6;" x="55.679896" xlink:href="#mf62b2ab617" y="297.448"/>
      </g>
     </g>
    </g>
    <g id="xtick_8">
     <g id="line2d_8">
      <g>
       <use style="stroke:#000000;stroke-width:0.6;" x="90.327276" xlink:href="#mf62b2ab617" y="297.448"/>
      </g>
     </g>
    </g>
    <g id="xtick_9">
     <g id="line2d_9">
      <g>
       <use style="stroke:#000000;stroke-width:0.6;" x="107.920474" xlink:href="#mf62b2ab617" y="297.448"/>
      </g>
     </g>
    </g>
    <g id="xtick_10">
     <g id="line2d_10">
      <g>
       <use style="stroke:#000000;stroke-width:0.6;" x="120.403046" xlink:href="#mf62b2ab617" y="297.448"/>
      </g>
     </g>
    </g>
    <g id="xtick_11">
     <g id="line2d_11">
      <g>
       <use style="stroke:#000000;stroke-width:0.6;" x="130.085281" xlink:href="#mf62b2ab617" y="297.448"/>
      </g>
     </g>
    </g>
    <g id="xtick_12">
     <g id="line2d_12">
      <g>
       <use style="stroke:#000000;stroke-width:0.6;" x="137.996244" xlink:href="#mf62b2ab617" y="297.448"/>
      </g>
     </g>
    </g>
    <g id="xtick_13">
     <g id="line2d_13">
      <g>
       <use style="stroke:#000000;stroke-width:0.6;" x="144.684867" xlink:href="#mf62b2ab617" y="297.448"/>
      </g>
     </g>
    </g>
    <g id="xtick_14">
     <g id="line2d_14">
      <g>
       <use style="stroke:#000000;stroke-width:0.6;" x="150.478816" xlink:href="#mf62b2ab617" y="297.448"/>
      </g>
     </g>
    </g>
    <g id="xtick_15">
     <g id="line2d_15">
      <g>
       <use style="stroke:#000000;stroke-width:0.6;" x="155.589441" xlink:href="#mf62b2ab617" y="297.448"/>
      </g>
     </g>
    </g>
    <g id="xtick_16">
     <g id="line2d_16">
      <g>
       <use style="stroke:#000000;stroke-width:0.6;" x="190.236822" xlink:href="#mf62b2ab617" y="297.448"/>
      </g>
     </g>
    </g>
    <g id="xtick_17">
     <g id="line2d_17">
      <g>
       <use style="stroke:#000000;stroke-width:0.6;" x="207.830019" xlink:href="#mf62b2ab617" y="297.448"/>
      </g>
     </g>
    </g>
    <g id="xtick_18">
     <g id="line2d_18">
      <g>
       <use style="stroke:#000000;stroke-width:0.6;" x="220.312592" xlink:href="#mf62b2ab617" y="297.448"/>
      </g>
     </g>
    </g>
    <g id="xtick_19">
     <g id="line2d_19">
      <g>
       <use style="stroke:#000000;stroke-width:0.6;" x="229.994827" xlink:href="#mf62b2ab617" y="297.448"/>
      </g>
     </g>
    </g>
    <g id="xtick_20">
     <g id="line2d_20">
      <g>
       <use style="stroke:#000000;stroke-width:0.6;" x="237.905789" xlink:href="#mf62b2ab617" y="297.448"/>
      </g>
     </g>
    </g>
    <g id="xtick_21">
     <g id="line2d_21">
      <g>
       <use style="stroke:#000000;stroke-width:0.6;" x="244.594413" xlink:href="#mf62b2ab617" y="297.448"/>
      </g>
     </g>
    </g>
    <g id="xtick_22">
     <g id="line2d_22">
      <g>
       <use style="stroke:#000000;stroke-width:0.6;" x="250.388362" xlink:href="#mf62b2ab617" y="297.448"/>
      </g>
     </g>
    </g>
    <g id="xtick_23">
     <g id="line2d_23">
      <g>
       <use style="stroke:#000000;stroke-width:0.6;" x="255.498987" xlink:href="#mf62b2ab617" y="297.448"/>
      </g>
     </g>
    </g>
    <g id="xtick_24">
     <g id="line2d_24">
      <g>
       <use style="stroke:#000000;stroke-width:0.6;" x="290.146367" xlink:href="#mf62b2ab617" y="297.448"/>
      </g>
     </g>
    </g>
    <g id="xtick_25">
     <g id="line2d_25">
      <g>
       <use style="stroke:#000000;stroke-width:0.6;" x="307.739565" xlink:href="#mf62b2ab617" y="297.448"/>
      </g>
     </g>
    </g>
    <g id="xtick_26">
     <g id="line2d_26">
      <g>
       <use style="stroke:#000000;stroke-width:0.6;" x="320.222137" xlink:href="#mf62b2ab617" y="297.448"/>
      </g>
     </g>
    </g>
    <g id="xtick_27">
     <g id="line2d_27">
      <g>
       <use style="stroke:#000000;stroke-width:0.6;" x="329.904373" xlink:href="#mf62b2ab617" y="297.448"/>
      </g>
     </g>
    </g>
    <g id="xtick_28">
     <g id="line2d_28">
      <g>
       <use style="stroke:#000000;stroke-width:0.6;" x="337.815335" xlink:href="#mf62b2ab617" y="297.448"/>
      </g>
     </g>
    </g>
    <g id="xtick_29">
     <g id="line2d_29">
      <g>
       <use style="stroke:#000000;stroke-width:0.6;" x="344.503958" xlink:href="#mf62b2ab617" y="297.448"/>
      </g>
     </g>
    </g>
    <g id="xtick_30">
     <g id="line2d_30">
      <g>
       <use style="stroke:#000000;stroke-width:0.6;" x="350.297907" xlink:href="#mf62b2ab617" y="297.448"/>
      </g>
     </g>
    </g>
    <g id="xtick_31">
     <g id="line2d_31">
      <g>
       <use style="stroke:#000000;stroke-width:0.6;" x="355.408533" xlink:href="#mf62b2ab617" y="297.448"/>
      </g>
     </g>
    </g>
    <g id="xtick_32">
     <g id="line2d_32">
      <g>
       <use style="stroke:#000000;stroke-width:0.6;" x="390.055913" xlink:href="#mf62b2ab617" y="297.448"/>
      </g>
     </g>
    </g>
    <g id="xtick_33">
     <g id="line2d_33">
      <g>
       <use style="stroke:#000000;stroke-width:0.6;" x="407.64911" xlink:href="#mf62b2ab617" y="297.448"/>
      </g>
     </g>
    </g>
    <g id="xtick_34">
     <g id="line2d_34">
      <g>
       <use style="stroke:#000000;stroke-width:0.6;" x="420.131683" xlink:href="#mf62b2ab617" y="297.448"/>
      </g>
     </g>
    </g>
    <g id="xtick_35">
     <g id="line2d_35">
      <g>
       <use style="stroke:#000000;stroke-width:0.6;" x="429.813918" xlink:href="#mf62b2ab617" y="297.448"/>
      </g>
     </g>
    </g>
    <g id="xtick_36">
     <g id="line2d_36">
      <g>
       <use style="stroke:#000000;stroke-width:0.6;" x="437.72488" xlink:href="#mf62b2ab617" y="297.448"/>
      </g>
     </g>
    </g>
    <g id="xtick_37">
     <g id="line2d_37">
      <g>
       <use style="stroke:#000000;stroke-width:0.6;" x="444.413504" xlink:href="#mf62b2ab617" y="297.448"/>
      </g>
     </g>
    </g>
    <g id="text_5">
     <!-- Number of Particles -->
     <g transform="translate(186.851964 327.24425)scale(0.12 -0.12)">
      <defs>
       <path d="M 9.8125 72.90625 
L 23.09375 72.90625 
L 55.421875 11.921875 
L 55.421875 72.90625 
L 64.984375 72.90625 
L 64.984375 0 
L 51.703125 0 
L 19.390625 60.984375 
L 19.390625 0 
L 9.8125 0 
z
" id="DejaVuSans-78"/>
       <path d="M 8.5 21.578125 
L 8.5 54.6875 
L 17.484375 54.6875 
L 17.484375 21.921875 
Q 17.484375 14.15625 20.5 10.265625 
Q 23.53125 6.390625 29.59375 6.390625 
Q 36.859375 6.390625 41.078125 11.03125 
Q 45.3125 15.671875 45.3125 23.6875 
L 45.3125 54.6875 
L 54.296875 54.6875 
L 54.296875 0 
L 45.3125 0 
L 45.3125 8.40625 
Q 42.046875 3.421875 37.71875 1 
Q 33.40625 -1.421875 27.6875 -1.421875 
Q 18.265625 -1.421875 13.375 4.4375 
Q 8.5 10.296875 8.5 21.578125 
z
M 31.109375 56 
z
" id="DejaVuSans-117"/>
       <path d="M 52 44.1875 
Q 55.375 50.25 60.0625 53.125 
Q 64.75 56 71.09375 56 
Q 79.640625 56 84.28125 50.015625 
Q 88.921875 44.046875 88.921875 33.015625 
L 88.921875 0 
L 79.890625 0 
L 79.890625 32.71875 
Q 79.890625 40.578125 77.09375 44.375 
Q 74.3125 48.1875 68.609375 48.1875 
Q 61.625 48.1875 57.5625 43.546875 
Q 53.515625 38.921875 53.515625 30.90625 
L 53.515625 0 
L 44.484375 0 
L 44.484375 32.71875 
Q 44.484375 40.625 41.703125 44.40625 
Q 38.921875 48.1875 33.109375 48.1875 
Q 26.21875 48.1875 22.15625 43.53125 
Q 18.109375 38.875 18.109375 30.90625 
L 18.109375 0 
L 9.078125 0 
L 9.078125 54.6875 
L 18.109375 54.6875 
L 18.109375 46.1875 
Q 21.1875 51.21875 25.484375 53.609375 
Q 29.78125 56 35.6875 56 
Q 41.65625 56 45.828125 52.96875 
Q 50 49.953125 52 44.1875 
z
" id="DejaVuSans-109"/>
       <path d="M 48.6875 27.296875 
Q 48.6875 37.203125 44.609375 42.84375 
Q 40.53125 48.484375 33.40625 48.484375 
Q 26.265625 48.484375 22.1875 42.84375 
Q 18.109375 37.203125 18.109375 27.296875 
Q 18.109375 17.390625 22.1875 11.75 
Q 26.265625 6.109375 33.40625 6.109375 
Q 40.53125 6.109375 44.609375 11.75 
Q 48.6875 17.390625 48.6875 27.296875 
z
M 18.109375 46.390625 
Q 20.953125 51.265625 25.265625 53.625 
Q 29.59375 56 35.59375 56 
Q 45.5625 56 51.78125 48.09375 
Q 58.015625 40.1875 58.015625 27.296875 
Q 58.015625 14.40625 51.78125 6.484375 
Q 45.5625 -1.421875 35.59375 -1.421875 
Q 29.59375 -1.421875 25.265625 0.953125 
Q 20.953125 3.328125 18.109375 8.203125 
L 18.109375 0 
L 9.078125 0 
L 9.078125 75.984375 
L 18.109375 75.984375 
z
" id="DejaVuSans-98"/>
       <path d="M 56.203125 29.59375 
L 56.203125 25.203125 
L 14.890625 25.203125 
Q 15.484375 15.921875 20.484375 11.0625 
Q 25.484375 6.203125 34.421875 6.203125 
Q 39.59375 6.203125 44.453125 7.46875 
Q 49.3125 8.734375 54.109375 11.28125 
L 54.109375 2.78125 
Q 49.265625 0.734375 44.1875 -0.34375 
Q 39.109375 -1.421875 33.890625 -1.421875 
Q 20.796875 -1.421875 13.15625 6.1875 
Q 5.515625 13.8125 5.515625 26.8125 
Q 5.515625 40.234375 12.765625 48.109375 
Q 20.015625 56 32.328125 56 
Q 43.359375 56 49.78125 48.890625 
Q 56.203125 41.796875 56.203125 29.59375 
z
M 47.21875 32.234375 
Q 47.125 39.59375 43.09375 43.984375 
Q 39.0625 48.390625 32.421875 48.390625 
Q 24.90625 48.390625 20.390625 44.140625 
Q 15.875 39.890625 15.1875 32.171875 
z
" id="DejaVuSans-101"/>
       <path d="M 41.109375 46.296875 
Q 39.59375 47.171875 37.8125 47.578125 
Q 36.03125 48 33.890625 48 
Q 26.265625 48 22.1875 43.046875 
Q 18.109375 38.09375 18.109375 28.8125 
L 18.109375 0 
L 9.078125 0 
L 9.078125 54.6875 
L 18.109375 54.6875 
L 18.109375 46.1875 
Q 20.953125 51.171875 25.484375 53.578125 
Q 30.03125 56 36.53125 56 
Q 37.453125 56 38.578125 55.875 
Q 39.703125 55.765625 41.0625 55.515625 
z
" id="DejaVuSans-114"/>
       <path id="DejaVuSans-32"/>
       <path d="M 30.609375 48.390625 
Q 23.390625 48.390625 19.1875 42.75 
Q 14.984375 37.109375 14.984375 27.296875 
Q 14.984375 17.484375 19.15625 11.84375 
Q 23.34375 6.203125 30.609375 6.203125 
Q 37.796875 6.203125 41.984375 11.859375 
Q 46.1875 17.53125 46.1875 27.296875 
Q 46.1875 37.015625 41.984375 42.703125 
Q 37.796875 48.390625 30.609375 48.390625 
z
M 30.609375 56 
Q 42.328125 56 49.015625 48.375 
Q 55.71875 40.765625 55.71875 27.296875 
Q 55.71875 13.875 49.015625 6.21875 
Q 42.328125 -1.421875 30.609375 -1.421875 
Q 18.84375 -1.421875 12.171875 6.21875 
Q 5.515625 13.875 5.515625 27.296875 
Q 5.515625 40.765625 12.171875 48.375 
Q 18.84375 56 30.609375 56 
z
" id="DejaVuSans-111"/>
       <path d="M 37.109375 75.984375 
L 37.109375 68.5 
L 28.515625 68.5 
Q 23.6875 68.5 21.796875 66.546875 
Q 19.921875 64.59375 19.921875 59.515625 
L 19.921875 54.6875 
L 34.71875 54.6875 
L 34.71875 47.703125 
L 19.921875 47.703125 
L 19.921875 0 
L 10.890625 0 
L 10.890625 47.703125 
L 2.296875 47.703125 
L 2.296875 54.6875 
L 10.890625 54.6875 
L 10.890625 58.5 
Q 10.890625 67.625 15.140625 71.796875 
Q 19.390625 75.984375 28.609375 75.984375 
z
" id="DejaVuSans-102"/>
       <path d="M 19.671875 64.796875 
L 19.671875 37.40625 
L 32.078125 37.40625 
Q 38.96875 37.40625 42.71875 40.96875 
Q 46.484375 44.53125 46.484375 51.125 
Q 46.484375 57.671875 42.71875 61.234375 
Q 38.96875 64.796875 32.078125 64.796875 
z
M 9.8125 72.90625 
L 32.078125 72.90625 
Q 44.34375 72.90625 50.609375 67.359375 
Q 56.890625 61.8125 56.890625 51.125 
Q 56.890625 40.328125 50.609375 34.8125 
Q 44.34375 29.296875 32.078125 29.296875 
L 19.671875 29.296875 
L 19.671875 0 
L 9.8125 0 
z
" id="DejaVuSans-80"/>
       <path d="M 34.28125 27.484375 
Q 23.390625 27.484375 19.1875 25 
Q 14.984375 22.515625 14.984375 16.5 
Q 14.984375 11.71875 18.140625 8.90625 
Q 21.296875 6.109375 26.703125 6.109375 
Q 34.1875 6.109375 38.703125 11.40625 
Q 43.21875 16.703125 43.21875 25.484375 
L 43.21875 27.484375 
z
M 52.203125 31.203125 
L 52.203125 0 
L 43.21875 0 
L 43.21875 8.296875 
Q 40.140625 3.328125 35.546875 0.953125 
Q 30.953125 -1.421875 24.3125 -1.421875 
Q 15.921875 -1.421875 10.953125 3.296875 
Q 6 8.015625 6 15.921875 
Q 6 25.140625 12.171875 29.828125 
Q 18.359375 34.515625 30.609375 34.515625 
L 43.21875 34.515625 
L 43.21875 35.40625 
Q 43.21875 41.609375 39.140625 45 
Q 35.0625 48.390625 27.6875 48.390625 
Q 23 48.390625 18.546875 47.265625 
Q 14.109375 46.140625 10.015625 43.890625 
L 10.015625 52.203125 
Q 14.9375 54.109375 19.578125 55.046875 
Q 24.21875 56 28.609375 56 
Q 40.484375 56 46.34375 49.84375 
Q 52.203125 43.703125 52.203125 31.203125 
z
" id="DejaVuSans-97"/>
       <path d="M 18.3125 70.21875 
L 18.3125 54.6875 
L 36.8125 54.6875 
L 36.8125 47.703125 
L 18.3125 47.703125 
L 18.3125 18.015625 
Q 18.3125 11.328125 20.140625 9.421875 
Q 21.96875 7.515625 27.59375 7.515625 
L 36.8125 7.515625 
L 36.8125 0 
L 27.59375 0 
Q 17.1875 0 13.234375 3.875 
Q 9.28125 7.765625 9.28125 18.015625 
L 9.28125 47.703125 
L 2.6875 47.703125 
L 2.6875 54.6875 
L 9.28125 54.6875 
L 9.28125 70.21875 
z
" id="DejaVuSans-116"/>
       <path d="M 9.421875 54.6875 
L 18.40625 54.6875 
L 18.40625 0 
L 9.421875 0 
z
M 9.421875 75.984375 
L 18.40625 75.984375 
L 18.40625 64.59375 
L 9.421875 64.59375 
z
" id="DejaVuSans-105"/>
       <path d="M 48.78125 52.59375 
L 48.78125 44.1875 
Q 44.96875 46.296875 41.140625 47.34375 
Q 37.3125 48.390625 33.40625 48.390625 
Q 24.65625 48.390625 19.8125 42.84375 
Q 14.984375 37.3125 14.984375 27.296875 
Q 14.984375 17.28125 19.8125 11.734375 
Q 24.65625 6.203125 33.40625 6.203125 
Q 37.3125 6.203125 41.140625 7.25 
Q 44.96875 8.296875 48.78125 10.40625 
L 48.78125 2.09375 
Q 45.015625 0.34375 40.984375 -0.53125 
Q 36.96875 -1.421875 32.421875 -1.421875 
Q 20.0625 -1.421875 12.78125 6.34375 
Q 5.515625 14.109375 5.515625 27.296875 
Q 5.515625 40.671875 12.859375 48.328125 
Q 20.21875 56 33.015625 56 
Q 37.15625 56 41.109375 55.140625 
Q 45.0625 54.296875 48.78125 52.59375 
z
" id="DejaVuSans-99"/>
       <path d="M 9.421875 75.984375 
L 18.40625 75.984375 
L 18.40625 0 
L 9.421875 0 
z
" id="DejaVuSans-108"/>
       <path d="M 44.28125 53.078125 
L 44.28125 44.578125 
Q 40.484375 46.53125 36.375 47.5 
Q 32.28125 48.484375 27.875 48.484375 
Q 21.1875 48.484375 17.84375 46.4375 
Q 14.5 44.390625 14.5 40.28125 
Q 14.5 37.15625 16.890625 35.375 
Q 19.28125 33.59375 26.515625 31.984375 
L 29.59375 31.296875 
Q 39.15625 29.25 43.1875 25.515625 
Q 47.21875 21.78125 47.21875 15.09375 
Q 47.21875 7.46875 41.1875 3.015625 
Q 35.15625 -1.421875 24.609375 -1.421875 
Q 20.21875 -1.421875 15.453125 -0.5625 
Q 10.6875 0.296875 5.421875 2 
L 5.421875 11.28125 
Q 10.40625 8.6875 15.234375 7.390625 
Q 20.0625 6.109375 24.8125 6.109375 
Q 31.15625 6.109375 34.5625 8.28125 
Q 37.984375 10.453125 37.984375 14.40625 
Q 37.984375 18.0625 35.515625 20.015625 
Q 33.0625 21.96875 24.703125 23.78125 
L 21.578125 24.515625 
Q 13.234375 26.265625 9.515625 29.90625 
Q 5.8125 33.546875 5.8125 39.890625 
Q 5.8125 47.609375 11.28125 51.796875 
Q 16.75 56 26.8125 56 
Q 31.78125 56 36.171875 55.265625 
Q 40.578125 54.546875 44.28125 53.078125 
z
" id="DejaVuSans-115"/>
      </defs>
      <use xlink:href="#DejaVuSans-78"/>
      <use x="74.804688" xlink:href="#DejaVuSans-117"/>
      <use x="138.183594" xlink:href="#DejaVuSans-109"/>
      <use x="235.595703" xlink:href="#DejaVuSans-98"/>
      <use x="299.072266" xlink:href="#DejaVuSans-101"/>
      <use x="360.595703" xlink:href="#DejaVuSans-114"/>
      <use x="401.708984" xlink:href="#DejaVuSans-32"/>
      <use x="433.496094" xlink:href="#DejaVuSans-111"/>
      <use x="494.677734" xlink:href="#DejaVuSans-102"/>
      <use x="529.882812" xlink:href="#DejaVuSans-32"/>
      <use x="561.669922" xlink:href="#DejaVuSans-80"/>
      <use x="617.472656" xlink:href="#DejaVuSans-97"/>
      <use x="678.751953" xlink:href="#DejaVuSans-114"/>
      <use x="719.865234" xlink:href="#DejaVuSans-116"/>
      <use x="759.074219" xlink:href="#DejaVuSans-105"/>
      <use x="786.857422" xlink:href="#DejaVuSans-99"/>
      <use x="841.837891" xlink:href="#DejaVuSans-108"/>
      <use x="869.621094" xlink:href="#DejaVuSans-101"/>
      <use x="931.144531" xlink:href="#DejaVuSans-115"/>
     </g>
    </g>
   </g>
   <g id="matplotlib.axis_2">
    <g id="ytick_1">
     <g id="line2d_38">
      <defs>
       <path d="M 0 0 
L -3.5 0 
" id="mf74358e4f2" style="stroke:#000000;stroke-width:0.8;"/>
      </defs>
      <g>
       <use style="stroke:#000000;stroke-width:0.8;" x="41.692054" xlink:href="#mf74358e4f2" y="284.747316"/>
      </g>
     </g>
     <g id="text_6">
      <!-- $\mathdefault{10^{-1}}$ -->
      <g transform="translate(11.192054 288.546535)scale(0.1 -0.1)">
       <defs>
        <path d="M 10.59375 35.5 
L 73.1875 35.5 
L 73.1875 27.203125 
L 10.59375 27.203125 
z
" id="DejaVuSans-8722"/>
       </defs>
       <use transform="translate(0 0.684375)" xlink:href="#DejaVuSans-49"/>
       <use transform="translate(63.623047 0.684375)" xlink:href="#DejaVuSans-48"/>
       <use transform="translate(128.203125 38.965625)scale(0.7)" xlink:href="#DejaVuSans-8722"/>
       <use transform="translate(186.855469 38.965625)scale(0.7)" xlink:href="#DejaVuSans-49"/>
      </g>
     </g>
    </g>
    <g id="ytick_2">
     <g id="line2d_39">
      <g>
       <use style="stroke:#000000;stroke-width:0.8;" x="41.692054" xlink:href="#mf74358e4f2" y="132.523882"/>
      </g>
     </g>
     <g id="text_7">
      <!-- $\mathdefault{10^{0}}$ -->
      <g transform="translate(17.092054 136.3231)scale(0.1 -0.1)">
       <use transform="translate(0 0.765625)" xlink:href="#DejaVuSans-49"/>
       <use transform="translate(63.623047 0.765625)" xlink:href="#DejaVuSans-48"/>
       <use transform="translate(128.203125 39.046875)scale(0.7)" xlink:href="#DejaVuSans-48"/>
      </g>
     </g>
    </g>
    <g id="ytick_3">
     <g id="line2d_40">
      <defs>
       <path d="M 0 0 
L -2 0 
" id="m0c571eb045" style="stroke:#000000;stroke-width:0.6;"/>
      </defs>
      <g>
       <use style="stroke:#000000;stroke-width:0.6;" x="41.692054" xlink:href="#m0c571eb045" y="291.712679"/>
      </g>
     </g>
    </g>
    <g id="ytick_4">
     <g id="line2d_41">
      <g>
       <use style="stroke:#000000;stroke-width:0.6;" x="41.692054" xlink:href="#m0c571eb045" y="238.923496"/>
      </g>
     </g>
    </g>
    <g id="ytick_5">
     <g id="line2d_42">
      <g>
       <use style="stroke:#000000;stroke-width:0.6;" x="41.692054" xlink:href="#m0c571eb045" y="212.11828"/>
      </g>
     </g>
    </g>
    <g id="ytick_6">
     <g id="line2d_43">
      <g>
       <use style="stroke:#000000;stroke-width:0.6;" x="41.692054" xlink:href="#m0c571eb045" y="193.099676"/>
      </g>
     </g>
    </g>
    <g id="ytick_7">
     <g id="line2d_44">
      <g>
       <use style="stroke:#000000;stroke-width:0.6;" x="41.692054" xlink:href="#m0c571eb045" y="178.347701"/>
      </g>
     </g>
    </g>
    <g id="ytick_8">
     <g id="line2d_45">
      <g>
       <use style="stroke:#000000;stroke-width:0.6;" x="41.692054" xlink:href="#m0c571eb045" y="166.29446"/>
      </g>
     </g>
    </g>
    <g id="ytick_9">
     <g id="line2d_46">
      <g>
       <use style="stroke:#000000;stroke-width:0.6;" x="41.692054" xlink:href="#m0c571eb045" y="156.10359"/>
      </g>
     </g>
    </g>
    <g id="ytick_10">
     <g id="line2d_47">
      <g>
       <use style="stroke:#000000;stroke-width:0.6;" x="41.692054" xlink:href="#m0c571eb045" y="147.275857"/>
      </g>
     </g>
    </g>
    <g id="ytick_11">
     <g id="line2d_48">
      <g>
       <use style="stroke:#000000;stroke-width:0.6;" x="41.692054" xlink:href="#m0c571eb045" y="139.489244"/>
      </g>
     </g>
    </g>
    <g id="ytick_12">
     <g id="line2d_49">
      <g>
       <use style="stroke:#000000;stroke-width:0.6;" x="41.692054" xlink:href="#m0c571eb045" y="86.700062"/>
      </g>
     </g>
    </g>
    <g id="ytick_13">
     <g id="line2d_50">
      <g>
       <use style="stroke:#000000;stroke-width:0.6;" x="41.692054" xlink:href="#m0c571eb045" y="59.894845"/>
      </g>
     </g>
    </g>
    <g id="ytick_14">
     <g id="line2d_51">
      <g>
       <use style="stroke:#000000;stroke-width:0.6;" x="41.692054" xlink:href="#m0c571eb045" y="40.876242"/>
      </g>
     </g>
    </g>
    <g id="ytick_15">
     <g id="line2d_52">
      <g>
       <use style="stroke:#000000;stroke-width:0.6;" x="41.692054" xlink:href="#m0c571eb045" y="26.124267"/>
      </g>
     </g>
    </g>
    <g id="ytick_16">
     <g id="line2d_53">
      <g>
       <use style="stroke:#000000;stroke-width:0.6;" x="41.692054" xlink:href="#m0c571eb045" y="14.071025"/>
      </g>
     </g>
    </g>
   </g>
   <g id="line2d_54">
    <path clip-path="url(#p41eb54b322)" d="M 130.081322 346.6 
L 130.085281 284.418545 
L 137.996244 284.418545 
L 144.684867 261.849176 
L 168.072014 261.849176 
L 171.54508 248.792696 
L 180.554586 248.792696 
L 183.185099 239.633185 
L 185.665212 239.633185 
L 188.011197 232.610729 
L 196.301115 232.610729 
L 198.147784 216.897568 
L 199.919057 206.355047 
L 201.62085 203.790887 
L 207.830019 203.790887 
L 209.252775 201.466766 
L 220.312592 201.466766 
L 222.429605 197.404569 
L 224.448116 193.96357 
L 225.423217 192.431878 
L 226.376885 183.912238 
L 227.310043 183.912238 
L 228.223554 182.83836 
L 229.118228 180.878978 
L 230.854066 180.878978 
L 232.523125 179.141893 
L 233.334179 177.599051 
L 234.130351 177.599051 
L 234.912177 176.893321 
L 235.680165 173.207062 
L 236.434795 167.625333 
L 237.905789 167.033465 
L 238.622998 162.954923 
L 239.328545 161.114563 
L 240.706126 161.114563 
L 241.378856 156.11736 
L 242.041314 156.11736 
L 242.69381 153.258194 
L 243.336639 153.258194 
L 243.970083 151.925587 
L 244.594413 151.919398 
L 245.209886 149.630182 
L 247.005598 149.630182 
L 247.588025 147.478466 
L 248.162737 147.478466 
L 248.729937 144.678605 
L 249.289818 143.053779 
L 250.388362 141.586489 
L 250.927377 141.859258 
L 251.459778 138.088418 
L 251.985726 135.293822 
L 252.505375 134.641597 
L 253.018874 134.85881 
L 253.526367 133.658264 
L 254.027993 133.883432 
L 254.523886 130.391428 
L 255.014176 129.512629 
L 255.498987 128.158235 
L 255.978441 127.843067 
L 256.921743 125.557934 
L 257.385813 125.840708 
L 257.844973 125.624909 
L 258.748967 125.781714 
L 259.634511 125.346738 
L 260.070597 122.832667 
L 260.502344 123.007697 
L 261.353158 121.662459 
L 261.77239 118.715351 
L 262.18761 118.715351 
L 262.598895 119.077706 
L 263.006317 117.539783 
L 263.409949 117.363083 
L 263.809862 116.845004 
L 264.598795 117.555098 
L 265.37364 117.51136 
L 265.755935 117.051262 
L 266.134891 117.053418 
L 266.510566 117.485145 
L 266.883016 117.531035 
L 267.252296 117.157038 
L 267.61846 116.015892 
L 267.981559 115.403325 
L 268.341646 115.264189 
L 268.698769 114.491282 
L 269.052976 112.811349 
L 269.404315 113.160111 
L 270.098573 111.117087 
L 270.781896 109.978829 
L 271.119565 108.453693 
L 271.454626 108.453693 
L 271.787119 106.500324 
L 272.117084 106.131183 
L 272.444558 104.038165 
L 272.76958 104.511128 
L 273.092185 103.60486 
L 273.412409 101.953591 
L 273.730287 102.586141 
L 274.045853 102.260774 
L 274.359141 102.933015 
L 274.670183 102.575012 
L 274.979011 102.537478 
L 275.285656 102.962556 
L 275.59015 102.899287 
L 275.892522 102.303512 
L 276.491016 102.353212 
L 276.787196 102.121914 
L 277.081368 102.441754 
L 277.373558 102.034224 
L 277.663795 101.848652 
L 277.952103 100.784238 
L 278.238507 101.100644 
L 278.523034 100.962589 
L 278.805707 101.027562 
L 279.086551 101.428168 
L 279.365588 101.123266 
L 279.642842 102.101341 
L 279.918336 101.70338 
L 280.192092 102.693451 
L 281.003147 101.185889 
L 281.270164 99.208396 
L 281.535548 98.904536 
L 282.061496 95.112623 
L 282.322099 94.714386 
L 282.581145 94.65851 
L 282.838654 94.128578 
L 283.094644 93.869971 
L 283.349133 94.974185 
L 283.602137 94.257022 
L 283.853675 94.223514 
L 284.103763 92.42382 
L 284.352418 92.357384 
L 284.599656 90.023847 
L 284.845493 89.841669 
L 285.089946 89.361644 
L 285.815146 88.71519 
L 286.054211 88.609274 
L 286.291966 88.3333 
L 286.528425 88.564635 
L 286.763603 87.72332 
L 286.997513 87.607262 
L 287.230168 86.531843 
L 287.461583 86.153913 
L 287.920743 86.017931 
L 288.148513 85.553417 
L 288.824737 85.229217 
L 289.047823 85.85314 
L 289.269768 86.032263 
L 289.490584 85.211938 
L 289.928872 87.717108 
L 290.146367 87.500423 
L 290.362777 86.568675 
L 290.578114 84.799942 
L 290.792387 84.454864 
L 291.005606 83.450088 
L 291.217784 83.807637 
L 291.428928 82.871831 
L 291.639051 83.001598 
L 291.84816 82.997751 
L 292.056267 83.450088 
L 292.26338 82.105245 
L 292.46951 82.701375 
L 292.674665 81.992372 
L 292.878854 81.738882 
L 293.082087 80.807224 
L 293.485719 81.875421 
L 293.686136 80.002129 
L 293.885632 79.8682 
L 294.084214 79.475169 
L 294.281892 79.44752 
L 294.478673 79.893402 
L 295.063717 79.937551 
L 295.256992 79.943162 
L 295.640979 77.611822 
L 295.831705 76.898003 
L 296.021597 76.949214 
L 296.210661 76.788804 
L 296.586336 74.67494 
L 296.77296 74.898163 
L 296.958786 74.512672 
L 297.328066 73.499991 
L 297.511534 71.992722 
L 297.69423 72.089364 
L 297.876159 71.975081 
L 298.057329 71.037788 
L 298.237746 71.796446 
L 298.417416 71.295942 
L 298.596345 69.934073 
L 298.774539 69.4705 
L 298.952004 66.881536 
L 299.128746 66.43668 
L 299.304771 65.282463 
L 299.480085 65.832558 
L 299.654694 65.373963 
L 299.828603 65.341932 
L 300.001817 64.130657 
L 300.174343 63.827756 
L 300.346185 64.059008 
L 300.51735 63.51011 
L 300.687842 64.434604 
L 301.363189 62.310312 
L 301.530396 62.365075 
L 301.862889 61.655698 
L 302.028185 61.660135 
L 302.192854 62.069283 
L 302.3569 61.520451 
L 302.520328 61.539336 
L 302.683143 60.1914 
L 302.84535 59.984836 
L 303.006952 59.303589 
L 303.167955 59.544878 
L 303.328362 60.072382 
L 303.488179 59.367886 
L 303.647409 59.346816 
L 303.806057 58.863278 
L 303.964127 58.875142 
L 304.121623 58.522541 
L 304.590711 58.334871 
L 304.745953 58.158782 
L 305.054781 58.27073 
L 305.361426 57.343428 
L 305.51394 58.006733 
L 305.66592 57.354404 
L 305.817369 57.214818 
L 305.968292 57.597522 
L 306.268571 56.996902 
L 306.417935 57.038617 
L 306.566786 56.890576 
L 306.862966 57.11482 
L 307.010301 57.047387 
L 307.157138 55.94465 
L 307.303479 56.657785 
L 307.739565 54.973267 
L 308.027873 56.588855 
L 308.171311 56.295007 
L 308.314277 57.565074 
L 308.740371 56.708102 
L 308.881477 56.989546 
L 309.162321 55.730539 
L 309.302064 55.055419 
L 309.441358 55.76461 
L 309.580207 57.175346 
L 309.718612 57.168303 
L 309.856578 56.378796 
L 309.994106 56.652238 
L 310.404095 55.067313 
L 310.539902 54.982495 
L 310.675285 56.089869 
L 310.810246 56.122605 
L 310.94479 56.307699 
L 311.078917 56.183049 
L 311.345934 55.158314 
L 311.611318 55.324747 
L 311.743404 55.301775 
L 312.006376 55.074915 
L 312.137266 55.402103 
L 312.397869 53.641844 
L 312.785861 53.152989 
L 312.914424 54.973267 
L 313.170414 53.677312 
L 313.297845 53.539454 
L 313.424903 53.08943 
L 313.551589 53.727729 
L 313.677907 53.787442 
L 314.054669 53.159227 
L 314.179533 52.432391 
L 314.428188 53.930171 
L 314.551983 52.985942 
L 314.675426 53.512645 
L 314.798519 53.261696 
L 315.043662 52.280173 
L 315.165716 53.828477 
L 315.287427 53.407196 
L 315.650527 50.228456 
L 315.770888 50.141791 
L 315.890916 49.838266 
L 316.010614 49.038655 
L 316.249022 49.554001 
L 316.486127 48.216271 
L 316.604196 48.402665 
L 316.721944 48.314186 
L 316.839373 48.018105 
L 317.073283 48.913601 
L 317.189767 48.735224 
L 317.305939 48.773445 
L 317.4218 49.947905 
L 317.537353 49.943094 
L 317.882178 48.104991 
L 317.996513 48.109007 
L 318.110547 47.713011 
L 318.337722 46.841312 
L 318.676268 46.484335 
L 318.788533 45.338328 
L 319.234708 47.697407 
L 319.345538 47.016723 
L 319.676342 48.26573 
L 319.786052 47.616067 
L 319.895485 49.38522 
L 320.113526 48.781095 
L 320.222137 48.620555 
L 320.330477 48.781095 
L 320.438547 48.624906 
L 320.546349 48.683696 
L 320.653884 49.018009 
L 320.868157 52.573053 
L 320.974897 52.632862 
L 321.081376 52.36137 
L 321.187595 52.785791 
L 322.132037 49.839113 
L 322.33915 49.717745 
L 322.647979 49.01223 
L 322.750435 49.150365 
L 322.85265 50.769806 
L 323.05636 49.288803 
L 323.157857 49.594021 
L 323.259118 48.825934 
L 323.360143 50.331666 
L 323.561489 49.18907 
L 323.761906 49.225603 
L 323.961402 47.89126 
L 324.060806 48.775357 
L 324.159984 48.280798 
L 324.258935 48.52417 
L 324.456164 47.330069 
L 324.554443 50.664064 
L 324.6525 50.317924 
L 325.139488 48.995726 
L 325.332763 48.433202 
L 325.429078 48.703589 
L 325.52518 48.580609 
L 325.716749 47.704811 
L 325.812217 48.325233 
L 325.907475 48.081175 
L 326.097367 48.448346 
L 326.192002 47.636119 
L 326.474675 49.160037 
L 326.662106 47.597873 
L 326.84873 47.993817 
L 326.941742 47.833064 
L 327.034556 47.987148 
L 327.219589 47.581005 
L 327.31181 48.394022 
L 327.403836 48.091877 
L 327.495667 48.992426 
L 327.587304 52.235251 
L 327.678748 51.993178 
L 327.77 52.213116 
L 328.042609 51.417974 
L 328.223402 53.261696 
L 328.313516 53.015743 
L 328.403444 53.598827 
L 328.493186 53.535668 
L 328.672115 53.236674 
L 328.850309 53.741695 
L 328.939132 53.554603 
L 329.116235 54.70318 
L 329.204516 54.398345 
L 329.292618 55.085824 
L 329.380541 54.75126 
L 329.555855 53.477668 
L 329.643247 53.466332 
L 329.730464 53.211671 
L 330.163936 50.066997 
L 330.250113 49.681506 
L 330.421955 48.645579 
L 330.507622 49.066203 
L 330.59312 48.735224 
L 330.67845 47.753245 
L 330.763612 47.895782 
L 331.0181 47.72677 
L 331.102599 47.264239 
L 331.186934 47.470789 
L 331.271105 47.429848 
L 331.438959 50.655966 
L 331.522643 50.69329 
L 331.606166 50.551163 
L 331.689528 49.924986 
L 331.772731 50.107928 
L 331.855774 49.643623 
L 331.938659 50.937368 
L 332.021386 50.788092 
L 332.103955 50.516591 
L 332.186368 51.071797 
L 332.350725 50.724571 
L 332.43267 50.810165 
L 332.596098 49.735739 
L 332.677582 49.974805 
L 332.758913 49.885694 
L 332.92112 48.831133 
L 333.001996 49.410831 
L 333.082722 49.05766 
L 333.163298 49.212037 
L 333.404132 50.261871 
L 333.484114 50.09172 
L 333.643637 49.117227 
L 334.039897 52.098131 
L 334.275927 51.239723 
L 334.588651 52.089674 
L 334.666481 56.54563 
L 334.744171 55.775411 
L 334.821723 55.576147 
L 334.899136 55.916157 
L 334.976412 55.563733 
L 335.130551 56.202195 
L 335.207416 56.331038 
L 335.284145 56.059888 
L 335.360738 56.13216 
L 335.437197 56.014969 
L 335.51352 56.175872 
L 335.893139 55.395093 
L 336.119327 56.870678 
L 336.194461 56.968888 
L 336.344341 56.378796 
L 336.419087 57.477872 
L 336.493705 56.862303 
L 336.568194 57.283654 
L 336.642556 56.991298 
L 336.716791 55.900903 
L 336.790899 56.213141 
L 336.938736 54.860435 
L 337.159552 57.31901 
L 337.232908 56.742847 
L 337.30614 57.079682 
L 337.379249 56.734157 
L 337.452235 56.871027 
L 337.670459 54.009448 
L 337.815335 53.818293 
L 337.887592 54.368565 
L 337.959728 54.172755 
L 338.103643 54.013289 
L 338.247081 54.779093 
L 338.318623 54.292297 
L 338.532544 55.154669 
L 338.745415 53.876894 
L 338.957247 54.991725 
L 339.027629 54.204934 
L 339.097896 54.823675 
L 339.238091 53.86797 
L 339.308018 53.78617 
L 339.517128 58.426927 
L 339.586608 58.260537 
L 339.794382 55.846724 
L 339.86342 56.077941 
L 339.932348 55.913106 
L 340.138478 56.277521 
L 340.20697 57.141199 
L 340.275355 56.668883 
L 340.411802 54.991725 
L 340.547822 56.195014 
L 340.615672 55.993212 
L 340.818588 57.959091 
L 340.95334 57.719396 
L 341.087675 57.072307 
L 341.221596 56.030275 
L 341.288401 56.100777 
L 341.355104 56.084416 
L 341.421704 55.606699 
L 341.488203 56.015309 
L 341.554599 55.913106 
L 341.620894 55.777775 
L 341.687088 55.255215 
L 341.753182 55.967394 
L 341.819174 55.742679 
L 341.950859 54.589311 
L 342.016552 55.717393 
L 342.082146 55.495705 
L 342.213036 55.636607 
L 342.408635 54.243268 
L 342.538545 53.686185 
L 342.668068 60.842949 
L 342.861631 60.008236 
L 342.92596 60.667108 
L 342.990194 60.243533 
L 343.118378 60.425289 
L 343.309946 59.560017 
L 343.373615 59.619126 
L 343.564062 58.229978 
L 343.627359 58.185281 
L 343.690564 58.385981 
L 343.879629 56.89302 
L 344.067873 55.308765 
L 344.255303 55.037916 
L 344.317601 54.815476 
L 344.379809 54.917954 
L 344.441928 55.132146 
L 344.689519 54.355626 
L 344.751196 55.122545 
L 344.935705 54.067107 
L 344.997034 53.921552 
L 345.058276 54.623202 
L 345.180502 53.347853 
L 345.241486 56.093959 
L 345.302384 55.530539 
L 345.363197 55.284807 
L 345.423926 55.644341 
L 345.545127 54.118444 
L 345.605601 54.131612 
L 345.665991 53.908786 
L 345.726297 54.661045 
L 345.846658 58.073621 
L 345.966687 57.475029 
L 346.205751 55.023392 
L 346.265312 54.982495 
L 346.38419 55.329743 
L 346.443506 56.928311 
L 346.502742 56.214167 
L 346.561897 56.25148 
L 346.620971 55.975545 
L 346.679966 56.273065 
L 346.856468 55.465924 
L 346.973739 54.567495 
L 347.032256 52.972292 
L 347.090694 53.053344 
L 347.149053 54.827612 
L 347.207334 54.597129 
L 347.439678 52.658967 
L 347.49757 52.987183 
L 347.555385 53.447447 
L 347.670785 52.253455 
L 347.72837 52.37477 
L 347.84331 53.24887 
L 347.900667 52.799056 
L 348.015153 52.145287 
L 348.129338 50.767485 
L 348.186317 51.902068 
L 348.243223 51.631425 
L 348.4701 48.974832 
L 348.583095 47.697407 
L 348.808207 45.904236 
L 348.864303 46.224356 
L 348.920326 47.396031 
L 348.976277 47.212086 
L 349.032156 45.278064 
L 349.087964 47.116598 
L 349.143699 46.81015 
L 349.199363 47.010766 
L 349.476618 48.760336 
L 349.642124 48.510888 
L 349.752112 47.881953 
L 349.807001 49.532472 
L 349.861822 47.844749 
L 349.916573 48.325233 
L 349.971255 48.131771 
L 350.134888 47.791672 
L 350.189296 48.226211 
L 350.243636 48.051228 
L 350.406247 45.793472 
L 350.460316 45.935307 
L 350.514318 46.561145 
L 350.568252 45.812198 
L 350.729654 46.826886 
L 350.836922 46.989019 
L 350.99733 48.14115 
L 351.050668 47.505472 
L 351.10394 47.842358 
L 351.263365 47.345762 
L 351.316377 47.456087 
L 351.369324 47.72677 
L 351.527779 46.392703 
L 351.580469 46.618422 
L 351.685657 46.200088 
L 351.790591 46.733274 
L 352.259678 43.106987 
L 352.363235 43.456788 
L 352.414921 43.31545 
L 352.569609 42.782491 
L 352.62105 42.651719 
L 352.826205 40.957007 
L 352.877342 41.059161 
L 353.081292 40.346177 
L 353.13213 40.613135 
L 353.284287 39.612617 
L 353.334888 39.725234 
L 353.435913 39.287712 
L 353.536703 38.562779 
L 353.687451 39.711317 
L 353.737584 39.822812 
L 353.787659 39.665456 
L 353.837676 40.591588 
L 353.887636 40.319727 
L 353.937539 39.857836 
L 354.086903 42.818973 
L 354.186194 42.519426 
L 354.235754 42.740815 
L 354.285258 42.852754 
L 354.334705 42.79366 
L 354.433432 42.154975 
L 354.482711 42.230413 
L 354.531934 42.174657 
L 354.581101 42.460473 
L 354.630213 41.334363 
L 354.72827 41.338943 
L 354.874941 40.572825 
L 354.972447 40.530437 
L 355.021118 41.440099 
L 355.069734 42.767227 
L 355.118296 42.597968 
L 355.166804 42.284018 
L 355.215258 42.383158 
L 355.263657 42.445131 
L 355.408533 43.104916 
L 356.030796 40.663537 
L 356.078295 41.454324 
L 356.125742 41.310161 
L 356.267772 40.631066 
L 356.315012 40.953557 
L 356.50346 44.367911 
L 356.784607 43.466092 
L 357.017513 45.037368 
L 357.063944 44.448339 
L 357.249174 45.51211 
L 357.295359 45.15664 
L 357.38758 44.943573 
L 357.433617 44.752666 
L 357.61728 42.558334 
L 357.663074 42.476726 
L 357.891324 40.960673 
L 357.93683 41.109382 
L 358.0277 40.193058 
L 358.073063 40.211816 
L 358.20887 44.357154 
L 358.299172 44.260977 
L 358.344252 43.542254 
L 358.434274 43.645247 
L 358.479214 43.192476 
L 358.568956 47.677317 
L 358.613757 47.320918 
L 358.747885 48.235616 
L 358.792502 49.486664 
L 358.881599 48.898243 
L 359.014902 47.881953 
L 359.059246 48.28968 
L 359.103544 48.369457 
L 359.192005 47.668598 
L 359.236168 48.205529 
L 359.324359 48.143562 
L 359.456311 46.501672 
L 359.500206 46.863993 
L 359.544057 48.357586 
L 359.631625 47.632689 
L 359.675343 47.481295 
L 359.719018 47.691854 
L 359.762648 47.904295 
L 359.806234 47.823508 
L 359.980143 45.994774 
L 360.023511 46.05787 
L 360.066836 47.087513 
L 360.110118 46.86915 
L 360.239706 45.605052 
L 360.368907 46.144792 
L 360.583392 43.587989 
L 360.626162 43.765225 
L 360.711576 46.206153 
L 360.796822 45.429055 
L 360.839382 45.085954 
L 360.924377 45.292813 
L 360.966813 45.922525 
L 361.051559 45.674869 
L 361.13614 44.260977 
L 361.178369 44.883538 
L 361.220557 44.955496 
L 361.262704 44.154388 
L 361.346875 44.657745 
L 361.556591 46.083041 
L 361.598413 45.968414 
L 361.640194 46.020902 
L 361.681936 45.926284 
L 361.80692 44.672219 
L 361.890043 47.453987 
L 361.931544 47.314383 
L 361.973007 47.360678 
L 362.179725 46.517231 
L 362.220951 46.819676 
L 362.344394 45.43498 
L 362.385464 45.839433 
L 362.467487 45.728636 
L 362.549355 45.130941 
L 362.590231 45.263568 
L 362.631069 45.902483 
L 362.71263 45.65274 
L 362.753352 45.598352 
L 363.037347 42.780896 
L 363.077766 42.892971 
L 363.118148 43.036183 
L 363.319495 41.975691 
L 363.359652 42.470404 
L 363.399773 42.079263 
L 363.59982 41.55781 
L 363.639719 44.712056 
L 363.719407 44.625924 
L 363.957597 45.765278 
L 364.036704 45.287158 
L 364.076203 45.629136 
L 364.115667 46.592839 
L 364.155095 46.12865 
L 364.194487 45.531916 
L 364.233843 47.161055 
L 364.312448 46.814269 
L 364.351698 47.128812 
L 364.390911 46.565999 
L 364.469233 45.847433 
L 364.508341 47.032268 
L 364.586451 46.18013 
L 364.625453 46.60486 
L 364.664421 46.525397 
L 364.819941 46.00884 
L 364.897493 45.765527 
L 365.052182 43.109749 
L 365.206321 46.582612 
L 365.24477 46.367549 
L 365.474754 45.285929 
L 365.512967 45.362958 
L 365.551145 45.744335 
L 365.589291 45.714439 
L 365.741537 44.446182 
L 365.779515 44.9037 
L 365.855372 44.659916 
L 365.893251 44.23525 
L 365.968909 44.475192 
L 366.195097 43.3618 
L 366.345236 42.993957 
L 366.38269 43.069267 
L 366.4575 42.430924 
L 366.532182 42.532994 
L 366.569475 42.426189 
L 366.643965 42.754474 
L 366.681161 42.650584 
L 366.866669 41.849616 
L 367.308678 37.835153 
L 367.34531 38.862382 
L 367.41848 38.350058 
L 367.455019 38.324559 
L 367.528005 37.588855 
L 367.564452 38.073614 
L 367.600869 38.797678 
L 367.67361 38.300672 
L 367.709935 38.251956 
L 367.854931 39.165951 
L 367.999445 38.507268 
L 368.251191 41.247232 
L 368.465818 39.887051 
L 368.679387 42.500442 
L 368.71488 42.351653 
L 368.821185 40.405504 
L 368.856563 40.530437 
L 368.927231 41.94746 
L 368.997784 41.492655 
L 369.033017 40.87194 
L 369.068222 41.090108 
L 369.103399 42.572597 
L 369.173666 41.732187 
L 369.627652 37.263288 
L 369.662378 37.066217 
L 369.697076 37.314043 
L 369.731747 37.148363 
L 369.76639 37.426252 
L 369.801005 37.383065 
L 369.835592 37.06775 
L 369.870153 37.733284 
L 369.904685 37.274667 
L 370.111305 36.719354 
L 370.145647 36.627671 
L 370.179961 36.909592 
L 370.214248 36.745922 
L 370.248508 36.535298 
L 370.28274 36.894905 
L 370.351125 37.364297 
L 370.453501 36.72163 
L 370.487572 36.891091 
L 370.65753 36.195987 
L 370.860605 37.02656 
L 370.894358 36.905586 
L 370.928085 37.051651 
L 370.961787 37.124543 
L 371.129901 41.426316 
L 371.230457 40.932218 
L 371.263924 41.006425 
L 371.297366 41.735498 
L 371.364171 41.484986 
L 371.430874 41.144713 
L 371.497474 41.309943 
L 371.563973 41.768411 
L 371.696665 41.681893 
L 371.762859 41.222225 
L 371.993746 39.716302 
L 372.026629 44.39087 
L 372.125131 43.042614 
L 372.157916 43.115963 
L 372.288806 43.884462 
L 372.354104 44.097191 
L 372.549409 41.789633 
L 372.614315 41.020033 
L 372.743838 46.894689 
L 372.776159 46.97039 
L 372.872976 46.05787 
L 372.937401 46.070201 
L 373.033859 49.739958 
L 373.065964 49.565191 
L 373.098046 49.320726 
L 373.130104 50.29389 
L 373.226135 49.994357 
L 373.258098 49.824446 
L 373.290038 50.317924 
L 373.385716 50.076941 
L 373.51296 49.113915 
L 373.544713 49.571626 
L 373.576443 49.424479 
L 373.70313 47.150651 
L 373.734743 47.692119 
L 373.766334 47.616859 
L 373.986829 50.633997 
L 374.018237 49.476897 
L 374.080985 49.832343 
L 374.331073 47.579161 
L 374.362233 47.535717 
L 374.393371 48.966039 
L 374.48665 48.867273 
L 374.517698 48.258199 
L 374.548724 49.582822 
L 374.61071 48.454568 
L 374.672608 48.653199 
L 374.734417 47.913609 
L 374.765289 48.764705 
L 374.826966 48.516309 
L 374.888556 47.386862 
L 374.950059 48.151067 
L 375.103436 47.481295 
L 375.134046 47.34053 
L 375.164635 47.500214 
L 375.195202 46.268135 
L 375.286775 46.293467 
L 375.530028 43.245123 
L 375.651145 43.359945 
L 375.802067 44.65871 
L 375.892369 43.753958 
L 375.922428 43.140142 
L 375.952467 43.472607 
L 376.012481 45.133877 
L 376.072412 45.081312 
L 376.13226 43.458416 
L 376.221879 43.944833 
L 376.281521 44.157239 
L 376.489628 42.562861 
L 376.519276 43.877866 
L 376.6081 43.773677 
L 376.667214 43.836669 
L 376.696742 43.795053 
L 376.726249 43.049964 
L 376.755736 44.513351 
L 376.785203 44.116167 
L 376.873484 44.417677 
L 376.932238 44.626165 
L 376.961586 44.017849 
L 376.990913 44.402356 
L 377.020221 43.47889 
L 377.108026 42.242741 
L 377.137255 42.637876 
L 377.253973 43.765225 
L 377.312215 43.588923 
L 377.631155 40.608653 
L 377.746555 42.617009 
L 377.775357 42.411989 
L 377.80414 42.457088 
L 377.832903 45.960385 
L 377.919081 45.293796 
L 377.947768 45.410051 
L 378.033718 52.92673 
L 378.06233 52.915581 
L 378.148053 51.558833 
L 378.17659 52.195237 
L 378.205108 52.874426 
L 378.262088 51.615048 
L 378.290549 51.049257 
L 378.375823 51.465354 
L 378.404211 51.51488 
L 378.46093 50.88142 
L 378.517575 50.94291 
L 378.574146 51.422709 
L 378.602404 51.13951 
L 378.630644 50.710375 
L 378.658865 51.285374 
L 378.687068 52.795354 
L 378.771567 51.82169 
L 378.799697 52.064317 
L 378.827808 51.958569 
L 378.883977 50.869485 
L 378.940073 51.213538 
L 378.996096 52.36137 
L 379.052047 51.684183 
L 379.107927 50.834868 
L 379.135839 51.009775 
L 379.219469 53.554287 
L 379.24731 52.790418 
L 379.275134 52.905674 
L 379.302939 52.714316 
L 379.330726 54.055887 
L 379.386248 52.586539 
L 379.662796 49.387446 
L 379.717894 49.774009 
L 379.827882 53.185127 
L 379.855335 52.755888 
L 380.019692 50.432327 
L 380.047025 50.317924 
L 380.07434 52.390918 
L 380.156182 50.679108 
L 380.237871 49.974805 
L 380.265066 50.056489 
L 380.292244 50.427732 
L 380.34655 49.998892 
L 380.373677 50.301613 
L 380.400788 50.329375 
L 380.454958 49.049671 
L 380.50906 50.070122 
L 380.590088 51.052768 
L 380.644022 50.934743 
L 380.670964 50.636597 
L 380.697889 50.850863 
L 380.724798 51.368298 
L 380.75169 50.53272 
L 380.778565 50.569328 
L 380.832266 50.547704 
L 380.99297 48.842354 
L 381.019697 48.879603 
L 381.0731 49.808658 
L 381.153082 49.718869 
L 381.17971 50.024699 
L 381.232917 49.918199 
L 381.418628 46.771047 
L 381.445094 47.205051 
L 381.471543 46.407194 
L 381.497976 46.505752 
L 381.524394 46.40516 
L 381.708865 44.190276 
L 381.735154 44.643518 
L 381.787684 43.767103 
L 381.813926 44.276948 
L 381.866361 44.720754 
L 382.049387 41.826805 
L 382.075471 41.856041 
L 382.127591 41.968575 
L 382.387258 39.4645 
L 382.413139 39.765978 
L 382.542315 40.847859 
L 382.568104 40.776366 
L 382.69682 38.521688 
L 382.722517 39.071308 
L 382.773867 39.653223 
L 382.799519 39.062958 
L 382.953112 38.024836 
L 382.978659 38.004123 
L 383.029706 37.965492 
L 383.106164 38.652757 
L 383.157062 38.362017 
L 383.182488 38.412892 
L 383.284045 37.394485 
L 383.334735 38.246592 
L 383.385365 38.007278 
L 383.536902 36.323383 
L 383.562107 36.453153 
L 383.71303 37.350373 
L 383.888445 35.880276 
L 383.963406 39.838652 
L 384.038238 39.188836 
L 384.212347 36.380224 
L 384.237162 36.536241 
L 384.261964 35.822441 
L 384.336283 36.222324 
L 384.361028 36.560207 
L 384.410475 35.904512 
L 384.459867 35.844048 
L 384.509202 35.080559 
L 384.533848 36.944524 
L 384.607704 36.044166 
L 384.656871 35.590643 
L 384.828519 31.821353 
L 384.901876 31.072903 
L 384.9263 30.080549 
L 384.950711 31.397984 
L 384.999491 31.020496 
L 385.072559 32.164657 
L 385.096888 31.953616 
L 385.169792 37.064108 
L 385.218327 36.353949 
L 385.339427 35.089406 
L 385.484303 40.764358 
L 385.556559 39.191289 
L 385.700713 37.161433 
L 385.916049 34.715056 
L 385.93991 35.121743 
L 386.059015 38.339697 
L 386.106566 37.672898 
L 386.130322 37.771448 
L 386.154065 37.527178 
L 386.225216 37.619835 
L 386.29625 36.684469 
L 386.367168 38.97531 
L 386.414383 38.504865 
L 386.437971 38.642904 
L 386.461546 38.507268 
L 386.485109 37.397777 
L 386.532195 39.882876 
L 386.555719 39.905219 
L 386.57923 39.846157 
L 386.602729 39.648248 
L 386.626215 40.678929 
L 386.673149 39.209283 
L 386.696596 39.23138 
L 386.720032 39.25513 
L 386.743454 39.167381 
L 386.766864 38.981606 
L 386.813646 40.781728 
L 386.860377 39.556143 
L 386.976986 38.216409 
L 387.139714 42.230413 
L 387.162911 42.174657 
L 387.186096 42.284018 
L 387.209268 42.469727 
L 387.278711 42.269879 
L 387.532388 38.325953 
L 387.647207 36.132007 
L 387.670135 36.895095 
L 387.69305 36.834888 
L 387.715953 36.267014 
L 387.761723 37.558489 
L 387.78459 37.093064 
L 387.92154 37.917661 
L 388.126157 35.300073 
L 387.989853 38.342685 
L 388.148833 35.795868 
L 388.21679 35.584227 
L 388.28464 35.637791 
L 388.352384 34.718806 
L 388.510044 36.122877 
L 388.420023 34.645146 
L 388.554984 35.563705 
L 388.599878 35.50441 
L 388.734283 34.695245 
L 388.756643 34.52369 
L 388.778992 34.793882 
L 388.868272 35.68758 
L 388.890563 35.314613 
L 388.957369 33.933127 
L 389.024072 34.616654 
L 389.245677 36.122877 
L 389.267775 35.834998 
L 389.400129 37.856349 
L 389.510117 36.241763 
L 389.532081 36.670639 
L 389.575976 36.246064 
L 389.597907 36.573236 
L 389.641736 38.028783 
L 389.72926 37.397777 
L 389.772956 37.299368 
L 389.794788 38.536114 
L 389.882004 37.693405 
L 390.055913 35.254311 
L 390.077602 35.592843 
L 390.099281 34.530791 
L 390.120949 34.668136 
L 390.25073 33.470496 
L 390.272323 33.613856 
L 390.337036 33.448668 
L 390.358586 32.888325 
L 390.42317 33.954231 
L 390.444677 33.882254 
L 390.466174 34.11566 
L 390.487659 33.975872 
L 390.552052 35.478639 
L 390.61635 34.833814 
L 390.637761 34.739345 
L 390.723301 32.899984 
L 390.74466 33.79324 
L 390.936416 35.11596 
L 390.957671 34.51872 
L 390.978914 34.04438 
L 391.000147 35.497828 
L 391.042583 36.176761 
L 391.084977 35.498377 
L 391.127329 35.225289 
L 391.14849 35.579829 
L 391.190781 35.298074 
L 391.21191 35.371383 
L 391.338474 33.39922 
L 391.38058 34.215393 
L 391.464669 37.341287 
L 391.506653 36.167619 
L 391.674183 33.733048 
L 391.569553 36.348133 
L 391.73684 34.554057 
L 391.757706 36.140021 
L 391.841068 35.399987 
L 391.861884 35.37794 
L 391.903485 34.983404 
L 391.986568 35.100964 
L 392.02805 35.493989 
L 392.069493 34.726484 
L 392.110896 33.08504 
L 392.131582 35.016358 
L 392.172926 34.345958 
L 392.234868 35.565903 
L 392.296721 35.50569 
L 392.440704 33.635448 
L 392.625125 32.240771 
L 392.645568 32.590491 
L 392.768024 29.895478 
L 392.7884 30.006613 
L 392.829122 30.24295 
L 392.84947 29.993145 
L 392.951062 29.502178 
L 393.011904 30.789967 
L 393.07266 30.376705 
L 393.113117 30.589702 
L 393.133331 31.245893 
L 393.214095 30.411169 
L 393.234262 30.640799 
L 393.294708 30.078531 
L 393.435422 27.802665 
L 393.475543 28.023562 
L 393.555672 27.543547 
L 393.575682 27.02128 
L 393.615673 27.990916 
L 393.735425 32.631869 
L 393.755351 32.495368 
L 393.775269 32.411505 
L 393.795177 32.491361 
L 393.914436 34.474736 
L 394.033367 32.506053 
L 394.053157 32.470837 
L 394.191437 31.007088 
L 394.250565 32.258004 
L 394.309613 31.663398 
L 394.36858 30.519022 
L 394.447079 30.669062 
L 394.466681 31.281919 
L 394.50586 30.440021 
L 394.525436 30.463089 
L 394.545003 30.203677 
L 394.584111 31.099138 
L 394.603652 30.96355 
L 394.623184 31.275483 
L 394.662221 31.215847 
L 394.759661 32.114452 
L 394.701223 31.10554 
L 394.779123 31.918819 
L 394.915112 30.397223 
L 394.934504 30.399729 
L 395.011987 29.503398 
L 395.089331 27.732202 
L 395.127952 27.951463 
L 395.147249 27.92165 
L 395.166538 28.005049 
L 395.243608 26.858157 
L 395.282091 28.581164 
L 395.358956 28.56278 
L 395.378151 28.429216 
L 395.397337 28.656137 
L 395.416515 28.465105 
L 395.473998 31.072903 
L 395.531405 29.778871 
L 395.703172 26.299712 
L 395.855285 29.188939 
L 396.157921 25.193081 
L 396.176765 25.544552 
L 396.195602 25.870141 
L 396.270867 25.662046 
L 396.30845 24.83723 
L 396.346001 25.739384 
L 396.364765 27.524008 
L 396.45846 26.74616 
L 396.477174 26.835502 
L 396.607952 24.801233 
L 396.682506 25.397023 
L 396.719735 25.115007 
L 396.812667 24.555728 
L 396.775518 25.376558 
L 396.83123 24.755896 
L 396.849784 26.342922 
L 396.942439 25.857575 
L 397.053364 24.92527 
L 397.016421 26.640273 
L 397.071824 25.272414 
L 397.145586 26.728769 
L 397.200824 25.785138 
L 397.311092 24.599346 
L 397.347785 25.063637 
L 397.366121 25.015808 
L 397.384448 25.424508 
L 397.439384 24.651842 
L 397.475969 25.070171 
L 397.603775 24.778094 
L 397.676639 25.12676 
L 397.658434 24.68135 
L 397.694835 25.034452 
L 397.803856 23.829455 
L 397.930701 27.784276 
L 397.948792 29.388316 
L 398.039132 28.356669 
L 398.057177 28.958343 
L 398.129284 28.300599 
L 398.362806 25.855526 
L 398.398622 26.099495 
L 398.416518 28.330167 
L 398.50589 25.982905 
L 398.523743 26.674411 
L 398.595079 25.892144 
L 398.612894 26.182691 
L 398.666298 26.090554 
L 398.808386 29.263943 
L 398.861549 28.785252 
L 398.896955 27.515966 
L 398.967681 28.597332 
L 399.179169 32.951397 
L 399.196746 32.898632 
L 399.214317 32.33832 
L 399.249436 33.164669 
L 399.302062 32.971037 
L 399.354625 32.42333 
L 399.372131 33.189208 
L 399.389631 33.377782 
L 399.424609 35.323523 
L 399.49448 34.693639 
L 399.616485 33.500254 
L 399.720789 40.462175 
L 399.755501 39.677278 
L 399.894072 38.595689 
L 399.790185 40.415685 
L 399.911363 38.720402 
L 400.032203 39.906263 
L 400.049438 39.606821 
L 400.066667 38.885261 
L 400.135513 40.064563 
L 400.204249 40.778939 
L 400.238577 40.542998 
L 400.443975 37.767531 
L 400.461047 38.03964 
L 400.495173 36.898719 
L 400.563342 36.102204 
L 400.631405 40.306404 
L 400.682383 39.504098 
L 400.767212 38.705694 
L 400.784158 39.000299 
L 400.868789 39.634986 
L 400.885695 39.429066 
L 400.919488 38.733907 
L 400.953255 39.799484 
L 401.003856 39.028969 
L 401.054397 38.676699 
L 401.322964 48.28968 
L 401.339694 47.981814 
L 401.656352 42.953388 
L 401.706139 43.863735 
L 401.722723 44.242633 
L 401.788993 43.386856 
L 401.805544 43.722761 
L 401.838629 43.931853 
L 401.871688 43.869622 
L 402.020143 42.571691 
L 402.135258 45.771264 
L 402.151678 45.664921 
L 402.429874 42.560145 
L 402.446183 42.742636 
L 402.462486 42.370553 
L 402.478783 42.443552 
L 402.608937 41.771063 
L 402.625179 42.263373 
L 402.706297 41.428941 
L 402.722503 41.679909 
L 402.771083 40.784945 
L 402.803439 40.582418 
L 402.819609 42.052281 
L 402.916498 41.633216 
L 403.0775 46.983585 
L 403.125685 45.862187 
L 403.173816 44.041513 
L 403.205874 46.382791 
L 403.269918 44.885238 
L 403.333868 45.465366 
L 403.381769 44.941871 
L 403.397724 44.954523 
L 403.413674 45.798465 
L 403.509247 45.425105 
L 403.556955 44.666429 
L 403.60461 45.795219 
L 403.652213 45.6053 
L 403.668069 45.910248 
L 403.683919 46.398804 
L 403.763084 46.051831 
L 403.857891 45.539841 
L 403.794709 47.14675 
L 403.873672 45.971677 
L 404.015445 47.157934 
L 403.920981 45.910248 
L 404.046887 46.871213 
L 404.203757 45.450787 
L 404.266346 48.645579 
L 404.297607 48.347877 
L 404.406843 56.751192 
L 404.422426 56.493145 
L 404.438003 57.43986 
L 404.515805 56.008168 
L 404.531349 56.919921 
L 404.546887 56.661947 
L 404.56242 63.30766 
L 404.655498 63.059275 
L 404.68648 61.712214 
L 404.748378 64.238639 
L 404.763838 64.555913 
L 404.794743 64.256089 
L 404.871909 62.24989 
L 404.902736 62.763072 
L 405.041191 79.898304 
L 405.102585 79.412301 
L 405.13325 81.894016 
L 405.225113 81.701137 
L 405.316782 80.472707 
L 405.270972 81.878396 
L 405.332042 80.724534 
L 405.347296 83.603297 
L 405.423486 80.151422 
L 405.590634 75.992626 
L 405.772247 81.377269 
L 405.696667 75.860948 
L 405.817531 80.612692 
L 405.847695 80.407204 
L 405.877837 80.812984 
L 405.907959 82.952395 
L 405.953102 80.492669 
L 406.088251 75.412111 
L 406.103241 75.697701 
L 406.163152 80.389427 
L 406.22298 78.360112 
L 406.357292 75.702019 
L 406.387082 76.730203 
L 406.416853 76.231854 
L 406.46147 73.726433 
L 406.53573 74.065802 
L 406.550567 74.298532 
L 406.580225 73.185213 
L 406.860973 65.94396 
L 406.978641 63.182389 
L 406.993327 63.355184 
L 407.022685 63.801922 
L 407.066683 63.304268 
L 407.095991 62.585039 
L 407.154547 63.551518 
L 407.213025 66.784829 
L 407.256831 65.289215 
L 407.417077 61.173604 
L 407.344311 65.513277 
L 407.431615 61.286688 
L 407.460678 61.507599 
L 407.576733 59.429669 
L 407.591218 62.692659 
L 407.692479 61.624655 
L 407.865521 58.108383 
L 407.937418 58.525109 
L 407.951783 58.678461 
L 407.994851 57.972438 
L 408.066534 56.277521 
L 408.080857 58.128678 
L 408.095175 58.722354 
L 408.166693 57.138384 
L 408.180983 58.322106 
L 408.195267 57.953681 
L 408.223823 59.380309 
L 408.32362 60.881933 
L 408.36632 58.278377 
L 408.380543 61.350569 
L 408.423187 60.334868 
L 408.63578 64.968426 
L 408.649916 64.943913 
L 408.706414 62.133467 
L 408.734635 62.6116 
L 408.762838 66.047446 
L 408.847337 63.233117 
L 408.917627 60.845704 
L 408.987804 61.795956 
L 409.015843 63.387471 
L 409.099851 62.371257 
L 409.113836 62.528254 
L 409.127817 61.844598 
L 409.197655 62.179331 
L 409.281312 59.559638 
L 409.336994 60.403535 
L 409.350904 59.842877 
L 409.53132 55.638961 
L 409.614337 57.764901 
L 409.669594 55.979621 
L 409.697196 54.767302 
L 409.738566 55.6928 
L 409.821187 63.98838 
L 409.862439 63.203094 
L 409.889919 64.252598 
L 409.931105 62.982351 
L 409.972253 63.375997 
L 410.027056 64.045564 
L 410.040746 63.351787 
L 410.08179 63.660622 
L 410.272816 61.464261 
L 410.286428 61.702519 
L 410.340836 62.223618 
L 410.368014 60.898092 
L 410.381597 60.62603 
L 410.40875 63.290704 
L 410.490107 61.488331 
L 410.652364 56.523521 
L 410.665858 56.683107 
L 410.733265 55.065661 
L 410.787116 53.21917 
L 410.8409 54.271967 
L 410.934861 58.839193 
L 410.96167 58.054445 
L 411.162211 53.874344 
L 411.175547 53.990251 
L 411.335266 59.621781 
L 411.375104 57.64929 
L 411.467917 56.367795 
L 411.48116 57.697561 
L 411.520864 59.026404 
L 411.560532 58.843639 
L 411.573747 56.751192 
L 411.666136 58.626528 
L 411.863454 62.701401 
L 411.889696 62.414563 
L 411.968325 67.798848 
L 412.03374 66.911312 
L 412.046812 66.815462 
L 412.059879 66.939696 
L 412.125157 74.797166 
L 412.203361 73.721784 
L 412.294421 72.837179 
L 412.268423 74.065802 
L 412.320403 73.127523 
L 412.359347 76.661542 
L 412.424176 72.961868 
L 412.450081 71.458861 
L 412.540625 72.595381 
L 412.579372 73.157212 
L 412.630981 73.622575 
L 412.643874 72.825302 
L 412.759736 70.248517 
L 412.682529 73.185213 
L 412.77259 70.371672 
L 412.798288 72.189062 
L 412.849637 69.630292 
L 412.862465 69.78106 
L 413.003321 66.365442 
L 413.016104 66.384517 
L 413.041657 67.90783 
L 413.118228 65.640893 
L 413.181934 67.851348 
L 413.232832 66.466058 
L 413.385167 63.801922 
L 413.397838 63.879054 
L 413.410505 63.862233 
L 413.435827 64.882931 
L 413.486428 63.56989 
L 413.511706 62.727639 
L 413.549596 64.698447 
L 413.587453 63.831202 
L 413.637877 64.686067 
L 413.650474 63.719388 
L 413.700825 64.191136 
L 413.713404 64.100676 
L 413.725979 64.165451 
L 413.73855 65.551828 
L 413.826448 63.47131 
L 413.851529 63.351787 
L 413.901648 60.310461 
L 413.989216 61.197462 
L 414.001712 61.174796 
L 414.138924 57.772073 
L 414.151376 57.916199 
L 414.17627 57.243041 
L 414.350129 54.671492 
L 414.424427 54.323623 
L 414.486246 56.742847 
L 414.510948 55.491688 
L 414.572643 56.526284 
L 414.597297 57.422468 
L 414.646562 55.529199 
L 414.781753 53.697279 
L 414.855316 55.400434 
L 414.81855 53.585869 
L 414.904289 54.257776 
L 414.928755 54.507658 
L 415.00207 55.19014 
L 414.977646 53.51296 
L 415.026481 54.152177 
L 415.075261 53.08165 
L 415.099631 56.1267 
L 415.111811 55.929722 
L 415.123987 56.552542 
L 415.196973 55.054098 
L 415.245562 53.447447 
L 415.318344 53.781084 
L 415.366798 55.268844 
L 415.439377 54.447929 
L 415.463543 54.827612 
L 415.475621 54.715929 
L 415.584172 51.784268 
L 415.608257 52.081219 
L 415.644361 52.609539 
L 415.776483 50.327944 
L 415.932111 46.355106 
L 415.956004 46.286372 
L 416.01568 44.587394 
L 416.051446 46.727881 
L 416.063361 46.705293 
L 416.182336 48.979505 
L 416.194216 48.879603 
L 416.229835 48.144366 
L 416.241702 47.397341 
L 416.277282 48.256317 
L 416.336518 48.188617 
L 416.37202 48.419957 
L 416.360189 48.077163 
L 416.395673 48.23696 
L 416.442939 48.369457 
L 416.478354 47.229026 
L 416.619729 54.511557 
L 416.772366 50.863955 
L 416.807514 49.69639 
L 416.842634 51.409394 
L 416.924469 57.515216 
L 416.971163 55.464586 
L 416.982828 55.626859 
L 416.994491 54.999969 
L 417.00615 55.178533 
L 417.134196 52.052248 
L 417.250275 54.421993 
L 417.203881 51.135109 
L 417.285038 54.268096 
L 417.29662 54.262613 
L 417.331346 54.688476 
L 417.757364 46.806032 
L 417.791723 49.887954 
L 417.871789 48.419957 
L 417.883215 48.562147 
L 417.906058 47.72677 
L 417.974515 48.355429 
L 418.099739 45.6597 
L 418.111105 46.17003 
L 418.224603 49.067305 
L 418.190585 45.956372 
L 418.235937 48.25067 
L 418.349109 46.875082 
L 418.371708 47.77232 
L 418.405584 49.669154 
L 418.473258 47.535717 
L 418.484527 47.365651 
L 418.495793 48.171178 
L 418.552078 47.987148 
L 418.653207 54.154427 
L 418.664429 53.76329 
L 418.675648 53.492473 
L 418.787681 59.661629 
L 418.798868 59.209063 
L 418.944042 52.747262 
L 418.955189 53.211671 
L 419.010882 55.176876 
L 419.066503 54.313286 
L 419.122053 53.450909 
L 419.155349 54.805311 
L 419.210786 55.834546 
L 419.244014 52.752191 
L 419.299337 60.904005 
L 419.387708 56.864048 
L 419.398742 55.279152 
L 419.4759 58.482577 
L 419.508925 59.036836 
L 419.530928 58.888493 
L 419.651746 55.297782 
L 419.673677 55.595952 
L 419.717506 54.697625 
L 419.728456 54.972278 
L 419.739403 54.743406 
L 419.783166 55.898531 
L 419.794099 56.311816 
L 419.826884 54.882445 
L 419.837806 54.98645 
L 419.914188 52.257098 
L 419.968664 52.442157 
L 420.066549 54.145428 
L 420.001317 52.03536 
L 420.077411 53.194181 
L 420.250842 47.14883 
L 420.261658 47.467638 
L 420.272472 47.411755 
L 420.369675 50.217325 
L 420.391246 49.763593 
L 420.552688 45.996532 
L 420.563429 46.200088 
L 420.606369 44.969127 
L 420.756322 42.167723 
L 420.649265 45.674869 
L 420.788388 42.818288 
L 420.873781 45.821441 
L 420.82043 42.655351 
L 420.959006 45.520773 
L 421.022815 41.967019 
L 421.075917 44.229298 
L 421.107748 44.048852 
L 421.09714 44.695391 
L 421.128955 44.448339 
L 421.181928 45.765278 
L 421.234837 44.106915 
L 421.245411 43.280499 
L 421.3088 46.468281 
L 421.319356 46.951513 
L 421.372097 45.597111 
L 421.382638 45.812198 
L 421.498415 42.286936 
L 421.508925 42.419877 
L 421.519432 42.871942 
L 421.582423 41.610335 
L 421.624366 40.457289 
L 421.666269 43.193629 
L 421.676738 43.1731 
L 421.687205 43.114352 
L 421.770849 40.077789 
L 421.81261 40.505753 
L 421.823044 40.472586 
L 421.833476 40.739499 
L 421.843905 40.675508 
L 421.864756 41.53498 
L 421.937654 40.464937 
L 421.979255 38.513676 
L 422.031201 41.768411 
L 422.072713 40.828951 
L 422.114185 41.846958 
L 422.124547 45.160558 
L 422.228029 43.432376 
L 422.248696 42.240051 
L 422.279678 43.681756 
L 422.320953 43.611347 
L 422.372491 46.249655 
L 422.434257 44.807618 
L 422.516474 42.518522 
L 422.547265 44.103831 
L 422.578035 43.765225 
L 422.721338 46.873276 
L 422.731556 46.971425 
L 422.762195 46.671696 
L 422.792813 45.709459 
L 422.803014 47.989282 
L 422.853983 47.895782 
L 422.86417 48.303412 
L 422.93541 47.001444 
L 422.976066 46.327697 
L 422.965905 47.010507 
L 422.996379 46.884626 
L 423.128187 49.657088 
L 423.239405 46.829977 
L 423.289865 48.205529 
L 423.320113 48.982528 
L 423.350339 47.207135 
L 423.36041 47.453987 
L 423.440892 46.430343 
L 423.471035 46.597954 
L 423.601411 52.203721 
L 423.611424 52.216754 
L 423.661453 53.277657 
L 423.711424 52.358935 
L 423.731397 50.276447 
L 423.761338 53.076671 
L 423.811195 51.76303 
L 423.960422 57.647504 
L 423.841081 51.549325 
L 423.970352 57.138384 
L 424.06953 54.973267 
L 424.079435 56.25011 
L 424.089338 58.04468 
L 424.168481 54.135145 
L 424.178364 55.118905 
L 424.217872 55.544953 
L 424.227744 54.744715 
L 424.24748 55.137444 
L 424.522849 47.74583 
L 424.562045 48.053634 
L 424.571839 48.052565 
L 424.58163 48.537186 
L 424.620773 46.129407 
L 424.640331 46.43976 
L 424.659881 45.853434 
L 424.679422 47.034341 
L 424.708716 46.491472 
L 424.737991 50.34656 
L 424.825697 47.447426 
L 424.835431 47.481295 
L 424.845163 47.408872 
L 424.922941 45.463636 
L 424.961778 45.67661 
L 424.981183 48.475406 
L 425.068399 46.030706 
L 425.203722 43.004967 
L 425.213372 43.01208 
L 425.28086 44.998113 
L 425.329002 43.555548 
L 425.444324 40.666102 
L 425.463515 41.102234 
L 425.511455 42.631523 
L 425.578481 41.999717 
L 425.635851 42.508351 
L 425.712225 40.02932 
L 425.759891 40.27576 
L 425.855065 38.059388 
L 425.893077 40.477474 
L 425.959517 38.113162 
L 425.98796 36.9837 
L 426.006912 39.198649 
L 426.054256 40.398718 
L 426.025856 38.385749 
L 426.092093 38.902076 
L 426.195976 36.402011 
L 426.214838 38.28237 
L 426.252535 41.415601 
L 426.309021 38.19498 
L 426.337236 40.578155 
L 426.403 41.273347 
L 426.356036 40.117289 
L 426.431154 41.153388 
L 426.515507 50.485219 
L 426.60904 48.957522 
L 426.618383 49.079709 
L 426.655732 48.161791 
L 426.674394 48.372696 
L 426.683722 48.421308 
L 426.693048 48.226211 
L 426.730333 46.114532 
L 426.823405 46.967028 
L 426.851288 49.994357 
L 426.971907 49.469084 
L 427.184491 45.347193 
L 427.248984 48.880699 
L 427.294992 46.517231 
L 427.340951 48.514141 
L 427.322573 45.795219 
L 427.405213 46.567277 
L 427.579158 44.081307 
L 427.588294 44.185521 
L 427.679545 46.544543 
L 427.715992 45.470556 
L 427.743308 43.117805 
L 427.806976 45.951606 
L 427.82515 44.749522 
L 427.879626 48.249594 
L 427.943095 47.396031 
L 428.132947 43.3268 
L 427.997423 48.580609 
L 428.150985 43.706119 
L 428.241062 45.280276 
L 428.178028 43.608544 
L 428.259055 44.943573 
L 428.366857 40.208443 
L 428.393766 40.395326 
L 428.590587 47.507575 
L 428.679757 46.05787 
L 428.715374 44.002476 
L 428.742068 48.071546 
L 428.777633 47.716185 
L 428.830927 47.750067 
L 428.910746 46.421183 
L 428.919605 46.983585 
L 428.990418 44.432765 
L 429.043451 42.800043 
L 429.114062 43.257142 
L 429.140511 44.61436 
L 429.184557 42.865545 
L 429.193361 43.109519 
L 429.439149 36.526998 
L 429.447901 36.593449 
L 429.474148 38.75811 
L 429.535329 36.195987 
L 429.552793 37.02656 
L 429.744438 29.689807 
L 429.770506 30.067517 
L 429.779192 30.098399 
L 429.787876 30.565128 
L 429.839944 28.990608 
L 429.857287 29.155575 
L 429.935241 27.382409 
L 429.883287 29.20707 
L 429.978488 28.268266 
L 430.004416 27.583379 
L 430.021693 29.058091 
L 430.056225 28.062079 
L 430.064854 28.924611 
L 430.082107 27.540098 
L 430.159658 27.926447 
L 430.262845 26.860973 
L 430.297187 26.887871 
L 430.417167 29.22642 
L 430.425725 29.208128 
L 430.434281 29.427697 
L 430.442835 29.309846 
L 430.511206 34.425678 
L 430.57947 33.315603 
L 430.613561 33.586238 
L 430.630597 32.67951 
L 430.664649 36.953884 
L 430.741167 35.459643 
L 430.749661 35.188323 
L 430.783619 37.077145 
L 430.792104 37.054717 
L 430.859928 38.615772 
L 430.834507 36.871457 
L 430.902264 37.672117 
L 430.944559 35.94377 
L 430.995258 38.279984 
L 431.113327 40.48874 
L 431.130167 39.591713 
L 431.138585 38.788993 
L 431.163829 43.05341 
L 431.197465 41.948349 
L 431.289829 44.096243 
L 431.314985 43.500308 
L 431.432188 40.017371 
L 431.440548 40.194111 
" style="fill:none;stroke:#1f77b4;stroke-linecap:square;stroke-width:1.5;"/>
   </g>
   <g id="patch_3">
    <path d="M 41.692054 297.448 
L 41.692054 10.8 
" style="fill:none;stroke:#000000;stroke-linecap:square;stroke-linejoin:miter;stroke-width:0.8;"/>
   </g>
   <g id="patch_4">
    <path d="M 450 297.448 
L 450 10.8 
" style="fill:none;stroke:#000000;stroke-linecap:square;stroke-linejoin:miter;stroke-width:0.8;"/>
   </g>
   <g id="patch_5">
    <path d="M 41.692054 297.448 
L 450 297.448 
" style="fill:none;stroke:#000000;stroke-linecap:square;stroke-linejoin:miter;stroke-width:0.8;"/>
   </g>
   <g id="patch_6">
    <path d="M 41.692054 10.8 
L 450 10.8 
" style="fill:none;stroke:#000000;stroke-linecap:square;stroke-linejoin:miter;stroke-width:0.8;"/>
   </g>
  </g>
 </g>
 <defs>
  <clipPath id="p41eb54b322">
   <rect height="286.648" width="408.307946" x="41.692054" y="10.8"/>
  </clipPath>
 </defs>
</svg>
