<?xml version="1.0" encoding="utf-8" standalone="no"?>
<!DOCTYPE svg PUBLIC "-//W3C//DTD SVG 1.1//EN"
  "http://www.w3.org/Graphics/SVG/1.1/DTD/svg11.dtd">
<!-- Created with matplotlib (https://matplotlib.org/) -->
<svg height="345.6pt" version="1.1" viewBox="0 0 460.8 345.6" width="460.8pt" xmlns="http://www.w3.org/2000/svg" xmlns:xlink="http://www.w3.org/1999/xlink">
 <metadata>
  <rdf:RDF xmlns:cc="http://creativecommons.org/ns#" xmlns:dc="http://purl.org/dc/elements/1.1/" xmlns:rdf="http://www.w3.org/1999/02/22-rdf-syntax-ns#">
   <cc:Work>
    <dc:type rdf:resource="http://purl.org/dc/dcmitype/StillImage"/>
    <dc:date>2022-05-06T19:46:55.194076</dc:date>
    <dc:format>image/svg+xml</dc:format>
    <dc:creator>
     <cc:Agent>
      <dc:title>Matplotlib v3.3.4, https://matplotlib.org/</dc:title>
     </cc:Agent>
    </dc:creator>
   </cc:Work>
  </rdf:RDF>
 </metadata>
 <defs>
  <style type="text/css">*{stroke-linecap:butt;stroke-linejoin:round;}</style>
 </defs>
 <g id="figure_1">
  <g id="patch_1">
   <path d="M 0 345.6 
L 460.8 345.6 
L 460.8 0 
L 0 0 
z
" style="fill:#ffffff;"/>
  </g>
  <g id="axes_1">
   <g id="patch_2">
    <path d="M 41.692054 297.448 
L 450 297.448 
L 450 10.8 
L 41.692054 10.8 
z
" style="fill:#ffffff;"/>
   </g>
   <g id="matplotlib.axis_1">
    <g id="xtick_1">
     <g id="line2d_1">
      <defs>
       <path d="M 0 0 
L 0 3.5 
" id="md3ca75d6f7" style="stroke:#000000;stroke-width:0.8;"/>
      </defs>
      <g>
       <use style="stroke:#000000;stroke-width:0.8;" x="60.251506" xlink:href="#md3ca75d6f7" y="297.448"/>
      </g>
     </g>
     <g id="text_1">
      <!-- $\mathdefault{10^{0}}$ -->
      <g transform="translate(51.451506 312.046437)scale(0.1 -0.1)">
       <defs>
        <path d="M 12.40625 8.296875 
L 28.515625 8.296875 
L 28.515625 63.921875 
L 10.984375 60.40625 
L 10.984375 69.390625 
L 28.421875 72.90625 
L 38.28125 72.90625 
L 38.28125 8.296875 
L 54.390625 8.296875 
L 54.390625 0 
L 12.40625 0 
z
" id="DejaVuSans-49"/>
        <path d="M 31.78125 66.40625 
Q 24.171875 66.40625 20.328125 58.90625 
Q 16.5 51.421875 16.5 36.375 
Q 16.5 21.390625 20.328125 13.890625 
Q 24.171875 6.390625 31.78125 6.390625 
Q 39.453125 6.390625 43.28125 13.890625 
Q 47.125 21.390625 47.125 36.375 
Q 47.125 51.421875 43.28125 58.90625 
Q 39.453125 66.40625 31.78125 66.40625 
z
M 31.78125 74.21875 
Q 44.046875 74.21875 50.515625 64.515625 
Q 56.984375 54.828125 56.984375 36.375 
Q 56.984375 17.96875 50.515625 8.265625 
Q 44.046875 -1.421875 31.78125 -1.421875 
Q 19.53125 -1.421875 13.0625 8.265625 
Q 6.59375 17.96875 6.59375 36.375 
Q 6.59375 54.828125 13.0625 64.515625 
Q 19.53125 74.21875 31.78125 74.21875 
z
" id="DejaVuSans-48"/>
       </defs>
       <use transform="translate(0 0.765625)" xlink:href="#DejaVuSans-49"/>
       <use transform="translate(63.623047 0.765625)" xlink:href="#DejaVuSans-48"/>
       <use transform="translate(128.203125 39.046875)scale(0.7)" xlink:href="#DejaVuSans-48"/>
      </g>
     </g>
    </g>
    <g id="xtick_2">
     <g id="line2d_2">
      <g>
       <use style="stroke:#000000;stroke-width:0.8;" x="153.049774" xlink:href="#md3ca75d6f7" y="297.448"/>
      </g>
     </g>
     <g id="text_2">
      <!-- $\mathdefault{10^{1}}$ -->
      <g transform="translate(144.249774 312.046437)scale(0.1 -0.1)">
       <use transform="translate(0 0.684375)" xlink:href="#DejaVuSans-49"/>
       <use transform="translate(63.623047 0.684375)" xlink:href="#DejaVuSans-48"/>
       <use transform="translate(128.203125 38.965625)scale(0.7)" xlink:href="#DejaVuSans-49"/>
      </g>
     </g>
    </g>
    <g id="xtick_3">
     <g id="line2d_3">
      <g>
       <use style="stroke:#000000;stroke-width:0.8;" x="245.848042" xlink:href="#md3ca75d6f7" y="297.448"/>
      </g>
     </g>
     <g id="text_3">
      <!-- $\mathdefault{10^{2}}$ -->
      <g transform="translate(237.048042 312.046437)scale(0.1 -0.1)">
       <defs>
        <path d="M 19.1875 8.296875 
L 53.609375 8.296875 
L 53.609375 0 
L 7.328125 0 
L 7.328125 8.296875 
Q 12.9375 14.109375 22.625 23.890625 
Q 32.328125 33.6875 34.8125 36.53125 
Q 39.546875 41.84375 41.421875 45.53125 
Q 43.3125 49.21875 43.3125 52.78125 
Q 43.3125 58.59375 39.234375 62.25 
Q 35.15625 65.921875 28.609375 65.921875 
Q 23.96875 65.921875 18.8125 64.3125 
Q 13.671875 62.703125 7.8125 59.421875 
L 7.8125 69.390625 
Q 13.765625 71.78125 18.9375 73 
Q 24.125 74.21875 28.421875 74.21875 
Q 39.75 74.21875 46.484375 68.546875 
Q 53.21875 62.890625 53.21875 53.421875 
Q 53.21875 48.921875 51.53125 44.890625 
Q 49.859375 40.875 45.40625 35.40625 
Q 44.1875 33.984375 37.640625 27.21875 
Q 31.109375 20.453125 19.1875 8.296875 
z
" id="DejaVuSans-50"/>
       </defs>
       <use transform="translate(0 0.765625)" xlink:href="#DejaVuSans-49"/>
       <use transform="translate(63.623047 0.765625)" xlink:href="#DejaVuSans-48"/>
       <use transform="translate(128.203125 39.046875)scale(0.7)" xlink:href="#DejaVuSans-50"/>
      </g>
     </g>
    </g>
    <g id="xtick_4">
     <g id="line2d_4">
      <g>
       <use style="stroke:#000000;stroke-width:0.8;" x="338.64631" xlink:href="#md3ca75d6f7" y="297.448"/>
      </g>
     </g>
     <g id="text_4">
      <!-- $\mathdefault{10^{3}}$ -->
      <g transform="translate(329.84631 312.046437)scale(0.1 -0.1)">
       <defs>
        <path d="M 40.578125 39.3125 
Q 47.65625 37.796875 51.625 33 
Q 55.609375 28.21875 55.609375 21.1875 
Q 55.609375 10.40625 48.1875 4.484375 
Q 40.765625 -1.421875 27.09375 -1.421875 
Q 22.515625 -1.421875 17.65625 -0.515625 
Q 12.796875 0.390625 7.625 2.203125 
L 7.625 11.71875 
Q 11.71875 9.328125 16.59375 8.109375 
Q 21.484375 6.890625 26.8125 6.890625 
Q 36.078125 6.890625 40.9375 10.546875 
Q 45.796875 14.203125 45.796875 21.1875 
Q 45.796875 27.640625 41.28125 31.265625 
Q 36.765625 34.90625 28.71875 34.90625 
L 20.21875 34.90625 
L 20.21875 43.015625 
L 29.109375 43.015625 
Q 36.375 43.015625 40.234375 45.921875 
Q 44.09375 48.828125 44.09375 54.296875 
Q 44.09375 59.90625 40.109375 62.90625 
Q 36.140625 65.921875 28.71875 65.921875 
Q 24.65625 65.921875 20.015625 65.03125 
Q 15.375 64.15625 9.8125 62.3125 
L 9.8125 71.09375 
Q 15.4375 72.65625 20.34375 73.4375 
Q 25.25 74.21875 29.59375 74.21875 
Q 40.828125 74.21875 47.359375 69.109375 
Q 53.90625 64.015625 53.90625 55.328125 
Q 53.90625 49.265625 50.4375 45.09375 
Q 46.96875 40.921875 40.578125 39.3125 
z
" id="DejaVuSans-51"/>
       </defs>
       <use transform="translate(0 0.765625)" xlink:href="#DejaVuSans-49"/>
       <use transform="translate(63.623047 0.765625)" xlink:href="#DejaVuSans-48"/>
       <use transform="translate(128.203125 39.046875)scale(0.7)" xlink:href="#DejaVuSans-51"/>
      </g>
     </g>
    </g>
    <g id="xtick_5">
     <g id="line2d_5">
      <g>
       <use style="stroke:#000000;stroke-width:0.8;" x="431.444578" xlink:href="#md3ca75d6f7" y="297.448"/>
      </g>
     </g>
     <g id="text_5">
      <!-- $\mathdefault{10^{4}}$ -->
      <g transform="translate(422.644578 312.046437)scale(0.1 -0.1)">
       <defs>
        <path d="M 37.796875 64.3125 
L 12.890625 25.390625 
L 37.796875 25.390625 
z
M 35.203125 72.90625 
L 47.609375 72.90625 
L 47.609375 25.390625 
L 58.015625 25.390625 
L 58.015625 17.1875 
L 47.609375 17.1875 
L 47.609375 0 
L 37.796875 0 
L 37.796875 17.1875 
L 4.890625 17.1875 
L 4.890625 26.703125 
z
" id="DejaVuSans-52"/>
       </defs>
       <use transform="translate(0 0.684375)" xlink:href="#DejaVuSans-49"/>
       <use transform="translate(63.623047 0.684375)" xlink:href="#DejaVuSans-48"/>
       <use transform="translate(128.203125 38.965625)scale(0.7)" xlink:href="#DejaVuSans-52"/>
      </g>
     </g>
    </g>
    <g id="xtick_6">
     <g id="line2d_6">
      <defs>
       <path d="M 0 0 
L 0 2 
" id="mdaec7760ca" style="stroke:#000000;stroke-width:0.6;"/>
      </defs>
      <g>
       <use style="stroke:#000000;stroke-width:0.6;" x="45.876872" xlink:href="#mdaec7760ca" y="297.448"/>
      </g>
     </g>
    </g>
    <g id="xtick_7">
     <g id="line2d_7">
      <g>
       <use style="stroke:#000000;stroke-width:0.6;" x="51.258425" xlink:href="#mdaec7760ca" y="297.448"/>
      </g>
     </g>
    </g>
    <g id="xtick_8">
     <g id="line2d_8">
      <g>
       <use style="stroke:#000000;stroke-width:0.6;" x="56.00529" xlink:href="#mdaec7760ca" y="297.448"/>
      </g>
     </g>
    </g>
    <g id="xtick_9">
     <g id="line2d_9">
      <g>
       <use style="stroke:#000000;stroke-width:0.6;" x="88.186568" xlink:href="#mdaec7760ca" y="297.448"/>
      </g>
     </g>
    </g>
    <g id="xtick_10">
     <g id="line2d_10">
      <g>
       <use style="stroke:#000000;stroke-width:0.6;" x="104.527532" xlink:href="#mdaec7760ca" y="297.448"/>
      </g>
     </g>
    </g>
    <g id="xtick_11">
     <g id="line2d_11">
      <g>
       <use style="stroke:#000000;stroke-width:0.6;" x="116.12163" xlink:href="#mdaec7760ca" y="297.448"/>
      </g>
     </g>
    </g>
    <g id="xtick_12">
     <g id="line2d_12">
      <g>
       <use style="stroke:#000000;stroke-width:0.6;" x="125.114712" xlink:href="#mdaec7760ca" y="297.448"/>
      </g>
     </g>
    </g>
    <g id="xtick_13">
     <g id="line2d_13">
      <g>
       <use style="stroke:#000000;stroke-width:0.6;" x="132.462594" xlink:href="#mdaec7760ca" y="297.448"/>
      </g>
     </g>
    </g>
    <g id="xtick_14">
     <g id="line2d_14">
      <g>
       <use style="stroke:#000000;stroke-width:0.6;" x="138.67514" xlink:href="#mdaec7760ca" y="297.448"/>
      </g>
     </g>
    </g>
    <g id="xtick_15">
     <g id="line2d_15">
      <g>
       <use style="stroke:#000000;stroke-width:0.6;" x="144.056693" xlink:href="#mdaec7760ca" y="297.448"/>
      </g>
     </g>
    </g>
    <g id="xtick_16">
     <g id="line2d_16">
      <g>
       <use style="stroke:#000000;stroke-width:0.6;" x="148.803558" xlink:href="#mdaec7760ca" y="297.448"/>
      </g>
     </g>
    </g>
    <g id="xtick_17">
     <g id="line2d_17">
      <g>
       <use style="stroke:#000000;stroke-width:0.6;" x="180.984836" xlink:href="#mdaec7760ca" y="297.448"/>
      </g>
     </g>
    </g>
    <g id="xtick_18">
     <g id="line2d_18">
      <g>
       <use style="stroke:#000000;stroke-width:0.6;" x="197.3258" xlink:href="#mdaec7760ca" y="297.448"/>
      </g>
     </g>
    </g>
    <g id="xtick_19">
     <g id="line2d_19">
      <g>
       <use style="stroke:#000000;stroke-width:0.6;" x="208.919899" xlink:href="#mdaec7760ca" y="297.448"/>
      </g>
     </g>
    </g>
    <g id="xtick_20">
     <g id="line2d_20">
      <g>
       <use style="stroke:#000000;stroke-width:0.6;" x="217.91298" xlink:href="#mdaec7760ca" y="297.448"/>
      </g>
     </g>
    </g>
    <g id="xtick_21">
     <g id="line2d_21">
      <g>
       <use style="stroke:#000000;stroke-width:0.6;" x="225.260862" xlink:href="#mdaec7760ca" y="297.448"/>
      </g>
     </g>
    </g>
    <g id="xtick_22">
     <g id="line2d_22">
      <g>
       <use style="stroke:#000000;stroke-width:0.6;" x="231.473409" xlink:href="#mdaec7760ca" y="297.448"/>
      </g>
     </g>
    </g>
    <g id="xtick_23">
     <g id="line2d_23">
      <g>
       <use style="stroke:#000000;stroke-width:0.6;" x="236.854961" xlink:href="#mdaec7760ca" y="297.448"/>
      </g>
     </g>
    </g>
    <g id="xtick_24">
     <g id="line2d_24">
      <g>
       <use style="stroke:#000000;stroke-width:0.6;" x="241.601826" xlink:href="#mdaec7760ca" y="297.448"/>
      </g>
     </g>
    </g>
    <g id="xtick_25">
     <g id="line2d_25">
      <g>
       <use style="stroke:#000000;stroke-width:0.6;" x="273.783104" xlink:href="#mdaec7760ca" y="297.448"/>
      </g>
     </g>
    </g>
    <g id="xtick_26">
     <g id="line2d_26">
      <g>
       <use style="stroke:#000000;stroke-width:0.6;" x="290.124068" xlink:href="#mdaec7760ca" y="297.448"/>
      </g>
     </g>
    </g>
    <g id="xtick_27">
     <g id="line2d_27">
      <g>
       <use style="stroke:#000000;stroke-width:0.6;" x="301.718167" xlink:href="#mdaec7760ca" y="297.448"/>
      </g>
     </g>
    </g>
    <g id="xtick_28">
     <g id="line2d_28">
      <g>
       <use style="stroke:#000000;stroke-width:0.6;" x="310.711248" xlink:href="#mdaec7760ca" y="297.448"/>
      </g>
     </g>
    </g>
    <g id="xtick_29">
     <g id="line2d_29">
      <g>
       <use style="stroke:#000000;stroke-width:0.6;" x="318.05913" xlink:href="#mdaec7760ca" y="297.448"/>
      </g>
     </g>
    </g>
    <g id="xtick_30">
     <g id="line2d_30">
      <g>
       <use style="stroke:#000000;stroke-width:0.6;" x="324.271677" xlink:href="#mdaec7760ca" y="297.448"/>
      </g>
     </g>
    </g>
    <g id="xtick_31">
     <g id="line2d_31">
      <g>
       <use style="stroke:#000000;stroke-width:0.6;" x="329.653229" xlink:href="#mdaec7760ca" y="297.448"/>
      </g>
     </g>
    </g>
    <g id="xtick_32">
     <g id="line2d_32">
      <g>
       <use style="stroke:#000000;stroke-width:0.6;" x="334.400094" xlink:href="#mdaec7760ca" y="297.448"/>
      </g>
     </g>
    </g>
    <g id="xtick_33">
     <g id="line2d_33">
      <g>
       <use style="stroke:#000000;stroke-width:0.6;" x="366.581372" xlink:href="#mdaec7760ca" y="297.448"/>
      </g>
     </g>
    </g>
    <g id="xtick_34">
     <g id="line2d_34">
      <g>
       <use style="stroke:#000000;stroke-width:0.6;" x="382.922336" xlink:href="#mdaec7760ca" y="297.448"/>
      </g>
     </g>
    </g>
    <g id="xtick_35">
     <g id="line2d_35">
      <g>
       <use style="stroke:#000000;stroke-width:0.6;" x="394.516435" xlink:href="#mdaec7760ca" y="297.448"/>
      </g>
     </g>
    </g>
    <g id="xtick_36">
     <g id="line2d_36">
      <g>
       <use style="stroke:#000000;stroke-width:0.6;" x="403.509516" xlink:href="#mdaec7760ca" y="297.448"/>
      </g>
     </g>
    </g>
    <g id="xtick_37">
     <g id="line2d_37">
      <g>
       <use style="stroke:#000000;stroke-width:0.6;" x="410.857399" xlink:href="#mdaec7760ca" y="297.448"/>
      </g>
     </g>
    </g>
    <g id="xtick_38">
     <g id="line2d_38">
      <g>
       <use style="stroke:#000000;stroke-width:0.6;" x="417.069945" xlink:href="#mdaec7760ca" y="297.448"/>
      </g>
     </g>
    </g>
    <g id="xtick_39">
     <g id="line2d_39">
      <g>
       <use style="stroke:#000000;stroke-width:0.6;" x="422.451497" xlink:href="#mdaec7760ca" y="297.448"/>
      </g>
     </g>
    </g>
    <g id="xtick_40">
     <g id="line2d_40">
      <g>
       <use style="stroke:#000000;stroke-width:0.6;" x="427.198362" xlink:href="#mdaec7760ca" y="297.448"/>
      </g>
     </g>
    </g>
    <g id="text_6">
     <!-- Number of Particles -->
     <g transform="translate(186.851964 327.24425)scale(0.12 -0.12)">
      <defs>
       <path d="M 9.8125 72.90625 
L 23.09375 72.90625 
L 55.421875 11.921875 
L 55.421875 72.90625 
L 64.984375 72.90625 
L 64.984375 0 
L 51.703125 0 
L 19.390625 60.984375 
L 19.390625 0 
L 9.8125 0 
z
" id="DejaVuSans-78"/>
       <path d="M 8.5 21.578125 
L 8.5 54.6875 
L 17.484375 54.6875 
L 17.484375 21.921875 
Q 17.484375 14.15625 20.5 10.265625 
Q 23.53125 6.390625 29.59375 6.390625 
Q 36.859375 6.390625 41.078125 11.03125 
Q 45.3125 15.671875 45.3125 23.6875 
L 45.3125 54.6875 
L 54.296875 54.6875 
L 54.296875 0 
L 45.3125 0 
L 45.3125 8.40625 
Q 42.046875 3.421875 37.71875 1 
Q 33.40625 -1.421875 27.6875 -1.421875 
Q 18.265625 -1.421875 13.375 4.4375 
Q 8.5 10.296875 8.5 21.578125 
z
M 31.109375 56 
z
" id="DejaVuSans-117"/>
       <path d="M 52 44.1875 
Q 55.375 50.25 60.0625 53.125 
Q 64.75 56 71.09375 56 
Q 79.640625 56 84.28125 50.015625 
Q 88.921875 44.046875 88.921875 33.015625 
L 88.921875 0 
L 79.890625 0 
L 79.890625 32.71875 
Q 79.890625 40.578125 77.09375 44.375 
Q 74.3125 48.1875 68.609375 48.1875 
Q 61.625 48.1875 57.5625 43.546875 
Q 53.515625 38.921875 53.515625 30.90625 
L 53.515625 0 
L 44.484375 0 
L 44.484375 32.71875 
Q 44.484375 40.625 41.703125 44.40625 
Q 38.921875 48.1875 33.109375 48.1875 
Q 26.21875 48.1875 22.15625 43.53125 
Q 18.109375 38.875 18.109375 30.90625 
L 18.109375 0 
L 9.078125 0 
L 9.078125 54.6875 
L 18.109375 54.6875 
L 18.109375 46.1875 
Q 21.1875 51.21875 25.484375 53.609375 
Q 29.78125 56 35.6875 56 
Q 41.65625 56 45.828125 52.96875 
Q 50 49.953125 52 44.1875 
z
" id="DejaVuSans-109"/>
       <path d="M 48.6875 27.296875 
Q 48.6875 37.203125 44.609375 42.84375 
Q 40.53125 48.484375 33.40625 48.484375 
Q 26.265625 48.484375 22.1875 42.84375 
Q 18.109375 37.203125 18.109375 27.296875 
Q 18.109375 17.390625 22.1875 11.75 
Q 26.265625 6.109375 33.40625 6.109375 
Q 40.53125 6.109375 44.609375 11.75 
Q 48.6875 17.390625 48.6875 27.296875 
z
M 18.109375 46.390625 
Q 20.953125 51.265625 25.265625 53.625 
Q 29.59375 56 35.59375 56 
Q 45.5625 56 51.78125 48.09375 
Q 58.015625 40.1875 58.015625 27.296875 
Q 58.015625 14.40625 51.78125 6.484375 
Q 45.5625 -1.421875 35.59375 -1.421875 
Q 29.59375 -1.421875 25.265625 0.953125 
Q 20.953125 3.328125 18.109375 8.203125 
L 18.109375 0 
L 9.078125 0 
L 9.078125 75.984375 
L 18.109375 75.984375 
z
" id="DejaVuSans-98"/>
       <path d="M 56.203125 29.59375 
L 56.203125 25.203125 
L 14.890625 25.203125 
Q 15.484375 15.921875 20.484375 11.0625 
Q 25.484375 6.203125 34.421875 6.203125 
Q 39.59375 6.203125 44.453125 7.46875 
Q 49.3125 8.734375 54.109375 11.28125 
L 54.109375 2.78125 
Q 49.265625 0.734375 44.1875 -0.34375 
Q 39.109375 -1.421875 33.890625 -1.421875 
Q 20.796875 -1.421875 13.15625 6.1875 
Q 5.515625 13.8125 5.515625 26.8125 
Q 5.515625 40.234375 12.765625 48.109375 
Q 20.015625 56 32.328125 56 
Q 43.359375 56 49.78125 48.890625 
Q 56.203125 41.796875 56.203125 29.59375 
z
M 47.21875 32.234375 
Q 47.125 39.59375 43.09375 43.984375 
Q 39.0625 48.390625 32.421875 48.390625 
Q 24.90625 48.390625 20.390625 44.140625 
Q 15.875 39.890625 15.1875 32.171875 
z
" id="DejaVuSans-101"/>
       <path d="M 41.109375 46.296875 
Q 39.59375 47.171875 37.8125 47.578125 
Q 36.03125 48 33.890625 48 
Q 26.265625 48 22.1875 43.046875 
Q 18.109375 38.09375 18.109375 28.8125 
L 18.109375 0 
L 9.078125 0 
L 9.078125 54.6875 
L 18.109375 54.6875 
L 18.109375 46.1875 
Q 20.953125 51.171875 25.484375 53.578125 
Q 30.03125 56 36.53125 56 
Q 37.453125 56 38.578125 55.875 
Q 39.703125 55.765625 41.0625 55.515625 
z
" id="DejaVuSans-114"/>
       <path id="DejaVuSans-32"/>
       <path d="M 30.609375 48.390625 
Q 23.390625 48.390625 19.1875 42.75 
Q 14.984375 37.109375 14.984375 27.296875 
Q 14.984375 17.484375 19.15625 11.84375 
Q 23.34375 6.203125 30.609375 6.203125 
Q 37.796875 6.203125 41.984375 11.859375 
Q 46.1875 17.53125 46.1875 27.296875 
Q 46.1875 37.015625 41.984375 42.703125 
Q 37.796875 48.390625 30.609375 48.390625 
z
M 30.609375 56 
Q 42.328125 56 49.015625 48.375 
Q 55.71875 40.765625 55.71875 27.296875 
Q 55.71875 13.875 49.015625 6.21875 
Q 42.328125 -1.421875 30.609375 -1.421875 
Q 18.84375 -1.421875 12.171875 6.21875 
Q 5.515625 13.875 5.515625 27.296875 
Q 5.515625 40.765625 12.171875 48.375 
Q 18.84375 56 30.609375 56 
z
" id="DejaVuSans-111"/>
       <path d="M 37.109375 75.984375 
L 37.109375 68.5 
L 28.515625 68.5 
Q 23.6875 68.5 21.796875 66.546875 
Q 19.921875 64.59375 19.921875 59.515625 
L 19.921875 54.6875 
L 34.71875 54.6875 
L 34.71875 47.703125 
L 19.921875 47.703125 
L 19.921875 0 
L 10.890625 0 
L 10.890625 47.703125 
L 2.296875 47.703125 
L 2.296875 54.6875 
L 10.890625 54.6875 
L 10.890625 58.5 
Q 10.890625 67.625 15.140625 71.796875 
Q 19.390625 75.984375 28.609375 75.984375 
z
" id="DejaVuSans-102"/>
       <path d="M 19.671875 64.796875 
L 19.671875 37.40625 
L 32.078125 37.40625 
Q 38.96875 37.40625 42.71875 40.96875 
Q 46.484375 44.53125 46.484375 51.125 
Q 46.484375 57.671875 42.71875 61.234375 
Q 38.96875 64.796875 32.078125 64.796875 
z
M 9.8125 72.90625 
L 32.078125 72.90625 
Q 44.34375 72.90625 50.609375 67.359375 
Q 56.890625 61.8125 56.890625 51.125 
Q 56.890625 40.328125 50.609375 34.8125 
Q 44.34375 29.296875 32.078125 29.296875 
L 19.671875 29.296875 
L 19.671875 0 
L 9.8125 0 
z
" id="DejaVuSans-80"/>
       <path d="M 34.28125 27.484375 
Q 23.390625 27.484375 19.1875 25 
Q 14.984375 22.515625 14.984375 16.5 
Q 14.984375 11.71875 18.140625 8.90625 
Q 21.296875 6.109375 26.703125 6.109375 
Q 34.1875 6.109375 38.703125 11.40625 
Q 43.21875 16.703125 43.21875 25.484375 
L 43.21875 27.484375 
z
M 52.203125 31.203125 
L 52.203125 0 
L 43.21875 0 
L 43.21875 8.296875 
Q 40.140625 3.328125 35.546875 0.953125 
Q 30.953125 -1.421875 24.3125 -1.421875 
Q 15.921875 -1.421875 10.953125 3.296875 
Q 6 8.015625 6 15.921875 
Q 6 25.140625 12.171875 29.828125 
Q 18.359375 34.515625 30.609375 34.515625 
L 43.21875 34.515625 
L 43.21875 35.40625 
Q 43.21875 41.609375 39.140625 45 
Q 35.0625 48.390625 27.6875 48.390625 
Q 23 48.390625 18.546875 47.265625 
Q 14.109375 46.140625 10.015625 43.890625 
L 10.015625 52.203125 
Q 14.9375 54.109375 19.578125 55.046875 
Q 24.21875 56 28.609375 56 
Q 40.484375 56 46.34375 49.84375 
Q 52.203125 43.703125 52.203125 31.203125 
z
" id="DejaVuSans-97"/>
       <path d="M 18.3125 70.21875 
L 18.3125 54.6875 
L 36.8125 54.6875 
L 36.8125 47.703125 
L 18.3125 47.703125 
L 18.3125 18.015625 
Q 18.3125 11.328125 20.140625 9.421875 
Q 21.96875 7.515625 27.59375 7.515625 
L 36.8125 7.515625 
L 36.8125 0 
L 27.59375 0 
Q 17.1875 0 13.234375 3.875 
Q 9.28125 7.765625 9.28125 18.015625 
L 9.28125 47.703125 
L 2.6875 47.703125 
L 2.6875 54.6875 
L 9.28125 54.6875 
L 9.28125 70.21875 
z
" id="DejaVuSans-116"/>
       <path d="M 9.421875 54.6875 
L 18.40625 54.6875 
L 18.40625 0 
L 9.421875 0 
z
M 9.421875 75.984375 
L 18.40625 75.984375 
L 18.40625 64.59375 
L 9.421875 64.59375 
z
" id="DejaVuSans-105"/>
       <path d="M 48.78125 52.59375 
L 48.78125 44.1875 
Q 44.96875 46.296875 41.140625 47.34375 
Q 37.3125 48.390625 33.40625 48.390625 
Q 24.65625 48.390625 19.8125 42.84375 
Q 14.984375 37.3125 14.984375 27.296875 
Q 14.984375 17.28125 19.8125 11.734375 
Q 24.65625 6.203125 33.40625 6.203125 
Q 37.3125 6.203125 41.140625 7.25 
Q 44.96875 8.296875 48.78125 10.40625 
L 48.78125 2.09375 
Q 45.015625 0.34375 40.984375 -0.53125 
Q 36.96875 -1.421875 32.421875 -1.421875 
Q 20.0625 -1.421875 12.78125 6.34375 
Q 5.515625 14.109375 5.515625 27.296875 
Q 5.515625 40.671875 12.859375 48.328125 
Q 20.21875 56 33.015625 56 
Q 37.15625 56 41.109375 55.140625 
Q 45.0625 54.296875 48.78125 52.59375 
z
" id="DejaVuSans-99"/>
       <path d="M 9.421875 75.984375 
L 18.40625 75.984375 
L 18.40625 0 
L 9.421875 0 
z
" id="DejaVuSans-108"/>
       <path d="M 44.28125 53.078125 
L 44.28125 44.578125 
Q 40.484375 46.53125 36.375 47.5 
Q 32.28125 48.484375 27.875 48.484375 
Q 21.1875 48.484375 17.84375 46.4375 
Q 14.5 44.390625 14.5 40.28125 
Q 14.5 37.15625 16.890625 35.375 
Q 19.28125 33.59375 26.515625 31.984375 
L 29.59375 31.296875 
Q 39.15625 29.25 43.1875 25.515625 
Q 47.21875 21.78125 47.21875 15.09375 
Q 47.21875 7.46875 41.1875 3.015625 
Q 35.15625 -1.421875 24.609375 -1.421875 
Q 20.21875 -1.421875 15.453125 -0.5625 
Q 10.6875 0.296875 5.421875 2 
L 5.421875 11.28125 
Q 10.40625 8.6875 15.234375 7.390625 
Q 20.0625 6.109375 24.8125 6.109375 
Q 31.15625 6.109375 34.5625 8.28125 
Q 37.984375 10.453125 37.984375 14.40625 
Q 37.984375 18.0625 35.515625 20.015625 
Q 33.0625 21.96875 24.703125 23.78125 
L 21.578125 24.515625 
Q 13.234375 26.265625 9.515625 29.90625 
Q 5.8125 33.546875 5.8125 39.890625 
Q 5.8125 47.609375 11.28125 51.796875 
Q 16.75 56 26.8125 56 
Q 31.78125 56 36.171875 55.265625 
Q 40.578125 54.546875 44.28125 53.078125 
z
" id="DejaVuSans-115"/>
      </defs>
      <use xlink:href="#DejaVuSans-78"/>
      <use x="74.804688" xlink:href="#DejaVuSans-117"/>
      <use x="138.183594" xlink:href="#DejaVuSans-109"/>
      <use x="235.595703" xlink:href="#DejaVuSans-98"/>
      <use x="299.072266" xlink:href="#DejaVuSans-101"/>
      <use x="360.595703" xlink:href="#DejaVuSans-114"/>
      <use x="401.708984" xlink:href="#DejaVuSans-32"/>
      <use x="433.496094" xlink:href="#DejaVuSans-111"/>
      <use x="494.677734" xlink:href="#DejaVuSans-102"/>
      <use x="529.882812" xlink:href="#DejaVuSans-32"/>
      <use x="561.669922" xlink:href="#DejaVuSans-80"/>
      <use x="617.472656" xlink:href="#DejaVuSans-97"/>
      <use x="678.751953" xlink:href="#DejaVuSans-114"/>
      <use x="719.865234" xlink:href="#DejaVuSans-116"/>
      <use x="759.074219" xlink:href="#DejaVuSans-105"/>
      <use x="786.857422" xlink:href="#DejaVuSans-99"/>
      <use x="841.837891" xlink:href="#DejaVuSans-108"/>
      <use x="869.621094" xlink:href="#DejaVuSans-101"/>
      <use x="931.144531" xlink:href="#DejaVuSans-115"/>
     </g>
    </g>
   </g>
   <g id="matplotlib.axis_2">
    <g id="ytick_1">
     <g id="line2d_41">
      <defs>
       <path d="M 0 0 
L -3.5 0 
" id="m8504cec49d" style="stroke:#000000;stroke-width:0.8;"/>
      </defs>
      <g>
       <use style="stroke:#000000;stroke-width:0.8;" x="41.692054" xlink:href="#m8504cec49d" y="284.699602"/>
      </g>
     </g>
     <g id="text_7">
      <!-- $\mathdefault{10^{-1}}$ -->
      <g transform="translate(11.192054 288.498821)scale(0.1 -0.1)">
       <defs>
        <path d="M 10.59375 35.5 
L 73.1875 35.5 
L 73.1875 27.203125 
L 10.59375 27.203125 
z
" id="DejaVuSans-8722"/>
       </defs>
       <use transform="translate(0 0.684375)" xlink:href="#DejaVuSans-49"/>
       <use transform="translate(63.623047 0.684375)" xlink:href="#DejaVuSans-48"/>
       <use transform="translate(128.203125 38.965625)scale(0.7)" xlink:href="#DejaVuSans-8722"/>
       <use transform="translate(186.855469 38.965625)scale(0.7)" xlink:href="#DejaVuSans-49"/>
      </g>
     </g>
    </g>
    <g id="ytick_2">
     <g id="line2d_42">
      <g>
       <use style="stroke:#000000;stroke-width:0.8;" x="41.692054" xlink:href="#m8504cec49d" y="154.568195"/>
      </g>
     </g>
     <g id="text_8">
      <!-- $\mathdefault{10^{0}}$ -->
      <g transform="translate(17.092054 158.367414)scale(0.1 -0.1)">
       <use transform="translate(0 0.765625)" xlink:href="#DejaVuSans-49"/>
       <use transform="translate(63.623047 0.765625)" xlink:href="#DejaVuSans-48"/>
       <use transform="translate(128.203125 39.046875)scale(0.7)" xlink:href="#DejaVuSans-48"/>
      </g>
     </g>
    </g>
    <g id="ytick_3">
     <g id="line2d_43">
      <g>
       <use style="stroke:#000000;stroke-width:0.8;" x="41.692054" xlink:href="#m8504cec49d" y="24.436788"/>
      </g>
     </g>
     <g id="text_9">
      <!-- $\mathdefault{10^{1}}$ -->
      <g transform="translate(17.092054 28.236007)scale(0.1 -0.1)">
       <use transform="translate(0 0.684375)" xlink:href="#DejaVuSans-49"/>
       <use transform="translate(63.623047 0.684375)" xlink:href="#DejaVuSans-48"/>
       <use transform="translate(128.203125 38.965625)scale(0.7)" xlink:href="#DejaVuSans-49"/>
      </g>
     </g>
    </g>
    <g id="ytick_4">
     <g id="line2d_44">
      <defs>
       <path d="M 0 0 
L -2 0 
" id="m1a1d29b4d7" style="stroke:#000000;stroke-width:0.6;"/>
      </defs>
      <g>
       <use style="stroke:#000000;stroke-width:0.6;" x="41.692054" xlink:href="#m1a1d29b4d7" y="297.310639"/>
      </g>
     </g>
    </g>
    <g id="ytick_5">
     <g id="line2d_45">
      <g>
       <use style="stroke:#000000;stroke-width:0.6;" x="41.692054" xlink:href="#m1a1d29b4d7" y="290.654089"/>
      </g>
     </g>
    </g>
    <g id="ytick_6">
     <g id="line2d_46">
      <g>
       <use style="stroke:#000000;stroke-width:0.6;" x="41.692054" xlink:href="#m1a1d29b4d7" y="245.526145"/>
      </g>
     </g>
    </g>
    <g id="ytick_7">
     <g id="line2d_47">
      <g>
       <use style="stroke:#000000;stroke-width:0.6;" x="41.692054" xlink:href="#m1a1d29b4d7" y="222.611142"/>
      </g>
     </g>
    </g>
    <g id="ytick_8">
     <g id="line2d_48">
      <g>
       <use style="stroke:#000000;stroke-width:0.6;" x="41.692054" xlink:href="#m1a1d29b4d7" y="206.352688"/>
      </g>
     </g>
    </g>
    <g id="ytick_9">
     <g id="line2d_49">
      <g>
       <use style="stroke:#000000;stroke-width:0.6;" x="41.692054" xlink:href="#m1a1d29b4d7" y="193.741652"/>
      </g>
     </g>
    </g>
    <g id="ytick_10">
     <g id="line2d_50">
      <g>
       <use style="stroke:#000000;stroke-width:0.6;" x="41.692054" xlink:href="#m1a1d29b4d7" y="183.437685"/>
      </g>
     </g>
    </g>
    <g id="ytick_11">
     <g id="line2d_51">
      <g>
       <use style="stroke:#000000;stroke-width:0.6;" x="41.692054" xlink:href="#m1a1d29b4d7" y="174.725805"/>
      </g>
     </g>
    </g>
    <g id="ytick_12">
     <g id="line2d_52">
      <g>
       <use style="stroke:#000000;stroke-width:0.6;" x="41.692054" xlink:href="#m1a1d29b4d7" y="167.179231"/>
      </g>
     </g>
    </g>
    <g id="ytick_13">
     <g id="line2d_53">
      <g>
       <use style="stroke:#000000;stroke-width:0.6;" x="41.692054" xlink:href="#m1a1d29b4d7" y="160.522682"/>
      </g>
     </g>
    </g>
    <g id="ytick_14">
     <g id="line2d_54">
      <g>
       <use style="stroke:#000000;stroke-width:0.6;" x="41.692054" xlink:href="#m1a1d29b4d7" y="115.394738"/>
      </g>
     </g>
    </g>
    <g id="ytick_15">
     <g id="line2d_55">
      <g>
       <use style="stroke:#000000;stroke-width:0.6;" x="41.692054" xlink:href="#m1a1d29b4d7" y="92.479735"/>
      </g>
     </g>
    </g>
    <g id="ytick_16">
     <g id="line2d_56">
      <g>
       <use style="stroke:#000000;stroke-width:0.6;" x="41.692054" xlink:href="#m1a1d29b4d7" y="76.221281"/>
      </g>
     </g>
    </g>
    <g id="ytick_17">
     <g id="line2d_57">
      <g>
       <use style="stroke:#000000;stroke-width:0.6;" x="41.692054" xlink:href="#m1a1d29b4d7" y="63.610245"/>
      </g>
     </g>
    </g>
    <g id="ytick_18">
     <g id="line2d_58">
      <g>
       <use style="stroke:#000000;stroke-width:0.6;" x="41.692054" xlink:href="#m1a1d29b4d7" y="53.306278"/>
      </g>
     </g>
    </g>
    <g id="ytick_19">
     <g id="line2d_59">
      <g>
       <use style="stroke:#000000;stroke-width:0.6;" x="41.692054" xlink:href="#m1a1d29b4d7" y="44.594398"/>
      </g>
     </g>
    </g>
    <g id="ytick_20">
     <g id="line2d_60">
      <g>
       <use style="stroke:#000000;stroke-width:0.6;" x="41.692054" xlink:href="#m1a1d29b4d7" y="37.047824"/>
      </g>
     </g>
    </g>
    <g id="ytick_21">
     <g id="line2d_61">
      <g>
       <use style="stroke:#000000;stroke-width:0.6;" x="41.692054" xlink:href="#m1a1d29b4d7" y="30.391275"/>
      </g>
     </g>
    </g>
   </g>
   <g id="line2d_62">
    <path clip-path="url(#p3e8e7a8c91)" d="M -1 265.13738 
L 60.251506 265.124645 
L 88.186568 253.963038 
L 104.527532 246.132837 
L 116.12163 240.129543 
L 125.114712 226.696817 
L 138.67514 220.971433 
L 144.056693 213.505471 
L 156.890944 208.5039 
L 166.610203 204.564908 
L 169.390738 200.354836 
L 182.951167 195.451821 
L 184.826006 192.498344 
L 193.079584 189.968365 
L 194.545265 185.828032 
L 195.959507 185.48326 
L 197.3258 183.50675 
L 203.538346 182.264542 
L 204.673683 180.582811 
L 209.915055 179.88956 
L 213.666764 179.602678 
L 214.552553 179.567021 
L 215.419291 178.183235 
L 217.098775 178.183235 
L 217.91298 176.902947 
L 218.711061 176.935394 
L 219.493644 175.734111 
L 220.26132 175.790171 
L 221.014647 172.403762 
L 222.480327 172.559054 
L 223.89457 170.645463 
L 225.927023 171.006371 
L 226.58235 170.130456 
L 227.861879 170.438332 
L 229.102032 168.814284 
L 230.893517 169.390038 
L 231.473409 168.639464 
L 232.045075 167.00763 
L 232.608745 167.223216 
L 234.253944 165.288069 
L 234.78775 163.874995 
L 236.854961 161.733297 
L 237.850117 162.238254 
L 239.298241 160.826676 
L 239.769612 159.686069 
L 241.151522 160.534453 
L 242.047154 158.380178 
L 242.923314 158.979111 
L 243.354353 157.319462 
L 244.202843 156.665483 
L 244.620482 156.974557 
L 245.033837 156.665483 
L 245.442996 156.987375 
L 246.249058 156.403675 
L 246.646123 155.522725 
L 248.196383 156.920144 
L 248.574806 156.668652 
L 248.949709 157.048341 
L 250.053936 154.568195 
L 250.415389 154.944358 
L 251.128714 153.423606 
L 251.480697 153.801917 
L 252.518568 153.299558 
L 252.858669 153.699016 
L 253.195925 152.457058 
L 253.862085 151.14462 
L 254.841124 150.794908 
L 255.162255 151.1968 
L 255.480848 150.589695 
L 255.796942 150.495286 
L 256.110576 149.912893 
L 256.421788 149.830665 
L 256.730615 150.244218 
L 257.037094 149.200777 
L 257.34126 149.615023 
L 257.643147 149.074529 
L 258.240222 147.136743 
L 258.535474 147.539959 
L 259.119568 146.583509 
L 259.695317 146.530327 
L 260.262957 145.641209 
L 260.543807 145.630484 
L 261.099703 144.793785 
L 261.648034 144.802113 
L 261.919428 144.407126 
L 262.189006 144.421505 
L 262.987087 145.72715 
L 263.510494 145.796093 
L 263.76967 146.263712 
L 264.283076 145.510648 
L 264.537346 144.737629 
L 265.041125 144.854224 
L 265.290673 144.110911 
L 265.785179 144.249439 
L 266.030175 143.926583 
L 266.273692 142.839349 
L 266.515745 142.539812 
L 266.756353 141.876772 
L 267.469678 143.27989 
L 267.704674 142.239612 
L 267.938308 141.96893 
L 268.170596 142.445776 
L 268.401552 142.180713 
L 268.631193 142.292918 
L 268.859532 142.786943 
L 269.086585 142.909376 
L 269.312365 142.655385 
L 269.536889 142.785004 
L 269.760168 141.796146 
L 270.858377 142.507152 
L 271.074472 143.04408 
L 271.289416 142.823811 
L 271.503219 142.233907 
L 271.715894 142.399832 
L 271.927452 141.82612 
L 272.137906 141.997202 
L 272.347266 141.078851 
L 272.555544 140.895082 
L 272.762752 141.07155 
L 273.173998 139.344273 
L 273.58109 139.703632 
L 273.783104 138.550375 
L 273.984111 138.405528 
L 274.18412 137.942695 
L 274.383142 137.807425 
L 274.581185 137.360609 
L 274.974377 137.112048 
L 275.169543 137.304652 
L 275.363769 136.878238 
L 275.557063 136.15904 
L 275.940892 135.951217 
L 276.321101 136.356044 
L 276.509868 135.961877 
L 276.884771 134.340029 
L 277.070923 134.828881 
L 277.256219 134.751436 
L 277.440666 135.253461 
L 277.624274 135.180772 
L 277.807049 135.40239 
L 277.988998 135.044797 
L 278.350452 134.921214 
L 278.52997 134.015446 
L 278.708692 133.686117 
L 278.886625 133.913269 
L 279.063776 133.046996 
L 279.240152 133.00444 
L 279.415759 133.506819 
L 279.590604 133.469143 
L 279.764694 133.985607 
L 280.110634 133.373087 
L 280.282497 133.896275 
L 280.45363 133.596326 
L 280.62404 133.575322 
L 281.130987 132.719193 
L 281.298562 132.977019 
L 281.465443 132.970168 
L 281.631636 132.698831 
L 281.797147 132.964688 
L 282.289639 132.977019 
L 282.452475 132.719193 
L 282.614655 132.998954 
L 282.776186 132.746365 
L 282.937071 133.031888 
L 283.097317 133.052492 
L 283.256928 132.017761 
L 283.574267 132.595889 
L 283.732004 132.627003 
L 283.889126 132.927728 
L 284.045638 132.964688 
L 284.201544 132.471774 
L 284.51156 133.636977 
L 284.665678 133.412027 
L 284.819208 132.655441 
L 284.972156 132.708332 
L 285.124526 133.302299 
L 285.276322 133.361971 
L 285.57821 132.948255 
L 286.617355 129.890356 
L 286.763641 129.967864 
L 287.05463 129.175824 
L 287.19934 129.495069 
L 287.343533 128.64419 
L 287.487212 128.499961 
L 287.773041 127.547752 
L 287.915199 127.86046 
L 288.056857 127.507071 
L 288.19802 128.048608 
L 288.338689 127.921127 
L 288.478869 127.352789 
L 288.618564 127.674692 
L 288.757776 127.555669 
L 288.896508 127.001217 
L 289.034765 127.106787 
L 289.172549 126.780246 
L 289.309863 127.325848 
L 289.446712 127.219459 
L 289.583097 126.89825 
L 289.719022 127.014531 
L 289.989505 126.819893 
L 290.258184 127.067847 
L 290.391855 126.977934 
L 290.657874 125.746175 
L 290.790228 125.460096 
L 291.05364 123.716851 
L 291.184702 123.84254 
L 291.445556 124.496761 
L 291.575353 124.432881 
L 292.090398 123.42215 
L 292.345474 123.705004 
L 292.472409 123.273027 
L 292.598945 123.418241 
L 292.725085 123.183736 
L 292.850832 123.523965 
L 292.976187 123.483782 
L 293.101154 123.254563 
L 293.225735 123.409448 
L 293.473747 123.922002 
L 293.720241 123.668506 
L 293.842926 123.641902 
L 293.965238 123.810817 
L 294.08718 123.788039 
L 294.208754 123.961817 
L 294.329962 123.555367 
L 294.450807 123.731667 
L 294.571291 123.142099 
L 294.691416 123.129523 
L 294.811183 122.556049 
L 294.930596 122.921383 
L 295.168365 122.167321 
L 295.522409 122.719532 
L 295.756723 123.677379 
L 295.87337 122.921383 
L 295.989682 122.930025 
L 296.221302 122.393507 
L 296.566255 121.89197 
L 296.680586 121.3719 
L 296.794594 121.571641 
L 297.021647 120.388576 
L 297.134695 120.586765 
L 297.247428 120.441291 
L 297.471951 120.848737 
L 297.583745 120.533779 
L 297.69523 120.916623 
L 297.917279 120.297436 
L 298.027846 120.509086 
L 298.138111 120.20659 
L 298.248075 120.249356 
L 298.35774 120.12299 
L 298.467107 120.169113 
L 298.576178 119.541206 
L 298.684955 119.589802 
L 298.793439 118.814648 
L 298.901632 119.193256 
L 299.009535 119.08157 
L 299.11715 118.324944 
L 299.224478 118.864504 
L 299.862514 116.559278 
L 299.967878 116.621434 
L 300.177784 116.902454 
L 300.386602 116.434611 
L 300.490606 116.805634 
L 300.594343 116.276321 
L 300.80102 116.72302 
L 300.903962 116.348507 
L 301.006641 116.575379 
L 301.10906 116.504142 
L 301.211219 116.584584 
L 301.31312 116.516386 
L 301.718167 117.32063 
L 301.818795 117.25849 
L 301.919173 117.044798 
L 302.019302 117.139312 
L 302.218816 115.830598 
L 302.417348 115.875454 
L 302.614906 115.634074 
L 302.713323 114.731018 
L 302.8115 114.829624 
L 302.909439 114.788557 
L 303.00714 114.890254 
L 303.104605 114.570532 
L 303.201835 114.815208 
L 303.298831 114.49918 
L 303.492125 115.139183 
L 303.588426 115.107856 
L 303.780339 115.192447 
L 303.971343 114.855592 
L 304.066507 114.97347 
L 304.161447 114.668578 
L 304.44493 115.177114 
L 304.538983 114.734611 
L 304.726434 115.131166 
L 304.819833 115.405774 
L 305.098739 113.835042 
L 305.375729 113.820428 
L 305.467637 113.68232 
L 305.559336 113.277458 
L 305.650827 113.54695 
L 306.014728 111.859303 
L 306.105192 111.99398 
L 306.195454 111.874885 
L 306.375373 110.771895 
L 306.643754 111.057509 
L 306.732819 110.82691 
L 306.821687 110.966804 
L 306.998838 110.636689 
L 307.175214 111.047416 
L 307.525666 109.580113 
L 307.612805 109.724786 
L 307.699756 109.517909 
L 307.873098 108.540838 
L 308.045696 108.716838 
L 308.303217 108.142542 
L 308.388692 108.178416 
L 308.473987 107.771677 
L 308.559102 107.809332 
L 308.644037 108.069795 
L 309.066049 107.184164 
L 309.149924 106.693909 
L 309.233624 106.951882 
L 309.317151 106.573067 
L 309.400506 106.61994 
L 309.81471 105.417034 
L 309.979208 105.724615 
L 310.061205 105.270144 
L 310.143036 105.425303 
L 310.306202 105.741337 
L 310.387537 105.696941 
L 310.549718 105.307181 
L 310.630564 105.36747 
L 310.711248 104.827422 
L 310.791771 104.888723 
L 310.872134 105.050976 
L 310.952336 104.618177 
L 311.032379 104.780901 
L 311.112264 104.549941 
L 311.191991 104.615666 
L 311.350972 104.455386 
L 311.430228 104.328311 
L 311.509329 104.397509 
L 311.745704 104.513883 
L 311.90252 104.173605 
L 312.136607 103.06568 
L 312.369341 103.576665 
L 312.446622 103.371642 
L 312.677578 104.189433 
L 312.754271 104.177067 
L 312.907219 104.447396 
L 312.983476 104.340247 
L 313.059588 103.752965 
L 313.135558 103.937237 
L 313.287069 104.021708 
L 313.362611 104.017282 
L 313.513272 103.819301 
L 313.663372 104.009415 
L 313.738212 104.398007 
L 313.812915 104.204776 
L 313.887478 104.207251 
L 314.110346 104.611648 
L 314.184362 104.618177 
L 314.258243 104.13753 
L 314.331988 104.24292 
L 314.625627 103.424083 
L 314.844461 103.183847 
L 314.989692 103.688729 
L 315.134403 103.440942 
L 315.206563 103.366355 
L 315.278595 102.827045 
L 315.422274 103.243117 
L 315.565442 103.103745 
L 315.636836 103.03574 
L 315.779245 103.3702 
L 315.99192 102.620349 
L 316.062563 102.742775 
L 316.133082 102.774288 
L 316.343902 102.23405 
L 316.623292 102.744655 
L 316.762264 102.731495 
L 316.83157 102.497052 
L 316.900758 102.814318 
L 317.107611 102.213282 
L 317.313408 102.901166 
L 317.381774 102.857237 
L 317.450024 102.447233 
L 317.518159 102.497052 
L 317.586179 102.547894 
L 317.654084 102.145083 
L 317.721875 102.378468 
L 317.857116 102.577788 
L 317.924567 102.725387 
L 318.260137 101.925481 
L 318.326917 101.452233 
L 318.393587 101.600374 
L 318.460146 101.928678 
L 318.526596 101.901744 
L 318.592937 101.875747 
L 318.791305 102.071999 
L 318.988702 101.385845 
L 319.119765 101.52418 
L 319.315563 100.43644 
L 319.380619 100.507146 
L 319.445569 100.750107 
L 319.510415 100.227095 
L 319.575157 100.639927 
L 319.639795 100.458544 
L 319.704329 99.860082 
L 319.768761 99.934467 
L 319.897315 99.587602 
L 319.961439 99.663801 
L 320.025461 99.741051 
L 320.1532 98.916243 
L 320.216918 98.993943 
L 320.407471 99.314809 
L 320.470789 99.233732 
L 320.534007 99.480179 
L 320.72307 98.283338 
L 320.848621 98.689302 
L 320.973782 97.7599 
L 321.036217 97.844756 
L 321.160797 98.252442 
L 321.470574 97.304865 
L 321.593821 97.638781 
L 321.777988 97.077373 
L 321.83919 97.321933 
L 321.9003 97.264176 
L 322.083075 97.096229 
L 322.143816 96.816992 
L 322.204466 96.913589 
L 322.265024 96.936163 
L 322.506353 96.364769 
L 322.626478 95.690197 
L 322.686406 95.716946 
L 322.746245 95.744454 
L 322.805996 95.629098 
L 322.865658 95.72978 
L 322.925232 95.759504 
L 323.044116 95.534237 
L 323.103427 95.565943 
L 323.162651 95.741886 
L 323.221788 95.703385 
L 323.457472 95.916715 
L 323.633334 95.313643 
L 323.691785 94.929916 
L 323.750151 95.038868 
L 323.808433 95.008462 
L 324.156364 94.28976 
L 324.214061 94.608378 
L 324.271677 94.51512 
L 324.329209 94.49159 
L 324.558523 94.888945 
L 324.729656 94.006768 
L 324.956709 94.554497 
L 325.126163 94.511255 
L 325.18249 94.705481 
L 325.238738 94.554849 
L 325.407013 94.660243 
L 325.518807 94.711141 
L 325.685919 95.319426 
L 325.741469 95.242535 
L 325.852341 95.445139 
L 325.907663 95.370079 
L 325.962908 95.225237 
L 326.128193 94.729898 
L 326.292802 94.661655 
L 326.347523 94.663421 
L 326.402169 94.804695 
L 326.456742 94.256667 
L 326.51124 94.328824 
L 326.565665 94.608378 
L 326.620017 94.407115 
L 326.674296 94.344535 
L 326.836694 94.641885 
L 326.890681 94.650709 
L 327.266583 93.510112 
L 327.319999 93.524017 
L 327.426617 93.288896 
L 327.532954 92.797979 
L 327.586018 92.879761 
L 327.744791 93.261995 
L 327.797576 93.150296 
L 327.902941 93.389664 
L 327.95552 93.34547 
L 328.425669 94.111865 
L 328.529406 94.7905 
L 328.581174 94.544999 
L 328.736082 94.095245 
L 328.941704 94.234047 
L 329.044122 94.651768 
L 329.095234 94.552034 
L 329.349826 94.068949 
L 329.451215 93.950233 
L 329.501813 94.128842 
L 329.552348 93.767612 
L 329.60282 93.946445 
L 329.753858 94.08417 
L 329.804078 93.996073 
L 329.854236 94.111865 
L 330.054245 94.449145 
L 330.153878 93.873196 
L 330.203603 94.060996 
L 330.302869 94.169072 
L 330.45131 93.594325 
L 330.500669 93.918911 
L 330.549968 93.908937 
L 330.795561 94.758234 
L 330.893381 94.608378 
L 331.039667 94.665893 
L 331.185424 94.869015 
L 331.330656 94.523553 
L 331.378951 94.594281 
L 331.427187 94.735209 
L 331.475367 94.669073 
L 331.523488 94.672959 
L 331.715402 94.146522 
L 331.906406 93.707455 
L 331.954016 93.851567 
L 332.049067 93.806303 
L 332.096509 93.885563 
L 332.143895 93.696873 
L 332.191225 93.911688 
L 332.2385 93.724191 
L 332.332883 93.888655 
L 332.379993 93.77035 
L 332.56788 94.384724 
L 332.614715 94.336154 
L 332.661496 94.35676 
L 332.754895 94.745125 
L 332.801514 94.698762 
L 333.033802 93.665149 
L 333.080099 93.960221 
L 333.172534 93.947822 
L 333.218672 93.908937 
L 333.264758 93.669581 
L 333.310791 93.968146 
L 333.494398 94.505284 
L 333.585889 94.299521 
L 333.631557 94.403265 
L 333.677173 94.508094 
L 333.904482 93.813157 
L 334.040255 94.409915 
L 334.085411 94.383675 
L 334.130516 94.28976 
L 334.175571 94.401865 
L 334.220576 94.446341 
L 334.35529 93.500959 
L 334.400094 93.546755 
L 334.71234 92.508519 
L 334.889686 93.035702 
L 335.022185 92.611792 
L 335.066255 92.860205 
L 335.110276 92.850597 
L 335.285883 92.496413 
L 335.329666 92.87744 
L 335.373401 92.356754 
L 335.460729 92.411491 
L 335.504322 92.21681 
L 335.547868 92.404969 
L 335.591367 92.402687 
L 335.721582 92.208714 
L 335.764894 92.400079 
L 335.851379 92.338857 
L 335.937678 92.407904 
L 335.980759 92.156954 
L 336.023793 92.288157 
L 336.066782 91.850924 
L 336.152622 91.925198 
L 336.238279 91.751345 
L 336.281039 91.884515 
L 336.323755 91.893159 
L 336.494164 91.006793 
L 336.536654 91.07919 
L 336.579099 91.091326 
L 336.748435 90.721507 
L 336.790658 90.917873 
L 336.832836 90.692031 
L 336.959108 90.803032 
L 337.126858 90.399256 
L 337.210472 90.321612 
L 337.37718 91.196411 
L 337.460277 91.002139 
L 337.708543 91.412167 
L 337.79096 91.226417 
L 337.832105 91.318826 
L 337.996267 91.511503 
L 338.037204 91.360587 
L 338.118952 91.866595 
L 338.200534 91.752938 
L 338.241264 91.790879 
L 338.444296 91.000898 
L 338.48478 91.04157 
L 338.525223 90.779627 
L 338.565626 90.821215 
L 338.64631 91.027903 
L 338.686592 91.010828 
L 338.807196 90.481683 
L 338.847317 90.707072 
L 339.047326 91.497607 
L 339.166857 91.158947 
L 339.206622 91.33389 
L 339.246348 91.386994 
L 339.444391 90.684667 
L 339.562752 91.035668 
L 339.602128 90.850825 
L 339.641466 91.030698 
L 339.680766 91.029145 
L 339.720027 91.27274 
L 339.798435 91.150212 
L 340.071669 90.08965 
L 340.110551 90.035929 
L 340.149397 90.100467 
L 340.265708 90.417485 
L 340.343062 89.903115 
L 340.381684 90.324944 
L 340.458817 90.405028 
L 340.689333 89.31218 
L 340.765879 89.513969 
L 340.804098 89.471908 
L 340.842281 89.545776 
L 340.918538 90.105276 
L 340.956612 89.830392 
L 341.108551 89.387389 
L 341.146447 89.350784 
L 341.25992 89.47426 
L 341.335391 89.348735 
L 341.448334 89.712466 
L 341.560961 89.216774 
L 341.598434 89.416414 
L 341.747977 90.058425 
L 341.822541 89.654427 
L 341.859771 90.037128 
L 341.896967 89.777754 
L 341.971256 89.90401 
L 342.008349 89.822058 
L 342.045408 89.974529 
L 342.082433 89.952099 
L 342.26705 89.328551 
L 342.303872 89.025188 
L 342.377416 89.217939 
L 342.414137 89.488078 
L 342.48748 89.398819 
L 342.524101 89.383873 
L 342.633766 89.805102 
L 342.81588 89.057608 
L 342.852204 88.765724 
L 342.924755 88.917485 
L 343.069465 88.441945 
L 343.213657 87.928599 
L 343.285561 87.923034 
L 343.428984 87.432068 
L 343.500504 87.00761 
L 343.536217 87.167796 
L 343.571898 87.382891 
L 343.643165 87.228271 
L 343.678752 87.2318 
L 343.785323 87.566922 
L 343.820785 87.411567 
L 343.856215 87.686967 
L 343.891614 87.53205 
L 343.926982 87.539461 
L 343.962319 87.38644 
L 343.997625 87.6638 
L 344.313994 88.703016 
L 344.348994 88.327686 
L 344.418902 88.524816 
L 344.488688 88.33559 
L 344.523536 88.575168 
L 344.558354 88.204894 
L 344.6279 87.967586 
L 344.662628 88.096347 
L 344.731994 88.357338 
L 344.766633 88.157722 
L 344.801241 88.069485 
L 344.83582 88.201522 
L 344.870369 88.224291 
L 344.904889 88.580578 
L 344.97384 88.462356 
L 345.145703 88.041531 
L 345.24847 88.457819 
L 345.282667 88.432028 
L 345.350976 88.437694 
L 345.385086 88.137529 
L 345.487245 88.179332 
L 345.656937 88.968253 
L 345.926967 88.327686 
L 345.994193 88.465759 
L 346.094821 87.714849 
L 346.161768 88.019188 
L 346.361943 88.57289 
L 346.395209 88.51004 
L 346.428447 88.559228 
L 346.461658 88.777192 
L 346.494842 88.771744 
L 346.527999 88.376274 
L 346.59423 88.70273 
L 346.660353 88.641017 
L 346.693374 88.751108 
L 346.726367 89.031843 
L 346.759334 88.748816 
L 347.185465 87.31092 
L 347.250625 87.432068 
L 347.283166 87.493659 
L 347.315681 87.075571 
L 347.380631 87.306564 
L 347.445477 87.541656 
L 347.477861 87.2318 
L 347.510219 87.296765 
L 347.607137 86.963738 
L 347.639392 86.977457 
L 347.67162 87.203577 
L 347.703823 86.901142 
L 347.736 86.916443 
L 347.832377 87.659389 
L 347.928525 87.391901 
L 347.992496 87.217685 
L 348.056366 87.634316 
L 348.088262 87.440819 
L 348.151981 87.325082 
L 348.183802 87.509009 
L 348.24737 87.342794 
L 348.374205 86.861722 
L 348.437473 87.020812 
L 348.469069 86.99576 
L 348.940073 84.86716 
L 349.06475 85.351741 
L 349.126944 85.275634 
L 349.251045 84.982262 
L 349.189043 85.30098 
L 349.282011 85.070407 
L 349.343871 85.149998 
L 349.498107 84.428095 
L 349.621072 83.834465 
L 349.682414 83.873976 
L 349.743663 84.010279 
L 349.774253 83.81882 
L 349.835362 83.863129 
L 350.018137 83.120108 
L 350.048519 83.168271 
L 350.109215 83.127856 
L 350.169819 83.366485 
L 350.200087 83.324603 
L 350.230332 83.422425 
L 350.351086 83.821949 
L 350.381219 83.594493 
L 350.501522 83.164274 
L 350.47148 83.619569 
L 350.531542 83.173915 
L 350.56154 83.322712 
L 350.621468 83.159572 
L 350.741058 82.300189 
L 350.7709 82.402761 
L 350.860294 82.670185 
L 351.008845 81.900106 
L 351.068112 82.111329 
L 351.097713 81.863933 
L 351.15685 81.506939 
L 351.215901 81.7197 
L 351.245393 81.783439 
L 351.421898 81.173018 
L 351.45124 81.152648 
L 351.480561 80.66489 
L 351.568396 80.862495 
L 351.685213 80.582156 
L 351.714365 80.69245 
L 351.743495 80.803609 
L 351.772604 80.619303 
L 351.801692 80.646603 
L 351.917836 80.549559 
L 352.033646 80.002766 
L 352.062546 80.157282 
L 352.091426 80.313072 
L 352.149124 80.127493 
L 352.177942 80.159818 
L 352.206739 80.027162 
L 352.264272 79.520861 
L 352.321723 79.669224 
L 352.379092 80.066746 
L 352.436379 79.891147 
L 352.550711 79.386432 
L 352.636247 79.418744 
L 352.750013 78.814884 
L 352.86346 79.415449 
L 352.891771 79.255916 
L 352.920063 79.217656 
L 352.976587 79.545051 
L 353.00482 79.467178 
L 353.089399 78.760111 
L 353.145686 78.848768 
L 353.201895 78.584425 
L 353.258026 78.833435 
L 353.286062 79.038908 
L 353.370053 79.022862 
L 353.42595 79.120499 
L 353.453869 78.576229 
L 353.48177 78.313024 
L 353.537512 78.606826 
L 353.565354 78.461335 
L 353.593177 78.590023 
L 353.620981 78.406446 
L 353.759714 77.587366 
L 353.842725 77.781612 
L 353.870357 77.872901 
L 353.953141 77.767623 
L 354.090737 78.199982 
L 354.118199 77.606479 
L 354.200476 77.968985 
L 354.282585 78.652283 
L 354.337231 78.383409 
L 354.419062 78.491011 
L 354.391804 78.350871 
L 354.446303 78.475671 
L 354.500728 78.251902 
L 354.527913 78.510147 
L 354.555079 78.340562 
L 354.582228 78.444021 
L 354.609358 78.353251 
L 354.771756 77.861011 
L 354.879659 77.482375 
L 354.90659 77.663124 
L 354.933503 77.921879 
L 355.014133 77.900209 
L 355.067797 77.621354 
L 355.094602 77.843867 
L 355.228362 78.282941 
L 355.255061 78.086408 
L 355.308405 78.312826 
L 355.335051 78.233136 
L 355.494557 78.657294 
L 355.838003 79.333004 
L 355.574074 78.581826 
L 355.890582 79.264927 
L 355.995534 78.541072 
L 356.047908 78.675541 
L 356.07407 78.64527 
L 356.100214 78.733366 
L 356.178546 78.843118 
L 356.204623 78.696409 
L 356.256726 78.759105 
L 356.360731 78.57463 
L 356.516236 79.059233 
L 356.542096 79.075706 
L 356.567938 79.012914 
L 356.619574 79.087712 
L 356.722648 78.726132 
L 356.748375 78.785068 
L 356.774086 78.569034 
L 356.825459 78.492406 
L 356.85112 78.357416 
L 356.928008 78.422345 
L 356.953604 78.444817 
L 357.183245 77.473147 
L 357.234099 77.149764 
L 357.31026 77.416498 
L 357.462151 77.815251 
L 357.48741 77.693135 
L 357.663786 76.937156 
L 357.68892 77.043544 
L 357.714038 76.891173 
L 357.73914 76.96112 
L 357.814353 76.657141 
L 357.864418 76.836241 
L 357.91442 76.576579 
L 357.989307 76.684607 
L 358.163505 77.137035 
L 358.188329 76.843572 
L 358.262709 77.002113 
L 358.36167 76.910763 
L 358.386372 76.732502 
L 358.435731 76.929424 
L 358.460388 76.788921 
L 358.632566 77.368771 
L 358.755101 76.90172 
L 358.779563 77.061725 
L 358.804011 77.074042 
L 358.828444 76.790984 
L 358.877265 77.187797 
L 358.901653 77.31386 
L 358.950385 77.007407 
L 359.047674 77.368197 
L 359.09623 77.065704 
L 359.120487 77.082951 
L 359.144728 76.915286 
L 359.193168 77.099829 
L 359.217366 77.193125 
L 359.24155 77.100588 
L 359.289873 76.806938 
L 359.314013 77.048846 
L 359.338139 77.255813 
L 359.36225 76.721269 
L 359.386346 76.559452 
L 359.434497 76.896446 
L 359.45855 76.698069 
L 359.48259 76.867833 
L 359.506614 76.560755 
L 359.674389 75.971558 
L 359.769947 76.003657 
L 359.793802 75.674739 
L 359.86528 76.077476 
L 360.031571 75.641571 
L 360.126287 76.266739 
L 360.197179 76.149287 
L 360.244371 76.001467 
L 360.291507 76.141951 
L 360.409108 76.502747 
L 360.526367 75.756565 
L 360.549777 75.972834 
L 360.619929 76.054798 
L 360.643285 76.130767 
L 360.689958 75.961171 
L 360.759865 75.800013 
L 360.736576 76.007854 
L 360.806403 75.848609 
L 360.829652 75.82013 
L 360.992019 76.238204 
L 361.130672 76.376914 
L 361.176784 76.221281 
L 361.406555 75.547504 
L 361.429461 75.493509 
L 361.452353 75.651121 
L 361.498098 75.6151 
L 361.589434 75.901652 
L 361.543792 75.54535 
L 361.612235 75.707947 
L 361.635024 75.586316 
L 361.680563 75.874754 
L 361.703313 75.718061 
L 361.748775 75.831736 
L 361.862205 76.41318 
L 361.93011 76.341988 
L 362.155638 75.643012 
L 362.200593 75.913109 
L 362.267931 75.646796 
L 362.379911 75.483474 
L 362.491582 75.93003 
L 362.647402 75.221693 
L 362.713998 75.364945 
L 362.736173 75.157865 
L 362.780485 75.512153 
L 362.824748 75.134497 
L 362.846861 75.172923 
L 362.868963 75.142285 
L 362.891052 75.250996 
L 362.913129 75.360485 
L 362.957247 75.092767 
L 362.979288 75.202707 
L 363.133238 75.0109 
L 363.199036 74.899947 
L 363.264728 74.998922 
L 363.352151 74.462343 
L 363.439384 74.85348 
L 363.48293 74.675335 
L 363.656645 75.282108 
L 363.678306 75.264504 
L 363.764837 74.715233 
L 363.808033 74.752917 
L 363.87274 74.60717 
L 363.894286 74.695713 
L 364.087684 75.137329 
L 364.151944 74.490176 
L 364.194727 74.642101 
L 364.322805 75.007553 
L 364.386691 75.092767 
L 364.429226 74.772303 
L 364.535367 75.270193 
L 364.556562 75.197564 
L 364.577746 74.952644 
L 364.662369 74.980085 
L 364.72572 75.465565 
L 364.767899 74.944733 
L 364.788972 74.705471 
L 364.852124 75.157865 
L 364.999096 74.630974 
L 365.06192 74.646101 
L 365.08284 74.651841 
L 365.124647 74.460442 
L 365.16641 74.746633 
L 365.228974 74.976389 
L 365.27063 74.753441 
L 365.333033 74.407965 
L 365.374581 74.666458 
L 365.540347 75.247443 
L 365.581682 75.067511 
L 365.787724 74.306051 
L 365.808271 74.357478 
L 365.93133 75.226664 
L 365.951803 75.073867 
L 365.972266 74.887841 
L 365.992719 75.150959 
L 366.054014 75.078635 
L 366.074425 75.066805 
L 366.094826 75.159282 
L 366.115216 75.287267 
L 366.135597 74.792575 
L 366.176326 74.94403 
L 366.196675 74.728487 
L 366.217014 74.719243 
L 366.257662 74.633582 
L 366.359101 74.190808 
L 366.399605 74.312925 
L 366.440069 74.234655 
L 366.500688 74.321693 
L 366.520874 74.284063 
L 366.561217 74.412104 
L 366.64178 74.605954 
L 366.682001 74.467354 
L 366.782379 74.129776 
L 367.022271 73.434807 
L 367.082022 73.450307 
L 367.161552 73.182831 
L 367.18141 73.319738 
L 367.260744 73.54767 
L 367.280553 73.393015 
L 367.359693 73.139267 
L 367.379453 73.376881 
L 367.399204 73.387692 
L 367.418946 73.529609 
L 367.438677 73.280104 
L 367.497814 73.316419 
L 367.517507 73.394346 
L 367.556864 73.128716 
L 367.635464 72.991909 
L 367.694313 73.199185 
L 367.733498 73.134485 
L 367.811754 72.626034 
L 367.928853 72.800802 
L 367.987276 72.669624 
L 368.045614 73.117345 
L 368.181408 72.132456 
L 368.20077 72.155856 
L 368.220123 72.399121 
L 368.29744 72.215319 
L 368.316746 72.14694 
L 368.355331 72.418243 
L 368.37461 72.350333 
L 368.470864 72.901344 
L 368.509302 72.513559 
L 368.547703 72.667516 
L 368.643545 72.440272 
L 368.681819 72.471819 
L 368.700942 72.567155 
L 368.73916 72.316839 
L 368.777343 72.509044 
L 369.062566 71.486862 
L 369.194982 71.816468 
L 369.213863 71.702306 
L 369.326964 71.304554 
L 369.345784 71.376189 
L 369.496024 72.279066 
L 369.645705 71.534025 
L 369.664377 71.642191 
L 369.701693 71.431549 
L 369.720338 71.26672 
L 369.776222 71.594066 
L 369.813435 71.387501 
L 369.869191 71.598282 
L 369.887759 71.435275 
L 369.906318 71.182896 
L 369.98047 71.448784 
L 369.998987 71.409826 
L 370.035995 71.061453 
L 370.128367 71.237723 
L 370.146816 71.201519 
L 370.275723 70.660322 
L 370.312478 70.683289 
L 370.532306 71.449405 
L 370.550571 71.38936 
L 370.568828 71.512224 
L 370.605317 71.791303 
L 370.659988 71.461367 
L 370.732768 71.719863 
L 370.859817 70.639787 
L 370.877934 70.616403 
L 370.896043 70.711723 
L 370.932237 70.725647 
L 371.004527 70.995806 
L 371.022579 71.184896 
L 371.076688 70.853103 
L 371.094708 70.952583 
L 371.166708 70.549523 
L 371.220623 70.732309 
L 371.274466 70.889168 
L 371.256527 70.668177 
L 371.292398 70.783235 
L 371.364046 70.513288 
L 371.399822 70.809339 
L 371.435566 70.780807 
L 371.50696 70.995806 
L 371.684893 70.292373 
L 371.808981 70.555542 
L 371.844364 70.16044 
L 371.897381 70.639787 
L 371.932687 70.628319 
L 372.03842 70.868315 
L 372.056015 70.864815 
L 372.143876 71.423944 
L 372.091182 70.73973 
L 372.196501 71.268109 
L 372.353964 70.408303 
L 372.371422 70.468997 
L 372.388872 70.559605 
L 372.406315 70.12307 
L 372.545587 69.778399 
L 372.562962 69.783523 
L 372.684379 70.11655 
L 372.701695 69.892676 
L 372.788161 70.050251 
L 372.943334 69.31419 
L 372.994925 69.068848 
L 373.029283 69.432096 
L 373.046451 69.27562 
L 373.063612 69.487104 
L 373.11505 69.218151 
L 373.268972 68.114866 
L 373.388283 68.481498 
L 373.405299 68.363307 
L 373.422308 68.327542 
L 373.456303 68.475346 
L 373.558118 68.736019 
L 373.507243 68.398419 
L 373.575063 68.537066 
L 373.642768 68.570713 
L 373.71036 68.226062 
L 373.744114 68.35551 
L 373.794691 68.265861 
L 373.962826 67.559269 
L 374.046631 68.1552 
L 374.09683 68.081069 
L 374.247054 67.528022 
L 374.263711 67.586351 
L 374.313641 67.365716 
L 374.330271 67.451201 
L 374.346894 67.431389 
L 374.36351 67.149191 
L 374.463061 67.274324 
L 374.512745 67.196318 
L 374.595415 67.37795 
L 374.628436 67.320989 
L 374.644936 67.490733 
L 374.727336 67.765198 
L 374.776695 67.619019 
L 374.891632 67.40432 
L 374.97353 67.912412 
L 375.022588 67.724328 
L 375.038928 67.503157 
L 375.055261 67.760836 
L 375.120527 67.730318 
L 375.136827 67.883921 
L 375.169407 67.392074 
L 375.185688 67.412398 
L 375.250743 67.443652 
L 375.364338 66.971139 
L 375.38054 66.968356 
L 375.461451 67.062485 
L 375.49377 66.800921 
L 375.542199 66.72237 
L 375.703214 67.598817 
L 375.799514 67.119327 
L 375.831563 67.233086 
L 375.943535 67.750069 
L 375.959506 67.57064 
L 375.97547 67.577817 
L 376.198308 68.601028 
L 376.245899 68.747309 
L 376.26175 68.566785 
L 376.309267 68.223152 
L 376.340913 68.661054 
L 376.388336 68.32045 
L 376.419921 68.377792 
L 376.435704 68.229803 
L 376.451481 68.218303 
L 376.561745 68.527401 
L 376.577473 68.326569 
L 376.624619 68.546455 
L 376.671709 68.358294 
L 376.734412 68.714721 
L 376.812652 68.65824 
L 377.030922 68.042493 
L 377.155118 67.560893 
L 377.170616 67.588654 
L 377.217073 67.860793 
L 377.278933 67.684604 
L 377.294383 67.475615 
L 377.356125 67.891589 
L 377.510066 68.495065 
L 377.632797 67.912412 
L 377.663422 68.12094 
L 377.678725 68.131297 
L 377.755156 67.676584 
L 377.816196 67.805718 
L 377.922794 68.199329 
L 377.938 68.051994 
L 378.01394 67.835087 
L 378.029111 68.012908 
L 378.120018 68.831138 
L 378.210719 68.755921 
L 378.376478 67.932565 
L 378.406542 68.033132 
L 378.511593 68.206114 
L 378.526577 68.150639 
L 378.601418 67.825385 
L 378.571499 68.25712 
L 378.631316 68.095549 
L 378.691044 68.345488 
L 378.750684 68.246578 
L 378.8697 67.159464 
L 378.914241 67.22827 
L 379.209927 67.959458 
L 379.239376 67.795207 
L 379.327596 67.367194 
L 379.35696 67.553315 
L 379.415623 67.400013 
L 379.474201 67.72814 
L 379.547305 67.493974 
L 379.503459 67.895286 
L 379.591103 67.627565 
L 379.634854 67.392612 
L 379.693114 67.710309 
L 379.736755 67.427482 
L 379.794868 67.619968 
L 379.910845 68.049102 
L 379.95425 67.882278 
L 380.012051 67.69181 
L 380.04092 67.986514 
L 380.055347 68.040841 
L 380.069769 67.933799 
L 380.113004 67.404859 
L 380.199334 67.604781 
L 380.256785 67.91392 
L 380.28548 68.193238 
L 380.314154 67.853134 
L 380.371441 68.038638 
L 380.45722 67.867907 
L 380.428648 68.148428 
L 380.485773 68.019373 
L 380.542817 68.24644 
L 380.585547 68.114866 
L 380.713467 67.685148 
L 380.939882 68.830997 
L 381.136957 67.826342 
L 381.165032 67.682429 
L 381.472574 68.975203 
L 381.569938 68.300991 
L 381.597714 68.416829 
L 381.708623 68.647126 
L 381.722465 68.625614 
L 381.736303 68.439719 
L 381.805419 68.806091 
L 381.819228 68.786436 
L 381.874417 68.600467 
L 382.025799 67.983079 
L 382.066986 68.128673 
L 382.121837 67.939834 
L 382.217647 67.563059 
L 382.149235 68.103274 
L 382.258639 67.71793 
L 382.299589 68.118593 
L 382.381365 67.932565 
L 382.394978 67.951909 
L 382.530857 68.570713 
L 382.855111 67.939286 
L 382.571532 68.640234 
L 382.868565 68.022124 
L 382.882014 68.21387 
L 382.935768 67.60817 
L 382.949195 67.691674 
L 382.962618 67.642357 
L 383.002859 67.869549 
L 383.016264 67.767516 
L 383.083222 67.95781 
L 383.109974 67.703643 
L 383.123343 67.925023 
L 383.190123 67.777744 
L 383.150068 68.021161 
L 383.216804 67.876118 
L 383.230138 68.074039 
L 383.296742 67.483578 
L 383.310049 67.415225 
L 383.363235 67.647244 
L 383.389802 67.539381 
L 383.416351 67.406609 
L 383.482648 66.565136 
L 383.56206 66.706082 
L 383.588497 66.919093 
L 383.641317 66.702405 
L 383.812506 65.434675 
L 383.825644 65.503933 
L 383.878154 65.710575 
L 383.930597 65.475757 
L 383.982971 65.640683 
L 384.061404 65.985227 
L 384.100564 65.911206 
L 384.113609 65.912099 
L 384.126649 65.788394 
L 384.165745 66.194916 
L 384.204804 66.101314 
L 384.334726 66.677338 
L 384.36066 66.534968 
L 384.46423 65.807723 
L 384.503001 65.882493 
L 384.515916 65.891295 
L 384.64484 64.934456 
L 384.670576 65.005588 
L 384.696295 64.860058 
L 384.721998 64.957159 
L 384.734843 65.115478 
L 384.760521 64.65891 
L 384.799007 64.795672 
L 385.00365 63.7244 
L 385.105583 63.847088 
L 385.080124 63.693221 
L 385.131026 63.839493 
L 385.194564 63.708688 
L 385.181864 63.990344 
L 385.219951 63.750764 
L 385.296016 64.070019 
L 385.333995 63.789704 
L 385.359294 63.582483 
L 385.409845 63.981756 
L 385.422473 63.843646 
L 385.435097 64.032363 
L 385.498157 63.581425 
L 385.510757 63.492798 
L 385.573699 63.837002 
L 385.661653 64.13337 
L 385.699289 63.943027 
L 385.749416 64.114074 
L 385.836987 63.571669 
L 385.87446 63.371986 
L 385.886943 63.520002 
L 385.999118 62.87319 
L 386.011562 62.953222 
L 386.024003 62.965989 
L 386.048873 62.879612 
L 386.210155 61.789479 
L 386.23491 61.995029 
L 386.33378 61.418946 
L 386.370794 61.601522 
L 386.567628 62.342058 
L 386.579898 62.144814 
L 386.861089 59.579756 
L 386.909792 59.682807 
L 386.934121 59.816267 
L 387.007022 59.618151 
L 387.12823 58.738477 
L 387.140331 58.786955 
L 387.200781 58.916141 
L 387.176612 58.700466 
L 387.237007 58.812765 
L 387.249075 58.668829 
L 387.309362 58.982106 
L 387.333452 58.870824 
L 387.417652 59.222009 
L 387.453684 59.069363 
L 387.645312 58.535258 
L 387.657259 58.553261 
L 387.70501 58.724216 
L 387.728864 58.338373 
L 387.883573 57.861249 
L 387.812243 58.36231 
L 387.919191 57.888437 
L 388.049522 58.047382 
L 387.966633 57.695706 
L 388.06135 58.014826 
L 388.073173 57.906994 
L 388.132241 58.202755 
L 388.155844 58.522968 
L 388.226569 58.166622 
L 388.261886 57.964376 
L 388.34417 58.067785 
L 388.473136 58.477491 
L 388.402842 57.893532 
L 388.49654 58.444926 
L 388.60169 58.222589 
L 388.613357 58.275257 
L 388.63668 58.304895 
L 388.694928 57.869604 
L 388.880757 57.029264 
L 388.938654 57.399509 
L 388.984911 57.14671 
L 388.996468 57.020314 
L 389.077267 57.313484 
L 389.192415 56.951144 
L 389.123366 57.438836 
L 389.215405 57.089468 
L 389.226896 57.223495 
L 389.284297 56.742889 
L 389.307235 56.955979 
L 389.318699 56.944729 
L 389.33016 57.134728 
L 389.341618 56.813772 
L 389.433161 57.097972 
L 389.581476 56.539823 
L 389.604245 56.616537 
L 389.695194 56.951144 
L 389.717899 56.669514 
L 389.751933 56.855627 
L 389.797267 56.55183 
L 389.819915 56.725819 
L 389.921673 56.544589 
L 389.944251 56.632346 
L 389.966816 56.612862 
L 390.056952 56.203141 
L 390.079454 56.312014 
L 390.191778 56.656629 
L 390.202993 56.587791 
L 390.247823 56.387291 
L 390.270219 56.217542 
L 390.314974 56.594034 
L 390.348507 56.448698 
L 390.393175 56.869809 
L 390.426644 56.189652 
L 390.693397 55.423907 
L 390.704473 55.486786 
L 390.715547 55.480695 
L 390.748749 55.758955 
L 390.804025 55.472928 
L 390.826114 55.516024 
L 390.837154 55.425405 
L 390.892309 55.702229 
L 390.925366 55.606402 
L 391.046343 55.432013 
L 390.958396 55.703653 
L 391.0683 55.552105 
L 391.12314 55.691645 
L 391.134099 55.466575 
L 391.145055 55.363806 
L 391.210728 55.684176 
L 391.232596 55.968678 
L 391.254452 55.571668 
L 391.319947 55.870065 
L 391.374446 55.594258 
L 391.417992 55.823478 
L 391.439747 56.010288 
L 391.483223 55.701518 
L 391.504943 55.767068 
L 391.559192 55.64615 
L 391.591707 55.792046 
L 391.624195 56.134404 
L 391.656657 55.635054 
L 391.678284 55.653875 
L 391.710703 55.527073 
L 391.753887 55.777859 
L 391.775462 55.765017 
L 392.012026 56.43007 
L 392.033463 56.407806 
L 392.076303 56.472823 
L 392.097706 56.309832 
L 392.108403 56.344667 
L 392.193879 56.166852 
L 392.225886 56.240836 
L 392.268522 56.551189 
L 392.343027 56.408444 
L 392.39616 55.75539 
L 392.47043 55.893611 
L 392.523396 55.782498 
L 392.502218 55.945697 
L 392.544563 55.918073 
L 392.618559 56.074757 
L 392.639676 55.827052 
L 392.650231 56.046376 
L 392.681877 55.878926 
L 392.671331 56.116704 
L 392.755622 56.034132 
L 392.797702 56.289479 
L 392.871236 56.229141 
L 392.955111 56.54853 
L 392.996982 56.053131 
L 393.007444 56.049978 
L 393.132767 55.606047 
L 393.143193 55.640024 
L 393.153616 55.70908 
L 393.174455 55.20707 
L 393.205692 55.036511 
L 393.247305 55.330334 
L 393.351149 55.69618 
L 393.38225 55.635853 
L 393.516744 55.975055 
L 393.44438 55.589738 
L 393.537396 55.916549 
L 393.691947 55.05746 
L 393.733061 55.161301 
L 393.743333 55.187758 
L 393.774133 55.011932 
L 393.784394 55.073029 
L 393.825414 54.758443 
L 393.907328 54.832535 
L 393.917556 54.878552 
L 393.95844 54.726197 
L 394.06047 54.228026 
L 394.080845 54.406588 
L 394.091029 54.538352 
L 394.152077 54.21511 
L 394.172405 54.330129 
L 394.324545 53.541328 
L 394.334667 53.559712 
L 394.415554 53.118191 
L 394.466026 53.377964 
L 394.496279 53.585453 
L 394.54665 53.162473 
L 394.556716 53.280055 
L 394.637159 52.965968 
L 394.596958 53.369035 
L 394.667284 53.067332 
L 394.67732 53.170524 
L 394.747506 52.769698 
L 394.917451 51.872697 
L 394.927425 51.883963 
L 395.027034 52.344049 
L 394.957334 51.873007 
L 395.066809 52.227694 
L 395.096614 51.779625 
L 395.185898 51.957425 
L 395.225517 52.051084 
L 395.274985 51.919347 
L 395.294755 51.953295 
L 395.334267 51.748979 
L 395.393461 51.995085 
L 395.462412 52.408265 
L 395.511591 52.108918 
L 395.55089 52.085426 
L 395.658767 51.506608 
L 395.67835 51.748438 
L 395.795649 52.299216 
L 395.815165 52.149762 
L 395.883399 51.599937 
L 395.941793 51.866482 
L 395.990391 52.08206 
L 396.04863 51.841716 
L 396.058329 51.840397 
L 396.126152 52.110563 
L 396.184196 52.097091 
L 396.232502 52.011007 
L 396.213187 52.176998 
L 396.261458 52.139094 
L 396.290393 52.361987 
L 396.338572 52.129685 
L 396.367452 52.232651 
L 396.42515 51.996958 
L 396.473168 52.145055 
L 396.540298 52.543739 
L 396.597749 52.462075 
L 396.626443 52.145369 
L 396.721945 52.202531 
L 396.855269 52.805326 
L 396.940745 52.419272 
L 397.054431 51.790158 
L 396.959715 52.47731 
L 397.092255 51.881399 
L 397.17723 52.243118 
L 397.1206 51.746272 
L 397.224361 52.222896 
L 397.374811 51.326432 
L 397.384196 51.346327 
L 397.402958 51.551736 
L 397.477921 51.254971 
L 397.487282 51.440964 
L 397.49664 51.342972 
L 397.543399 51.589475 
L 397.590104 51.389367 
L 397.599439 51.4428 
L 397.646079 51.114555 
L 397.6554 51.153532 
L 397.674037 51.128096 
L 397.739198 51.303962 
L 397.813538 51.666261 
L 397.84138 51.28288 
L 398.008032 50.484742 
L 398.0911 50.741 
L 398.044972 50.356927 
L 398.109536 50.511455 
L 398.192395 49.974008 
L 398.164794 50.583804 
L 398.238354 50.220673 
L 398.439955 50.735627 
L 398.585943 50.146615 
L 398.65874 50.270544 
L 398.640553 49.920669 
L 398.676918 50.120025 
L 398.785817 49.735095 
L 398.713251 50.165038 
L 398.822052 49.758153 
L 398.831105 49.799633 
L 398.885384 49.529487 
L 399.038777 49.008403 
L 399.047782 49.038393 
L 399.083782 48.912184 
L 399.173641 49.448659 
L 399.272255 49.007841 
L 399.325943 49.060397 
L 399.388489 48.988123 
L 399.361695 49.172017 
L 399.397416 49.02357 
L 399.406341 49.225092 
L 399.468762 48.844893 
L 399.504388 49.116152 
L 399.628831 48.662069 
L 399.655448 48.724477 
L 399.664316 48.750133 
L 399.690909 48.569508 
L 399.726339 48.176084 
L 399.805943 48.350911 
L 399.823612 48.514338 
L 399.911838 48.395938 
L 399.938269 48.349745 
L 399.991077 48.489998 
L 400.008665 48.605749 
L 400.0526 48.155711 
L 400.140327 48.074095 
L 400.114029 48.230665 
L 400.157849 48.166066 
L 400.166608 48.319586 
L 400.236607 47.96043 
L 400.332657 47.666032 
L 400.350096 47.802117 
L 400.393661 47.92825 
L 400.411073 47.7499 
L 400.419777 47.773073 
L 400.471959 47.442795 
L 400.532752 47.586817 
L 400.56745 47.478084 
L 400.723223 48.439867 
L 400.731859 48.441587 
L 400.809504 48.503786 
L 400.852575 48.157891 
L 400.878396 48.263191 
L 400.8956 48.031409 
L 400.929988 47.785104 
L 400.97293 48.27639 
L 401.015827 48.185628 
L 401.152792 47.627433 
L 401.161337 47.63579 
L 401.16988 47.644284 
L 401.263734 48.184333 
L 401.289293 48.0024 
L 401.484706 47.036613 
L 401.586286 47.334614 
L 401.628535 47.463192 
L 401.645423 47.261072 
L 401.68761 47.329057 
L 401.746599 46.932255 
L 401.797092 47.153845 
L 401.864317 47.381428 
L 401.906276 47.156015 
L 402.015166 46.808857 
L 402.031892 46.851751 
L 402.040253 46.873418 
L 402.048612 46.742435 
L 402.198774 45.848889 
L 402.265333 45.512679 
L 402.323483 45.672485 
L 402.356673 45.946291 
L 402.381548 45.643243 
L 402.422973 45.750195 
L 402.522218 45.589017 
L 402.480896 45.804982 
L 402.530477 45.629287 
L 402.538735 45.718685 
L 402.555245 45.458455 
L 402.621219 45.458703 
L 402.678858 45.533777 
L 402.826694 46.129742 
L 402.875853 45.749882 
L 402.933129 46.187177 
L 402.949478 46.095591 
L 402.982158 45.988903 
L 403.039283 46.228819 
L 403.06374 46.527957 
L 403.128888 46.041691 
L 403.137024 46.067173 
L 403.242643 46.149847 
L 403.161422 45.995717 
L 403.250756 46.090209 
L 403.258867 46.080397 
L 403.331797 46.597937 
L 403.380344 46.359162 
L 403.509516 45.364445 
L 403.573947 45.58995 
L 403.638276 45.763897 
L 403.718542 46.028232 
L 403.686455 45.657954 
L 403.766626 45.965887 
L 403.782641 45.790195 
L 403.846637 46.065908 
L 403.878597 45.805734 
L 403.894568 46.089955 
L 403.982293 45.644801 
L 403.990259 45.609861 
L 404.022105 45.887583 
L 404.030063 45.816078 
L 404.077776 46.203953 
L 404.141306 45.911039 
L 404.252243 45.35809 
L 404.283883 45.442858 
L 404.315499 45.32381 
L 404.347089 45.485213 
L 404.370766 45.776417 
L 404.441713 45.339342 
L 404.528257 45.274006 
L 404.473205 45.545264 
L 404.536115 45.417129 
L 404.543972 45.427454 
L 404.551827 45.292772 
L 404.567533 45.313953 
L 404.622456 44.888166 
L 404.700788 45.080306 
L 404.716436 45.165959 
L 404.75553 45.088431 
L 404.872585 45.573285 
L 404.888166 45.556133 
L 404.958209 45.400318 
L 404.927094 45.588519 
L 404.997069 45.535267 
L 405.02813 45.594677 
L 405.043652 45.545947 
L 405.159873 44.881918 
L 405.175344 44.981333 
L 405.183077 45.061253 
L 405.24489 44.797785 
L 405.275761 44.90686 
L 405.414387 44.403794 
L 405.306608 44.994424 
L 405.422075 44.485803 
L 405.475846 44.630629 
L 405.45281 44.370235 
L 405.514211 44.367137 
L 405.59083 43.707523 
L 405.636732 43.862972 
L 405.728379 43.808958 
L 405.690218 44.050775 
L 405.736007 43.905542 
L 405.857857 44.312331 
L 405.873062 44.210024 
L 405.903455 44.262674 
L 406.002076 44.035053 
L 406.11557 43.793019 
L 406.032373 44.049185 
L 406.138231 43.940548 
L 406.266401 44.170956 
L 406.30402 44.472168 
L 406.341605 44.147068 
L 406.356629 44.152979 
L 406.43916 43.98588 
L 406.46913 44.085018 
L 406.491593 44.262437 
L 406.573849 44.071811 
L 406.588787 44.154457 
L 406.655938 43.520246 
L 406.708089 43.850336 
L 406.827039 44.257037 
L 406.841883 44.185452 
L 406.975235 43.69519 
L 407.019587 43.762043 
L 407.026975 43.924535 
L 407.0934 43.243955 
L 407.100774 43.303265 
L 407.108147 43.239146 
L 407.130256 43.441046 
L 407.196512 43.39986 
L 407.314031 43.694724 
L 407.343357 43.551537 
L 407.365338 43.245958 
L 407.431209 43.610627 
L 407.445832 43.60506 
L 407.526165 44.017574 
L 407.569916 43.770148 
L 407.577203 43.712412 
L 407.628177 44.182789 
L 407.686353 44.084252 
L 407.751702 44.425333 
L 407.874849 43.855191 
L 407.918223 43.986057 
L 408.01204 44.280543 
L 407.975983 43.87977 
L 408.048066 44.163622 
L 408.620138 42.125118 
L 408.069666 44.197054 
L 408.648529 42.166084 
L 408.705252 42.624259 
L 408.776044 42.503998 
L 408.81846 42.581729 
L 408.797258 42.43855 
L 408.881999 42.503384 
L 408.910207 42.430317 
L 408.945439 42.796375 
L 408.966563 42.705299 
L 408.994712 42.935154 
L 409.015811 42.614629 
L 409.022841 42.65861 
L 409.149179 42.155782 
L 409.170197 42.270751 
L 409.1772 42.370978 
L 409.240177 42.009149 
L 409.254159 42.04863 
L 409.365837 41.705025 
L 409.310037 42.060485 
L 409.372806 41.710501 
L 409.386742 41.721781 
L 409.581336 41.061295 
L 409.615987 40.600411 
L 409.692113 40.901086 
L 409.712849 41.077355 
L 409.733575 40.73759 
L 409.754291 40.791021 
L 409.843935 40.636353 
L 409.781895 40.826103 
L 409.857708 40.764005 
L 409.940252 41.06935 
L 409.871477 40.758762 
L 409.995187 40.957204 
L 410.104833 40.723554 
L 410.008909 40.966497 
L 410.118518 40.828678 
L 410.17321 41.142591 
L 410.214181 40.774284 
L 410.234651 40.953139 
L 410.336845 40.85076 
L 410.261928 41.184445 
L 410.343649 40.860597 
L 410.357253 40.994343 
L 410.43878 40.720989 
L 410.486262 40.495768 
L 410.513369 40.290627 
L 410.547228 40.628159 
L 410.594582 40.506781 
L 410.709354 40.785144 
L 410.648633 40.40533 
L 410.729574 40.647421 
L 410.7969 40.300735 
L 410.763251 40.676417 
L 410.850681 40.386491 
L 410.917806 39.791998 
L 410.991514 39.277479 
L 411.03835 39.520543 
L 411.051721 39.649088 
L 411.125185 39.246453 
L 411.211834 38.856825 
L 411.231804 39.242478 
L 411.291653 39.587056 
L 411.351414 39.468958 
L 411.430957 39.12368 
L 411.364682 39.478776 
L 411.477284 39.25525 
L 411.497123 39.207521 
L 411.503733 39.341277 
L 411.602763 39.557246 
L 411.523559 39.158336 
L 411.62254 39.377399 
L 411.780406 38.851337 
L 411.78697 38.910545 
L 411.793533 39.047242 
L 411.872209 38.490054 
L 411.878759 38.530868 
L 412.009524 37.84752 
L 411.91149 38.584651 
L 412.029102 38.076252 
L 412.042149 38.161437 
L 412.06823 38.005588 
L 412.074748 38.0299 
L 412.178887 37.798567 
L 412.185386 37.815048 
L 412.217869 37.9641 
L 412.282757 37.602286 
L 412.28924 37.730712 
L 412.373425 37.402145 
L 412.405757 37.626911 
L 412.54771 37.237686 
L 412.444521 37.70962 
L 412.605638 37.379808 
L 412.637784 37.437967 
L 412.650636 37.174442 
L 412.714831 37.417279 
L 412.727658 37.456245 
L 412.798132 37.036012 
L 412.817331 36.97583 
L 412.868484 37.161699 
L 412.894036 37.696446 
L 412.98334 37.50087 
L 413.002451 37.511851 
L 413.218411 36.839098 
L 413.23741 37.003541 
L 413.300678 36.611342 
L 413.31332 36.657009 
L 413.332275 36.389808 
L 413.414311 36.706929 
L 413.471008 37.210994 
L 413.565325 37.063644 
L 413.615538 36.841334 
L 413.678215 37.03183 
L 413.722032 37.271169 
L 413.759551 36.746155 
L 413.77205 36.823221 
L 413.822005 37.245972 
L 413.890594 36.886278 
L 413.971502 36.465006 
L 414.033629 36.784935 
L 414.132833 37.129729 
L 414.058453 36.634483 
L 414.151407 37.001705 
L 414.157596 37.001292 
L 414.231794 36.699254 
L 414.268842 36.937658 
L 414.287353 37.303299 
L 414.348996 36.827645 
L 414.379781 36.939673 
L 414.551749 37.548889 
L 414.557877 37.472108 
L 414.606869 37.365345 
L 414.637458 37.738201 
L 414.643574 37.726756 
L 414.722986 38.190287 
L 414.765682 37.943071 
L 414.832684 37.686428 
L 414.893498 37.423381 
L 414.923871 37.754459 
L 414.942084 37.632308 
L 414.954221 37.859062 
L 415.057241 37.741829 
L 415.166034 37.383204 
L 415.111674 37.756109 
L 415.178104 37.605709 
L 415.214292 37.542946 
L 415.286572 37.137153 
L 415.334686 37.337649 
L 415.352714 37.199898 
L 415.376739 37.463102 
L 415.418748 37.401447 
L 415.424746 37.456945 
L 415.472696 36.922458 
L 415.478685 36.923969 
L 415.610234 37.106547 
L 415.562448 36.847176 
L 415.616204 37.083108 
L 415.646037 36.976564 
L 415.699681 37.306964 
L 415.705637 37.284749 
L 415.717547 37.422682 
L 415.794873 36.964598 
L 415.812696 36.867634 
L 415.883911 36.50002 
L 415.949081 36.660954 
L 415.984584 36.893547 
L 416.03778 36.491183 
L 416.049592 36.591069 
L 416.0614 36.611704 
L 416.085007 36.432825 
L 416.202831 36.137483 
L 416.12039 36.720559 
L 416.208713 36.167369 
L 416.226355 36.240234 
L 416.285103 35.884347 
L 416.332041 35.590287 
L 416.408198 35.755242 
L 416.484212 36.205942 
L 416.525083 36.00208 
L 416.548419 35.837575 
L 416.62999 36.108963 
L 416.653266 36.019629 
L 416.705587 36.336365 
L 416.798435 36.788443 
L 416.838988 36.747975 
L 416.873716 36.653337 
L 416.885286 36.735241 
L 416.891069 36.865807 
L 416.925752 36.465051 
L 416.983491 36.485775 
L 416.995029 36.597222 
L 417.127478 36.05476 
L 417.196409 35.292817 
L 417.24803 35.624014 
L 417.362507 36.074341 
L 417.385364 35.969359 
L 417.505149 35.460081 
L 417.510844 35.46621 
L 417.527924 35.604742 
L 417.584808 35.24792 
L 417.601857 35.380269 
L 417.681325 35.130188 
L 417.721001 35.159371 
L 417.726665 35.286985 
L 417.788925 34.798921 
L 417.817193 34.875999 
L 417.975129 34.26285 
L 417.980758 34.283812 
L 418.014516 34.036595 
L 418.025763 34.095671 
L 418.037006 33.936433 
L 418.076333 34.449259 
L 418.115622 34.297322 
L 418.149267 34.453747 
L 418.205281 33.999426 
L 418.210878 34.007393 
L 418.300326 34.065249 
L 418.339397 33.721307 
L 418.406288 33.95802 
L 418.350553 33.717057 
L 418.467507 33.840605 
L 418.473068 33.796112 
L 418.517527 34.250147 
L 418.545288 34.453956 
L 418.600755 33.969273 
L 418.611839 34.037463 
L 419.008849 32.736316 
L 419.036275 32.949255 
L 419.04724 33.090219 
L 419.085594 32.848152 
L 419.145791 32.951164 
L 419.184051 33.14082 
L 419.265915 33.527444 
L 419.200437 33.0891 
L 419.304062 33.312054 
L 419.407421 32.772768 
L 419.429147 32.841773 
L 419.548431 32.485746 
L 419.559257 32.600677 
L 419.602535 32.448998 
L 419.683554 32.785773 
L 419.82898 31.978184 
L 419.834356 32.098974 
L 419.882708 31.727096 
L 419.92564 31.870345 
L 420.059506 31.392621 
L 420.155615 31.220179 
L 420.112928 31.473123 
L 420.16628 31.391266 
L 420.171611 31.42557 
L 420.230209 31.079137 
L 420.251496 31.299891 
L 420.309977 31.142146 
L 420.272772 31.353658 
L 420.368374 31.220628 
L 420.373679 31.279604 
L 420.421389 31.043875 
L 420.479625 31.256523 
L 420.585293 31.08044 
L 420.537777 31.29554 
L 420.616939 31.159908 
L 420.738021 31.324509 
L 420.659096 31.067937 
L 420.743277 31.256523 
L 420.806298 31.006541 
L 420.769548 31.513914 
L 420.848257 31.264914 
L 420.853499 31.279342 
L 420.879698 31.088779 
L 420.884936 31.088965 
L 420.984324 30.808843 
L 420.916348 31.098945 
L 420.994771 30.935353 
L 421.083467 31.408432 
L 421.109517 31.189485 
L 421.182367 30.909443 
L 421.223937 31.05648 
L 421.332854 30.837354 
L 421.301764 31.199389 
L 421.343211 30.923098 
L 421.451807 30.553711 
L 421.467296 30.801655 
L 421.585854 31.016938 
L 421.518886 30.673687 
L 421.642432 30.930502 
L 421.657849 30.754041 
L 421.714326 31.173087 
L 421.745099 30.970072 
L 421.791214 31.042351 
L 421.81681 30.739511 
L 421.837276 30.859061 
L 421.903717 30.432824 
L 421.94455 30.767437 
L 421.949651 30.862312 
L 422.036272 30.579443 
L 422.127786 30.111477 
L 422.15317 30.434607 
L 422.173465 30.572167 
L 422.219093 30.206588 
L 422.254545 30.362375 
L 422.325357 29.885827 
L 422.370813 30.16274 
L 422.476678 30.688954 
L 422.506874 30.590891 
L 422.511904 30.585587 
L 422.526992 30.70658 
L 422.537047 30.862607 
L 422.612382 30.416531 
L 422.637463 30.713634 
L 422.682568 30.837022 
L 422.807597 29.950554 
L 422.96707 30.232186 
L 423.041607 30.070217 
L 423.011809 30.325495 
L 423.081303 30.141417 
L 423.165528 29.782116 
L 423.205103 29.880832 
L 423.244639 30.202872 
L 423.294004 29.824665 
L 423.298937 29.844717 
L 423.338381 29.534603 
L 423.372863 29.881831 
L 423.412234 29.63518 
L 423.431906 29.812705 
L 423.485953 29.146124 
L 423.490862 29.113921 
L 423.539927 29.334342 
L 423.579136 29.206704 
L 423.701418 29.589348 
L 423.706302 29.504489 
L 423.720949 29.388946 
L 423.808721 29.66685 
L 423.871993 29.897247 
L 423.901162 29.595316 
L 423.915738 29.67464 
L 423.920596 29.661929 
L 423.944876 29.898782 
L 423.94973 29.991496 
L 423.978842 29.778845 
L 424.046691 29.87755 
L 424.061215 29.567183 
L 424.167565 29.621143 
L 424.379426 29.095422 
L 424.186871 29.83574 
L 424.384228 29.178155 
L 424.508883 29.469028 
L 424.676081 28.586391 
L 424.685614 28.603571 
L 424.709437 28.73827 
L 424.738007 28.505982 
L 424.790331 28.536682 
L 424.823593 28.740051 
L 424.866318 28.500919 
L 424.908998 28.641547 
L 424.913738 28.609982 
L 424.9753 28.889282 
L 424.989493 28.844093 
L 425.00841 28.802856 
L 425.069827 29.13615 
L 425.083987 29.381795 
L 425.164134 28.666688 
L 425.211204 28.806187 
L 425.201794 28.579338 
L 425.244121 28.603298 
L 425.272314 28.193166 
L 425.347399 28.680053 
L 425.352087 28.628029 
L 425.356774 28.777182 
L 425.412983 28.387673 
L 425.459764 28.655447 
L 425.511161 28.768024 
L 425.520498 28.568302 
L 425.529834 28.663407 
L 425.655653 27.998387 
L 425.660306 28.056686 
L 425.776443 28.365755 
L 425.794994 28.350746 
L 425.813536 28.178383 
L 425.836702 28.458585 
L 425.95695 28.673113 
L 425.896871 28.152465 
L 425.975418 28.655207 
L 426.03999 28.133981 
L 425.993878 28.671882 
L 426.113659 28.260626 
L 426.122859 28.504894 
L 426.196377 27.978135 
L 426.214735 28.013777 
L 426.233086 28.267634 
L 426.283506 27.858026 
L 426.315559 28.016315 
L 426.448078 27.264795 
L 426.45264 27.3392 
L 426.457201 27.260502 
L 426.530112 27.71717 
L 426.566519 27.286657 
L 426.621067 27.075385 
L 426.657391 27.340342 
L 426.675541 27.273772 
L 426.680077 27.262096 
L 426.716348 27.458528 
L 426.806883 27.672034 
L 426.74353 27.354203 
L 426.824966 27.465339 
L 427.081767 26.29636 
L 426.838523 27.623347 
L 427.099726 26.409967 
L 427.131137 26.559439 
L 427.180447 26.297994 
L 427.21627 26.43244 
L 427.305691 25.800834 
L 427.354788 26.069168 
L 427.386 26.291082 
L 427.448352 25.874544 
L 427.506164 25.836954 
L 427.475045 26.147051 
L 427.5417 25.993333 
L 427.586075 26.24942 
L 427.634832 25.787128 
L 427.639261 25.868012 
L 427.64369 25.7975 
L 427.705646 26.447221 
L 427.718909 26.581143 
L 427.76309 26.117839 
L 427.811633 26.343284 
L 427.816043 26.3912 
L 427.864523 25.846695 
L 427.877734 25.923656 
L 428.005223 25.148016 
L 428.035936 25.347892 
L 428.066625 25.516219 
L 428.141059 25.208577 
L 428.280799 25.855263 
L 428.18478 25.189111 
L 428.306946 25.808401 
L 428.354839 25.522945 
L 428.402675 25.920306 
L 428.415711 26.044833 
L 428.485167 25.602186 
L 428.498177 25.674548 
L 428.563162 25.44356 
L 428.606428 25.33984 
L 428.584801 25.507448 
L 428.662604 25.505981 
L 428.770414 25.799846 
L 428.783332 25.727594 
L 428.830663 25.745432 
L 428.809156 25.519307 
L 428.839262 25.608687 
L 428.9037 25.123557 
L 428.959464 25.492142 
L 428.998024 25.143822 
L 429.109213 25.324807 
L 429.330675 26.408863 
L 429.34766 26.374432 
L 429.436716 26.264577 
L 429.373125 26.525838 
L 429.449422 26.423884 
L 429.453656 26.564229 
L 429.550927 26.189 
L 429.559374 26.144581 
L 429.584705 26.350619 
L 429.656391 26.243491 
L 429.807775 25.719804 
L 429.711123 26.270887 
L 429.849725 25.909982 
L 429.85811 25.990318 
L 429.912569 25.69829 
L 429.946046 25.808771 
L 430.067166 25.063538 
L 430.079675 25.219707 
L 430.088012 25.346433 
L 430.146324 24.788749 
L 430.150486 24.825685 
L 430.291736 24.529061 
L 430.225327 24.951851 
L 430.295883 24.550353 
L 430.391144 24.81459 
L 430.337328 24.41373 
L 430.420092 24.632123 
L 430.424226 24.56829 
L 430.49856 25.074851 
L 430.548041 25.365005 
L 430.585111 24.96363 
L 430.638597 24.439936 
L 430.712538 24.649519 
L 430.827288 24.988551 
L 430.835472 24.87716 
L 430.839563 24.918342 
L 430.860014 24.622377 
L 430.921303 24.653581 
L 431.002877 24.219543 
L 431.051743 24.593989 
L 431.092419 24.72257 
L 431.108678 24.454329 
L 431.165532 24.644569 
L 431.295185 24.020187 
L 431.197985 24.814143 
L 431.327533 24.166687 
L 431.331575 24.191032 
L 431.380044 24.03663 
L 431.416357 24.11009 
L 431.436517 23.829455 
L 431.440548 23.89464 
" style="fill:none;stroke:#1f77b4;stroke-linecap:square;stroke-width:1.5;"/>
   </g>
   <g id="patch_3">
    <path d="M 41.692054 297.448 
L 41.692054 10.8 
" style="fill:none;stroke:#000000;stroke-linecap:square;stroke-linejoin:miter;stroke-width:0.8;"/>
   </g>
   <g id="patch_4">
    <path d="M 450 297.448 
L 450 10.8 
" style="fill:none;stroke:#000000;stroke-linecap:square;stroke-linejoin:miter;stroke-width:0.8;"/>
   </g>
   <g id="patch_5">
    <path d="M 41.692054 297.448 
L 450 297.448 
" style="fill:none;stroke:#000000;stroke-linecap:square;stroke-linejoin:miter;stroke-width:0.8;"/>
   </g>
   <g id="patch_6">
    <path d="M 41.692054 10.8 
L 450 10.8 
" style="fill:none;stroke:#000000;stroke-linecap:square;stroke-linejoin:miter;stroke-width:0.8;"/>
   </g>
  </g>
 </g>
 <defs>
  <clipPath id="p3e8e7a8c91">
   <rect height="286.648" width="408.307946" x="41.692054" y="10.8"/>
  </clipPath>
 </defs>
</svg>
