<?xml version="1.0" encoding="utf-8" standalone="no"?>
<!DOCTYPE svg PUBLIC "-//W3C//DTD SVG 1.1//EN"
  "http://www.w3.org/Graphics/SVG/1.1/DTD/svg11.dtd">
<!-- Created with matplotlib (https://matplotlib.org/) -->
<svg height="345.6pt" version="1.1" viewBox="0 0 460.8 345.6" width="460.8pt" xmlns="http://www.w3.org/2000/svg" xmlns:xlink="http://www.w3.org/1999/xlink">
 <metadata>
  <rdf:RDF xmlns:cc="http://creativecommons.org/ns#" xmlns:dc="http://purl.org/dc/elements/1.1/" xmlns:rdf="http://www.w3.org/1999/02/22-rdf-syntax-ns#">
   <cc:Work>
    <dc:type rdf:resource="http://purl.org/dc/dcmitype/StillImage"/>
    <dc:date>2022-05-12T01:10:05.607102</dc:date>
    <dc:format>image/svg+xml</dc:format>
    <dc:creator>
     <cc:Agent>
      <dc:title>Matplotlib v3.3.4, https://matplotlib.org/</dc:title>
     </cc:Agent>
    </dc:creator>
   </cc:Work>
  </rdf:RDF>
 </metadata>
 <defs>
  <style type="text/css">*{stroke-linecap:butt;stroke-linejoin:round;}</style>
 </defs>
 <g id="figure_1">
  <g id="patch_1">
   <path d="M 0 345.6 
L 460.8 345.6 
L 460.8 0 
L 0 0 
z
" style="fill:#ffffff;"/>
  </g>
  <g id="axes_1">
   <g id="patch_2">
    <path d="M 57.6 307.584 
L 414.72 307.584 
L 414.72 41.472 
L 57.6 41.472 
z
" style="fill:#ffffff;"/>
   </g>
   <g id="matplotlib.axis_1">
    <g id="xtick_1">
     <g id="line2d_1">
      <defs>
       <path d="M 0 0 
L 0 3.5 
" id="m84b71004b3" style="stroke:#000000;stroke-width:0.8;"/>
      </defs>
      <g>
       <use style="stroke:#000000;stroke-width:0.8;" x="68.267221" xlink:href="#m84b71004b3" y="307.584"/>
      </g>
     </g>
     <g id="text_1">
      <!-- 1.50 -->
      <g transform="translate(57.134408 322.182437)scale(0.1 -0.1)">
       <defs>
        <path d="M 12.40625 8.296875 
L 28.515625 8.296875 
L 28.515625 63.921875 
L 10.984375 60.40625 
L 10.984375 69.390625 
L 28.421875 72.90625 
L 38.28125 72.90625 
L 38.28125 8.296875 
L 54.390625 8.296875 
L 54.390625 0 
L 12.40625 0 
z
" id="DejaVuSans-49"/>
        <path d="M 10.6875 12.40625 
L 21 12.40625 
L 21 0 
L 10.6875 0 
z
" id="DejaVuSans-46"/>
        <path d="M 10.796875 72.90625 
L 49.515625 72.90625 
L 49.515625 64.59375 
L 19.828125 64.59375 
L 19.828125 46.734375 
Q 21.96875 47.46875 24.109375 47.828125 
Q 26.265625 48.1875 28.421875 48.1875 
Q 40.625 48.1875 47.75 41.5 
Q 54.890625 34.8125 54.890625 23.390625 
Q 54.890625 11.625 47.5625 5.09375 
Q 40.234375 -1.421875 26.90625 -1.421875 
Q 22.3125 -1.421875 17.546875 -0.640625 
Q 12.796875 0.140625 7.71875 1.703125 
L 7.71875 11.625 
Q 12.109375 9.234375 16.796875 8.0625 
Q 21.484375 6.890625 26.703125 6.890625 
Q 35.15625 6.890625 40.078125 11.328125 
Q 45.015625 15.765625 45.015625 23.390625 
Q 45.015625 31 40.078125 35.4375 
Q 35.15625 39.890625 26.703125 39.890625 
Q 22.75 39.890625 18.8125 39.015625 
Q 14.890625 38.140625 10.796875 36.28125 
z
" id="DejaVuSans-53"/>
        <path d="M 31.78125 66.40625 
Q 24.171875 66.40625 20.328125 58.90625 
Q 16.5 51.421875 16.5 36.375 
Q 16.5 21.390625 20.328125 13.890625 
Q 24.171875 6.390625 31.78125 6.390625 
Q 39.453125 6.390625 43.28125 13.890625 
Q 47.125 21.390625 47.125 36.375 
Q 47.125 51.421875 43.28125 58.90625 
Q 39.453125 66.40625 31.78125 66.40625 
z
M 31.78125 74.21875 
Q 44.046875 74.21875 50.515625 64.515625 
Q 56.984375 54.828125 56.984375 36.375 
Q 56.984375 17.96875 50.515625 8.265625 
Q 44.046875 -1.421875 31.78125 -1.421875 
Q 19.53125 -1.421875 13.0625 8.265625 
Q 6.59375 17.96875 6.59375 36.375 
Q 6.59375 54.828125 13.0625 64.515625 
Q 19.53125 74.21875 31.78125 74.21875 
z
" id="DejaVuSans-48"/>
       </defs>
       <use xlink:href="#DejaVuSans-49"/>
       <use x="63.623047" xlink:href="#DejaVuSans-46"/>
       <use x="95.410156" xlink:href="#DejaVuSans-53"/>
       <use x="159.033203" xlink:href="#DejaVuSans-48"/>
      </g>
     </g>
    </g>
    <g id="xtick_2">
     <g id="line2d_2">
      <g>
       <use style="stroke:#000000;stroke-width:0.8;" x="114.646442" xlink:href="#m84b71004b3" y="307.584"/>
      </g>
     </g>
     <g id="text_2">
      <!-- 1.75 -->
      <g transform="translate(103.513629 322.182437)scale(0.1 -0.1)">
       <defs>
        <path d="M 8.203125 72.90625 
L 55.078125 72.90625 
L 55.078125 68.703125 
L 28.609375 0 
L 18.3125 0 
L 43.21875 64.59375 
L 8.203125 64.59375 
z
" id="DejaVuSans-55"/>
       </defs>
       <use xlink:href="#DejaVuSans-49"/>
       <use x="63.623047" xlink:href="#DejaVuSans-46"/>
       <use x="95.410156" xlink:href="#DejaVuSans-55"/>
       <use x="159.033203" xlink:href="#DejaVuSans-53"/>
      </g>
     </g>
    </g>
    <g id="xtick_3">
     <g id="line2d_3">
      <g>
       <use style="stroke:#000000;stroke-width:0.8;" x="161.025662" xlink:href="#m84b71004b3" y="307.584"/>
      </g>
     </g>
     <g id="text_3">
      <!-- 2.00 -->
      <g transform="translate(149.89285 322.182437)scale(0.1 -0.1)">
       <defs>
        <path d="M 19.1875 8.296875 
L 53.609375 8.296875 
L 53.609375 0 
L 7.328125 0 
L 7.328125 8.296875 
Q 12.9375 14.109375 22.625 23.890625 
Q 32.328125 33.6875 34.8125 36.53125 
Q 39.546875 41.84375 41.421875 45.53125 
Q 43.3125 49.21875 43.3125 52.78125 
Q 43.3125 58.59375 39.234375 62.25 
Q 35.15625 65.921875 28.609375 65.921875 
Q 23.96875 65.921875 18.8125 64.3125 
Q 13.671875 62.703125 7.8125 59.421875 
L 7.8125 69.390625 
Q 13.765625 71.78125 18.9375 73 
Q 24.125 74.21875 28.421875 74.21875 
Q 39.75 74.21875 46.484375 68.546875 
Q 53.21875 62.890625 53.21875 53.421875 
Q 53.21875 48.921875 51.53125 44.890625 
Q 49.859375 40.875 45.40625 35.40625 
Q 44.1875 33.984375 37.640625 27.21875 
Q 31.109375 20.453125 19.1875 8.296875 
z
" id="DejaVuSans-50"/>
       </defs>
       <use xlink:href="#DejaVuSans-50"/>
       <use x="63.623047" xlink:href="#DejaVuSans-46"/>
       <use x="95.410156" xlink:href="#DejaVuSans-48"/>
       <use x="159.033203" xlink:href="#DejaVuSans-48"/>
      </g>
     </g>
    </g>
    <g id="xtick_4">
     <g id="line2d_4">
      <g>
       <use style="stroke:#000000;stroke-width:0.8;" x="207.404883" xlink:href="#m84b71004b3" y="307.584"/>
      </g>
     </g>
     <g id="text_4">
      <!-- 2.25 -->
      <g transform="translate(196.272071 322.182437)scale(0.1 -0.1)">
       <use xlink:href="#DejaVuSans-50"/>
       <use x="63.623047" xlink:href="#DejaVuSans-46"/>
       <use x="95.410156" xlink:href="#DejaVuSans-50"/>
       <use x="159.033203" xlink:href="#DejaVuSans-53"/>
      </g>
     </g>
    </g>
    <g id="xtick_5">
     <g id="line2d_5">
      <g>
       <use style="stroke:#000000;stroke-width:0.8;" x="253.784104" xlink:href="#m84b71004b3" y="307.584"/>
      </g>
     </g>
     <g id="text_5">
      <!-- 2.50 -->
      <g transform="translate(242.651291 322.182437)scale(0.1 -0.1)">
       <use xlink:href="#DejaVuSans-50"/>
       <use x="63.623047" xlink:href="#DejaVuSans-46"/>
       <use x="95.410156" xlink:href="#DejaVuSans-53"/>
       <use x="159.033203" xlink:href="#DejaVuSans-48"/>
      </g>
     </g>
    </g>
    <g id="xtick_6">
     <g id="line2d_6">
      <g>
       <use style="stroke:#000000;stroke-width:0.8;" x="300.163325" xlink:href="#m84b71004b3" y="307.584"/>
      </g>
     </g>
     <g id="text_6">
      <!-- 2.75 -->
      <g transform="translate(289.030512 322.182437)scale(0.1 -0.1)">
       <use xlink:href="#DejaVuSans-50"/>
       <use x="63.623047" xlink:href="#DejaVuSans-46"/>
       <use x="95.410156" xlink:href="#DejaVuSans-55"/>
       <use x="159.033203" xlink:href="#DejaVuSans-53"/>
      </g>
     </g>
    </g>
    <g id="xtick_7">
     <g id="line2d_7">
      <g>
       <use style="stroke:#000000;stroke-width:0.8;" x="346.542545" xlink:href="#m84b71004b3" y="307.584"/>
      </g>
     </g>
     <g id="text_7">
      <!-- 3.00 -->
      <g transform="translate(335.409733 322.182437)scale(0.1 -0.1)">
       <defs>
        <path d="M 40.578125 39.3125 
Q 47.65625 37.796875 51.625 33 
Q 55.609375 28.21875 55.609375 21.1875 
Q 55.609375 10.40625 48.1875 4.484375 
Q 40.765625 -1.421875 27.09375 -1.421875 
Q 22.515625 -1.421875 17.65625 -0.515625 
Q 12.796875 0.390625 7.625 2.203125 
L 7.625 11.71875 
Q 11.71875 9.328125 16.59375 8.109375 
Q 21.484375 6.890625 26.8125 6.890625 
Q 36.078125 6.890625 40.9375 10.546875 
Q 45.796875 14.203125 45.796875 21.1875 
Q 45.796875 27.640625 41.28125 31.265625 
Q 36.765625 34.90625 28.71875 34.90625 
L 20.21875 34.90625 
L 20.21875 43.015625 
L 29.109375 43.015625 
Q 36.375 43.015625 40.234375 45.921875 
Q 44.09375 48.828125 44.09375 54.296875 
Q 44.09375 59.90625 40.109375 62.90625 
Q 36.140625 65.921875 28.71875 65.921875 
Q 24.65625 65.921875 20.015625 65.03125 
Q 15.375 64.15625 9.8125 62.3125 
L 9.8125 71.09375 
Q 15.4375 72.65625 20.34375 73.4375 
Q 25.25 74.21875 29.59375 74.21875 
Q 40.828125 74.21875 47.359375 69.109375 
Q 53.90625 64.015625 53.90625 55.328125 
Q 53.90625 49.265625 50.4375 45.09375 
Q 46.96875 40.921875 40.578125 39.3125 
z
" id="DejaVuSans-51"/>
       </defs>
       <use xlink:href="#DejaVuSans-51"/>
       <use x="63.623047" xlink:href="#DejaVuSans-46"/>
       <use x="95.410156" xlink:href="#DejaVuSans-48"/>
       <use x="159.033203" xlink:href="#DejaVuSans-48"/>
      </g>
     </g>
    </g>
    <g id="xtick_8">
     <g id="line2d_8">
      <g>
       <use style="stroke:#000000;stroke-width:0.8;" x="392.921766" xlink:href="#m84b71004b3" y="307.584"/>
      </g>
     </g>
     <g id="text_8">
      <!-- 3.25 -->
      <g transform="translate(381.788954 322.182437)scale(0.1 -0.1)">
       <use xlink:href="#DejaVuSans-51"/>
       <use x="63.623047" xlink:href="#DejaVuSans-46"/>
       <use x="95.410156" xlink:href="#DejaVuSans-50"/>
       <use x="159.033203" xlink:href="#DejaVuSans-53"/>
      </g>
     </g>
    </g>
   </g>
   <g id="matplotlib.axis_2">
    <g id="ytick_1">
     <g id="line2d_9">
      <defs>
       <path d="M 0 0 
L -3.5 0 
" id="ma55718df06" style="stroke:#000000;stroke-width:0.8;"/>
      </defs>
      <g>
       <use style="stroke:#000000;stroke-width:0.8;" x="57.6" xlink:href="#ma55718df06" y="264.737925"/>
      </g>
     </g>
     <g id="text_9">
      <!-- −3.5 -->
      <g transform="translate(26.317187 268.537144)scale(0.1 -0.1)">
       <defs>
        <path d="M 10.59375 35.5 
L 73.1875 35.5 
L 73.1875 27.203125 
L 10.59375 27.203125 
z
" id="DejaVuSans-8722"/>
       </defs>
       <use xlink:href="#DejaVuSans-8722"/>
       <use x="83.789062" xlink:href="#DejaVuSans-51"/>
       <use x="147.412109" xlink:href="#DejaVuSans-46"/>
       <use x="179.199219" xlink:href="#DejaVuSans-53"/>
      </g>
     </g>
    </g>
    <g id="ytick_2">
     <g id="line2d_10">
      <g>
       <use style="stroke:#000000;stroke-width:0.8;" x="57.6" xlink:href="#ma55718df06" y="213.623084"/>
      </g>
     </g>
     <g id="text_10">
      <!-- −3.0 -->
      <g transform="translate(26.317187 217.422303)scale(0.1 -0.1)">
       <use xlink:href="#DejaVuSans-8722"/>
       <use x="83.789062" xlink:href="#DejaVuSans-51"/>
       <use x="147.412109" xlink:href="#DejaVuSans-46"/>
       <use x="179.199219" xlink:href="#DejaVuSans-48"/>
      </g>
     </g>
    </g>
    <g id="ytick_3">
     <g id="line2d_11">
      <g>
       <use style="stroke:#000000;stroke-width:0.8;" x="57.6" xlink:href="#ma55718df06" y="162.508243"/>
      </g>
     </g>
     <g id="text_11">
      <!-- −2.5 -->
      <g transform="translate(26.317187 166.307462)scale(0.1 -0.1)">
       <use xlink:href="#DejaVuSans-8722"/>
       <use x="83.789062" xlink:href="#DejaVuSans-50"/>
       <use x="147.412109" xlink:href="#DejaVuSans-46"/>
       <use x="179.199219" xlink:href="#DejaVuSans-53"/>
      </g>
     </g>
    </g>
    <g id="ytick_4">
     <g id="line2d_12">
      <g>
       <use style="stroke:#000000;stroke-width:0.8;" x="57.6" xlink:href="#ma55718df06" y="111.393402"/>
      </g>
     </g>
     <g id="text_12">
      <!-- −2.0 -->
      <g transform="translate(26.317187 115.192621)scale(0.1 -0.1)">
       <use xlink:href="#DejaVuSans-8722"/>
       <use x="83.789062" xlink:href="#DejaVuSans-50"/>
       <use x="147.412109" xlink:href="#DejaVuSans-46"/>
       <use x="179.199219" xlink:href="#DejaVuSans-48"/>
      </g>
     </g>
    </g>
    <g id="ytick_5">
     <g id="line2d_13">
      <g>
       <use style="stroke:#000000;stroke-width:0.8;" x="57.6" xlink:href="#ma55718df06" y="60.278561"/>
      </g>
     </g>
     <g id="text_13">
      <!-- −1.5 -->
      <g transform="translate(26.317187 64.07778)scale(0.1 -0.1)">
       <use xlink:href="#DejaVuSans-8722"/>
       <use x="83.789062" xlink:href="#DejaVuSans-49"/>
       <use x="147.412109" xlink:href="#DejaVuSans-46"/>
       <use x="179.199219" xlink:href="#DejaVuSans-53"/>
      </g>
     </g>
    </g>
   </g>
   <g id="line2d_14">
    <defs>
     <path d="M 0 3 
C 0.795609 3 1.55874 2.683901 2.12132 2.12132 
C 2.683901 1.55874 3 0.795609 3 0 
C 3 -0.795609 2.683901 -1.55874 2.12132 -2.12132 
C 1.55874 -2.683901 0.795609 -3 0 -3 
C -0.795609 -3 -1.55874 -2.683901 -2.12132 -2.12132 
C -2.683901 -1.55874 -3 -0.795609 -3 0 
C -3 0.795609 -2.683901 1.55874 -2.12132 2.12132 
C -1.55874 2.683901 -0.795609 3 0 3 
z
" id="mf1e2f07539" style="stroke:#1f77b4;"/>
    </defs>
    <g clip-path="url(#p1c2171b8e7)">
     <use style="fill:#1f77b4;stroke:#1f77b4;" x="73.832727" xlink:href="#mf1e2f07539" y="295.488"/>
     <use style="fill:#1f77b4;stroke:#1f77b4;" x="78.985974" xlink:href="#mf1e2f07539" y="282.57128"/>
     <use style="fill:#1f77b4;stroke:#1f77b4;" x="84.139221" xlink:href="#mf1e2f07539" y="271.762535"/>
     <use style="fill:#1f77b4;stroke:#1f77b4;" x="89.292468" xlink:href="#mf1e2f07539" y="256.592673"/>
     <use style="fill:#1f77b4;stroke:#1f77b4;" x="94.445714" xlink:href="#mf1e2f07539" y="290.564005"/>
     <use style="fill:#1f77b4;stroke:#1f77b4;" x="99.598961" xlink:href="#mf1e2f07539" y="277.364313"/>
     <use style="fill:#1f77b4;stroke:#1f77b4;" x="104.752208" xlink:href="#mf1e2f07539" y="289.146488"/>
     <use style="fill:#1f77b4;stroke:#1f77b4;" x="109.905455" xlink:href="#mf1e2f07539" y="248.691341"/>
     <use style="fill:#1f77b4;stroke:#1f77b4;" x="115.058701" xlink:href="#mf1e2f07539" y="286.683571"/>
     <use style="fill:#1f77b4;stroke:#1f77b4;" x="120.211948" xlink:href="#mf1e2f07539" y="279.458999"/>
     <use style="fill:#1f77b4;stroke:#1f77b4;" x="125.365195" xlink:href="#mf1e2f07539" y="244.489292"/>
     <use style="fill:#1f77b4;stroke:#1f77b4;" x="130.518442" xlink:href="#mf1e2f07539" y="270.092307"/>
     <use style="fill:#1f77b4;stroke:#1f77b4;" x="135.671688" xlink:href="#mf1e2f07539" y="273.949637"/>
     <use style="fill:#1f77b4;stroke:#1f77b4;" x="140.824935" xlink:href="#mf1e2f07539" y="272.094577"/>
     <use style="fill:#1f77b4;stroke:#1f77b4;" x="145.978182" xlink:href="#mf1e2f07539" y="250.324971"/>
     <use style="fill:#1f77b4;stroke:#1f77b4;" x="151.131429" xlink:href="#mf1e2f07539" y="256.324831"/>
     <use style="fill:#1f77b4;stroke:#1f77b4;" x="156.284675" xlink:href="#mf1e2f07539" y="261.243714"/>
     <use style="fill:#1f77b4;stroke:#1f77b4;" x="161.437922" xlink:href="#mf1e2f07539" y="252.290848"/>
     <use style="fill:#1f77b4;stroke:#1f77b4;" x="166.591169" xlink:href="#mf1e2f07539" y="249.327618"/>
     <use style="fill:#1f77b4;stroke:#1f77b4;" x="171.744416" xlink:href="#mf1e2f07539" y="243.599689"/>
     <use style="fill:#1f77b4;stroke:#1f77b4;" x="176.897662" xlink:href="#mf1e2f07539" y="226.541849"/>
     <use style="fill:#1f77b4;stroke:#1f77b4;" x="182.050909" xlink:href="#mf1e2f07539" y="236.95476"/>
     <use style="fill:#1f77b4;stroke:#1f77b4;" x="187.204156" xlink:href="#mf1e2f07539" y="230.636761"/>
     <use style="fill:#1f77b4;stroke:#1f77b4;" x="192.357403" xlink:href="#mf1e2f07539" y="213.154054"/>
     <use style="fill:#1f77b4;stroke:#1f77b4;" x="197.510649" xlink:href="#mf1e2f07539" y="207.18793"/>
     <use style="fill:#1f77b4;stroke:#1f77b4;" x="202.663896" xlink:href="#mf1e2f07539" y="214.326015"/>
     <use style="fill:#1f77b4;stroke:#1f77b4;" x="207.817143" xlink:href="#mf1e2f07539" y="204.167247"/>
     <use style="fill:#1f77b4;stroke:#1f77b4;" x="212.97039" xlink:href="#mf1e2f07539" y="183.753411"/>
     <use style="fill:#1f77b4;stroke:#1f77b4;" x="218.123636" xlink:href="#mf1e2f07539" y="184.57268"/>
     <use style="fill:#1f77b4;stroke:#1f77b4;" x="223.276883" xlink:href="#mf1e2f07539" y="168.955256"/>
     <use style="fill:#1f77b4;stroke:#1f77b4;" x="228.43013" xlink:href="#mf1e2f07539" y="161.242231"/>
     <use style="fill:#1f77b4;stroke:#1f77b4;" x="233.583377" xlink:href="#mf1e2f07539" y="153.222516"/>
     <use style="fill:#1f77b4;stroke:#1f77b4;" x="238.736623" xlink:href="#mf1e2f07539" y="150.519768"/>
     <use style="fill:#1f77b4;stroke:#1f77b4;" x="243.88987" xlink:href="#mf1e2f07539" y="149.950962"/>
     <use style="fill:#1f77b4;stroke:#1f77b4;" x="249.043117" xlink:href="#mf1e2f07539" y="138.327038"/>
     <use style="fill:#1f77b4;stroke:#1f77b4;" x="254.196364" xlink:href="#mf1e2f07539" y="130.894532"/>
     <use style="fill:#1f77b4;stroke:#1f77b4;" x="259.34961" xlink:href="#mf1e2f07539" y="128.015539"/>
     <use style="fill:#1f77b4;stroke:#1f77b4;" x="264.502857" xlink:href="#mf1e2f07539" y="126.302579"/>
     <use style="fill:#1f77b4;stroke:#1f77b4;" x="269.656104" xlink:href="#mf1e2f07539" y="119.200274"/>
     <use style="fill:#1f77b4;stroke:#1f77b4;" x="274.809351" xlink:href="#mf1e2f07539" y="115.011515"/>
     <use style="fill:#1f77b4;stroke:#1f77b4;" x="279.962597" xlink:href="#mf1e2f07539" y="111.510353"/>
     <use style="fill:#1f77b4;stroke:#1f77b4;" x="285.115844" xlink:href="#mf1e2f07539" y="104.065374"/>
     <use style="fill:#1f77b4;stroke:#1f77b4;" x="290.269091" xlink:href="#mf1e2f07539" y="104.284759"/>
     <use style="fill:#1f77b4;stroke:#1f77b4;" x="295.422338" xlink:href="#mf1e2f07539" y="100.883373"/>
     <use style="fill:#1f77b4;stroke:#1f77b4;" x="300.575584" xlink:href="#mf1e2f07539" y="97.572358"/>
     <use style="fill:#1f77b4;stroke:#1f77b4;" x="305.728831" xlink:href="#mf1e2f07539" y="95.545757"/>
     <use style="fill:#1f77b4;stroke:#1f77b4;" x="310.882078" xlink:href="#mf1e2f07539" y="91.376421"/>
     <use style="fill:#1f77b4;stroke:#1f77b4;" x="316.035325" xlink:href="#mf1e2f07539" y="89.162126"/>
     <use style="fill:#1f77b4;stroke:#1f77b4;" x="321.188571" xlink:href="#mf1e2f07539" y="86.628875"/>
     <use style="fill:#1f77b4;stroke:#1f77b4;" x="326.341818" xlink:href="#mf1e2f07539" y="84.661771"/>
     <use style="fill:#1f77b4;stroke:#1f77b4;" x="331.495065" xlink:href="#mf1e2f07539" y="80.034651"/>
     <use style="fill:#1f77b4;stroke:#1f77b4;" x="336.648312" xlink:href="#mf1e2f07539" y="76.708302"/>
     <use style="fill:#1f77b4;stroke:#1f77b4;" x="341.801558" xlink:href="#mf1e2f07539" y="75.647158"/>
     <use style="fill:#1f77b4;stroke:#1f77b4;" x="346.954805" xlink:href="#mf1e2f07539" y="74.960992"/>
     <use style="fill:#1f77b4;stroke:#1f77b4;" x="352.108052" xlink:href="#mf1e2f07539" y="72.239229"/>
     <use style="fill:#1f77b4;stroke:#1f77b4;" x="357.261299" xlink:href="#mf1e2f07539" y="69.760568"/>
     <use style="fill:#1f77b4;stroke:#1f77b4;" x="362.414545" xlink:href="#mf1e2f07539" y="67.293153"/>
     <use style="fill:#1f77b4;stroke:#1f77b4;" x="367.567792" xlink:href="#mf1e2f07539" y="65.772588"/>
     <use style="fill:#1f77b4;stroke:#1f77b4;" x="372.721039" xlink:href="#mf1e2f07539" y="62.988261"/>
     <use style="fill:#1f77b4;stroke:#1f77b4;" x="377.874286" xlink:href="#mf1e2f07539" y="61.647825"/>
     <use style="fill:#1f77b4;stroke:#1f77b4;" x="383.027532" xlink:href="#mf1e2f07539" y="59.367694"/>
     <use style="fill:#1f77b4;stroke:#1f77b4;" x="388.180779" xlink:href="#mf1e2f07539" y="57.239886"/>
     <use style="fill:#1f77b4;stroke:#1f77b4;" x="393.334026" xlink:href="#mf1e2f07539" y="55.175051"/>
     <use style="fill:#1f77b4;stroke:#1f77b4;" x="398.487273" xlink:href="#mf1e2f07539" y="53.568"/>
    </g>
   </g>
   <g id="patch_3">
    <path d="M 57.6 307.584 
L 57.6 41.472 
" style="fill:none;stroke:#000000;stroke-linecap:square;stroke-linejoin:miter;stroke-width:0.8;"/>
   </g>
   <g id="patch_4">
    <path d="M 414.72 307.584 
L 414.72 41.472 
" style="fill:none;stroke:#000000;stroke-linecap:square;stroke-linejoin:miter;stroke-width:0.8;"/>
   </g>
   <g id="patch_5">
    <path d="M 57.6 307.584 
L 414.72 307.584 
" style="fill:none;stroke:#000000;stroke-linecap:square;stroke-linejoin:miter;stroke-width:0.8;"/>
   </g>
   <g id="patch_6">
    <path d="M 57.6 41.472 
L 414.72 41.472 
" style="fill:none;stroke:#000000;stroke-linecap:square;stroke-linejoin:miter;stroke-width:0.8;"/>
   </g>
  </g>
 </g>
 <defs>
  <clipPath id="p1c2171b8e7">
   <rect height="266.112" width="357.12" x="57.6" y="41.472"/>
  </clipPath>
 </defs>
</svg>
