<?xml version="1.0" encoding="utf-8" standalone="no"?>
<!DOCTYPE svg PUBLIC "-//W3C//DTD SVG 1.1//EN"
  "http://www.w3.org/Graphics/SVG/1.1/DTD/svg11.dtd">
<!-- Created with matplotlib (https://matplotlib.org/) -->
<svg height="345.6pt" version="1.1" viewBox="0 0 460.8 345.6" width="460.8pt" xmlns="http://www.w3.org/2000/svg" xmlns:xlink="http://www.w3.org/1999/xlink">
 <metadata>
  <rdf:RDF xmlns:cc="http://creativecommons.org/ns#" xmlns:dc="http://purl.org/dc/elements/1.1/" xmlns:rdf="http://www.w3.org/1999/02/22-rdf-syntax-ns#">
   <cc:Work>
    <dc:type rdf:resource="http://purl.org/dc/dcmitype/StillImage"/>
    <dc:date>2022-05-12T05:06:46.539193</dc:date>
    <dc:format>image/svg+xml</dc:format>
    <dc:creator>
     <cc:Agent>
      <dc:title>Matplotlib v3.3.4, https://matplotlib.org/</dc:title>
     </cc:Agent>
    </dc:creator>
   </cc:Work>
  </rdf:RDF>
 </metadata>
 <defs>
  <style type="text/css">*{stroke-linecap:butt;stroke-linejoin:round;}</style>
 </defs>
 <g id="figure_1">
  <g id="patch_1">
   <path d="M 0 345.6 
L 460.8 345.6 
L 460.8 0 
L 0 0 
z
" style="fill:#ffffff;"/>
  </g>
  <g id="axes_1">
   <g id="patch_2">
    <path d="M 72.47 293.56 
L 450 293.56 
L 450 10.8 
L 72.47 10.8 
z
" style="fill:#ffffff;"/>
   </g>
   <g id="matplotlib.axis_1">
    <g id="xtick_1">
     <g id="line2d_1">
      <defs>
       <path d="M 0 0 
L 0 3.5 
" id="m8c4693fc01" style="stroke:#000000;stroke-width:0.8;"/>
      </defs>
      <g>
       <use style="stroke:#000000;stroke-width:0.8;" x="89.630455" xlink:href="#m8c4693fc01" y="293.56"/>
      </g>
     </g>
     <g id="text_1">
      <!-- 1.6 -->
      <g transform="translate(81.678892 308.158437)scale(0.1 -0.1)">
       <defs>
        <path d="M 12.40625 8.296875 
L 28.515625 8.296875 
L 28.515625 63.921875 
L 10.984375 60.40625 
L 10.984375 69.390625 
L 28.421875 72.90625 
L 38.28125 72.90625 
L 38.28125 8.296875 
L 54.390625 8.296875 
L 54.390625 0 
L 12.40625 0 
z
" id="DejaVuSans-49"/>
        <path d="M 10.6875 12.40625 
L 21 12.40625 
L 21 0 
L 10.6875 0 
z
" id="DejaVuSans-46"/>
        <path d="M 33.015625 40.375 
Q 26.375 40.375 22.484375 35.828125 
Q 18.609375 31.296875 18.609375 23.390625 
Q 18.609375 15.53125 22.484375 10.953125 
Q 26.375 6.390625 33.015625 6.390625 
Q 39.65625 6.390625 43.53125 10.953125 
Q 47.40625 15.53125 47.40625 23.390625 
Q 47.40625 31.296875 43.53125 35.828125 
Q 39.65625 40.375 33.015625 40.375 
z
M 52.59375 71.296875 
L 52.59375 62.3125 
Q 48.875 64.0625 45.09375 64.984375 
Q 41.3125 65.921875 37.59375 65.921875 
Q 27.828125 65.921875 22.671875 59.328125 
Q 17.53125 52.734375 16.796875 39.40625 
Q 19.671875 43.65625 24.015625 45.921875 
Q 28.375 48.1875 33.59375 48.1875 
Q 44.578125 48.1875 50.953125 41.515625 
Q 57.328125 34.859375 57.328125 23.390625 
Q 57.328125 12.15625 50.6875 5.359375 
Q 44.046875 -1.421875 33.015625 -1.421875 
Q 20.359375 -1.421875 13.671875 8.265625 
Q 6.984375 17.96875 6.984375 36.375 
Q 6.984375 53.65625 15.1875 63.9375 
Q 23.390625 74.21875 37.203125 74.21875 
Q 40.921875 74.21875 44.703125 73.484375 
Q 48.484375 72.75 52.59375 71.296875 
z
" id="DejaVuSans-54"/>
       </defs>
       <use xlink:href="#DejaVuSans-49"/>
       <use x="63.623047" xlink:href="#DejaVuSans-46"/>
       <use x="95.410156" xlink:href="#DejaVuSans-54"/>
      </g>
     </g>
    </g>
    <g id="xtick_2">
     <g id="line2d_2">
      <g>
       <use style="stroke:#000000;stroke-width:0.8;" x="132.531591" xlink:href="#m8c4693fc01" y="293.56"/>
      </g>
     </g>
     <g id="text_2">
      <!-- 1.8 -->
      <g transform="translate(124.580028 308.158437)scale(0.1 -0.1)">
       <defs>
        <path d="M 31.78125 34.625 
Q 24.75 34.625 20.71875 30.859375 
Q 16.703125 27.09375 16.703125 20.515625 
Q 16.703125 13.921875 20.71875 10.15625 
Q 24.75 6.390625 31.78125 6.390625 
Q 38.8125 6.390625 42.859375 10.171875 
Q 46.921875 13.96875 46.921875 20.515625 
Q 46.921875 27.09375 42.890625 30.859375 
Q 38.875 34.625 31.78125 34.625 
z
M 21.921875 38.8125 
Q 15.578125 40.375 12.03125 44.71875 
Q 8.5 49.078125 8.5 55.328125 
Q 8.5 64.0625 14.71875 69.140625 
Q 20.953125 74.21875 31.78125 74.21875 
Q 42.671875 74.21875 48.875 69.140625 
Q 55.078125 64.0625 55.078125 55.328125 
Q 55.078125 49.078125 51.53125 44.71875 
Q 48 40.375 41.703125 38.8125 
Q 48.828125 37.15625 52.796875 32.3125 
Q 56.78125 27.484375 56.78125 20.515625 
Q 56.78125 9.90625 50.3125 4.234375 
Q 43.84375 -1.421875 31.78125 -1.421875 
Q 19.734375 -1.421875 13.25 4.234375 
Q 6.78125 9.90625 6.78125 20.515625 
Q 6.78125 27.484375 10.78125 32.3125 
Q 14.796875 37.15625 21.921875 38.8125 
z
M 18.3125 54.390625 
Q 18.3125 48.734375 21.84375 45.5625 
Q 25.390625 42.390625 31.78125 42.390625 
Q 38.140625 42.390625 41.71875 45.5625 
Q 45.3125 48.734375 45.3125 54.390625 
Q 45.3125 60.0625 41.71875 63.234375 
Q 38.140625 66.40625 31.78125 66.40625 
Q 25.390625 66.40625 21.84375 63.234375 
Q 18.3125 60.0625 18.3125 54.390625 
z
" id="DejaVuSans-56"/>
       </defs>
       <use xlink:href="#DejaVuSans-49"/>
       <use x="63.623047" xlink:href="#DejaVuSans-46"/>
       <use x="95.410156" xlink:href="#DejaVuSans-56"/>
      </g>
     </g>
    </g>
    <g id="xtick_3">
     <g id="line2d_3">
      <g>
       <use style="stroke:#000000;stroke-width:0.8;" x="175.432727" xlink:href="#m8c4693fc01" y="293.56"/>
      </g>
     </g>
     <g id="text_3">
      <!-- 2.0 -->
      <g transform="translate(167.481165 308.158437)scale(0.1 -0.1)">
       <defs>
        <path d="M 19.1875 8.296875 
L 53.609375 8.296875 
L 53.609375 0 
L 7.328125 0 
L 7.328125 8.296875 
Q 12.9375 14.109375 22.625 23.890625 
Q 32.328125 33.6875 34.8125 36.53125 
Q 39.546875 41.84375 41.421875 45.53125 
Q 43.3125 49.21875 43.3125 52.78125 
Q 43.3125 58.59375 39.234375 62.25 
Q 35.15625 65.921875 28.609375 65.921875 
Q 23.96875 65.921875 18.8125 64.3125 
Q 13.671875 62.703125 7.8125 59.421875 
L 7.8125 69.390625 
Q 13.765625 71.78125 18.9375 73 
Q 24.125 74.21875 28.421875 74.21875 
Q 39.75 74.21875 46.484375 68.546875 
Q 53.21875 62.890625 53.21875 53.421875 
Q 53.21875 48.921875 51.53125 44.890625 
Q 49.859375 40.875 45.40625 35.40625 
Q 44.1875 33.984375 37.640625 27.21875 
Q 31.109375 20.453125 19.1875 8.296875 
z
" id="DejaVuSans-50"/>
        <path d="M 31.78125 66.40625 
Q 24.171875 66.40625 20.328125 58.90625 
Q 16.5 51.421875 16.5 36.375 
Q 16.5 21.390625 20.328125 13.890625 
Q 24.171875 6.390625 31.78125 6.390625 
Q 39.453125 6.390625 43.28125 13.890625 
Q 47.125 21.390625 47.125 36.375 
Q 47.125 51.421875 43.28125 58.90625 
Q 39.453125 66.40625 31.78125 66.40625 
z
M 31.78125 74.21875 
Q 44.046875 74.21875 50.515625 64.515625 
Q 56.984375 54.828125 56.984375 36.375 
Q 56.984375 17.96875 50.515625 8.265625 
Q 44.046875 -1.421875 31.78125 -1.421875 
Q 19.53125 -1.421875 13.0625 8.265625 
Q 6.59375 17.96875 6.59375 36.375 
Q 6.59375 54.828125 13.0625 64.515625 
Q 19.53125 74.21875 31.78125 74.21875 
z
" id="DejaVuSans-48"/>
       </defs>
       <use xlink:href="#DejaVuSans-50"/>
       <use x="63.623047" xlink:href="#DejaVuSans-46"/>
       <use x="95.410156" xlink:href="#DejaVuSans-48"/>
      </g>
     </g>
    </g>
    <g id="xtick_4">
     <g id="line2d_4">
      <g>
       <use style="stroke:#000000;stroke-width:0.8;" x="218.333864" xlink:href="#m8c4693fc01" y="293.56"/>
      </g>
     </g>
     <g id="text_4">
      <!-- 2.2 -->
      <g transform="translate(210.382301 308.158437)scale(0.1 -0.1)">
       <use xlink:href="#DejaVuSans-50"/>
       <use x="63.623047" xlink:href="#DejaVuSans-46"/>
       <use x="95.410156" xlink:href="#DejaVuSans-50"/>
      </g>
     </g>
    </g>
    <g id="xtick_5">
     <g id="line2d_5">
      <g>
       <use style="stroke:#000000;stroke-width:0.8;" x="261.235" xlink:href="#m8c4693fc01" y="293.56"/>
      </g>
     </g>
     <g id="text_5">
      <!-- 2.4 -->
      <g transform="translate(253.283438 308.158437)scale(0.1 -0.1)">
       <defs>
        <path d="M 37.796875 64.3125 
L 12.890625 25.390625 
L 37.796875 25.390625 
z
M 35.203125 72.90625 
L 47.609375 72.90625 
L 47.609375 25.390625 
L 58.015625 25.390625 
L 58.015625 17.1875 
L 47.609375 17.1875 
L 47.609375 0 
L 37.796875 0 
L 37.796875 17.1875 
L 4.890625 17.1875 
L 4.890625 26.703125 
z
" id="DejaVuSans-52"/>
       </defs>
       <use xlink:href="#DejaVuSans-50"/>
       <use x="63.623047" xlink:href="#DejaVuSans-46"/>
       <use x="95.410156" xlink:href="#DejaVuSans-52"/>
      </g>
     </g>
    </g>
    <g id="xtick_6">
     <g id="line2d_6">
      <g>
       <use style="stroke:#000000;stroke-width:0.8;" x="304.136136" xlink:href="#m8c4693fc01" y="293.56"/>
      </g>
     </g>
     <g id="text_6">
      <!-- 2.6 -->
      <g transform="translate(296.184574 308.158437)scale(0.1 -0.1)">
       <use xlink:href="#DejaVuSans-50"/>
       <use x="63.623047" xlink:href="#DejaVuSans-46"/>
       <use x="95.410156" xlink:href="#DejaVuSans-54"/>
      </g>
     </g>
    </g>
    <g id="xtick_7">
     <g id="line2d_7">
      <g>
       <use style="stroke:#000000;stroke-width:0.8;" x="347.037273" xlink:href="#m8c4693fc01" y="293.56"/>
      </g>
     </g>
     <g id="text_7">
      <!-- 2.8 -->
      <g transform="translate(339.08571 308.158437)scale(0.1 -0.1)">
       <use xlink:href="#DejaVuSans-50"/>
       <use x="63.623047" xlink:href="#DejaVuSans-46"/>
       <use x="95.410156" xlink:href="#DejaVuSans-56"/>
      </g>
     </g>
    </g>
    <g id="xtick_8">
     <g id="line2d_8">
      <g>
       <use style="stroke:#000000;stroke-width:0.8;" x="389.938409" xlink:href="#m8c4693fc01" y="293.56"/>
      </g>
     </g>
     <g id="text_8">
      <!-- 3.0 -->
      <g transform="translate(381.986847 308.158437)scale(0.1 -0.1)">
       <defs>
        <path d="M 40.578125 39.3125 
Q 47.65625 37.796875 51.625 33 
Q 55.609375 28.21875 55.609375 21.1875 
Q 55.609375 10.40625 48.1875 4.484375 
Q 40.765625 -1.421875 27.09375 -1.421875 
Q 22.515625 -1.421875 17.65625 -0.515625 
Q 12.796875 0.390625 7.625 2.203125 
L 7.625 11.71875 
Q 11.71875 9.328125 16.59375 8.109375 
Q 21.484375 6.890625 26.8125 6.890625 
Q 36.078125 6.890625 40.9375 10.546875 
Q 45.796875 14.203125 45.796875 21.1875 
Q 45.796875 27.640625 41.28125 31.265625 
Q 36.765625 34.90625 28.71875 34.90625 
L 20.21875 34.90625 
L 20.21875 43.015625 
L 29.109375 43.015625 
Q 36.375 43.015625 40.234375 45.921875 
Q 44.09375 48.828125 44.09375 54.296875 
Q 44.09375 59.90625 40.109375 62.90625 
Q 36.140625 65.921875 28.71875 65.921875 
Q 24.65625 65.921875 20.015625 65.03125 
Q 15.375 64.15625 9.8125 62.3125 
L 9.8125 71.09375 
Q 15.4375 72.65625 20.34375 73.4375 
Q 25.25 74.21875 29.59375 74.21875 
Q 40.828125 74.21875 47.359375 69.109375 
Q 53.90625 64.015625 53.90625 55.328125 
Q 53.90625 49.265625 50.4375 45.09375 
Q 46.96875 40.921875 40.578125 39.3125 
z
" id="DejaVuSans-51"/>
       </defs>
       <use xlink:href="#DejaVuSans-51"/>
       <use x="63.623047" xlink:href="#DejaVuSans-46"/>
       <use x="95.410156" xlink:href="#DejaVuSans-48"/>
      </g>
     </g>
    </g>
    <g id="xtick_9">
     <g id="line2d_9">
      <g>
       <use style="stroke:#000000;stroke-width:0.8;" x="432.839545" xlink:href="#m8c4693fc01" y="293.56"/>
      </g>
     </g>
     <g id="text_9">
      <!-- 3.2 -->
      <g transform="translate(424.887983 308.158437)scale(0.1 -0.1)">
       <use xlink:href="#DejaVuSans-51"/>
       <use x="63.623047" xlink:href="#DejaVuSans-46"/>
       <use x="95.410156" xlink:href="#DejaVuSans-50"/>
      </g>
     </g>
    </g>
    <g id="text_10">
     <!-- Temperature (T) -->
     <g transform="translate(180.806875 329.435)scale(0.2 -0.2)">
      <defs>
       <path d="M -0.296875 72.90625 
L 61.375 72.90625 
L 61.375 64.59375 
L 35.5 64.59375 
L 35.5 0 
L 25.59375 0 
L 25.59375 64.59375 
L -0.296875 64.59375 
z
" id="DejaVuSans-84"/>
       <path d="M 56.203125 29.59375 
L 56.203125 25.203125 
L 14.890625 25.203125 
Q 15.484375 15.921875 20.484375 11.0625 
Q 25.484375 6.203125 34.421875 6.203125 
Q 39.59375 6.203125 44.453125 7.46875 
Q 49.3125 8.734375 54.109375 11.28125 
L 54.109375 2.78125 
Q 49.265625 0.734375 44.1875 -0.34375 
Q 39.109375 -1.421875 33.890625 -1.421875 
Q 20.796875 -1.421875 13.15625 6.1875 
Q 5.515625 13.8125 5.515625 26.8125 
Q 5.515625 40.234375 12.765625 48.109375 
Q 20.015625 56 32.328125 56 
Q 43.359375 56 49.78125 48.890625 
Q 56.203125 41.796875 56.203125 29.59375 
z
M 47.21875 32.234375 
Q 47.125 39.59375 43.09375 43.984375 
Q 39.0625 48.390625 32.421875 48.390625 
Q 24.90625 48.390625 20.390625 44.140625 
Q 15.875 39.890625 15.1875 32.171875 
z
" id="DejaVuSans-101"/>
       <path d="M 52 44.1875 
Q 55.375 50.25 60.0625 53.125 
Q 64.75 56 71.09375 56 
Q 79.640625 56 84.28125 50.015625 
Q 88.921875 44.046875 88.921875 33.015625 
L 88.921875 0 
L 79.890625 0 
L 79.890625 32.71875 
Q 79.890625 40.578125 77.09375 44.375 
Q 74.3125 48.1875 68.609375 48.1875 
Q 61.625 48.1875 57.5625 43.546875 
Q 53.515625 38.921875 53.515625 30.90625 
L 53.515625 0 
L 44.484375 0 
L 44.484375 32.71875 
Q 44.484375 40.625 41.703125 44.40625 
Q 38.921875 48.1875 33.109375 48.1875 
Q 26.21875 48.1875 22.15625 43.53125 
Q 18.109375 38.875 18.109375 30.90625 
L 18.109375 0 
L 9.078125 0 
L 9.078125 54.6875 
L 18.109375 54.6875 
L 18.109375 46.1875 
Q 21.1875 51.21875 25.484375 53.609375 
Q 29.78125 56 35.6875 56 
Q 41.65625 56 45.828125 52.96875 
Q 50 49.953125 52 44.1875 
z
" id="DejaVuSans-109"/>
       <path d="M 18.109375 8.203125 
L 18.109375 -20.796875 
L 9.078125 -20.796875 
L 9.078125 54.6875 
L 18.109375 54.6875 
L 18.109375 46.390625 
Q 20.953125 51.265625 25.265625 53.625 
Q 29.59375 56 35.59375 56 
Q 45.5625 56 51.78125 48.09375 
Q 58.015625 40.1875 58.015625 27.296875 
Q 58.015625 14.40625 51.78125 6.484375 
Q 45.5625 -1.421875 35.59375 -1.421875 
Q 29.59375 -1.421875 25.265625 0.953125 
Q 20.953125 3.328125 18.109375 8.203125 
z
M 48.6875 27.296875 
Q 48.6875 37.203125 44.609375 42.84375 
Q 40.53125 48.484375 33.40625 48.484375 
Q 26.265625 48.484375 22.1875 42.84375 
Q 18.109375 37.203125 18.109375 27.296875 
Q 18.109375 17.390625 22.1875 11.75 
Q 26.265625 6.109375 33.40625 6.109375 
Q 40.53125 6.109375 44.609375 11.75 
Q 48.6875 17.390625 48.6875 27.296875 
z
" id="DejaVuSans-112"/>
       <path d="M 41.109375 46.296875 
Q 39.59375 47.171875 37.8125 47.578125 
Q 36.03125 48 33.890625 48 
Q 26.265625 48 22.1875 43.046875 
Q 18.109375 38.09375 18.109375 28.8125 
L 18.109375 0 
L 9.078125 0 
L 9.078125 54.6875 
L 18.109375 54.6875 
L 18.109375 46.1875 
Q 20.953125 51.171875 25.484375 53.578125 
Q 30.03125 56 36.53125 56 
Q 37.453125 56 38.578125 55.875 
Q 39.703125 55.765625 41.0625 55.515625 
z
" id="DejaVuSans-114"/>
       <path d="M 34.28125 27.484375 
Q 23.390625 27.484375 19.1875 25 
Q 14.984375 22.515625 14.984375 16.5 
Q 14.984375 11.71875 18.140625 8.90625 
Q 21.296875 6.109375 26.703125 6.109375 
Q 34.1875 6.109375 38.703125 11.40625 
Q 43.21875 16.703125 43.21875 25.484375 
L 43.21875 27.484375 
z
M 52.203125 31.203125 
L 52.203125 0 
L 43.21875 0 
L 43.21875 8.296875 
Q 40.140625 3.328125 35.546875 0.953125 
Q 30.953125 -1.421875 24.3125 -1.421875 
Q 15.921875 -1.421875 10.953125 3.296875 
Q 6 8.015625 6 15.921875 
Q 6 25.140625 12.171875 29.828125 
Q 18.359375 34.515625 30.609375 34.515625 
L 43.21875 34.515625 
L 43.21875 35.40625 
Q 43.21875 41.609375 39.140625 45 
Q 35.0625 48.390625 27.6875 48.390625 
Q 23 48.390625 18.546875 47.265625 
Q 14.109375 46.140625 10.015625 43.890625 
L 10.015625 52.203125 
Q 14.9375 54.109375 19.578125 55.046875 
Q 24.21875 56 28.609375 56 
Q 40.484375 56 46.34375 49.84375 
Q 52.203125 43.703125 52.203125 31.203125 
z
" id="DejaVuSans-97"/>
       <path d="M 18.3125 70.21875 
L 18.3125 54.6875 
L 36.8125 54.6875 
L 36.8125 47.703125 
L 18.3125 47.703125 
L 18.3125 18.015625 
Q 18.3125 11.328125 20.140625 9.421875 
Q 21.96875 7.515625 27.59375 7.515625 
L 36.8125 7.515625 
L 36.8125 0 
L 27.59375 0 
Q 17.1875 0 13.234375 3.875 
Q 9.28125 7.765625 9.28125 18.015625 
L 9.28125 47.703125 
L 2.6875 47.703125 
L 2.6875 54.6875 
L 9.28125 54.6875 
L 9.28125 70.21875 
z
" id="DejaVuSans-116"/>
       <path d="M 8.5 21.578125 
L 8.5 54.6875 
L 17.484375 54.6875 
L 17.484375 21.921875 
Q 17.484375 14.15625 20.5 10.265625 
Q 23.53125 6.390625 29.59375 6.390625 
Q 36.859375 6.390625 41.078125 11.03125 
Q 45.3125 15.671875 45.3125 23.6875 
L 45.3125 54.6875 
L 54.296875 54.6875 
L 54.296875 0 
L 45.3125 0 
L 45.3125 8.40625 
Q 42.046875 3.421875 37.71875 1 
Q 33.40625 -1.421875 27.6875 -1.421875 
Q 18.265625 -1.421875 13.375 4.4375 
Q 8.5 10.296875 8.5 21.578125 
z
M 31.109375 56 
z
" id="DejaVuSans-117"/>
       <path id="DejaVuSans-32"/>
       <path d="M 31 75.875 
Q 24.46875 64.65625 21.28125 53.65625 
Q 18.109375 42.671875 18.109375 31.390625 
Q 18.109375 20.125 21.3125 9.0625 
Q 24.515625 -2 31 -13.1875 
L 23.1875 -13.1875 
Q 15.875 -1.703125 12.234375 9.375 
Q 8.59375 20.453125 8.59375 31.390625 
Q 8.59375 42.28125 12.203125 53.3125 
Q 15.828125 64.359375 23.1875 75.875 
z
" id="DejaVuSans-40"/>
       <path d="M 8.015625 75.875 
L 15.828125 75.875 
Q 23.140625 64.359375 26.78125 53.3125 
Q 30.421875 42.28125 30.421875 31.390625 
Q 30.421875 20.453125 26.78125 9.375 
Q 23.140625 -1.703125 15.828125 -13.1875 
L 8.015625 -13.1875 
Q 14.5 -2 17.703125 9.0625 
Q 20.90625 20.125 20.90625 31.390625 
Q 20.90625 42.671875 17.703125 53.65625 
Q 14.5 64.65625 8.015625 75.875 
z
" id="DejaVuSans-41"/>
      </defs>
      <use xlink:href="#DejaVuSans-84"/>
      <use x="44.083984" xlink:href="#DejaVuSans-101"/>
      <use x="105.607422" xlink:href="#DejaVuSans-109"/>
      <use x="203.019531" xlink:href="#DejaVuSans-112"/>
      <use x="266.496094" xlink:href="#DejaVuSans-101"/>
      <use x="328.019531" xlink:href="#DejaVuSans-114"/>
      <use x="369.132812" xlink:href="#DejaVuSans-97"/>
      <use x="430.412109" xlink:href="#DejaVuSans-116"/>
      <use x="469.621094" xlink:href="#DejaVuSans-117"/>
      <use x="533" xlink:href="#DejaVuSans-114"/>
      <use x="571.863281" xlink:href="#DejaVuSans-101"/>
      <use x="633.386719" xlink:href="#DejaVuSans-32"/>
      <use x="665.173828" xlink:href="#DejaVuSans-40"/>
      <use x="704.1875" xlink:href="#DejaVuSans-84"/>
      <use x="765.271484" xlink:href="#DejaVuSans-41"/>
     </g>
    </g>
   </g>
   <g id="matplotlib.axis_2">
    <g id="ytick_1">
     <g id="line2d_10">
      <defs>
       <path d="M 0 0 
L -3.5 0 
" id="m786153ee20" style="stroke:#000000;stroke-width:0.8;"/>
      </defs>
      <g>
       <use style="stroke:#000000;stroke-width:0.8;" x="72.47" xlink:href="#m786153ee20" y="270.093075"/>
      </g>
     </g>
     <g id="text_11">
      <!-- −0.06 -->
      <g transform="translate(34.824688 273.892293)scale(0.1 -0.1)">
       <defs>
        <path d="M 10.59375 35.5 
L 73.1875 35.5 
L 73.1875 27.203125 
L 10.59375 27.203125 
z
" id="DejaVuSans-8722"/>
       </defs>
       <use xlink:href="#DejaVuSans-8722"/>
       <use x="83.789062" xlink:href="#DejaVuSans-48"/>
       <use x="147.412109" xlink:href="#DejaVuSans-46"/>
       <use x="179.199219" xlink:href="#DejaVuSans-48"/>
       <use x="242.822266" xlink:href="#DejaVuSans-54"/>
      </g>
     </g>
    </g>
    <g id="ytick_2">
     <g id="line2d_11">
      <g>
       <use style="stroke:#000000;stroke-width:0.8;" x="72.47" xlink:href="#m786153ee20" y="229.836025"/>
      </g>
     </g>
     <g id="text_12">
      <!-- −0.04 -->
      <g transform="translate(34.824688 233.635244)scale(0.1 -0.1)">
       <use xlink:href="#DejaVuSans-8722"/>
       <use x="83.789062" xlink:href="#DejaVuSans-48"/>
       <use x="147.412109" xlink:href="#DejaVuSans-46"/>
       <use x="179.199219" xlink:href="#DejaVuSans-48"/>
       <use x="242.822266" xlink:href="#DejaVuSans-52"/>
      </g>
     </g>
    </g>
    <g id="ytick_3">
     <g id="line2d_12">
      <g>
       <use style="stroke:#000000;stroke-width:0.8;" x="72.47" xlink:href="#m786153ee20" y="189.578975"/>
      </g>
     </g>
     <g id="text_13">
      <!-- −0.02 -->
      <g transform="translate(34.824688 193.378194)scale(0.1 -0.1)">
       <use xlink:href="#DejaVuSans-8722"/>
       <use x="83.789062" xlink:href="#DejaVuSans-48"/>
       <use x="147.412109" xlink:href="#DejaVuSans-46"/>
       <use x="179.199219" xlink:href="#DejaVuSans-48"/>
       <use x="242.822266" xlink:href="#DejaVuSans-50"/>
      </g>
     </g>
    </g>
    <g id="ytick_4">
     <g id="line2d_13">
      <g>
       <use style="stroke:#000000;stroke-width:0.8;" x="72.47" xlink:href="#m786153ee20" y="149.321926"/>
      </g>
     </g>
     <g id="text_14">
      <!-- 0.00 -->
      <g transform="translate(43.204375 153.121144)scale(0.1 -0.1)">
       <use xlink:href="#DejaVuSans-48"/>
       <use x="63.623047" xlink:href="#DejaVuSans-46"/>
       <use x="95.410156" xlink:href="#DejaVuSans-48"/>
       <use x="159.033203" xlink:href="#DejaVuSans-48"/>
      </g>
     </g>
    </g>
    <g id="ytick_5">
     <g id="line2d_14">
      <g>
       <use style="stroke:#000000;stroke-width:0.8;" x="72.47" xlink:href="#m786153ee20" y="109.064876"/>
      </g>
     </g>
     <g id="text_15">
      <!-- 0.02 -->
      <g transform="translate(43.204375 112.864095)scale(0.1 -0.1)">
       <use xlink:href="#DejaVuSans-48"/>
       <use x="63.623047" xlink:href="#DejaVuSans-46"/>
       <use x="95.410156" xlink:href="#DejaVuSans-48"/>
       <use x="159.033203" xlink:href="#DejaVuSans-50"/>
      </g>
     </g>
    </g>
    <g id="ytick_6">
     <g id="line2d_15">
      <g>
       <use style="stroke:#000000;stroke-width:0.8;" x="72.47" xlink:href="#m786153ee20" y="68.807826"/>
      </g>
     </g>
     <g id="text_16">
      <!-- 0.04 -->
      <g transform="translate(43.204375 72.607045)scale(0.1 -0.1)">
       <use xlink:href="#DejaVuSans-48"/>
       <use x="63.623047" xlink:href="#DejaVuSans-46"/>
       <use x="95.410156" xlink:href="#DejaVuSans-48"/>
       <use x="159.033203" xlink:href="#DejaVuSans-52"/>
      </g>
     </g>
    </g>
    <g id="ytick_7">
     <g id="line2d_16">
      <g>
       <use style="stroke:#000000;stroke-width:0.8;" x="72.47" xlink:href="#m786153ee20" y="28.550777"/>
      </g>
     </g>
     <g id="text_17">
      <!-- 0.06 -->
      <g transform="translate(43.204375 32.349996)scale(0.1 -0.1)">
       <use xlink:href="#DejaVuSans-48"/>
       <use x="63.623047" xlink:href="#DejaVuSans-46"/>
       <use x="95.410156" xlink:href="#DejaVuSans-48"/>
       <use x="159.033203" xlink:href="#DejaVuSans-54"/>
      </g>
     </g>
    </g>
    <g id="text_18">
     <!-- Magnetization -->
     <g transform="translate(26.665313 223.005)rotate(-90)scale(0.2 -0.2)">
      <defs>
       <path d="M 9.8125 72.90625 
L 24.515625 72.90625 
L 43.109375 23.296875 
L 61.8125 72.90625 
L 76.515625 72.90625 
L 76.515625 0 
L 66.890625 0 
L 66.890625 64.015625 
L 48.09375 14.015625 
L 38.1875 14.015625 
L 19.390625 64.015625 
L 19.390625 0 
L 9.8125 0 
z
" id="DejaVuSans-77"/>
       <path d="M 45.40625 27.984375 
Q 45.40625 37.75 41.375 43.109375 
Q 37.359375 48.484375 30.078125 48.484375 
Q 22.859375 48.484375 18.828125 43.109375 
Q 14.796875 37.75 14.796875 27.984375 
Q 14.796875 18.265625 18.828125 12.890625 
Q 22.859375 7.515625 30.078125 7.515625 
Q 37.359375 7.515625 41.375 12.890625 
Q 45.40625 18.265625 45.40625 27.984375 
z
M 54.390625 6.78125 
Q 54.390625 -7.171875 48.1875 -13.984375 
Q 42 -20.796875 29.203125 -20.796875 
Q 24.46875 -20.796875 20.265625 -20.09375 
Q 16.0625 -19.390625 12.109375 -17.921875 
L 12.109375 -9.1875 
Q 16.0625 -11.328125 19.921875 -12.34375 
Q 23.78125 -13.375 27.78125 -13.375 
Q 36.625 -13.375 41.015625 -8.765625 
Q 45.40625 -4.15625 45.40625 5.171875 
L 45.40625 9.625 
Q 42.625 4.78125 38.28125 2.390625 
Q 33.9375 0 27.875 0 
Q 17.828125 0 11.671875 7.65625 
Q 5.515625 15.328125 5.515625 27.984375 
Q 5.515625 40.671875 11.671875 48.328125 
Q 17.828125 56 27.875 56 
Q 33.9375 56 38.28125 53.609375 
Q 42.625 51.21875 45.40625 46.390625 
L 45.40625 54.6875 
L 54.390625 54.6875 
z
" id="DejaVuSans-103"/>
       <path d="M 54.890625 33.015625 
L 54.890625 0 
L 45.90625 0 
L 45.90625 32.71875 
Q 45.90625 40.484375 42.875 44.328125 
Q 39.84375 48.1875 33.796875 48.1875 
Q 26.515625 48.1875 22.3125 43.546875 
Q 18.109375 38.921875 18.109375 30.90625 
L 18.109375 0 
L 9.078125 0 
L 9.078125 54.6875 
L 18.109375 54.6875 
L 18.109375 46.1875 
Q 21.34375 51.125 25.703125 53.5625 
Q 30.078125 56 35.796875 56 
Q 45.21875 56 50.046875 50.171875 
Q 54.890625 44.34375 54.890625 33.015625 
z
" id="DejaVuSans-110"/>
       <path d="M 9.421875 54.6875 
L 18.40625 54.6875 
L 18.40625 0 
L 9.421875 0 
z
M 9.421875 75.984375 
L 18.40625 75.984375 
L 18.40625 64.59375 
L 9.421875 64.59375 
z
" id="DejaVuSans-105"/>
       <path d="M 5.515625 54.6875 
L 48.1875 54.6875 
L 48.1875 46.484375 
L 14.40625 7.171875 
L 48.1875 7.171875 
L 48.1875 0 
L 4.296875 0 
L 4.296875 8.203125 
L 38.09375 47.515625 
L 5.515625 47.515625 
z
" id="DejaVuSans-122"/>
       <path d="M 30.609375 48.390625 
Q 23.390625 48.390625 19.1875 42.75 
Q 14.984375 37.109375 14.984375 27.296875 
Q 14.984375 17.484375 19.15625 11.84375 
Q 23.34375 6.203125 30.609375 6.203125 
Q 37.796875 6.203125 41.984375 11.859375 
Q 46.1875 17.53125 46.1875 27.296875 
Q 46.1875 37.015625 41.984375 42.703125 
Q 37.796875 48.390625 30.609375 48.390625 
z
M 30.609375 56 
Q 42.328125 56 49.015625 48.375 
Q 55.71875 40.765625 55.71875 27.296875 
Q 55.71875 13.875 49.015625 6.21875 
Q 42.328125 -1.421875 30.609375 -1.421875 
Q 18.84375 -1.421875 12.171875 6.21875 
Q 5.515625 13.875 5.515625 27.296875 
Q 5.515625 40.765625 12.171875 48.375 
Q 18.84375 56 30.609375 56 
z
" id="DejaVuSans-111"/>
      </defs>
      <use xlink:href="#DejaVuSans-77"/>
      <use x="86.279297" xlink:href="#DejaVuSans-97"/>
      <use x="147.558594" xlink:href="#DejaVuSans-103"/>
      <use x="211.035156" xlink:href="#DejaVuSans-110"/>
      <use x="274.414062" xlink:href="#DejaVuSans-101"/>
      <use x="335.9375" xlink:href="#DejaVuSans-116"/>
      <use x="375.146484" xlink:href="#DejaVuSans-105"/>
      <use x="402.929688" xlink:href="#DejaVuSans-122"/>
      <use x="455.419922" xlink:href="#DejaVuSans-97"/>
      <use x="516.699219" xlink:href="#DejaVuSans-116"/>
      <use x="555.908203" xlink:href="#DejaVuSans-105"/>
      <use x="583.691406" xlink:href="#DejaVuSans-111"/>
      <use x="644.873047" xlink:href="#DejaVuSans-110"/>
     </g>
    </g>
   </g>
   <g id="line2d_17">
    <defs>
     <path d="M 0 3 
C 0.795609 3 1.55874 2.683901 2.12132 2.12132 
C 2.683901 1.55874 3 0.795609 3 0 
C 3 -0.795609 2.683901 -1.55874 2.12132 -2.12132 
C 1.55874 -2.683901 0.795609 -3 0 -3 
C -0.795609 -3 -1.55874 -2.683901 -2.12132 -2.12132 
C -2.683901 -1.55874 -3 -0.795609 -3 0 
C -3 0.795609 -2.683901 1.55874 -2.12132 2.12132 
C -1.55874 2.683901 -0.795609 3 0 3 
z
" id="mf0fc69eba7" style="stroke:#1f77b4;"/>
    </defs>
    <g clip-path="url(#pecac80d2ac)">
     <use style="fill:#1f77b4;stroke:#1f77b4;" x="89.630455" xlink:href="#mf0fc69eba7" y="23.652727"/>
     <use style="fill:#1f77b4;stroke:#1f77b4;" x="95.078218" xlink:href="#mf0fc69eba7" y="27.562293"/>
     <use style="fill:#1f77b4;stroke:#1f77b4;" x="100.525981" xlink:href="#mf0fc69eba7" y="33.152238"/>
     <use style="fill:#1f77b4;stroke:#1f77b4;" x="105.973745" xlink:href="#mf0fc69eba7" y="36.987795"/>
     <use style="fill:#1f77b4;stroke:#1f77b4;" x="111.421508" xlink:href="#mf0fc69eba7" y="42.275557"/>
     <use style="fill:#1f77b4;stroke:#1f77b4;" x="116.869271" xlink:href="#mf0fc69eba7" y="46.497072"/>
     <use style="fill:#1f77b4;stroke:#1f77b4;" x="122.317035" xlink:href="#mf0fc69eba7" y="52.733953"/>
     <use style="fill:#1f77b4;stroke:#1f77b4;" x="127.764798" xlink:href="#mf0fc69eba7" y="64.06651"/>
     <use style="fill:#1f77b4;stroke:#1f77b4;" x="133.212561" xlink:href="#mf0fc69eba7" y="69.509156"/>
     <use style="fill:#1f77b4;stroke:#1f77b4;" x="138.660325" xlink:href="#mf0fc69eba7" y="79.528284"/>
     <use style="fill:#1f77b4;stroke:#1f77b4;" x="144.108088" xlink:href="#mf0fc69eba7" y="84.607618"/>
     <use style="fill:#1f77b4;stroke:#1f77b4;" x="149.555851" xlink:href="#mf0fc69eba7" y="100.012359"/>
     <use style="fill:#1f77b4;stroke:#1f77b4;" x="155.003615" xlink:href="#mf0fc69eba7" y="103.265364"/>
     <use style="fill:#1f77b4;stroke:#1f77b4;" x="160.451378" xlink:href="#mf0fc69eba7" y="119.984786"/>
     <use style="fill:#1f77b4;stroke:#1f77b4;" x="165.899141" xlink:href="#mf0fc69eba7" y="128.216123"/>
     <use style="fill:#1f77b4;stroke:#1f77b4;" x="171.346905" xlink:href="#mf0fc69eba7" y="139.781633"/>
     <use style="fill:#1f77b4;stroke:#1f77b4;" x="176.794668" xlink:href="#mf0fc69eba7" y="160.251201"/>
     <use style="fill:#1f77b4;stroke:#1f77b4;" x="182.242431" xlink:href="#mf0fc69eba7" y="174.453728"/>
     <use style="fill:#1f77b4;stroke:#1f77b4;" x="187.690195" xlink:href="#mf0fc69eba7" y="185.660343"/>
     <use style="fill:#1f77b4;stroke:#1f77b4;" x="193.137958" xlink:href="#mf0fc69eba7" y="215.800684"/>
     <use style="fill:#1f77b4;stroke:#1f77b4;" x="198.585722" xlink:href="#mf0fc69eba7" y="241.848169"/>
     <use style="fill:#1f77b4;stroke:#1f77b4;" x="204.033485" xlink:href="#mf0fc69eba7" y="253.659553"/>
     <use style="fill:#1f77b4;stroke:#1f77b4;" x="209.481248" xlink:href="#mf0fc69eba7" y="33.029172"/>
     <use style="fill:#1f77b4;stroke:#1f77b4;" x="214.929012" xlink:href="#mf0fc69eba7" y="81.206492"/>
     <use style="fill:#1f77b4;stroke:#1f77b4;" x="220.376775" xlink:href="#mf0fc69eba7" y="77.469775"/>
     <use style="fill:#1f77b4;stroke:#1f77b4;" x="225.824538" xlink:href="#mf0fc69eba7" y="135.712954"/>
     <use style="fill:#1f77b4;stroke:#1f77b4;" x="231.272302" xlink:href="#mf0fc69eba7" y="182.816061"/>
     <use style="fill:#1f77b4;stroke:#1f77b4;" x="236.720065" xlink:href="#mf0fc69eba7" y="44.828375"/>
     <use style="fill:#1f77b4;stroke:#1f77b4;" x="242.167828" xlink:href="#mf0fc69eba7" y="155.583292"/>
     <use style="fill:#1f77b4;stroke:#1f77b4;" x="247.615592" xlink:href="#mf0fc69eba7" y="155.944499"/>
     <use style="fill:#1f77b4;stroke:#1f77b4;" x="253.063355" xlink:href="#mf0fc69eba7" y="199.180319"/>
     <use style="fill:#1f77b4;stroke:#1f77b4;" x="258.511118" xlink:href="#mf0fc69eba7" y="268.958455"/>
     <use style="fill:#1f77b4;stroke:#1f77b4;" x="263.958882" xlink:href="#mf0fc69eba7" y="79.994401"/>
     <use style="fill:#1f77b4;stroke:#1f77b4;" x="269.406645" xlink:href="#mf0fc69eba7" y="182.430618"/>
     <use style="fill:#1f77b4;stroke:#1f77b4;" x="274.854408" xlink:href="#mf0fc69eba7" y="157.384762"/>
     <use style="fill:#1f77b4;stroke:#1f77b4;" x="280.302172" xlink:href="#mf0fc69eba7" y="111.899169"/>
     <use style="fill:#1f77b4;stroke:#1f77b4;" x="285.749935" xlink:href="#mf0fc69eba7" y="266.275453"/>
     <use style="fill:#1f77b4;stroke:#1f77b4;" x="291.197698" xlink:href="#mf0fc69eba7" y="162.599581"/>
     <use style="fill:#1f77b4;stroke:#1f77b4;" x="296.645462" xlink:href="#mf0fc69eba7" y="36.701712"/>
     <use style="fill:#1f77b4;stroke:#1f77b4;" x="302.093225" xlink:href="#mf0fc69eba7" y="46.891438"/>
     <use style="fill:#1f77b4;stroke:#1f77b4;" x="307.540988" xlink:href="#mf0fc69eba7" y="159.612906"/>
     <use style="fill:#1f77b4;stroke:#1f77b4;" x="312.988752" xlink:href="#mf0fc69eba7" y="111.011263"/>
     <use style="fill:#1f77b4;stroke:#1f77b4;" x="318.436515" xlink:href="#mf0fc69eba7" y="226.977258"/>
     <use style="fill:#1f77b4;stroke:#1f77b4;" x="323.884278" xlink:href="#mf0fc69eba7" y="217.082902"/>
     <use style="fill:#1f77b4;stroke:#1f77b4;" x="329.332042" xlink:href="#mf0fc69eba7" y="40.647719"/>
     <use style="fill:#1f77b4;stroke:#1f77b4;" x="334.779805" xlink:href="#mf0fc69eba7" y="255.9137"/>
     <use style="fill:#1f77b4;stroke:#1f77b4;" x="340.227569" xlink:href="#mf0fc69eba7" y="128.20726"/>
     <use style="fill:#1f77b4;stroke:#1f77b4;" x="345.675332" xlink:href="#mf0fc69eba7" y="78.826465"/>
     <use style="fill:#1f77b4;stroke:#1f77b4;" x="351.123095" xlink:href="#mf0fc69eba7" y="111.478326"/>
     <use style="fill:#1f77b4;stroke:#1f77b4;" x="356.570859" xlink:href="#mf0fc69eba7" y="177.070292"/>
     <use style="fill:#1f77b4;stroke:#1f77b4;" x="362.018622" xlink:href="#mf0fc69eba7" y="143.694767"/>
     <use style="fill:#1f77b4;stroke:#1f77b4;" x="367.466385" xlink:href="#mf0fc69eba7" y="200.512673"/>
     <use style="fill:#1f77b4;stroke:#1f77b4;" x="372.914149" xlink:href="#mf0fc69eba7" y="193.095459"/>
     <use style="fill:#1f77b4;stroke:#1f77b4;" x="378.361912" xlink:href="#mf0fc69eba7" y="264.566626"/>
     <use style="fill:#1f77b4;stroke:#1f77b4;" x="383.809675" xlink:href="#mf0fc69eba7" y="192.029559"/>
     <use style="fill:#1f77b4;stroke:#1f77b4;" x="389.257439" xlink:href="#mf0fc69eba7" y="205.583007"/>
     <use style="fill:#1f77b4;stroke:#1f77b4;" x="394.705202" xlink:href="#mf0fc69eba7" y="240.479144"/>
     <use style="fill:#1f77b4;stroke:#1f77b4;" x="400.152965" xlink:href="#mf0fc69eba7" y="280.707273"/>
     <use style="fill:#1f77b4;stroke:#1f77b4;" x="405.600729" xlink:href="#mf0fc69eba7" y="263.928466"/>
     <use style="fill:#1f77b4;stroke:#1f77b4;" x="411.048492" xlink:href="#mf0fc69eba7" y="270.416703"/>
     <use style="fill:#1f77b4;stroke:#1f77b4;" x="416.496255" xlink:href="#mf0fc69eba7" y="239.688339"/>
     <use style="fill:#1f77b4;stroke:#1f77b4;" x="421.944019" xlink:href="#mf0fc69eba7" y="271.955195"/>
     <use style="fill:#1f77b4;stroke:#1f77b4;" x="427.391782" xlink:href="#mf0fc69eba7" y="242.695084"/>
     <use style="fill:#1f77b4;stroke:#1f77b4;" x="432.839545" xlink:href="#mf0fc69eba7" y="42.084243"/>
    </g>
   </g>
   <g id="patch_3">
    <path d="M 72.47 293.56 
L 72.47 10.8 
" style="fill:none;stroke:#000000;stroke-linecap:square;stroke-linejoin:miter;stroke-width:0.8;"/>
   </g>
   <g id="patch_4">
    <path d="M 450 293.56 
L 450 10.8 
" style="fill:none;stroke:#000000;stroke-linecap:square;stroke-linejoin:miter;stroke-width:0.8;"/>
   </g>
   <g id="patch_5">
    <path d="M 72.47 293.56 
L 450 293.56 
" style="fill:none;stroke:#000000;stroke-linecap:square;stroke-linejoin:miter;stroke-width:0.8;"/>
   </g>
   <g id="patch_6">
    <path d="M 72.47 10.8 
L 450 10.8 
" style="fill:none;stroke:#000000;stroke-linecap:square;stroke-linejoin:miter;stroke-width:0.8;"/>
   </g>
  </g>
 </g>
 <defs>
  <clipPath id="pecac80d2ac">
   <rect height="282.76" width="377.53" x="72.47" y="10.8"/>
  </clipPath>
 </defs>
</svg>
