<?xml version="1.0" encoding="utf-8" standalone="no"?>
<!DOCTYPE svg PUBLIC "-//W3C//DTD SVG 1.1//EN"
  "http://www.w3.org/Graphics/SVG/1.1/DTD/svg11.dtd">
<!-- Created with matplotlib (https://matplotlib.org/) -->
<svg height="345.6pt" version="1.1" viewBox="0 0 460.8 345.6" width="460.8pt" xmlns="http://www.w3.org/2000/svg" xmlns:xlink="http://www.w3.org/1999/xlink">
 <metadata>
  <rdf:RDF xmlns:cc="http://creativecommons.org/ns#" xmlns:dc="http://purl.org/dc/elements/1.1/" xmlns:rdf="http://www.w3.org/1999/02/22-rdf-syntax-ns#">
   <cc:Work>
    <dc:type rdf:resource="http://purl.org/dc/dcmitype/StillImage"/>
    <dc:date>2022-05-06T23:50:19.544332</dc:date>
    <dc:format>image/svg+xml</dc:format>
    <dc:creator>
     <cc:Agent>
      <dc:title>Matplotlib v3.3.4, https://matplotlib.org/</dc:title>
     </cc:Agent>
    </dc:creator>
   </cc:Work>
  </rdf:RDF>
 </metadata>
 <defs>
  <style type="text/css">*{stroke-linecap:butt;stroke-linejoin:round;}</style>
 </defs>
 <g id="figure_1">
  <g id="patch_1">
   <path d="M 0 345.6 
L 460.8 345.6 
L 460.8 0 
L 0 0 
z
" style="fill:#ffffff;"/>
  </g>
  <g id="axes_1">
   <g id="patch_2">
    <path d="M 41.692054 297.448 
L 450 297.448 
L 450 10.8 
L 41.692054 10.8 
z
" style="fill:#ffffff;"/>
   </g>
   <g id="matplotlib.axis_1">
    <g id="xtick_1">
     <g id="line2d_1">
      <defs>
       <path d="M 0 0 
L 0 3.5 
" id="mceade27182" style="stroke:#000000;stroke-width:0.8;"/>
      </defs>
      <g>
       <use style="stroke:#000000;stroke-width:0.8;" x="60.251506" xlink:href="#mceade27182" y="297.448"/>
      </g>
     </g>
     <g id="text_1">
      <!-- $\mathdefault{10^{0}}$ -->
      <g transform="translate(51.451506 312.046437)scale(0.1 -0.1)">
       <defs>
        <path d="M 12.40625 8.296875 
L 28.515625 8.296875 
L 28.515625 63.921875 
L 10.984375 60.40625 
L 10.984375 69.390625 
L 28.421875 72.90625 
L 38.28125 72.90625 
L 38.28125 8.296875 
L 54.390625 8.296875 
L 54.390625 0 
L 12.40625 0 
z
" id="DejaVuSans-49"/>
        <path d="M 31.78125 66.40625 
Q 24.171875 66.40625 20.328125 58.90625 
Q 16.5 51.421875 16.5 36.375 
Q 16.5 21.390625 20.328125 13.890625 
Q 24.171875 6.390625 31.78125 6.390625 
Q 39.453125 6.390625 43.28125 13.890625 
Q 47.125 21.390625 47.125 36.375 
Q 47.125 51.421875 43.28125 58.90625 
Q 39.453125 66.40625 31.78125 66.40625 
z
M 31.78125 74.21875 
Q 44.046875 74.21875 50.515625 64.515625 
Q 56.984375 54.828125 56.984375 36.375 
Q 56.984375 17.96875 50.515625 8.265625 
Q 44.046875 -1.421875 31.78125 -1.421875 
Q 19.53125 -1.421875 13.0625 8.265625 
Q 6.59375 17.96875 6.59375 36.375 
Q 6.59375 54.828125 13.0625 64.515625 
Q 19.53125 74.21875 31.78125 74.21875 
z
" id="DejaVuSans-48"/>
       </defs>
       <use transform="translate(0 0.765625)" xlink:href="#DejaVuSans-49"/>
       <use transform="translate(63.623047 0.765625)" xlink:href="#DejaVuSans-48"/>
       <use transform="translate(128.203125 39.046875)scale(0.7)" xlink:href="#DejaVuSans-48"/>
      </g>
     </g>
    </g>
    <g id="xtick_2">
     <g id="line2d_2">
      <g>
       <use style="stroke:#000000;stroke-width:0.8;" x="153.049774" xlink:href="#mceade27182" y="297.448"/>
      </g>
     </g>
     <g id="text_2">
      <!-- $\mathdefault{10^{1}}$ -->
      <g transform="translate(144.249774 312.046437)scale(0.1 -0.1)">
       <use transform="translate(0 0.684375)" xlink:href="#DejaVuSans-49"/>
       <use transform="translate(63.623047 0.684375)" xlink:href="#DejaVuSans-48"/>
       <use transform="translate(128.203125 38.965625)scale(0.7)" xlink:href="#DejaVuSans-49"/>
      </g>
     </g>
    </g>
    <g id="xtick_3">
     <g id="line2d_3">
      <g>
       <use style="stroke:#000000;stroke-width:0.8;" x="245.848042" xlink:href="#mceade27182" y="297.448"/>
      </g>
     </g>
     <g id="text_3">
      <!-- $\mathdefault{10^{2}}$ -->
      <g transform="translate(237.048042 312.046437)scale(0.1 -0.1)">
       <defs>
        <path d="M 19.1875 8.296875 
L 53.609375 8.296875 
L 53.609375 0 
L 7.328125 0 
L 7.328125 8.296875 
Q 12.9375 14.109375 22.625 23.890625 
Q 32.328125 33.6875 34.8125 36.53125 
Q 39.546875 41.84375 41.421875 45.53125 
Q 43.3125 49.21875 43.3125 52.78125 
Q 43.3125 58.59375 39.234375 62.25 
Q 35.15625 65.921875 28.609375 65.921875 
Q 23.96875 65.921875 18.8125 64.3125 
Q 13.671875 62.703125 7.8125 59.421875 
L 7.8125 69.390625 
Q 13.765625 71.78125 18.9375 73 
Q 24.125 74.21875 28.421875 74.21875 
Q 39.75 74.21875 46.484375 68.546875 
Q 53.21875 62.890625 53.21875 53.421875 
Q 53.21875 48.921875 51.53125 44.890625 
Q 49.859375 40.875 45.40625 35.40625 
Q 44.1875 33.984375 37.640625 27.21875 
Q 31.109375 20.453125 19.1875 8.296875 
z
" id="DejaVuSans-50"/>
       </defs>
       <use transform="translate(0 0.765625)" xlink:href="#DejaVuSans-49"/>
       <use transform="translate(63.623047 0.765625)" xlink:href="#DejaVuSans-48"/>
       <use transform="translate(128.203125 39.046875)scale(0.7)" xlink:href="#DejaVuSans-50"/>
      </g>
     </g>
    </g>
    <g id="xtick_4">
     <g id="line2d_4">
      <g>
       <use style="stroke:#000000;stroke-width:0.8;" x="338.64631" xlink:href="#mceade27182" y="297.448"/>
      </g>
     </g>
     <g id="text_4">
      <!-- $\mathdefault{10^{3}}$ -->
      <g transform="translate(329.84631 312.046437)scale(0.1 -0.1)">
       <defs>
        <path d="M 40.578125 39.3125 
Q 47.65625 37.796875 51.625 33 
Q 55.609375 28.21875 55.609375 21.1875 
Q 55.609375 10.40625 48.1875 4.484375 
Q 40.765625 -1.421875 27.09375 -1.421875 
Q 22.515625 -1.421875 17.65625 -0.515625 
Q 12.796875 0.390625 7.625 2.203125 
L 7.625 11.71875 
Q 11.71875 9.328125 16.59375 8.109375 
Q 21.484375 6.890625 26.8125 6.890625 
Q 36.078125 6.890625 40.9375 10.546875 
Q 45.796875 14.203125 45.796875 21.1875 
Q 45.796875 27.640625 41.28125 31.265625 
Q 36.765625 34.90625 28.71875 34.90625 
L 20.21875 34.90625 
L 20.21875 43.015625 
L 29.109375 43.015625 
Q 36.375 43.015625 40.234375 45.921875 
Q 44.09375 48.828125 44.09375 54.296875 
Q 44.09375 59.90625 40.109375 62.90625 
Q 36.140625 65.921875 28.71875 65.921875 
Q 24.65625 65.921875 20.015625 65.03125 
Q 15.375 64.15625 9.8125 62.3125 
L 9.8125 71.09375 
Q 15.4375 72.65625 20.34375 73.4375 
Q 25.25 74.21875 29.59375 74.21875 
Q 40.828125 74.21875 47.359375 69.109375 
Q 53.90625 64.015625 53.90625 55.328125 
Q 53.90625 49.265625 50.4375 45.09375 
Q 46.96875 40.921875 40.578125 39.3125 
z
" id="DejaVuSans-51"/>
       </defs>
       <use transform="translate(0 0.765625)" xlink:href="#DejaVuSans-49"/>
       <use transform="translate(63.623047 0.765625)" xlink:href="#DejaVuSans-48"/>
       <use transform="translate(128.203125 39.046875)scale(0.7)" xlink:href="#DejaVuSans-51"/>
      </g>
     </g>
    </g>
    <g id="xtick_5">
     <g id="line2d_5">
      <g>
       <use style="stroke:#000000;stroke-width:0.8;" x="431.444578" xlink:href="#mceade27182" y="297.448"/>
      </g>
     </g>
     <g id="text_5">
      <!-- $\mathdefault{10^{4}}$ -->
      <g transform="translate(422.644578 312.046437)scale(0.1 -0.1)">
       <defs>
        <path d="M 37.796875 64.3125 
L 12.890625 25.390625 
L 37.796875 25.390625 
z
M 35.203125 72.90625 
L 47.609375 72.90625 
L 47.609375 25.390625 
L 58.015625 25.390625 
L 58.015625 17.1875 
L 47.609375 17.1875 
L 47.609375 0 
L 37.796875 0 
L 37.796875 17.1875 
L 4.890625 17.1875 
L 4.890625 26.703125 
z
" id="DejaVuSans-52"/>
       </defs>
       <use transform="translate(0 0.684375)" xlink:href="#DejaVuSans-49"/>
       <use transform="translate(63.623047 0.684375)" xlink:href="#DejaVuSans-48"/>
       <use transform="translate(128.203125 38.965625)scale(0.7)" xlink:href="#DejaVuSans-52"/>
      </g>
     </g>
    </g>
    <g id="xtick_6">
     <g id="line2d_6">
      <defs>
       <path d="M 0 0 
L 0 2 
" id="m4a9eff6a26" style="stroke:#000000;stroke-width:0.6;"/>
      </defs>
      <g>
       <use style="stroke:#000000;stroke-width:0.6;" x="45.876872" xlink:href="#m4a9eff6a26" y="297.448"/>
      </g>
     </g>
    </g>
    <g id="xtick_7">
     <g id="line2d_7">
      <g>
       <use style="stroke:#000000;stroke-width:0.6;" x="51.258425" xlink:href="#m4a9eff6a26" y="297.448"/>
      </g>
     </g>
    </g>
    <g id="xtick_8">
     <g id="line2d_8">
      <g>
       <use style="stroke:#000000;stroke-width:0.6;" x="56.00529" xlink:href="#m4a9eff6a26" y="297.448"/>
      </g>
     </g>
    </g>
    <g id="xtick_9">
     <g id="line2d_9">
      <g>
       <use style="stroke:#000000;stroke-width:0.6;" x="88.186568" xlink:href="#m4a9eff6a26" y="297.448"/>
      </g>
     </g>
    </g>
    <g id="xtick_10">
     <g id="line2d_10">
      <g>
       <use style="stroke:#000000;stroke-width:0.6;" x="104.527532" xlink:href="#m4a9eff6a26" y="297.448"/>
      </g>
     </g>
    </g>
    <g id="xtick_11">
     <g id="line2d_11">
      <g>
       <use style="stroke:#000000;stroke-width:0.6;" x="116.12163" xlink:href="#m4a9eff6a26" y="297.448"/>
      </g>
     </g>
    </g>
    <g id="xtick_12">
     <g id="line2d_12">
      <g>
       <use style="stroke:#000000;stroke-width:0.6;" x="125.114712" xlink:href="#m4a9eff6a26" y="297.448"/>
      </g>
     </g>
    </g>
    <g id="xtick_13">
     <g id="line2d_13">
      <g>
       <use style="stroke:#000000;stroke-width:0.6;" x="132.462594" xlink:href="#m4a9eff6a26" y="297.448"/>
      </g>
     </g>
    </g>
    <g id="xtick_14">
     <g id="line2d_14">
      <g>
       <use style="stroke:#000000;stroke-width:0.6;" x="138.67514" xlink:href="#m4a9eff6a26" y="297.448"/>
      </g>
     </g>
    </g>
    <g id="xtick_15">
     <g id="line2d_15">
      <g>
       <use style="stroke:#000000;stroke-width:0.6;" x="144.056693" xlink:href="#m4a9eff6a26" y="297.448"/>
      </g>
     </g>
    </g>
    <g id="xtick_16">
     <g id="line2d_16">
      <g>
       <use style="stroke:#000000;stroke-width:0.6;" x="148.803558" xlink:href="#m4a9eff6a26" y="297.448"/>
      </g>
     </g>
    </g>
    <g id="xtick_17">
     <g id="line2d_17">
      <g>
       <use style="stroke:#000000;stroke-width:0.6;" x="180.984836" xlink:href="#m4a9eff6a26" y="297.448"/>
      </g>
     </g>
    </g>
    <g id="xtick_18">
     <g id="line2d_18">
      <g>
       <use style="stroke:#000000;stroke-width:0.6;" x="197.3258" xlink:href="#m4a9eff6a26" y="297.448"/>
      </g>
     </g>
    </g>
    <g id="xtick_19">
     <g id="line2d_19">
      <g>
       <use style="stroke:#000000;stroke-width:0.6;" x="208.919899" xlink:href="#m4a9eff6a26" y="297.448"/>
      </g>
     </g>
    </g>
    <g id="xtick_20">
     <g id="line2d_20">
      <g>
       <use style="stroke:#000000;stroke-width:0.6;" x="217.91298" xlink:href="#m4a9eff6a26" y="297.448"/>
      </g>
     </g>
    </g>
    <g id="xtick_21">
     <g id="line2d_21">
      <g>
       <use style="stroke:#000000;stroke-width:0.6;" x="225.260862" xlink:href="#m4a9eff6a26" y="297.448"/>
      </g>
     </g>
    </g>
    <g id="xtick_22">
     <g id="line2d_22">
      <g>
       <use style="stroke:#000000;stroke-width:0.6;" x="231.473409" xlink:href="#m4a9eff6a26" y="297.448"/>
      </g>
     </g>
    </g>
    <g id="xtick_23">
     <g id="line2d_23">
      <g>
       <use style="stroke:#000000;stroke-width:0.6;" x="236.854961" xlink:href="#m4a9eff6a26" y="297.448"/>
      </g>
     </g>
    </g>
    <g id="xtick_24">
     <g id="line2d_24">
      <g>
       <use style="stroke:#000000;stroke-width:0.6;" x="241.601826" xlink:href="#m4a9eff6a26" y="297.448"/>
      </g>
     </g>
    </g>
    <g id="xtick_25">
     <g id="line2d_25">
      <g>
       <use style="stroke:#000000;stroke-width:0.6;" x="273.783104" xlink:href="#m4a9eff6a26" y="297.448"/>
      </g>
     </g>
    </g>
    <g id="xtick_26">
     <g id="line2d_26">
      <g>
       <use style="stroke:#000000;stroke-width:0.6;" x="290.124068" xlink:href="#m4a9eff6a26" y="297.448"/>
      </g>
     </g>
    </g>
    <g id="xtick_27">
     <g id="line2d_27">
      <g>
       <use style="stroke:#000000;stroke-width:0.6;" x="301.718167" xlink:href="#m4a9eff6a26" y="297.448"/>
      </g>
     </g>
    </g>
    <g id="xtick_28">
     <g id="line2d_28">
      <g>
       <use style="stroke:#000000;stroke-width:0.6;" x="310.711248" xlink:href="#m4a9eff6a26" y="297.448"/>
      </g>
     </g>
    </g>
    <g id="xtick_29">
     <g id="line2d_29">
      <g>
       <use style="stroke:#000000;stroke-width:0.6;" x="318.05913" xlink:href="#m4a9eff6a26" y="297.448"/>
      </g>
     </g>
    </g>
    <g id="xtick_30">
     <g id="line2d_30">
      <g>
       <use style="stroke:#000000;stroke-width:0.6;" x="324.271677" xlink:href="#m4a9eff6a26" y="297.448"/>
      </g>
     </g>
    </g>
    <g id="xtick_31">
     <g id="line2d_31">
      <g>
       <use style="stroke:#000000;stroke-width:0.6;" x="329.653229" xlink:href="#m4a9eff6a26" y="297.448"/>
      </g>
     </g>
    </g>
    <g id="xtick_32">
     <g id="line2d_32">
      <g>
       <use style="stroke:#000000;stroke-width:0.6;" x="334.400094" xlink:href="#m4a9eff6a26" y="297.448"/>
      </g>
     </g>
    </g>
    <g id="xtick_33">
     <g id="line2d_33">
      <g>
       <use style="stroke:#000000;stroke-width:0.6;" x="366.581372" xlink:href="#m4a9eff6a26" y="297.448"/>
      </g>
     </g>
    </g>
    <g id="xtick_34">
     <g id="line2d_34">
      <g>
       <use style="stroke:#000000;stroke-width:0.6;" x="382.922336" xlink:href="#m4a9eff6a26" y="297.448"/>
      </g>
     </g>
    </g>
    <g id="xtick_35">
     <g id="line2d_35">
      <g>
       <use style="stroke:#000000;stroke-width:0.6;" x="394.516435" xlink:href="#m4a9eff6a26" y="297.448"/>
      </g>
     </g>
    </g>
    <g id="xtick_36">
     <g id="line2d_36">
      <g>
       <use style="stroke:#000000;stroke-width:0.6;" x="403.509516" xlink:href="#m4a9eff6a26" y="297.448"/>
      </g>
     </g>
    </g>
    <g id="xtick_37">
     <g id="line2d_37">
      <g>
       <use style="stroke:#000000;stroke-width:0.6;" x="410.857399" xlink:href="#m4a9eff6a26" y="297.448"/>
      </g>
     </g>
    </g>
    <g id="xtick_38">
     <g id="line2d_38">
      <g>
       <use style="stroke:#000000;stroke-width:0.6;" x="417.069945" xlink:href="#m4a9eff6a26" y="297.448"/>
      </g>
     </g>
    </g>
    <g id="xtick_39">
     <g id="line2d_39">
      <g>
       <use style="stroke:#000000;stroke-width:0.6;" x="422.451497" xlink:href="#m4a9eff6a26" y="297.448"/>
      </g>
     </g>
    </g>
    <g id="xtick_40">
     <g id="line2d_40">
      <g>
       <use style="stroke:#000000;stroke-width:0.6;" x="427.198362" xlink:href="#m4a9eff6a26" y="297.448"/>
      </g>
     </g>
    </g>
    <g id="text_6">
     <!-- Number of Particles -->
     <g transform="translate(186.851964 327.24425)scale(0.12 -0.12)">
      <defs>
       <path d="M 9.8125 72.90625 
L 23.09375 72.90625 
L 55.421875 11.921875 
L 55.421875 72.90625 
L 64.984375 72.90625 
L 64.984375 0 
L 51.703125 0 
L 19.390625 60.984375 
L 19.390625 0 
L 9.8125 0 
z
" id="DejaVuSans-78"/>
       <path d="M 8.5 21.578125 
L 8.5 54.6875 
L 17.484375 54.6875 
L 17.484375 21.921875 
Q 17.484375 14.15625 20.5 10.265625 
Q 23.53125 6.390625 29.59375 6.390625 
Q 36.859375 6.390625 41.078125 11.03125 
Q 45.3125 15.671875 45.3125 23.6875 
L 45.3125 54.6875 
L 54.296875 54.6875 
L 54.296875 0 
L 45.3125 0 
L 45.3125 8.40625 
Q 42.046875 3.421875 37.71875 1 
Q 33.40625 -1.421875 27.6875 -1.421875 
Q 18.265625 -1.421875 13.375 4.4375 
Q 8.5 10.296875 8.5 21.578125 
z
M 31.109375 56 
z
" id="DejaVuSans-117"/>
       <path d="M 52 44.1875 
Q 55.375 50.25 60.0625 53.125 
Q 64.75 56 71.09375 56 
Q 79.640625 56 84.28125 50.015625 
Q 88.921875 44.046875 88.921875 33.015625 
L 88.921875 0 
L 79.890625 0 
L 79.890625 32.71875 
Q 79.890625 40.578125 77.09375 44.375 
Q 74.3125 48.1875 68.609375 48.1875 
Q 61.625 48.1875 57.5625 43.546875 
Q 53.515625 38.921875 53.515625 30.90625 
L 53.515625 0 
L 44.484375 0 
L 44.484375 32.71875 
Q 44.484375 40.625 41.703125 44.40625 
Q 38.921875 48.1875 33.109375 48.1875 
Q 26.21875 48.1875 22.15625 43.53125 
Q 18.109375 38.875 18.109375 30.90625 
L 18.109375 0 
L 9.078125 0 
L 9.078125 54.6875 
L 18.109375 54.6875 
L 18.109375 46.1875 
Q 21.1875 51.21875 25.484375 53.609375 
Q 29.78125 56 35.6875 56 
Q 41.65625 56 45.828125 52.96875 
Q 50 49.953125 52 44.1875 
z
" id="DejaVuSans-109"/>
       <path d="M 48.6875 27.296875 
Q 48.6875 37.203125 44.609375 42.84375 
Q 40.53125 48.484375 33.40625 48.484375 
Q 26.265625 48.484375 22.1875 42.84375 
Q 18.109375 37.203125 18.109375 27.296875 
Q 18.109375 17.390625 22.1875 11.75 
Q 26.265625 6.109375 33.40625 6.109375 
Q 40.53125 6.109375 44.609375 11.75 
Q 48.6875 17.390625 48.6875 27.296875 
z
M 18.109375 46.390625 
Q 20.953125 51.265625 25.265625 53.625 
Q 29.59375 56 35.59375 56 
Q 45.5625 56 51.78125 48.09375 
Q 58.015625 40.1875 58.015625 27.296875 
Q 58.015625 14.40625 51.78125 6.484375 
Q 45.5625 -1.421875 35.59375 -1.421875 
Q 29.59375 -1.421875 25.265625 0.953125 
Q 20.953125 3.328125 18.109375 8.203125 
L 18.109375 0 
L 9.078125 0 
L 9.078125 75.984375 
L 18.109375 75.984375 
z
" id="DejaVuSans-98"/>
       <path d="M 56.203125 29.59375 
L 56.203125 25.203125 
L 14.890625 25.203125 
Q 15.484375 15.921875 20.484375 11.0625 
Q 25.484375 6.203125 34.421875 6.203125 
Q 39.59375 6.203125 44.453125 7.46875 
Q 49.3125 8.734375 54.109375 11.28125 
L 54.109375 2.78125 
Q 49.265625 0.734375 44.1875 -0.34375 
Q 39.109375 -1.421875 33.890625 -1.421875 
Q 20.796875 -1.421875 13.15625 6.1875 
Q 5.515625 13.8125 5.515625 26.8125 
Q 5.515625 40.234375 12.765625 48.109375 
Q 20.015625 56 32.328125 56 
Q 43.359375 56 49.78125 48.890625 
Q 56.203125 41.796875 56.203125 29.59375 
z
M 47.21875 32.234375 
Q 47.125 39.59375 43.09375 43.984375 
Q 39.0625 48.390625 32.421875 48.390625 
Q 24.90625 48.390625 20.390625 44.140625 
Q 15.875 39.890625 15.1875 32.171875 
z
" id="DejaVuSans-101"/>
       <path d="M 41.109375 46.296875 
Q 39.59375 47.171875 37.8125 47.578125 
Q 36.03125 48 33.890625 48 
Q 26.265625 48 22.1875 43.046875 
Q 18.109375 38.09375 18.109375 28.8125 
L 18.109375 0 
L 9.078125 0 
L 9.078125 54.6875 
L 18.109375 54.6875 
L 18.109375 46.1875 
Q 20.953125 51.171875 25.484375 53.578125 
Q 30.03125 56 36.53125 56 
Q 37.453125 56 38.578125 55.875 
Q 39.703125 55.765625 41.0625 55.515625 
z
" id="DejaVuSans-114"/>
       <path id="DejaVuSans-32"/>
       <path d="M 30.609375 48.390625 
Q 23.390625 48.390625 19.1875 42.75 
Q 14.984375 37.109375 14.984375 27.296875 
Q 14.984375 17.484375 19.15625 11.84375 
Q 23.34375 6.203125 30.609375 6.203125 
Q 37.796875 6.203125 41.984375 11.859375 
Q 46.1875 17.53125 46.1875 27.296875 
Q 46.1875 37.015625 41.984375 42.703125 
Q 37.796875 48.390625 30.609375 48.390625 
z
M 30.609375 56 
Q 42.328125 56 49.015625 48.375 
Q 55.71875 40.765625 55.71875 27.296875 
Q 55.71875 13.875 49.015625 6.21875 
Q 42.328125 -1.421875 30.609375 -1.421875 
Q 18.84375 -1.421875 12.171875 6.21875 
Q 5.515625 13.875 5.515625 27.296875 
Q 5.515625 40.765625 12.171875 48.375 
Q 18.84375 56 30.609375 56 
z
" id="DejaVuSans-111"/>
       <path d="M 37.109375 75.984375 
L 37.109375 68.5 
L 28.515625 68.5 
Q 23.6875 68.5 21.796875 66.546875 
Q 19.921875 64.59375 19.921875 59.515625 
L 19.921875 54.6875 
L 34.71875 54.6875 
L 34.71875 47.703125 
L 19.921875 47.703125 
L 19.921875 0 
L 10.890625 0 
L 10.890625 47.703125 
L 2.296875 47.703125 
L 2.296875 54.6875 
L 10.890625 54.6875 
L 10.890625 58.5 
Q 10.890625 67.625 15.140625 71.796875 
Q 19.390625 75.984375 28.609375 75.984375 
z
" id="DejaVuSans-102"/>
       <path d="M 19.671875 64.796875 
L 19.671875 37.40625 
L 32.078125 37.40625 
Q 38.96875 37.40625 42.71875 40.96875 
Q 46.484375 44.53125 46.484375 51.125 
Q 46.484375 57.671875 42.71875 61.234375 
Q 38.96875 64.796875 32.078125 64.796875 
z
M 9.8125 72.90625 
L 32.078125 72.90625 
Q 44.34375 72.90625 50.609375 67.359375 
Q 56.890625 61.8125 56.890625 51.125 
Q 56.890625 40.328125 50.609375 34.8125 
Q 44.34375 29.296875 32.078125 29.296875 
L 19.671875 29.296875 
L 19.671875 0 
L 9.8125 0 
z
" id="DejaVuSans-80"/>
       <path d="M 34.28125 27.484375 
Q 23.390625 27.484375 19.1875 25 
Q 14.984375 22.515625 14.984375 16.5 
Q 14.984375 11.71875 18.140625 8.90625 
Q 21.296875 6.109375 26.703125 6.109375 
Q 34.1875 6.109375 38.703125 11.40625 
Q 43.21875 16.703125 43.21875 25.484375 
L 43.21875 27.484375 
z
M 52.203125 31.203125 
L 52.203125 0 
L 43.21875 0 
L 43.21875 8.296875 
Q 40.140625 3.328125 35.546875 0.953125 
Q 30.953125 -1.421875 24.3125 -1.421875 
Q 15.921875 -1.421875 10.953125 3.296875 
Q 6 8.015625 6 15.921875 
Q 6 25.140625 12.171875 29.828125 
Q 18.359375 34.515625 30.609375 34.515625 
L 43.21875 34.515625 
L 43.21875 35.40625 
Q 43.21875 41.609375 39.140625 45 
Q 35.0625 48.390625 27.6875 48.390625 
Q 23 48.390625 18.546875 47.265625 
Q 14.109375 46.140625 10.015625 43.890625 
L 10.015625 52.203125 
Q 14.9375 54.109375 19.578125 55.046875 
Q 24.21875 56 28.609375 56 
Q 40.484375 56 46.34375 49.84375 
Q 52.203125 43.703125 52.203125 31.203125 
z
" id="DejaVuSans-97"/>
       <path d="M 18.3125 70.21875 
L 18.3125 54.6875 
L 36.8125 54.6875 
L 36.8125 47.703125 
L 18.3125 47.703125 
L 18.3125 18.015625 
Q 18.3125 11.328125 20.140625 9.421875 
Q 21.96875 7.515625 27.59375 7.515625 
L 36.8125 7.515625 
L 36.8125 0 
L 27.59375 0 
Q 17.1875 0 13.234375 3.875 
Q 9.28125 7.765625 9.28125 18.015625 
L 9.28125 47.703125 
L 2.6875 47.703125 
L 2.6875 54.6875 
L 9.28125 54.6875 
L 9.28125 70.21875 
z
" id="DejaVuSans-116"/>
       <path d="M 9.421875 54.6875 
L 18.40625 54.6875 
L 18.40625 0 
L 9.421875 0 
z
M 9.421875 75.984375 
L 18.40625 75.984375 
L 18.40625 64.59375 
L 9.421875 64.59375 
z
" id="DejaVuSans-105"/>
       <path d="M 48.78125 52.59375 
L 48.78125 44.1875 
Q 44.96875 46.296875 41.140625 47.34375 
Q 37.3125 48.390625 33.40625 48.390625 
Q 24.65625 48.390625 19.8125 42.84375 
Q 14.984375 37.3125 14.984375 27.296875 
Q 14.984375 17.28125 19.8125 11.734375 
Q 24.65625 6.203125 33.40625 6.203125 
Q 37.3125 6.203125 41.140625 7.25 
Q 44.96875 8.296875 48.78125 10.40625 
L 48.78125 2.09375 
Q 45.015625 0.34375 40.984375 -0.53125 
Q 36.96875 -1.421875 32.421875 -1.421875 
Q 20.0625 -1.421875 12.78125 6.34375 
Q 5.515625 14.109375 5.515625 27.296875 
Q 5.515625 40.671875 12.859375 48.328125 
Q 20.21875 56 33.015625 56 
Q 37.15625 56 41.109375 55.140625 
Q 45.0625 54.296875 48.78125 52.59375 
z
" id="DejaVuSans-99"/>
       <path d="M 9.421875 75.984375 
L 18.40625 75.984375 
L 18.40625 0 
L 9.421875 0 
z
" id="DejaVuSans-108"/>
       <path d="M 44.28125 53.078125 
L 44.28125 44.578125 
Q 40.484375 46.53125 36.375 47.5 
Q 32.28125 48.484375 27.875 48.484375 
Q 21.1875 48.484375 17.84375 46.4375 
Q 14.5 44.390625 14.5 40.28125 
Q 14.5 37.15625 16.890625 35.375 
Q 19.28125 33.59375 26.515625 31.984375 
L 29.59375 31.296875 
Q 39.15625 29.25 43.1875 25.515625 
Q 47.21875 21.78125 47.21875 15.09375 
Q 47.21875 7.46875 41.1875 3.015625 
Q 35.15625 -1.421875 24.609375 -1.421875 
Q 20.21875 -1.421875 15.453125 -0.5625 
Q 10.6875 0.296875 5.421875 2 
L 5.421875 11.28125 
Q 10.40625 8.6875 15.234375 7.390625 
Q 20.0625 6.109375 24.8125 6.109375 
Q 31.15625 6.109375 34.5625 8.28125 
Q 37.984375 10.453125 37.984375 14.40625 
Q 37.984375 18.0625 35.515625 20.015625 
Q 33.0625 21.96875 24.703125 23.78125 
L 21.578125 24.515625 
Q 13.234375 26.265625 9.515625 29.90625 
Q 5.8125 33.546875 5.8125 39.890625 
Q 5.8125 47.609375 11.28125 51.796875 
Q 16.75 56 26.8125 56 
Q 31.78125 56 36.171875 55.265625 
Q 40.578125 54.546875 44.28125 53.078125 
z
" id="DejaVuSans-115"/>
      </defs>
      <use xlink:href="#DejaVuSans-78"/>
      <use x="74.804688" xlink:href="#DejaVuSans-117"/>
      <use x="138.183594" xlink:href="#DejaVuSans-109"/>
      <use x="235.595703" xlink:href="#DejaVuSans-98"/>
      <use x="299.072266" xlink:href="#DejaVuSans-101"/>
      <use x="360.595703" xlink:href="#DejaVuSans-114"/>
      <use x="401.708984" xlink:href="#DejaVuSans-32"/>
      <use x="433.496094" xlink:href="#DejaVuSans-111"/>
      <use x="494.677734" xlink:href="#DejaVuSans-102"/>
      <use x="529.882812" xlink:href="#DejaVuSans-32"/>
      <use x="561.669922" xlink:href="#DejaVuSans-80"/>
      <use x="617.472656" xlink:href="#DejaVuSans-97"/>
      <use x="678.751953" xlink:href="#DejaVuSans-114"/>
      <use x="719.865234" xlink:href="#DejaVuSans-116"/>
      <use x="759.074219" xlink:href="#DejaVuSans-105"/>
      <use x="786.857422" xlink:href="#DejaVuSans-99"/>
      <use x="841.837891" xlink:href="#DejaVuSans-108"/>
      <use x="869.621094" xlink:href="#DejaVuSans-101"/>
      <use x="931.144531" xlink:href="#DejaVuSans-115"/>
     </g>
    </g>
   </g>
   <g id="matplotlib.axis_2">
    <g id="ytick_1">
     <g id="line2d_41">
      <defs>
       <path d="M 0 0 
L -3.5 0 
" id="mf858baf232" style="stroke:#000000;stroke-width:0.8;"/>
      </defs>
      <g>
       <use style="stroke:#000000;stroke-width:0.8;" x="41.692054" xlink:href="#mf858baf232" y="284.681397"/>
      </g>
     </g>
     <g id="text_7">
      <!-- $\mathdefault{10^{-1}}$ -->
      <g transform="translate(11.192054 288.480616)scale(0.1 -0.1)">
       <defs>
        <path d="M 10.59375 35.5 
L 73.1875 35.5 
L 73.1875 27.203125 
L 10.59375 27.203125 
z
" id="DejaVuSans-8722"/>
       </defs>
       <use transform="translate(0 0.684375)" xlink:href="#DejaVuSans-49"/>
       <use transform="translate(63.623047 0.684375)" xlink:href="#DejaVuSans-48"/>
       <use transform="translate(128.203125 38.965625)scale(0.7)" xlink:href="#DejaVuSans-8722"/>
       <use transform="translate(186.855469 38.965625)scale(0.7)" xlink:href="#DejaVuSans-49"/>
      </g>
     </g>
    </g>
    <g id="ytick_2">
     <g id="line2d_42">
      <g>
       <use style="stroke:#000000;stroke-width:0.8;" x="41.692054" xlink:href="#mf858baf232" y="162.978917"/>
      </g>
     </g>
     <g id="text_8">
      <!-- $\mathdefault{10^{0}}$ -->
      <g transform="translate(17.092054 166.778136)scale(0.1 -0.1)">
       <use transform="translate(0 0.765625)" xlink:href="#DejaVuSans-49"/>
       <use transform="translate(63.623047 0.765625)" xlink:href="#DejaVuSans-48"/>
       <use transform="translate(128.203125 39.046875)scale(0.7)" xlink:href="#DejaVuSans-48"/>
      </g>
     </g>
    </g>
    <g id="ytick_3">
     <g id="line2d_43">
      <g>
       <use style="stroke:#000000;stroke-width:0.8;" x="41.692054" xlink:href="#mf858baf232" y="41.276437"/>
      </g>
     </g>
     <g id="text_9">
      <!-- $\mathdefault{10^{1}}$ -->
      <g transform="translate(17.092054 45.075656)scale(0.1 -0.1)">
       <use transform="translate(0 0.684375)" xlink:href="#DejaVuSans-49"/>
       <use transform="translate(63.623047 0.684375)" xlink:href="#DejaVuSans-48"/>
       <use transform="translate(128.203125 38.965625)scale(0.7)" xlink:href="#DejaVuSans-49"/>
      </g>
     </g>
    </g>
    <g id="ytick_4">
     <g id="line2d_44">
      <defs>
       <path d="M 0 0 
L -2 0 
" id="m9a5cdddf13" style="stroke:#000000;stroke-width:0.6;"/>
      </defs>
      <g>
       <use style="stroke:#000000;stroke-width:0.6;" x="41.692054" xlink:href="#m9a5cdddf13" y="296.475586"/>
      </g>
     </g>
    </g>
    <g id="ytick_5">
     <g id="line2d_45">
      <g>
       <use style="stroke:#000000;stroke-width:0.6;" x="41.692054" xlink:href="#m9a5cdddf13" y="290.250198"/>
      </g>
     </g>
    </g>
    <g id="ytick_6">
     <g id="line2d_46">
      <g>
       <use style="stroke:#000000;stroke-width:0.6;" x="41.692054" xlink:href="#m9a5cdddf13" y="248.0453"/>
      </g>
     </g>
    </g>
    <g id="ytick_7">
     <g id="line2d_47">
      <g>
       <use style="stroke:#000000;stroke-width:0.6;" x="41.692054" xlink:href="#m9a5cdddf13" y="226.614557"/>
      </g>
     </g>
    </g>
    <g id="ytick_8">
     <g id="line2d_48">
      <g>
       <use style="stroke:#000000;stroke-width:0.6;" x="41.692054" xlink:href="#m9a5cdddf13" y="211.409203"/>
      </g>
     </g>
    </g>
    <g id="ytick_9">
     <g id="line2d_49">
      <g>
       <use style="stroke:#000000;stroke-width:0.6;" x="41.692054" xlink:href="#m9a5cdddf13" y="199.615014"/>
      </g>
     </g>
    </g>
    <g id="ytick_10">
     <g id="line2d_50">
      <g>
       <use style="stroke:#000000;stroke-width:0.6;" x="41.692054" xlink:href="#m9a5cdddf13" y="189.97846"/>
      </g>
     </g>
    </g>
    <g id="ytick_11">
     <g id="line2d_51">
      <g>
       <use style="stroke:#000000;stroke-width:0.6;" x="41.692054" xlink:href="#m9a5cdddf13" y="181.83087"/>
      </g>
     </g>
    </g>
    <g id="ytick_12">
     <g id="line2d_52">
      <g>
       <use style="stroke:#000000;stroke-width:0.6;" x="41.692054" xlink:href="#m9a5cdddf13" y="174.773106"/>
      </g>
     </g>
    </g>
    <g id="ytick_13">
     <g id="line2d_53">
      <g>
       <use style="stroke:#000000;stroke-width:0.6;" x="41.692054" xlink:href="#m9a5cdddf13" y="168.547717"/>
      </g>
     </g>
    </g>
    <g id="ytick_14">
     <g id="line2d_54">
      <g>
       <use style="stroke:#000000;stroke-width:0.6;" x="41.692054" xlink:href="#m9a5cdddf13" y="126.34282"/>
      </g>
     </g>
    </g>
    <g id="ytick_15">
     <g id="line2d_55">
      <g>
       <use style="stroke:#000000;stroke-width:0.6;" x="41.692054" xlink:href="#m9a5cdddf13" y="104.912077"/>
      </g>
     </g>
    </g>
    <g id="ytick_16">
     <g id="line2d_56">
      <g>
       <use style="stroke:#000000;stroke-width:0.6;" x="41.692054" xlink:href="#m9a5cdddf13" y="89.706723"/>
      </g>
     </g>
    </g>
    <g id="ytick_17">
     <g id="line2d_57">
      <g>
       <use style="stroke:#000000;stroke-width:0.6;" x="41.692054" xlink:href="#m9a5cdddf13" y="77.912534"/>
      </g>
     </g>
    </g>
    <g id="ytick_18">
     <g id="line2d_58">
      <g>
       <use style="stroke:#000000;stroke-width:0.6;" x="41.692054" xlink:href="#m9a5cdddf13" y="68.27598"/>
      </g>
     </g>
    </g>
    <g id="ytick_19">
     <g id="line2d_59">
      <g>
       <use style="stroke:#000000;stroke-width:0.6;" x="41.692054" xlink:href="#m9a5cdddf13" y="60.12839"/>
      </g>
     </g>
    </g>
    <g id="ytick_20">
     <g id="line2d_60">
      <g>
       <use style="stroke:#000000;stroke-width:0.6;" x="41.692054" xlink:href="#m9a5cdddf13" y="53.070626"/>
      </g>
     </g>
    </g>
    <g id="ytick_21">
     <g id="line2d_61">
      <g>
       <use style="stroke:#000000;stroke-width:0.6;" x="41.692054" xlink:href="#m9a5cdddf13" y="46.845237"/>
      </g>
     </g>
    </g>
   </g>
   <g id="line2d_62">
    <path clip-path="url(#pdf2c7bdbc4)" d="M -1 266.386268 
L 60.251506 266.374358 
L 88.186568 255.935715 
L 104.527532 248.612695 
L 116.12163 242.998249 
L 125.114712 230.435593 
L 138.67514 225.081057 
L 144.056693 218.098683 
L 156.890944 213.421076 
L 166.610203 209.737222 
L 169.390738 205.799847 
L 176.73862 203.293698 
L 178.917625 199.615014 
L 180.984836 192.456319 
L 182.951167 192.048134 
L 184.826006 188.647691 
L 186.617491 186.660156 
L 189.977918 186.126252 
L 193.079584 182.84963 
L 194.545265 177.404618 
L 195.959507 176.270383 
L 197.3258 170.519296 
L 198.647288 168.298323 
L 202.370097 166.277661 
L 203.538346 166.280779 
L 204.673683 162.888267 
L 206.852688 162.943169 
L 207.899546 162.485494 
L 209.915055 162.582902 
L 210.886229 161.21218 
L 213.666764 161.437051 
L 214.552553 157.18991 
L 215.419291 156.429531 
L 216.267781 156.526354 
L 217.91298 154.612103 
L 218.711061 154.452191 
L 219.493644 153.800651 
L 220.26132 153.923429 
L 221.014647 150.913595 
L 222.480327 150.73293 
L 223.89457 148.036103 
L 224.583506 144.527747 
L 225.260862 144.660869 
L 225.927023 144.666373 
L 226.58235 144.538701 
L 227.227193 144.175549 
L 227.861879 143.220432 
L 229.102032 143.023134 
L 229.708085 143.090465 
L 230.305159 142.83115 
L 230.893517 142.031984 
L 231.473409 141.72118 
L 232.045075 140.943652 
L 232.608745 141.117545 
L 233.16464 140.768521 
L 234.253944 140.664234 
L 235.314578 139.661601 
L 235.834608 138.920535 
L 236.854961 138.849767 
L 237.35561 139.034827 
L 237.850117 136.000957 
L 238.338629 134.828714 
L 239.298241 131.336965 
L 239.769612 131.17541 
L 241.151522 131.695058 
L 242.047154 131.390204 
L 242.487615 130.671456 
L 242.923314 130.852786 
L 243.354353 129.803391 
L 243.780831 129.829281 
L 244.202843 129.457493 
L 244.620482 129.675099 
L 245.033837 129.328554 
L 245.442996 129.193344 
L 245.848042 128.542428 
L 246.249058 128.443179 
L 246.646123 126.702288 
L 247.039314 126.629863 
L 248.196383 127.315338 
L 248.574806 126.211068 
L 248.949709 126.411013 
L 249.321156 125.61212 
L 249.689212 125.097883 
L 250.053936 124.85227 
L 250.415389 124.888706 
L 251.128714 124.534293 
L 251.480697 124.772416 
L 251.829632 124.265843 
L 252.175572 123.415444 
L 252.518568 123.467221 
L 252.858669 123.316487 
L 253.195925 122.671664 
L 253.530381 122.531341 
L 253.862085 121.01537 
L 254.191081 120.777453 
L 254.517413 120.869567 
L 254.841124 120.729013 
L 255.162255 119.904811 
L 255.480848 119.788602 
L 255.796942 119.890257 
L 256.421788 119.259787 
L 256.730615 119.579 
L 257.037094 118.977162 
L 257.34126 117.867959 
L 257.643147 117.607667 
L 257.94279 116.860563 
L 258.240222 116.597112 
L 258.535474 116.864888 
L 259.119568 116.467548 
L 259.408471 116.020643 
L 259.695317 116.049053 
L 259.980137 115.86655 
L 260.262957 113.713133 
L 261.099703 112.661511 
L 261.374801 112.059671 
L 261.919428 111.602049 
L 262.189006 111.766389 
L 262.722812 112.359891 
L 262.987087 112.452456 
L 263.24964 112.172508 
L 263.510494 112.0741 
L 263.76967 112.432535 
L 264.283076 111.925377 
L 265.041125 111.96208 
L 265.785179 111.153767 
L 266.273692 109.901882 
L 266.756353 109.479856 
L 266.995534 109.533335 
L 267.469678 110.438696 
L 267.938308 109.697355 
L 268.170596 109.864611 
L 268.401552 109.390965 
L 268.859532 109.916658 
L 269.086585 109.779564 
L 269.312365 109.803099 
L 269.760168 109.318983 
L 269.982217 109.194653 
L 270.203049 109.220551 
L 270.422677 109.584733 
L 270.641116 109.46496 
L 270.858377 108.944171 
L 271.074472 109.543898 
L 271.503219 108.43764 
L 271.927452 108.415289 
L 272.137906 108.5581 
L 272.555544 107.890281 
L 272.762752 106.639112 
L 272.968899 106.649232 
L 273.378058 106.3712 
L 273.58109 106.667523 
L 274.581185 105.586837 
L 274.778261 105.811106 
L 275.169543 105.093701 
L 275.557063 104.91697 
L 275.749435 105.087237 
L 275.940892 105.062934 
L 276.131445 104.458296 
L 276.321101 104.357806 
L 276.509868 104.498298 
L 276.697755 104.304866 
L 276.884771 103.881881 
L 277.070923 104.284555 
L 277.256219 103.983231 
L 277.440666 104.821427 
L 277.624274 103.744328 
L 277.807049 104.25382 
L 278.17013 103.784142 
L 278.350452 103.840746 
L 278.708692 103.555446 
L 278.886625 103.979689 
L 279.063776 103.703698 
L 279.240152 103.175957 
L 279.415759 103.952254 
L 279.590604 103.694061 
L 279.764694 104.534141 
L 279.938035 104.057722 
L 280.110634 103.955793 
L 280.282497 105.002426 
L 280.62404 104.91697 
L 280.793732 104.213293 
L 280.962712 104.071639 
L 281.130987 104.081118 
L 281.298562 104.751135 
L 281.465443 104.820513 
L 281.797147 104.508835 
L 281.961981 104.120553 
L 282.126143 104.274107 
L 282.452475 103.890116 
L 282.614655 103.940463 
L 282.937071 103.049428 
L 283.097317 103.048003 
L 283.256928 102.659111 
L 283.41591 102.668939 
L 283.574267 102.969765 
L 283.732004 102.45634 
L 284.045638 102.71054 
L 284.201544 102.449932 
L 284.665678 104.651345 
L 284.819208 104.410253 
L 284.972156 104.407853 
L 285.124526 105.648384 
L 285.427549 105.540457 
L 285.728309 104.718032 
L 286.026842 104.345833 
L 286.175284 104.450182 
L 287.05463 102.55012 
L 287.19934 101.741965 
L 287.343533 101.637766 
L 287.487212 101.275069 
L 287.773041 100.322876 
L 288.056857 100.148688 
L 288.19802 100.824134 
L 288.338689 100.791675 
L 289.034765 99.542923 
L 289.172549 99.041657 
L 289.309863 100.573873 
L 289.446712 100.185223 
L 289.719022 100.229235 
L 289.85449 99.929769 
L 289.989505 99.083804 
L 290.124068 99.159198 
L 290.525084 97.388171 
L 290.657874 97.454492 
L 290.790228 97.327522 
L 291.184702 96.501635 
L 291.445556 97.668403 
L 291.704733 96.638323 
L 292.090398 95.935058 
L 292.218138 96.16155 
L 292.472409 95.908948 
L 292.598945 96.514315 
L 292.725085 95.696679 
L 292.850832 95.668217 
L 293.225735 94.304139 
L 293.349931 94.149867 
L 293.597182 93.121851 
L 293.720241 93.292272 
L 293.842926 93.204765 
L 293.965238 92.634562 
L 294.08718 92.65609 
L 294.208754 92.403482 
L 294.329962 92.504235 
L 294.450807 92.926672 
L 294.571291 92.733117 
L 294.691416 92.805727 
L 294.811183 92.730224 
L 294.930596 94.017537 
L 295.168365 93.447746 
L 295.286726 93.530497 
L 295.40474 93.347482 
L 295.639736 96.862607 
L 295.756723 96.672102 
L 296.105658 95.803033 
L 296.336614 94.601126 
L 296.451598 94.539313 
L 296.794594 93.888284 
L 297.021647 93.13203 
L 297.471951 92.951744 
L 297.583745 91.801683 
L 297.69523 92.677827 
L 298.138111 91.3674 
L 298.35774 91.515973 
L 298.793439 90.676922 
L 298.901632 91.709689 
L 299.11715 91.290047 
L 299.224478 93.247401 
L 299.438281 92.843076 
L 299.544759 92.706132 
L 299.756874 92.698427 
L 299.862514 92.169118 
L 300.072968 92.181392 
L 300.386602 91.651684 
L 300.490606 91.574973 
L 300.594343 91.210371 
L 300.80102 91.628 
L 300.903962 91.281101 
L 301.006641 91.34836 
L 301.31312 90.572223 
L 301.414764 90.638591 
L 301.919173 90.25427 
L 302.119183 89.597398 
L 302.218816 89.552221 
L 302.614906 88.135509 
L 303.104605 87.277258 
L 303.201835 88.520916 
L 303.492125 87.585268 
L 303.971343 86.76211 
L 304.161447 86.383144 
L 304.256163 86.411216 
L 304.350657 86.617123 
L 304.44493 86.409849 
L 304.538983 85.902392 
L 304.632818 86.697573 
L 304.726434 86.404537 
L 305.005985 84.565356 
L 305.098739 84.550211 
L 305.28361 83.383812 
L 305.375729 84.217257 
L 305.467637 83.962376 
L 305.559336 83.213774 
L 305.650827 83.888997 
L 305.742111 83.774293 
L 305.924061 83.296632 
L 306.195454 82.82374 
L 306.465032 82.141909 
L 306.554492 81.834086 
L 306.643754 82.132611 
L 306.732819 82.081397 
L 306.91036 81.556199 
L 306.998838 81.457963 
L 307.087123 82.889034 
L 307.175214 82.736007 
L 307.350821 81.983761 
L 307.873098 81.155595 
L 308.13172 81.184356 
L 308.217559 81.071112 
L 308.473987 80.037127 
L 308.559102 80.076877 
L 308.644037 80.517765 
L 308.813373 79.666268 
L 309.066049 79.063338 
L 309.149924 79.02933 
L 309.233624 80.231194 
L 309.317151 80.039989 
L 309.483688 79.891171 
L 309.649539 79.631945 
L 309.81471 78.896474 
L 309.897043 78.918532 
L 310.061205 78.277386 
L 310.224702 79.267501 
L 310.387537 79.162511 
L 310.549718 78.616919 
L 310.711248 77.876017 
L 310.791771 77.700188 
L 310.872134 77.90186 
L 310.952336 77.804887 
L 311.112264 78.612059 
L 311.191991 78.644629 
L 311.350972 78.204278 
L 311.430228 78.386867 
L 311.509329 78.185588 
L 311.588275 78.374431 
L 312.214334 77.331211 
L 312.291912 78.251508 
L 312.446622 77.177471 
L 312.523754 77.203497 
L 312.754271 77.283018 
L 312.830817 77.495384 
L 312.983476 76.95139 
L 313.059588 76.815566 
L 313.211384 75.84525 
L 313.287069 75.757352 
L 313.362611 76.186906 
L 313.438012 75.61409 
L 313.513272 75.723794 
L 313.738212 75.994687 
L 313.887478 75.044834 
L 313.961905 75.648923 
L 314.036194 75.633874 
L 314.331988 74.67057 
L 314.405598 74.816625 
L 314.479075 74.767426 
L 314.625627 74.70808 
L 314.844461 74.487775 
L 314.989692 75.521526 
L 315.062112 75.458357 
L 315.278595 75.106031 
L 315.350499 77.417383 
L 315.422274 77.247789 
L 315.708103 76.198148 
L 315.779245 76.574963 
L 316.062563 76.2597 
L 316.343902 75.652965 
L 316.413932 74.846893 
L 316.692838 77.037289 
L 316.83157 76.580823 
L 316.900758 76.555403 
L 316.969827 76.224982 
L 317.038778 76.743861 
L 317.107611 76.556135 
L 317.381774 75.224277 
L 317.450024 75.106922 
L 317.518159 75.242279 
L 317.654084 74.713541 
L 317.721875 75.794711 
L 317.789552 75.778969 
L 317.924567 76.189484 
L 318.126244 75.918128 
L 318.193246 75.998782 
L 318.326917 74.729149 
L 318.393587 74.812709 
L 318.460146 74.956502 
L 318.526596 74.639822 
L 318.592937 74.786586 
L 318.725291 74.701744 
L 318.791305 74.660544 
L 318.92301 73.536 
L 319.185137 73.199306 
L 319.315563 72.982134 
L 319.445569 73.163232 
L 319.510415 72.722289 
L 319.575157 74.429922 
L 319.639795 74.044897 
L 319.897315 73.731844 
L 320.025461 74.301244 
L 320.089381 74.272169 
L 320.216918 74.28013 
L 320.280536 73.371241 
L 320.344054 73.965053 
L 320.407471 73.958702 
L 320.470789 74.185231 
L 320.534007 74.060781 
L 320.660147 73.867782 
L 320.785894 74.041379 
L 321.036217 72.930763 
L 321.098555 73.954059 
L 321.160797 73.910128 
L 321.222943 73.938145 
L 321.470574 73.258678 
L 321.532245 73.824843 
L 321.777988 72.36262 
L 321.83919 73.624849 
L 321.9003 72.898239 
L 321.961317 72.788575 
L 322.204466 70.771222 
L 322.265024 70.62721 
L 322.325492 70.181089 
L 322.385869 70.201224 
L 322.446156 70.14103 
L 322.626478 68.914068 
L 322.746245 69.753446 
L 322.805996 69.652197 
L 322.984718 68.749749 
L 323.103427 68.660021 
L 323.221788 68.339345 
L 323.280838 68.379525 
L 323.633334 68.599829 
L 323.691785 68.405013 
L 323.808433 69.497084 
L 323.86663 69.397688 
L 323.982774 68.80155 
L 324.04072 68.874554 
L 324.098584 68.775053 
L 324.156364 68.344173 
L 324.214061 68.405551 
L 324.329209 68.355901 
L 324.38666 68.208802 
L 324.672693 66.740677 
L 324.729656 66.638748 
L 324.78654 66.678436 
L 324.843343 66.7032 
L 324.900066 66.019926 
L 324.956709 66.315493 
L 325.013273 66.445477 
L 325.069758 66.335657 
L 325.126163 66.309745 
L 325.18249 67.043004 
L 325.238738 66.735484 
L 325.294908 66.33168 
L 325.350999 66.46317 
L 325.407013 66.427296 
L 325.518807 65.783213 
L 325.685919 66.943103 
L 325.796943 66.498307 
L 325.852341 68.213606 
L 325.907663 67.932652 
L 326.018078 67.728521 
L 326.073173 67.775281 
L 326.128193 67.793288 
L 326.183137 67.492172 
L 326.238007 67.540596 
L 326.347523 67.39204 
L 326.402169 67.529299 
L 326.456742 67.043004 
L 326.51124 67.203988 
L 326.728501 70.274329 
L 326.782634 70.497445 
L 326.836694 69.790654 
L 326.890681 70.230754 
L 326.944597 70.230507 
L 327.426617 68.980475 
L 327.532954 68.962269 
L 327.586018 67.968288 
L 327.639012 68.122864 
L 327.797576 68.060319 
L 328.00803 67.503082 
L 328.060472 67.454504 
L 328.321664 65.822193 
L 328.425669 65.628972 
L 328.529406 66.943176 
L 328.581174 66.568434 
L 328.632876 66.754816 
L 328.736082 66.704136 
L 328.787586 66.60773 
L 328.890396 66.655781 
L 328.941704 66.197307 
L 329.095234 66.066567 
L 329.197264 65.148139 
L 329.248182 65.196599 
L 329.299036 65.014637 
L 329.349826 65.063259 
L 329.451215 65.033764 
L 329.501813 64.963879 
L 329.552348 65.039715 
L 329.653229 65.445942 
L 329.804078 64.484029 
L 329.854236 64.626386 
L 329.954364 64.535001 
L 330.004336 64.418751 
L 330.054245 65.002209 
L 330.104092 64.613074 
L 330.203603 64.528101 
L 330.302869 64.161007 
L 330.35241 64.176515 
L 330.40189 64.449882 
L 330.45131 64.211818 
L 330.549968 63.765798 
L 330.648385 63.489558 
L 330.697504 66.342689 
L 330.795561 66.096605 
L 330.893381 66.013189 
L 331.136897 65.169945 
L 331.185424 65.180481 
L 331.282304 64.327685 
L 331.330656 64.606686 
L 331.378951 64.670696 
L 331.571552 63.371205 
L 331.619559 63.461258 
L 331.667509 63.512846 
L 331.811017 63.024617 
L 331.954016 62.408988 
L 332.001569 62.532141 
L 332.096509 61.939113 
L 332.143895 61.987269 
L 332.191225 63.206711 
L 332.285719 62.953779 
L 332.332883 62.594025 
L 332.379993 62.605556 
L 332.427047 62.786576 
L 332.52099 62.116518 
L 332.708223 63.173859 
L 332.801514 62.325069 
L 332.89459 61.525419 
L 332.941047 61.792299 
L 332.987451 61.751184 
L 333.033802 61.276099 
L 333.126343 61.449272 
L 333.172534 61.203883 
L 333.402699 62.821126 
L 333.448575 65.598494 
L 333.54017 65.594626 
L 333.585889 65.764231 
L 333.768251 65.205308 
L 333.813712 65.302665 
L 333.904482 64.654163 
L 333.94979 64.743822 
L 334.040255 65.74568 
L 334.130516 65.064613 
L 334.175571 65.355721 
L 334.220576 65.427269 
L 334.265531 65.313527 
L 334.310435 65.304031 
L 334.444849 64.600034 
L 335.022185 62.827034 
L 335.066255 62.985733 
L 335.198175 63.1847 
L 335.242053 62.932228 
L 335.285883 63.048878 
L 335.329666 63.563448 
L 335.417088 63.496511 
L 335.634819 62.592484 
L 335.678224 62.61376 
L 335.721582 62.476353 
L 335.80816 62.530911 
L 335.851379 62.562972 
L 335.980759 61.580894 
L 336.152622 61.072491 
L 336.323755 60.750176 
L 336.409049 60.580996 
L 336.790658 59.001483 
L 336.874971 59.691745 
L 336.959108 59.49232 
L 337.001111 59.400107 
L 337.126858 58.669719 
L 337.168687 58.696569 
L 337.210472 58.594418 
L 337.252214 58.683965 
L 337.293912 58.814874 
L 337.335568 58.382672 
L 337.41875 58.477199 
L 337.460277 58.487752 
L 337.584601 60.673303 
L 337.625958 60.642537 
L 337.708543 60.370523 
L 337.749773 60.64414 
L 337.79096 60.523075 
L 337.832105 60.376644 
L 337.873209 61.256166 
L 337.95529 60.696015 
L 338.037204 60.797191 
L 338.078099 61.391775 
L 338.159764 60.984233 
L 338.241264 61.069523 
L 338.281952 61.471478 
L 338.322599 61.429443 
L 338.48478 60.444984 
L 338.525223 60.32064 
L 338.565626 60.810326 
L 338.605988 60.108181 
L 338.686592 59.204652 
L 338.726833 59.259969 
L 338.767035 59.283509 
L 338.92744 59.743054 
L 338.967442 59.714678 
L 339.127053 60.002617 
L 339.166857 59.985911 
L 339.206622 60.472051 
L 339.246348 60.129682 
L 339.40486 59.572646 
L 339.483883 59.917354 
L 339.523337 59.726401 
L 339.798435 60.841635 
L 339.837582 60.808482 
L 339.993791 60.387247 
L 340.032749 60.478423 
L 340.110551 60.4297 
L 340.226975 59.812381 
L 340.265708 60.21631 
L 340.343062 60.100551 
L 340.381684 62.920803 
L 340.458817 62.660443 
L 340.497328 62.634498 
L 340.535802 62.798688 
L 340.61264 62.696499 
L 340.689333 62.475187 
L 340.727624 62.61993 
L 340.842281 62.78136 
L 340.994651 62.202086 
L 341.07062 62.33636 
L 341.146447 61.873222 
L 341.184306 62.159419 
L 341.222131 62.259305 
L 341.25992 62.150688 
L 341.297673 62.102657 
L 341.373074 62.284092 
L 341.410722 62.251758 
L 341.523454 62.193158 
L 341.598434 61.929673 
L 341.747977 63.674702 
L 341.896967 62.945219 
L 341.934129 63.883087 
L 342.008349 63.470497 
L 342.045408 63.577201 
L 342.119424 63.484776 
L 342.156382 63.443681 
L 342.377416 61.991607 
L 342.414137 62.683939 
L 342.48748 62.266793 
L 342.524101 62.644873 
L 342.597244 62.501222 
L 342.633766 62.520089 
L 342.70671 62.094187 
L 342.743133 62.434651 
L 342.779523 62.562972 
L 342.924755 61.944406 
L 343.500504 59.803782 
L 343.536217 59.883281 
L 343.607547 61.459191 
L 343.678752 61.069523 
L 343.785323 61.104404 
L 343.926982 61.587065 
L 343.997625 61.539395 
L 344.103358 61.238824 
L 344.13854 61.343927 
L 344.208814 61.230568 
L 344.243904 60.959882 
L 344.348994 62.608578 
L 344.383963 62.590018 
L 344.418902 62.354926 
L 344.45381 63.080256 
L 344.523536 62.88606 
L 344.662628 62.362748 
L 344.697326 62.372527 
L 344.731994 62.498273 
L 344.801241 62.384268 
L 344.83582 62.069094 
L 345.008271 65.79017 
L 345.145703 64.7366 
L 345.179988 64.78565 
L 345.214243 64.769246 
L 345.24847 65.037077 
L 345.316836 64.89243 
L 345.350976 64.883353 
L 345.385086 64.631513 
L 345.453221 64.836805 
L 345.487245 64.771722 
L 345.521241 66.885316 
L 345.623056 66.639395 
L 345.724615 66.090412 
L 345.825918 65.371604 
L 345.926967 66.073036 
L 345.960594 65.999931 
L 346.295328 67.034616 
L 346.328649 66.775318 
L 346.361943 68.319432 
L 346.461658 68.077307 
L 346.660353 67.718042 
L 346.858073 66.118856 
L 346.890932 66.128227 
L 346.923764 66.312371 
L 346.95657 65.885519 
L 347.022101 65.619776 
L 347.087526 66.46317 
L 347.120199 65.827418 
L 347.152845 65.804088 
L 347.185465 65.531717 
L 347.218058 66.510316 
L 347.283166 66.281945 
L 347.315681 66.058905 
L 347.380631 66.30634 
L 347.413067 66.139998 
L 347.445477 66.363727 
L 347.510219 66.054759 
L 347.574857 65.895576 
L 347.607137 65.626759 
L 347.67162 66.017961 
L 347.800277 65.451917 
L 347.864452 70.089241 
L 347.928525 69.892192 
L 347.992496 69.983357 
L 348.088262 70.235775 
L 348.151981 69.826294 
L 348.183802 70.363846 
L 348.215598 70.105292 
L 348.24737 70.175504 
L 348.279116 70.811912 
L 348.374205 70.634564 
L 348.437473 70.329457 
L 348.469069 70.689025 
L 348.500642 70.706533 
L 348.658132 69.846079 
L 348.720956 70.019911 
L 348.752332 69.983357 
L 348.908844 69.315195 
L 349.158005 68.437293 
L 349.189043 68.969487 
L 349.251045 68.836192 
L 349.405636 68.02365 
L 349.467307 68.094989 
L 349.498107 68.725792 
L 349.590366 68.484709 
L 349.621072 68.669252 
L 349.682414 68.374921 
L 349.71305 68.357741 
L 349.835362 69.498605 
L 349.926853 69.07453 
L 349.957304 69.198981 
L 349.987732 69.191779 
L 350.048519 69.373136 
L 350.139528 68.510608 
L 350.260554 70.17419 
L 350.411328 69.467882 
L 350.441415 69.86044 
L 350.56154 74.086386 
L 350.591515 73.915899 
L 350.651399 73.950743 
L 350.681308 74.060115 
L 350.711194 73.966949 
L 350.890048 72.465242 
L 350.91978 73.298949 
L 350.94949 73.075827 
L 351.03849 78.918075 
L 351.068112 78.414336 
L 351.304314 76.533246 
L 351.333742 76.549549 
L 351.363149 76.425131 
L 351.509861 74.825731 
L 351.539139 74.85199 
L 351.568396 75.953671 
L 351.656041 75.494894 
L 351.714365 75.398341 
L 351.743495 75.08199 
L 351.801692 75.477222 
L 352.120285 74.120692 
L 352.293007 72.325175 
L 352.350417 75.037626 
L 352.464992 74.141583 
L 352.522158 74.007176 
L 352.636247 74.389817 
L 352.721602 73.878362 
L 352.778405 74.209618 
L 352.806776 74.247916 
L 352.835128 74.125555 
L 352.86346 74.00879 
L 352.891771 74.042235 
L 352.976587 74.759122 
L 353.00482 74.353525 
L 353.1738 73.431744 
L 353.201895 73.761082 
L 353.22997 73.843331 
L 353.258026 73.704327 
L 353.342075 73.248342 
L 353.370053 74.770456 
L 353.453869 73.947237 
L 353.648766 72.019755 
L 353.787403 70.434334 
L 353.980697 67.885388 
L 354.035755 68.197444 
L 354.063255 68.178323 
L 354.145644 69.107086 
L 354.200476 69.010715 
L 354.255234 68.129021 
L 354.282585 69.103852 
L 354.309917 68.414463 
L 354.391804 70.072219 
L 354.446303 69.81106 
L 354.473524 69.6837 
L 354.527913 69.818595 
L 354.609358 70.504429 
L 354.690639 69.373375 
L 354.744735 69.662505 
L 354.798759 69.577256 
L 354.825744 69.705717 
L 354.90659 69.197794 
L 354.933503 70.046787 
L 354.987274 69.136366 
L 355.040974 68.819567 
L 355.12139 68.830805 
L 355.201646 68.732324 
L 355.255061 68.965799 
L 355.281742 68.771859 
L 355.308405 68.781207 
L 355.38829 69.618399 
L 355.441459 69.48772 
L 355.468017 69.34606 
L 355.574074 70.415514 
L 355.600545 70.347968 
L 355.626998 70.067638 
L 355.653434 70.133813 
L 355.785355 71.752675 
L 355.995534 70.821757 
L 356.02173 71.267106 
L 356.07407 70.323096 
L 356.230683 70.460308 
L 356.256726 70.38768 
L 356.38669 68.936551 
L 356.593765 68.430834 
L 356.671144 68.638625 
L 356.696904 68.478238 
L 357.030297 65.272561 
L 357.055828 65.275904 
L 357.31026 63.823861 
L 357.462151 62.602904 
L 357.588291 62.635918 
L 357.714038 63.083585 
L 357.73914 63.04035 
L 357.814353 63.059731 
L 357.889427 62.356332 
L 357.96436 62.635918 
L 357.989307 62.656488 
L 358.138665 60.967707 
L 358.163505 60.980985 
L 358.188329 60.883034 
L 358.31222 60.412268 
L 358.336952 60.572086 
L 358.36167 60.620615 
L 358.386372 60.349448 
L 358.509657 61.884082 
L 358.632566 61.844682 
L 358.681625 61.50364 
L 358.755101 61.692015 
L 358.901653 65.340874 
L 358.926027 65.263352 
L 358.950385 65.312707 
L 359.09623 64.635974 
L 359.168955 64.610412 
L 359.265718 64.082887 
L 359.314013 64.117608 
L 359.530625 62.949218 
L 359.554621 63.439607 
L 359.578603 63.633376 
L 359.650464 63.3268 
L 359.746079 62.483781 
L 359.793802 62.601671 
L 359.889078 63.651336 
L 359.984129 63.497276 
L 360.055271 63.182935 
L 360.078957 63.51125 
L 360.197179 63.064249 
L 360.362109 61.678136 
L 360.385615 61.708226 
L 360.409108 61.6101 
L 360.432587 61.50086 
L 360.456052 61.789907 
L 360.526367 61.537736 
L 360.549777 61.660278 
L 360.573175 61.548223 
L 360.643285 60.90448 
L 360.689958 61.377346 
L 360.945695 60.290168 
L 361.153735 65.403878 
L 361.176784 65.253465 
L 361.26885 64.915036 
L 361.291833 65.183269 
L 361.337761 65.390443 
L 361.383637 65.23738 
L 361.520952 64.472906 
L 361.543792 64.888194 
L 361.635024 64.673297 
L 361.703313 64.198189 
L 361.748775 64.626119 
L 361.907488 65.817735 
L 361.816871 64.553319 
L 361.975317 65.209936 
L 362.31276 62.710366 
L 362.335157 62.72108 
L 362.35754 62.63493 
L 362.379911 62.960529 
L 362.446951 63.402205 
L 362.513879 63.281014 
L 362.558436 63.049631 
L 362.602943 63.243836 
L 362.625179 63.320716 
L 362.647402 62.907325 
L 362.669613 62.956217 
L 362.713998 66.393321 
L 362.780485 66.091256 
L 362.824748 65.612381 
L 362.846861 65.622541 
L 362.935194 64.962531 
L 362.957247 65.196599 
L 363.001317 65.354831 
L 363.045338 65.167703 
L 363.177115 72.468019 
L 363.220946 72.502887 
L 363.264728 72.407625 
L 363.286601 72.227265 
L 363.308463 73.782539 
L 363.395791 73.205292 
L 363.504685 72.804538 
L 363.526429 72.857482 
L 363.613286 72.556758 
L 363.721595 72.037992 
L 363.743222 72.110092 
L 363.87274 73.035894 
L 363.915821 72.969077 
L 364.023321 72.587604 
L 364.044787 72.874942 
L 364.066241 72.877853 
L 364.151944 70.985545 
L 364.173341 72.859391 
L 364.194727 72.78921 
L 364.280157 73.536653 
L 364.301487 73.10233 
L 364.344112 73.474048 
L 364.386691 73.200779 
L 364.450477 72.82632 
L 364.514162 73.076652 
L 364.535367 73.104074 
L 364.556562 72.970172 
L 364.577746 72.992092 
L 364.62008 72.503156 
L 364.662369 72.66077 
L 364.683497 73.631681 
L 364.788972 73.485682 
L 364.810033 73.465117 
L 364.936174 71.914634 
L 364.957159 71.934554 
L 364.978133 71.76593 
L 365.020048 72.291964 
L 365.187276 71.203926 
L 365.228974 70.041557 
L 365.291442 71.398652 
L 365.312243 71.717128 
L 365.353812 71.099868 
L 365.395339 71.300424 
L 365.498969 70.536133 
L 365.519663 70.670273 
L 365.540347 70.652203 
L 365.787724 68.733957 
L 365.828807 68.843375 
L 365.849332 68.697895 
L 365.890352 67.679752 
L 365.93133 69.608992 
L 365.951803 69.618399 
L 365.972266 69.54155 
L 366.094826 70.444621 
L 366.460285 68.804045 
L 366.541051 68.049707 
L 366.601518 70.746032 
L 366.661896 70.685006 
L 366.842486 69.230027 
L 366.862502 69.291594 
L 366.882508 69.252939 
L 366.902504 70.214052 
L 366.982388 69.672415 
L 367.022271 69.742536 
L 367.221097 68.915321 
L 367.240925 69.955078 
L 367.339923 69.83959 
L 367.359693 69.712173 
L 367.379453 70.053572 
L 367.418946 69.953694 
L 367.438677 69.929678 
L 367.772645 66.693767 
L 367.792204 66.698303 
L 367.811754 67.212871 
L 367.889858 66.583128 
L 367.928853 66.457747 
L 367.948337 66.603209 
L 367.987276 66.487804 
L 368.006731 66.593166 
L 368.045614 66.403858 
L 368.123266 66.515249 
L 368.20077 65.643359 
L 368.316746 70.272021 
L 368.336043 70.327392 
L 368.43239 70.369389 
L 368.509302 68.604163 
L 368.528507 68.786583 
L 368.586067 68.442447 
L 368.624395 67.645398 
L 368.643545 68.877369 
L 368.681819 68.582502 
L 368.720056 68.784947 
L 368.777343 68.580105 
L 369.119369 67.014714 
L 369.138285 67.898345 
L 369.213863 67.081624 
L 369.345784 65.36551 
L 369.477274 67.581067 
L 369.514764 68.439447 
L 369.608337 68.170328 
L 369.627025 68.307108 
L 369.664377 67.976525 
L 369.757603 67.523355 
L 369.794833 67.566479 
L 369.832029 67.143285 
L 369.850614 67.787884 
L 369.924869 66.61261 
L 369.98047 66.773874 
L 370.035995 65.648618 
L 370.128367 65.999931 
L 370.146816 66.243414 
L 370.202112 65.755961 
L 370.349199 64.551194 
L 370.550571 63.571059 
L 370.568828 63.894482 
L 370.641772 63.289557 
L 370.696394 63.563384 
L 370.732768 63.456226 
L 370.877934 62.870668 
L 370.896043 62.891297 
L 370.914144 62.80745 
L 370.950322 62.813168 
L 371.184687 60.577797 
L 371.202659 61.622754 
L 371.292398 60.861085 
L 371.381938 60.413176 
L 371.435566 59.503451 
L 371.524789 59.594211 
L 371.684893 58.462273 
L 371.702643 58.534871 
L 371.755847 59.349894 
L 371.808981 58.702687 
L 371.844364 58.311067 
L 371.932687 58.437556 
L 371.967962 58.581916 
L 371.985588 59.302172 
L 372.073602 59.042197 
L 372.091182 58.840321 
L 372.196501 63.63158 
L 372.26656 63.339987 
L 372.301544 63.808558 
L 372.336498 63.031573 
L 372.406315 62.356881 
L 372.476011 61.464862 
L 372.510814 62.181502 
L 372.545587 62.314574 
L 372.59769 61.394602 
L 372.615043 62.917308 
L 372.649726 63.094389 
L 372.701695 62.941971 
L 372.805432 62.013008 
L 372.839951 62.252184 
L 372.8572 63.564663 
L 372.943334 62.369104 
L 372.977735 63.918 
L 373.080765 63.036839 
L 373.35423 60.004685 
L 373.37126 60.026773 
L 373.388283 60.201439 
L 373.422308 59.505645 
L 373.456303 59.198363 
L 373.642768 58.154049 
L 373.659677 59.557969 
L 373.76098 58.868363 
L 373.777839 59.070885 
L 373.828374 58.530272 
L 373.878846 58.981526 
L 374.163666 57.849377 
L 374.263711 58.635359 
L 374.297005 58.424706 
L 374.446486 57.999978 
L 374.479629 58.123371 
L 374.545833 58.485483 
L 374.611929 58.317306 
L 374.66143 58.080981 
L 374.694396 58.396343 
L 374.710869 58.445828 
L 374.727336 58.134877 
L 374.809568 58.661908 
L 374.825994 58.326799 
L 374.891632 57.740385 
L 374.924411 60.328164 
L 375.006242 59.651287 
L 375.022588 59.689259 
L 375.038928 59.505645 
L 375.169407 58.611805 
L 375.234489 58.218123 
L 375.250743 58.736123 
L 375.26699 58.638331 
L 375.299466 59.138955 
L 375.34813 58.701197 
L 375.38054 58.039177 
L 375.461451 58.588855 
L 375.606682 57.540845 
L 375.622787 57.863806 
L 375.654977 57.888714 
L 375.799514 56.225382 
L 375.815542 59.898697 
L 375.911575 59.155892 
L 376.039264 60.089726 
L 376.087043 59.766309 
L 376.182432 59.335775 
L 376.198308 59.626205 
L 376.230042 59.579906 
L 376.356727 58.078434 
L 376.419921 61.309375 
L 376.561745 60.359587 
L 376.593194 60.224876 
L 376.656019 60.272093 
L 376.781374 63.729155 
L 376.953104 61.773587 
L 376.999813 62.575291 
L 377.062007 61.785602 
L 377.07754 61.770957 
L 377.093068 62.081607 
L 377.155118 61.553853 
L 377.325266 60.256514 
L 377.402369 62.080942 
L 377.463946 61.837073 
L 377.510066 61.607071 
L 377.540784 62.685114 
L 377.617476 61.631729 
L 377.694023 61.016446 
L 377.663422 61.751841 
L 377.739881 61.343691 
L 377.785687 61.132388 
L 377.800945 62.203786 
L 377.892366 61.845641 
L 377.938 61.885943 
L 378.07459 60.681044 
L 378.089738 60.521707 
L 378.104881 60.981913 
L 378.195617 60.573285 
L 378.271074 60.708353 
L 378.255994 60.435608 
L 378.301217 60.56118 
L 378.331338 60.452942 
L 378.376478 60.206001 
L 378.406542 59.514916 
L 378.436585 60.446973 
L 378.481606 60.225383 
L 378.67612 58.682954 
L 378.691044 59.591789 
L 378.780471 59.211323 
L 378.839979 58.81044 
L 378.854843 59.349294 
L 378.914241 58.973999 
L 378.929077 59.02711 
L 378.943907 58.932746 
L 379.062355 57.366665 
L 379.077136 57.642471 
L 379.091913 57.707109 
L 379.106683 57.346792 
L 379.121448 57.332694 
L 379.150963 56.793971 
L 379.209927 57.872054 
L 379.239376 58.180745 
L 379.254093 57.820903 
L 379.312906 57.901151 
L 379.430276 57.017318 
L 379.459565 58.542909 
L 379.547305 57.868549 
L 379.576509 57.71126 
L 379.707666 56.635649 
L 379.736755 56.630581 
L 379.867393 55.537694 
L 379.983161 58.338552 
L 379.997609 58.266804 
L 380.026488 58.487172 
L 380.084186 58.1964 
L 380.098597 57.685239 
L 380.127405 59.445161 
L 380.156192 59.265675 
L 380.213704 59.528912 
L 380.199334 59.20373 
L 380.22807 59.500874 
L 380.28548 61.013194 
L 380.342808 60.605286 
L 380.400055 59.582766 
L 380.45722 60.06372 
L 380.528564 62.067099 
L 380.599781 61.119791 
L 380.642451 61.092345 
L 380.656664 61.306556 
L 380.685076 60.948236 
L 380.713467 61.01604 
L 380.81268 60.640533 
L 380.826834 60.641678 
L 380.883397 60.967533 
L 380.925768 60.597225 
L 380.939882 60.650841 
L 380.968095 60.35919 
L 381.024461 63.280698 
L 381.080748 62.825044 
L 381.165032 62.595751 
L 381.277137 73.298949 
L 381.374974 72.283156 
L 381.402884 72.236587 
L 381.430775 72.407625 
L 381.569938 71.346315 
L 381.611594 70.631138 
L 381.62547 70.116762 
L 381.680924 70.972591 
L 381.708623 70.853338 
L 381.722465 70.777691 
L 381.736303 70.898206 
L 381.888203 72.311903 
L 381.901984 72.205971 
L 381.91576 72.301932 
L 382.039533 76.174639 
L 382.080706 75.865514 
L 382.203974 75.30234 
L 382.217647 75.361938 
L 382.231316 76.46897 
L 382.326866 75.417964 
L 382.367747 75.086638 
L 382.381365 76.403187 
L 382.51729 79.060579 
L 382.530857 79.034842 
L 382.706818 75.551304 
L 382.720322 75.694529 
L 382.774292 74.450673 
L 382.801249 76.120586 
L 382.89546 80.073891 
L 382.935768 79.079438 
L 382.976036 79.548792 
L 383.029665 78.790782 
L 383.136708 78.392695 
L 383.150068 79.256729 
L 383.216804 78.159689 
L 383.230138 78.229219 
L 383.349945 77.500151 
L 383.363235 77.665816 
L 383.416351 78.042293 
L 383.442883 77.192891 
L 383.469397 77.33455 
L 383.482648 77.719084 
L 383.535607 76.054843 
L 383.667701 78.449247 
L 383.56206 75.9362 
L 383.707245 77.683269 
L 383.733586 78.005596 
L 383.799363 77.54299 
L 383.812506 77.59873 
L 383.825644 77.701171 
L 383.865033 77.269586 
L 383.878154 77.331534 
L 383.917492 76.876035 
L 383.982971 77.064562 
L 384.009132 78.854922 
L 384.100564 77.563946 
L 384.204804 80.370467 
L 384.243824 79.619262 
L 384.373621 77.938083 
L 384.425423 78.483866 
L 384.46423 77.582202 
L 384.477158 77.564272 
L 384.490081 77.793818 
L 384.541734 77.186465 
L 384.64484 75.711638 
L 384.670576 75.994585 
L 384.683437 76.018856 
L 384.696295 75.847693 
L 384.811828 74.621545 
L 384.837457 74.981316 
L 385.016406 73.007446 
L 385.194564 69.754416 
L 385.207259 69.882524 
L 385.333995 69.202464 
L 385.447717 70.115205 
L 385.460333 69.977568 
L 385.472945 70.024565 
L 385.485553 69.889348 
L 385.498157 69.909749 
L 385.661653 68.074652 
L 385.686748 68.161498 
L 385.72436 69.834157 
L 385.79948 68.689198 
L 385.836987 68.384436 
L 385.886943 68.922761 
L 385.899422 68.820894 
L 386.024003 67.934237 
L 386.185384 66.171108 
L 386.23491 67.137427 
L 386.296732 66.412404 
L 386.567628 64.544291 
L 386.677926 63.388987 
L 386.690163 63.410915 
L 386.763506 62.649753 
L 386.836715 67.866716 
L 386.897622 67.32906 
L 387.031293 66.384496 
L 387.079791 66.236408 
L 387.249075 64.532878 
L 387.26114 65.414919 
L 387.357527 64.817485 
L 387.417652 64.003696 
L 387.441677 63.192266 
L 387.453684 64.604025 
L 387.513666 64.159699 
L 387.561587 64.232078 
L 387.585526 64.081061 
L 387.716939 61.828447 
L 387.77653 62.671261 
L 387.978485 60.683854 
L 387.990333 60.838866 
L 388.155844 67.067309 
L 388.084994 60.682649 
L 388.226569 66.28308 
L 388.402842 64.870112 
L 388.414566 65.285117 
L 388.48484 68.613219 
L 388.543307 66.725391 
L 388.671639 66.094142 
L 388.683285 66.151351 
L 388.706567 65.798729 
L 388.764714 65.208575 
L 388.84598 64.629382 
L 388.880757 64.812724 
L 388.973352 67.06322 
L 388.915505 64.626119 
L 389.054198 66.035581 
L 389.123366 65.4272 
L 389.134882 66.3461 
L 389.146396 66.281733 
L 389.203912 67.33887 
L 389.192415 66.195329 
L 389.272824 66.807691 
L 389.387415 66.200487 
L 389.410294 65.596283 
L 389.433161 68.452602 
L 389.444589 68.366636 
L 389.456014 68.840877 
L 389.490269 68.569901 
L 389.547298 70.482567 
L 389.638375 69.857762 
L 389.706548 68.893638 
L 389.717899 71.56572 
L 389.819915 71.095445 
L 389.932963 69.355295 
L 389.955535 69.388997 
L 390.034437 71.503377 
L 390.079454 71.367615 
L 390.090701 71.355675 
L 390.158114 73.737388 
L 390.247823 72.752695 
L 390.515758 70.47617 
L 390.526883 70.690114 
L 390.582464 71.426107 
L 390.637969 71.008167 
L 390.704473 70.153912 
L 390.75981 70.214299 
L 390.804025 69.570513 
L 390.826114 72.123085 
L 390.958396 76.002468 
L 391.002393 74.364783 
L 391.0683 71.861967 
L 391.166958 72.639935 
L 391.243525 72.131309 
L 391.319947 70.859069 
L 391.352655 71.823563 
L 391.428871 73.386818 
L 391.385337 71.770118 
L 391.548348 73.033057 
L 391.689093 70.635232 
L 391.797025 70.092843 
L 391.807803 70.396292 
L 391.840117 69.424178 
L 391.872406 68.369397 
L 391.947646 69.262379 
L 391.979849 68.989661 
L 391.990578 68.997437 
L 392.012026 68.543017 
L 392.022746 70.873991 
L 392.033463 70.721873 
L 392.151164 72.22336 
L 392.183205 72.02918 
L 392.247209 72.117516 
L 392.47043 69.700877 
L 392.523396 71.753721 
L 392.597431 70.343339 
L 392.618559 70.69338 
L 392.755622 69.33301 
L 392.766146 69.383018 
L 392.776668 69.096676 
L 392.944636 67.544685 
L 392.955111 67.498405 
L 393.080596 65.3406 
L 393.101473 65.370508 
L 393.111907 65.35928 
L 393.226504 63.925779 
L 393.247305 64.076431 
L 393.371885 65.62344 
L 393.278486 63.840658 
L 393.44438 64.952553 
L 393.547718 62.96278 
L 393.578668 63.93849 
L 393.70223 64.782369 
L 393.712509 64.713946 
L 393.743333 67.119349 
L 393.825414 65.9034 
L 393.856151 65.639485 
L 394.019689 62.172946 
L 394.06047 62.789557 
L 394.070659 64.202185 
L 394.162242 62.884066 
L 394.172405 62.873659 
L 394.324545 61.479042 
L 394.344787 61.356219 
L 394.445845 59.121435 
L 394.476113 59.457422 
L 394.486197 59.415681 
L 394.496279 60.588824 
L 394.596958 59.660168 
L 394.627112 59.148748 
L 394.667284 60.092642 
L 394.727466 61.165541 
L 394.807568 60.583281 
L 394.837566 60.028563 
L 394.857552 60.136646 
L 394.947367 63.707026 
L 394.97726 63.29057 
L 394.98722 63.032639 
L 395.027034 64.069324 
L 395.086682 63.055653 
L 395.096614 63.089112 
L 395.106544 65.040053 
L 395.215616 64.778083 
L 395.245311 65.208575 
L 395.274985 64.640237 
L 395.284871 65.519594 
L 395.383602 65.032412 
L 395.541069 63.1847 
L 395.55089 63.251167 
L 395.560709 63.069772 
L 395.570526 64.07617 
L 395.609768 63.690891 
L 395.619573 64.525183 
L 395.648972 63.064249 
L 395.717488 63.486497 
L 395.737042 63.684723 
L 395.766356 63.364857 
L 395.776123 63.91126 
L 395.85417 62.900276 
L 395.863916 62.939222 
L 395.873658 62.978726 
L 395.883399 62.763981 
L 395.932067 61.327526 
L 395.951518 63.400998 
L 396.019521 61.807794 
L 396.203526 65.800399 
L 396.213187 65.748111 
L 396.222846 65.547775 
L 396.242157 66.957352 
L 396.271106 66.571874 
L 396.280751 66.678508 
L 396.328941 66.221058 
L 396.338572 66.391898 
L 396.377074 64.724302 
L 396.463569 65.050334 
L 396.501952 64.845195 
L 396.511542 66.096605 
L 396.597749 64.495951 
L 396.607316 64.518817 
L 396.616881 64.756932 
L 396.683772 64.102526 
L 396.693319 64.290913 
L 396.712405 63.978218 
L 396.760083 64.522 
L 396.788662 63.9996 
L 396.798184 64.442278 
L 396.874279 63.373808 
L 396.89328 63.998559 
L 396.969196 62.965468 
L 396.912273 64.13956 
L 397.054431 63.105134 
L 397.06389 64.196944 
L 397.167797 63.639981 
L 397.17723 63.764444 
L 397.205516 63.050446 
L 397.21494 63.077305 
L 397.356036 59.00821 
L 397.402958 59.097714 
L 397.477921 58.35472 
L 397.543399 58.653781 
L 397.552745 58.62029 
L 397.683352 62.650062 
L 397.813538 59.95214 
L 397.989549 56.267662 
L 398.008032 56.117662 
L 398.026506 56.839353 
L 398.054202 56.465555 
L 398.081878 57.024458 
L 398.164794 56.725206 
L 398.293437 53.068907 
L 398.32095 53.231877 
L 398.467368 51.747544 
L 398.558611 51.514447 
L 398.53126 51.85146 
L 398.567724 51.70668 
L 398.713251 53.667206 
L 398.640553 51.25423 
L 398.74955 52.949785 
L 398.767688 53.056356 
L 398.90346 51.081872 
L 398.921529 51.123538 
L 398.939589 50.932948 
L 398.966665 50.309729 
L 399.056785 50.511117 
L 399.110761 49.375196 
L 399.164664 50.208258 
L 399.173641 50.593475 
L 399.2633 49.732303 
L 399.272255 49.703709 
L 399.317 51.025107 
L 399.37956 49.944444 
L 399.486579 48.561104 
L 399.424186 50.5628 
L 399.495485 49.46871 
L 399.557768 50.74443 
L 399.593315 48.908446 
L 399.69977 47.965634 
L 399.726339 48.314414 
L 399.744043 48.458208 
L 399.770583 47.920341 
L 399.8501 48.414912 
L 399.92946 48.793254 
L 399.955879 48.513007 
L 400.017456 49.009168 
L 400.078938 48.00394 
L 400.37624 51.848012 
L 400.131563 47.918324 
L 400.402368 51.67795 
L 400.524073 50.910751 
L 400.610781 52.015002 
L 400.636757 51.488192 
L 400.645412 51.12238 
L 400.688659 52.831283 
L 400.723223 52.432558 
L 400.809504 51.670446 
L 400.852575 52.031697 
L 400.921394 52.53925 
L 400.912798 51.785154 
L 400.929988 52.12035 
L 400.998674 51.633568 
L 401.015827 53.280198 
L 401.110041 51.617611 
L 401.152792 52.033392 
L 401.263734 55.05653 
L 401.280775 54.61978 
L 401.289293 54.620509 
L 401.297809 55.051895 
L 401.374371 53.916186 
L 401.391366 54.301293 
L 401.493181 52.716153 
L 401.543992 53.197336 
L 401.569373 53.781397 
L 401.620089 53.018009 
L 401.679176 53.572342 
L 401.68761 53.564324 
L 401.712901 53.192671 
L 401.721328 53.840647 
L 401.746599 53.374712 
L 401.85592 56.840741 
L 401.864317 56.763744 
L 401.914663 56.363087 
L 401.889498 57.325975 
L 401.97332 56.790407 
L 402.090379 59.176035 
L 402.140444 58.903349 
L 402.182117 57.736076 
L 402.248704 58.931619 
L 402.257019 58.701197 
L 402.281956 59.451948 
L 402.373258 59.233517 
L 402.522218 57.147431 
L 402.555245 57.150592 
L 402.678858 55.264254 
L 402.719978 55.786009 
L 402.761056 57.756552 
L 402.826694 56.455975 
L 402.892226 55.772718 
L 402.924951 56.847139 
L 402.933129 56.958278 
L 402.982158 56.366009 
L 402.990323 56.458907 
L 403.047437 55.168565 
L 403.06374 58.913001 
L 403.161422 57.899861 
L 403.19393 57.616058 
L 403.226412 58.290471 
L 403.266977 60.309555 
L 403.428832 62.97072 
L 403.444982 62.362259 
L 403.453054 62.33807 
L 403.53369 60.549994 
L 403.581994 61.457302 
L 403.654342 59.527155 
L 403.710523 60.800877 
L 403.718542 61.019699 
L 403.782641 60.129682 
L 403.830647 60.616038 
L 403.942442 58.470447 
L 403.966357 60.160307 
L 404.085723 59.773179 
L 404.101612 59.814656 
L 404.347089 56.118965 
L 404.370766 55.376987 
L 404.410196 56.311904 
L 404.465334 55.49944 
L 404.496808 55.828402 
L 404.528257 55.228586 
L 404.536115 55.326554 
L 404.653807 54.110274 
L 404.669474 54.308185 
L 404.677305 56.060741 
L 404.75553 54.25161 
L 404.778968 54.602871 
L 404.794586 54.256826 
L 404.810198 54.565855 
L 404.818001 55.662034 
L 404.911527 54.051487 
L 404.919311 53.923689 
L 404.965984 54.384351 
L 404.981529 56.066712 
L 405.074677 54.639665 
L 405.09018 54.461235 
L 405.12117 54.984275 
L 405.144396 54.652626 
L 405.152136 54.97896 
L 405.229446 53.617778 
L 405.352834 51.524056 
L 405.422075 52.020125 
L 405.514211 52.336371 
L 405.475846 51.667958 
L 405.529546 52.074268 
L 405.697853 49.829982 
L 405.713119 50.218484 
L 405.941415 47.037364 
L 405.751258 50.908373 
L 405.949003 47.487954 
L 406.032373 50.588816 
L 405.979339 47.340917 
L 406.145782 49.774815 
L 406.221211 48.993687 
L 406.266401 49.141902 
L 406.281453 48.986576 
L 406.296499 49.846418 
L 406.30402 51.071666 
L 406.409168 50.148639 
L 406.416668 49.945972 
L 406.454148 51.155951 
L 406.484107 50.827519 
L 406.551432 51.49046 
L 406.588787 51.032628 
L 406.596253 50.775316 
L 406.633566 52.190082 
L 406.685747 51.435963 
L 406.700643 55.071366 
L 406.797334 52.900526 
L 406.886383 54.503006 
L 406.908614 53.611326 
L 407.174438 51.153272 
L 406.930833 53.646765 
L 407.189155 51.27945 
L 407.218573 50.138324 
L 407.306696 50.283522 
L 407.401946 49.263875 
L 407.423895 49.852013 
L 407.496972 52.532635 
L 407.562628 51.371496 
L 407.599057 51.49925 
L 407.606339 51.474791 
L 407.620899 51.763048 
L 407.700884 51.147674 
L 407.71541 51.054251 
L 407.766209 51.735892 
L 407.78796 50.774213 
L 407.874849 53.461144 
L 407.910997 53.392986 
L 407.918223 53.66791 
L 407.983197 52.441499 
L 408.01204 53.010673 
L 408.148767 51.15887 
L 408.242049 54.128392 
L 408.27787 53.559769 
L 408.420835 51.578126 
L 408.477879 51.325614 
L 408.485004 51.841116 
L 408.605934 54.603737 
L 408.620138 54.247519 
L 408.705252 54.984506 
L 408.75482 54.683319 
L 408.846712 53.497604 
L 408.881999 57.540845 
L 408.959523 56.016147 
L 408.966563 55.893961 
L 409.022841 56.64431 
L 409.064998 56.106471 
L 409.1772 57.901358 
L 409.184203 57.852417 
L 409.205202 57.139005 
L 409.247169 58.719293 
L 409.282107 58.001067 
L 409.289091 58.375103 
L 409.365837 56.922838 
L 409.42852 56.116263 
L 409.477206 56.910306 
L 409.491106 56.64121 
L 409.609059 53.450324 
L 409.643685 54.459105 
L 409.754291 57.176946 
L 409.719759 54.293411 
L 409.774995 56.949662 
L 409.788793 56.69915 
L 409.816373 57.456403 
L 409.843935 57.14382 
L 409.857708 59.323571 
L 409.960861 58.317306 
L 410.139036 57.068886 
L 410.159544 55.811036 
L 410.248292 56.645295 
L 410.261928 57.83923 
L 410.364053 57.201215 
L 410.506594 53.736252 
L 410.526916 53.865315 
L 410.567529 53.739383 
L 410.675631 56.462671 
L 410.790173 55.662034 
L 410.87083 56.235073 
L 410.8238 55.316581 
L 410.90439 55.858151 
L 410.917806 55.452301 
L 410.978123 56.693429 
L 410.998208 56.289555 
L 411.004901 56.341522 
L 411.018284 55.640796 
L 411.091809 53.43406 
L 411.145198 53.718974 
L 411.158534 55.482242 
L 411.258415 55.318828 
L 411.364682 52.669529 
L 411.371314 52.73958 
L 411.464053 56.312925 
L 411.483898 56.051547 
L 411.609356 58.078434 
L 411.721278 56.753066 
L 411.727852 56.832213 
L 411.734425 57.04324 
L 411.800095 55.946257 
L 411.813217 56.038411 
L 411.819776 56.021868 
L 411.944194 54.821927 
L 412.009524 53.831486 
L 412.10732 54.108306 
L 412.120342 53.897015 
L 412.146372 53.928086 
L 412.263302 52.116037 
L 412.191885 54.225186 
L 412.269788 53.159302 
L 412.276273 53.176219 
L 412.28924 53.020799 
L 412.366955 51.815642 
L 412.379893 53.229498 
L 412.470343 55.637384 
L 412.612069 54.885356 
L 412.721245 53.900386 
L 412.74048 54.523848 
L 412.810933 59.1853 
L 412.887649 58.613078 
L 413.091516 56.052654 
L 413.123277 56.55591 
L 413.199402 58.170887 
L 413.23741 57.39759 
L 413.275383 56.439559 
L 413.31964 57.20403 
L 413.420615 61.399316 
L 413.43952 60.269101 
L 413.445819 60.197385 
L 413.464712 60.750176 
L 413.471008 60.726729 
L 413.477303 61.250716 
L 413.559044 59.743054 
L 413.571605 59.939201 
L 413.715775 58.579956 
L 413.722032 58.563278 
L 413.79079 56.540168 
L 413.797035 59.764924 
L 413.828245 59.182103 
L 413.878132 58.052049 
L 413.927956 59.687547 
L 413.93418 59.501532 
L 414.108055 56.457001 
L 414.132833 57.538146 
L 414.151407 57.464525 
L 414.287353 59.52957 
L 414.299689 58.775789 
L 414.312021 60.249461 
L 414.398242 59.16385 
L 414.465857 58.5271 
L 414.521094 59.76847 
L 414.533359 60.706287 
L 414.649688 58.686304 
L 414.759585 60.077 
L 414.74129 58.202038 
L 414.771777 59.847696 
L 414.832684 56.926967 
L 414.893498 57.985113 
L 414.954221 57.752907 
L 414.923871 58.320505 
L 414.990611 58.08701 
L 415.020911 62.210165 
L 415.105629 60.650841 
L 415.502635 55.90334 
L 415.562448 56.502541 
L 415.568424 56.50685 
L 415.580374 56.692591 
L 415.634106 55.213615 
L 415.640072 55.523773 
L 415.687766 54.330723 
L 415.729453 57.398806 
L 415.735404 57.427234 
L 415.753254 57.005939 
L 415.76515 56.946277 
L 415.771096 58.610691 
L 415.872051 56.027878 
L 415.877982 56.279698 
L 415.925395 53.578171 
L 415.996412 52.396698 
L 416.090906 52.56771 
L 416.13807 54.704761 
L 416.196948 52.308326 
L 416.308579 53.695014 
L 416.332041 52.821741 
L 416.384781 52.250868 
L 416.402345 52.926897 
L 416.431602 52.717341 
L 416.507572 53.843304 
L 416.554251 53.673847 
L 416.960405 49.149166 
L 416.966178 49.238572 
L 417.023859 48.60199 
L 417.052669 48.966101 
L 417.184928 46.353682 
L 417.190669 46.220137 
L 417.207886 48.214798 
L 417.21936 48.108072 
L 417.253762 48.879114 
L 417.236564 48.03434 
L 417.333919 48.539508 
L 417.339638 48.588342 
L 417.379651 48.162006 
L 417.442449 48.497814 
L 417.505149 46.998827 
L 417.596175 48.036934 
L 417.584808 46.752014 
L 417.641611 47.739381 
L 417.669982 46.924135 
L 417.658636 47.875762 
L 417.692665 47.46054 
L 417.709669 49.576793 
L 417.805888 48.837175 
L 417.811541 48.80785 
L 417.822844 49.232957 
L 417.845441 49.104169 
L 417.856735 49.347882 
L 417.930068 48.757147 
L 417.946971 48.884508 
L 417.975129 48.620004 
L 417.992014 48.993539 
L 418.070717 52.50434 
L 418.121231 51.908344 
L 418.138055 51.809246 
L 418.143662 52.54768 
L 418.233259 50.692824 
L 418.289156 49.234444 
L 418.339397 49.511778 
L 418.434126 53.770269 
L 418.456383 53.045357 
L 418.467507 53.290124 
L 418.545288 52.484315 
L 418.550838 52.555774 
L 418.62292 52.850336 
L 418.595211 52.139063 
L 418.650609 52.553708 
L 418.750133 51.176634 
L 418.772216 51.269006 
L 418.854921 52.783903 
L 418.838393 49.594014 
L 418.89896 52.296424 
L 419.019822 51.226428 
L 419.025307 51.919661 
L 419.036275 51.877421 
L 419.23319 47.419818 
L 419.249556 47.976836 
L 419.25501 49.29263 
L 419.287718 47.855741 
L 419.358494 48.493764 
L 419.396553 48.062357 
L 419.59172 45.093502 
L 419.602535 45.160575 
L 419.607941 48.546463 
L 419.715916 47.848824 
L 419.791327 49.110386 
L 419.85048 48.203208 
L 419.855853 48.237993 
L 419.888077 47.777782 
L 419.893446 47.745285 
L 419.898813 48.28143 
L 419.909546 48.781225 
L 419.968525 46.802603 
L 419.989951 47.057493 
L 420.027419 46.240018 
L 420.043466 47.508046 
L 420.091568 46.91555 
L 420.203584 49.878215 
L 420.230209 49.283091 
L 420.235532 49.073991 
L 420.278089 50.986138 
L 420.299351 50.426488 
L 420.31529 51.576663 
L 420.416091 51.258044 
L 420.469043 50.741871 
L 420.479625 51.397514 
L 420.500781 50.97295 
L 420.558902 52.84863 
L 420.611667 51.495847 
L 420.738021 49.711886 
L 420.764295 51.874092 
L 420.863981 50.850911 
L 420.921581 51.061781 
L 420.984324 50.092342 
L 421.020878 53.770622 
L 421.093889 51.706517 
L 421.099099 52.024464 
L 421.182367 50.569996 
L 421.213548 50.62152 
L 421.306948 49.548668 
L 421.317312 50.598486 
L 421.405302 49.20007 
L 421.415641 49.236341 
L 421.45697 48.343448 
L 421.467296 49.637777 
L 421.539503 48.886894 
L 421.688665 46.452603 
L 421.693798 47.348014 
L 421.704064 48.499224 
L 421.760476 46.697501 
L 421.801454 47.002928 
L 421.806573 47.088504 
L 421.84239 45.905766 
L 421.913929 44.970401 
L 421.990437 45.009797 
L 421.995532 45.037606 
L 422.015907 44.597356 
L 422.071886 43.85153 
L 422.082055 45.220725 
L 422.178538 44.982049 
L 422.19882 46.363587 
L 422.325357 44.009644 
L 422.33041 44.400647 
L 422.44142 46.148703 
L 422.370813 44.353367 
L 422.456534 45.868679 
L 422.516934 44.950694 
L 422.572221 45.235648 
L 422.652504 45.455193 
L 422.707605 44.315924 
L 422.72262 47.155067 
L 422.822575 46.465191 
L 422.837547 46.255594 
L 422.842536 47.463321 
L 422.912323 46.941041 
L 423.016777 51.35473 
L 423.031676 51.320624 
L 423.081303 49.328021 
L 423.155629 50.005212 
L 423.170477 50.518143 
L 423.200158 49.490592 
L 423.264392 49.90143 
L 423.358089 47.904318 
L 423.363014 51.072782 
L 423.47122 49.979649 
L 423.618307 46.732286 
L 423.686764 47.188498 
L 423.735591 48.715838 
L 423.798978 47.243104 
L 423.837936 46.725217 
L 423.813591 47.40014 
L 423.8574 46.850232 
L 423.935165 48.429444 
L 423.901162 45.807332 
L 423.969141 47.136135 
L 424.007934 46.481537 
L 423.983693 47.14328 
L 424.012781 46.602036 
L 424.128924 49.106685 
L 424.143419 48.963009 
L 424.153079 49.420133 
L 424.157908 50.073565 
L 424.244734 47.187019 
L 424.249552 48.069614 
L 424.374624 46.172934 
L 424.379426 46.278727 
L 424.422625 48.13292 
L 424.48973 46.130015 
L 424.504096 46.845237 
L 424.571066 44.635075 
L 424.585402 44.732617 
L 424.647468 44.089226 
L 424.599734 44.810289 
L 424.7142 44.464678 
L 424.723724 45.888068 
L 424.83784 45.336111 
L 424.913738 44.042346 
L 424.847335 45.393254 
L 424.951633 45.125155 
L 425.069827 46.874877 
L 425.017865 44.953477 
L 425.117008 46.73374 
L 425.178261 44.797301 
L 425.211204 47.196794 
L 425.230017 46.383209 
L 425.295793 45.493673 
L 425.244121 46.43895 
L 425.309874 46.094857 
L 425.361461 47.348984 
L 425.422344 46.870116 
L 425.525166 45.249748 
L 425.543833 45.53098 
L 425.548499 45.508525 
L 425.553164 45.593892 
L 425.68356 41.493056 
L 425.692858 42.021407 
L 425.7486 40.778261 
L 425.776443 40.489506 
L 425.808901 39.497143 
L 425.892246 39.720117 
L 425.929233 41.491697 
L 425.998492 39.660333 
L 426.127457 36.626803 
L 426.141251 37.035397 
L 426.168823 36.242188 
L 426.233086 37.145218 
L 426.246843 37.137217 
L 426.343012 35.734442 
L 426.406998 36.216568 
L 426.411564 36.596935 
L 426.484558 35.194548 
L 426.507342 36.127375 
L 426.55742 34.451164 
L 426.589256 36.93133 
L 426.607437 36.881162 
L 426.61198 37.195913 
L 426.666467 35.37395 
L 426.698217 35.643123 
L 426.70275 35.452794 
L 426.766168 37.123645 
L 426.802361 39.882005 
L 426.879165 38.573246 
L 426.933292 37.982047 
L 426.978342 38.691583 
L 426.987346 38.5981 
L 426.991847 38.599492 
L 426.996348 38.56212 
L 427.000848 38.555689 
L 427.014346 38.746312 
L 427.081767 37.325046 
L 427.090747 37.212684 
L 427.108703 38.153399 
L 427.135622 37.972211 
L 427.144591 38.365224 
L 427.23417 37.272896 
L 427.314622 35.890547 
L 427.40828 35.282835 
L 427.368167 36.246646 
L 427.417188 36.015381 
L 427.475045 37.004759 
L 427.50172 35.759175 
L 427.54614 36.097952 
L 427.64369 33.45429 
L 427.714488 32.713764 
L 427.754258 34.143001 
L 427.886539 31.724634 
L 427.904144 31.589789 
L 428.035936 33.683861 
L 428.132309 35.348168 
L 428.149807 34.97717 
L 428.250272 34.166982 
L 428.202255 35.343705 
L 428.27644 34.324561 
L 428.280799 34.463005 
L 428.350488 33.304487 
L 428.35919 33.472615 
L 428.407021 33.630649 
L 428.393982 32.799979 
L 428.428744 33.288679 
L 428.545843 32.064128 
L 428.550174 32.094185 
L 428.554504 32.090006 
L 428.593453 31.374307 
L 428.632365 32.117777 
L 428.666922 31.672676 
L 428.671239 31.658234 
L 428.675556 31.685708 
L 428.774721 35.825899 
L 428.796246 34.803189 
L 428.804853 34.539494 
L 428.84786 36.142574 
L 428.882232 35.687474 
L 428.920866 36.048866 
L 428.9037 35.457121 
L 428.955177 35.538584 
L 429.070759 32.843782 
L 429.100671 33.18112 
L 429.117753 33.28634 
L 429.143363 32.686235 
L 429.156162 32.737179 
L 429.164693 32.259263 
L 429.198796 32.827527 
L 429.211578 32.706282 
L 429.313683 34.226238 
L 429.330675 33.740574 
L 429.462124 30.348155 
L 429.491747 30.911246 
L 429.542478 33.468601 
L 429.605803 32.282904 
L 429.610021 32.378076 
L 429.664816 31.43097 
L 429.673239 31.435426 
L 429.774183 28.689169 
L 429.811972 27.834609 
L 429.887443 28.376041 
L 430.079675 25.358885 
L 430.088012 26.150665 
L 430.167129 23.829455 
L 430.187924 25.109997 
L 430.291736 24.578243 
L 430.229481 25.464382 
L 430.304175 24.826387 
L 430.366315 25.442426 
L 430.382869 24.518393 
L 430.387007 24.429106 
L 430.420092 25.30861 
L 430.449019 25.122 
L 430.54392 30.996821 
L 430.572758 30.257469 
L 430.622148 29.031628 
L 430.65915 30.621526 
L 430.696118 31.105979 
L 430.671477 30.385104 
L 430.778149 30.857763 
L 430.782247 30.83538 
L 430.839563 32.277168 
L 430.892713 31.521805 
L 430.904968 30.836863 
L 430.909053 31.816582 
L 431.002877 31.221269 
L 431.015099 31.933727 
L 431.059881 31.070646 
L 431.112741 31.099837 
L 431.120868 30.479722 
L 431.161474 31.954661 
L 431.218254 31.659994 
L 431.258762 31.026174 
L 431.347738 30.791301 
L 431.274954 31.744636 
L 431.363894 31.213991 
L 431.380044 31.228869 
L 431.392152 30.799352 
L 431.42039 29.898896 
L 431.440548 30.540308 
" style="fill:none;stroke:#1f77b4;stroke-linecap:square;stroke-width:1.5;"/>
   </g>
   <g id="patch_3">
    <path d="M 41.692054 297.448 
L 41.692054 10.8 
" style="fill:none;stroke:#000000;stroke-linecap:square;stroke-linejoin:miter;stroke-width:0.8;"/>
   </g>
   <g id="patch_4">
    <path d="M 450 297.448 
L 450 10.8 
" style="fill:none;stroke:#000000;stroke-linecap:square;stroke-linejoin:miter;stroke-width:0.8;"/>
   </g>
   <g id="patch_5">
    <path d="M 41.692054 297.448 
L 450 297.448 
" style="fill:none;stroke:#000000;stroke-linecap:square;stroke-linejoin:miter;stroke-width:0.8;"/>
   </g>
   <g id="patch_6">
    <path d="M 41.692054 10.8 
L 450 10.8 
" style="fill:none;stroke:#000000;stroke-linecap:square;stroke-linejoin:miter;stroke-width:0.8;"/>
   </g>
  </g>
 </g>
 <defs>
  <clipPath id="pdf2c7bdbc4">
   <rect height="286.648" width="408.307946" x="41.692054" y="10.8"/>
  </clipPath>
 </defs>
</svg>
