<?xml version="1.0" encoding="utf-8" standalone="no"?>
<!DOCTYPE svg PUBLIC "-//W3C//DTD SVG 1.1//EN"
  "http://www.w3.org/Graphics/SVG/1.1/DTD/svg11.dtd">
<!-- Created with matplotlib (https://matplotlib.org/) -->
<svg height="345.6pt" version="1.1" viewBox="0 0 460.8 345.6" width="460.8pt" xmlns="http://www.w3.org/2000/svg" xmlns:xlink="http://www.w3.org/1999/xlink">
 <metadata>
  <rdf:RDF xmlns:cc="http://creativecommons.org/ns#" xmlns:dc="http://purl.org/dc/elements/1.1/" xmlns:rdf="http://www.w3.org/1999/02/22-rdf-syntax-ns#">
   <cc:Work>
    <dc:type rdf:resource="http://purl.org/dc/dcmitype/StillImage"/>
    <dc:date>2022-05-06T23:55:25.820451</dc:date>
    <dc:format>image/svg+xml</dc:format>
    <dc:creator>
     <cc:Agent>
      <dc:title>Matplotlib v3.3.4, https://matplotlib.org/</dc:title>
     </cc:Agent>
    </dc:creator>
   </cc:Work>
  </rdf:RDF>
 </metadata>
 <defs>
  <style type="text/css">*{stroke-linecap:butt;stroke-linejoin:round;}</style>
 </defs>
 <g id="figure_1">
  <g id="patch_1">
   <path d="M 0 345.6 
L 460.8 345.6 
L 460.8 0 
L 0 0 
z
" style="fill:#ffffff;"/>
  </g>
  <g id="axes_1">
   <g id="patch_2">
    <path d="M 53.031742 297.448 
L 450 297.448 
L 450 10.8 
L 53.031742 10.8 
z
" style="fill:#ffffff;"/>
   </g>
   <g id="matplotlib.axis_1">
    <g id="xtick_1">
     <g id="line2d_1">
      <defs>
       <path d="M 0 0 
L 0 3.5 
" id="md9d19387fb" style="stroke:#000000;stroke-width:0.8;"/>
      </defs>
      <g>
       <use style="stroke:#000000;stroke-width:0.8;" x="71.075754" xlink:href="#md9d19387fb" y="297.448"/>
      </g>
     </g>
     <g id="text_1">
      <!-- $\mathdefault{10^{0}}$ -->
      <g transform="translate(62.275754 312.046437)scale(0.1 -0.1)">
       <defs>
        <path d="M 12.40625 8.296875 
L 28.515625 8.296875 
L 28.515625 63.921875 
L 10.984375 60.40625 
L 10.984375 69.390625 
L 28.421875 72.90625 
L 38.28125 72.90625 
L 38.28125 8.296875 
L 54.390625 8.296875 
L 54.390625 0 
L 12.40625 0 
z
" id="DejaVuSans-49"/>
        <path d="M 31.78125 66.40625 
Q 24.171875 66.40625 20.328125 58.90625 
Q 16.5 51.421875 16.5 36.375 
Q 16.5 21.390625 20.328125 13.890625 
Q 24.171875 6.390625 31.78125 6.390625 
Q 39.453125 6.390625 43.28125 13.890625 
Q 47.125 21.390625 47.125 36.375 
Q 47.125 51.421875 43.28125 58.90625 
Q 39.453125 66.40625 31.78125 66.40625 
z
M 31.78125 74.21875 
Q 44.046875 74.21875 50.515625 64.515625 
Q 56.984375 54.828125 56.984375 36.375 
Q 56.984375 17.96875 50.515625 8.265625 
Q 44.046875 -1.421875 31.78125 -1.421875 
Q 19.53125 -1.421875 13.0625 8.265625 
Q 6.59375 17.96875 6.59375 36.375 
Q 6.59375 54.828125 13.0625 64.515625 
Q 19.53125 74.21875 31.78125 74.21875 
z
" id="DejaVuSans-48"/>
       </defs>
       <use transform="translate(0 0.765625)" xlink:href="#DejaVuSans-49"/>
       <use transform="translate(63.623047 0.765625)" xlink:href="#DejaVuSans-48"/>
       <use transform="translate(128.203125 39.046875)scale(0.7)" xlink:href="#DejaVuSans-48"/>
      </g>
     </g>
    </g>
    <g id="xtick_2">
     <g id="line2d_2">
      <g>
       <use style="stroke:#000000;stroke-width:0.8;" x="161.296792" xlink:href="#md9d19387fb" y="297.448"/>
      </g>
     </g>
     <g id="text_2">
      <!-- $\mathdefault{10^{1}}$ -->
      <g transform="translate(152.496792 312.046437)scale(0.1 -0.1)">
       <use transform="translate(0 0.684375)" xlink:href="#DejaVuSans-49"/>
       <use transform="translate(63.623047 0.684375)" xlink:href="#DejaVuSans-48"/>
       <use transform="translate(128.203125 38.965625)scale(0.7)" xlink:href="#DejaVuSans-49"/>
      </g>
     </g>
    </g>
    <g id="xtick_3">
     <g id="line2d_3">
      <g>
       <use style="stroke:#000000;stroke-width:0.8;" x="251.51783" xlink:href="#md9d19387fb" y="297.448"/>
      </g>
     </g>
     <g id="text_3">
      <!-- $\mathdefault{10^{2}}$ -->
      <g transform="translate(242.71783 312.046437)scale(0.1 -0.1)">
       <defs>
        <path d="M 19.1875 8.296875 
L 53.609375 8.296875 
L 53.609375 0 
L 7.328125 0 
L 7.328125 8.296875 
Q 12.9375 14.109375 22.625 23.890625 
Q 32.328125 33.6875 34.8125 36.53125 
Q 39.546875 41.84375 41.421875 45.53125 
Q 43.3125 49.21875 43.3125 52.78125 
Q 43.3125 58.59375 39.234375 62.25 
Q 35.15625 65.921875 28.609375 65.921875 
Q 23.96875 65.921875 18.8125 64.3125 
Q 13.671875 62.703125 7.8125 59.421875 
L 7.8125 69.390625 
Q 13.765625 71.78125 18.9375 73 
Q 24.125 74.21875 28.421875 74.21875 
Q 39.75 74.21875 46.484375 68.546875 
Q 53.21875 62.890625 53.21875 53.421875 
Q 53.21875 48.921875 51.53125 44.890625 
Q 49.859375 40.875 45.40625 35.40625 
Q 44.1875 33.984375 37.640625 27.21875 
Q 31.109375 20.453125 19.1875 8.296875 
z
" id="DejaVuSans-50"/>
       </defs>
       <use transform="translate(0 0.765625)" xlink:href="#DejaVuSans-49"/>
       <use transform="translate(63.623047 0.765625)" xlink:href="#DejaVuSans-48"/>
       <use transform="translate(128.203125 39.046875)scale(0.7)" xlink:href="#DejaVuSans-50"/>
      </g>
     </g>
    </g>
    <g id="xtick_4">
     <g id="line2d_4">
      <g>
       <use style="stroke:#000000;stroke-width:0.8;" x="341.738869" xlink:href="#md9d19387fb" y="297.448"/>
      </g>
     </g>
     <g id="text_4">
      <!-- $\mathdefault{10^{3}}$ -->
      <g transform="translate(332.938869 312.046437)scale(0.1 -0.1)">
       <defs>
        <path d="M 40.578125 39.3125 
Q 47.65625 37.796875 51.625 33 
Q 55.609375 28.21875 55.609375 21.1875 
Q 55.609375 10.40625 48.1875 4.484375 
Q 40.765625 -1.421875 27.09375 -1.421875 
Q 22.515625 -1.421875 17.65625 -0.515625 
Q 12.796875 0.390625 7.625 2.203125 
L 7.625 11.71875 
Q 11.71875 9.328125 16.59375 8.109375 
Q 21.484375 6.890625 26.8125 6.890625 
Q 36.078125 6.890625 40.9375 10.546875 
Q 45.796875 14.203125 45.796875 21.1875 
Q 45.796875 27.640625 41.28125 31.265625 
Q 36.765625 34.90625 28.71875 34.90625 
L 20.21875 34.90625 
L 20.21875 43.015625 
L 29.109375 43.015625 
Q 36.375 43.015625 40.234375 45.921875 
Q 44.09375 48.828125 44.09375 54.296875 
Q 44.09375 59.90625 40.109375 62.90625 
Q 36.140625 65.921875 28.71875 65.921875 
Q 24.65625 65.921875 20.015625 65.03125 
Q 15.375 64.15625 9.8125 62.3125 
L 9.8125 71.09375 
Q 15.4375 72.65625 20.34375 73.4375 
Q 25.25 74.21875 29.59375 74.21875 
Q 40.828125 74.21875 47.359375 69.109375 
Q 53.90625 64.015625 53.90625 55.328125 
Q 53.90625 49.265625 50.4375 45.09375 
Q 46.96875 40.921875 40.578125 39.3125 
z
" id="DejaVuSans-51"/>
       </defs>
       <use transform="translate(0 0.765625)" xlink:href="#DejaVuSans-49"/>
       <use transform="translate(63.623047 0.765625)" xlink:href="#DejaVuSans-48"/>
       <use transform="translate(128.203125 39.046875)scale(0.7)" xlink:href="#DejaVuSans-51"/>
      </g>
     </g>
    </g>
    <g id="xtick_5">
     <g id="line2d_5">
      <g>
       <use style="stroke:#000000;stroke-width:0.8;" x="431.959907" xlink:href="#md9d19387fb" y="297.448"/>
      </g>
     </g>
     <g id="text_5">
      <!-- $\mathdefault{10^{4}}$ -->
      <g transform="translate(423.159907 312.046437)scale(0.1 -0.1)">
       <defs>
        <path d="M 37.796875 64.3125 
L 12.890625 25.390625 
L 37.796875 25.390625 
z
M 35.203125 72.90625 
L 47.609375 72.90625 
L 47.609375 25.390625 
L 58.015625 25.390625 
L 58.015625 17.1875 
L 47.609375 17.1875 
L 47.609375 0 
L 37.796875 0 
L 37.796875 17.1875 
L 4.890625 17.1875 
L 4.890625 26.703125 
z
" id="DejaVuSans-52"/>
       </defs>
       <use transform="translate(0 0.684375)" xlink:href="#DejaVuSans-49"/>
       <use transform="translate(63.623047 0.684375)" xlink:href="#DejaVuSans-48"/>
       <use transform="translate(128.203125 38.965625)scale(0.7)" xlink:href="#DejaVuSans-52"/>
      </g>
     </g>
    </g>
    <g id="xtick_6">
     <g id="line2d_6">
      <defs>
       <path d="M 0 0 
L 0 2 
" id="mccafd8e17d" style="stroke:#000000;stroke-width:0.6;"/>
      </defs>
      <g>
       <use style="stroke:#000000;stroke-width:0.6;" x="57.100338" xlink:href="#mccafd8e17d" y="297.448"/>
      </g>
     </g>
    </g>
    <g id="xtick_7">
     <g id="line2d_7">
      <g>
       <use style="stroke:#000000;stroke-width:0.6;" x="62.332432" xlink:href="#mccafd8e17d" y="297.448"/>
      </g>
     </g>
    </g>
    <g id="xtick_8">
     <g id="line2d_8">
      <g>
       <use style="stroke:#000000;stroke-width:0.6;" x="66.947466" xlink:href="#mccafd8e17d" y="297.448"/>
      </g>
     </g>
    </g>
    <g id="xtick_9">
     <g id="line2d_9">
      <g>
       <use style="stroke:#000000;stroke-width:0.6;" x="98.234993" xlink:href="#mccafd8e17d" y="297.448"/>
      </g>
     </g>
    </g>
    <g id="xtick_10">
     <g id="line2d_10">
      <g>
       <use style="stroke:#000000;stroke-width:0.6;" x="114.122129" xlink:href="#mccafd8e17d" y="297.448"/>
      </g>
     </g>
    </g>
    <g id="xtick_11">
     <g id="line2d_11">
      <g>
       <use style="stroke:#000000;stroke-width:0.6;" x="125.394232" xlink:href="#mccafd8e17d" y="297.448"/>
      </g>
     </g>
    </g>
    <g id="xtick_12">
     <g id="line2d_12">
      <g>
       <use style="stroke:#000000;stroke-width:0.6;" x="134.137554" xlink:href="#mccafd8e17d" y="297.448"/>
      </g>
     </g>
    </g>
    <g id="xtick_13">
     <g id="line2d_13">
      <g>
       <use style="stroke:#000000;stroke-width:0.6;" x="141.281368" xlink:href="#mccafd8e17d" y="297.448"/>
      </g>
     </g>
    </g>
    <g id="xtick_14">
     <g id="line2d_14">
      <g>
       <use style="stroke:#000000;stroke-width:0.6;" x="147.321377" xlink:href="#mccafd8e17d" y="297.448"/>
      </g>
     </g>
    </g>
    <g id="xtick_15">
     <g id="line2d_15">
      <g>
       <use style="stroke:#000000;stroke-width:0.6;" x="152.55347" xlink:href="#mccafd8e17d" y="297.448"/>
      </g>
     </g>
    </g>
    <g id="xtick_16">
     <g id="line2d_16">
      <g>
       <use style="stroke:#000000;stroke-width:0.6;" x="157.168504" xlink:href="#mccafd8e17d" y="297.448"/>
      </g>
     </g>
    </g>
    <g id="xtick_17">
     <g id="line2d_17">
      <g>
       <use style="stroke:#000000;stroke-width:0.6;" x="188.456031" xlink:href="#mccafd8e17d" y="297.448"/>
      </g>
     </g>
    </g>
    <g id="xtick_18">
     <g id="line2d_18">
      <g>
       <use style="stroke:#000000;stroke-width:0.6;" x="204.343167" xlink:href="#mccafd8e17d" y="297.448"/>
      </g>
     </g>
    </g>
    <g id="xtick_19">
     <g id="line2d_19">
      <g>
       <use style="stroke:#000000;stroke-width:0.6;" x="215.61527" xlink:href="#mccafd8e17d" y="297.448"/>
      </g>
     </g>
    </g>
    <g id="xtick_20">
     <g id="line2d_20">
      <g>
       <use style="stroke:#000000;stroke-width:0.6;" x="224.358592" xlink:href="#mccafd8e17d" y="297.448"/>
      </g>
     </g>
    </g>
    <g id="xtick_21">
     <g id="line2d_21">
      <g>
       <use style="stroke:#000000;stroke-width:0.6;" x="231.502406" xlink:href="#mccafd8e17d" y="297.448"/>
      </g>
     </g>
    </g>
    <g id="xtick_22">
     <g id="line2d_22">
      <g>
       <use style="stroke:#000000;stroke-width:0.6;" x="237.542415" xlink:href="#mccafd8e17d" y="297.448"/>
      </g>
     </g>
    </g>
    <g id="xtick_23">
     <g id="line2d_23">
      <g>
       <use style="stroke:#000000;stroke-width:0.6;" x="242.774508" xlink:href="#mccafd8e17d" y="297.448"/>
      </g>
     </g>
    </g>
    <g id="xtick_24">
     <g id="line2d_24">
      <g>
       <use style="stroke:#000000;stroke-width:0.6;" x="247.389542" xlink:href="#mccafd8e17d" y="297.448"/>
      </g>
     </g>
    </g>
    <g id="xtick_25">
     <g id="line2d_25">
      <g>
       <use style="stroke:#000000;stroke-width:0.6;" x="278.677069" xlink:href="#mccafd8e17d" y="297.448"/>
      </g>
     </g>
    </g>
    <g id="xtick_26">
     <g id="line2d_26">
      <g>
       <use style="stroke:#000000;stroke-width:0.6;" x="294.564205" xlink:href="#mccafd8e17d" y="297.448"/>
      </g>
     </g>
    </g>
    <g id="xtick_27">
     <g id="line2d_27">
      <g>
       <use style="stroke:#000000;stroke-width:0.6;" x="305.836308" xlink:href="#mccafd8e17d" y="297.448"/>
      </g>
     </g>
    </g>
    <g id="xtick_28">
     <g id="line2d_28">
      <g>
       <use style="stroke:#000000;stroke-width:0.6;" x="314.57963" xlink:href="#mccafd8e17d" y="297.448"/>
      </g>
     </g>
    </g>
    <g id="xtick_29">
     <g id="line2d_29">
      <g>
       <use style="stroke:#000000;stroke-width:0.6;" x="321.723444" xlink:href="#mccafd8e17d" y="297.448"/>
      </g>
     </g>
    </g>
    <g id="xtick_30">
     <g id="line2d_30">
      <g>
       <use style="stroke:#000000;stroke-width:0.6;" x="327.763453" xlink:href="#mccafd8e17d" y="297.448"/>
      </g>
     </g>
    </g>
    <g id="xtick_31">
     <g id="line2d_31">
      <g>
       <use style="stroke:#000000;stroke-width:0.6;" x="332.995547" xlink:href="#mccafd8e17d" y="297.448"/>
      </g>
     </g>
    </g>
    <g id="xtick_32">
     <g id="line2d_32">
      <g>
       <use style="stroke:#000000;stroke-width:0.6;" x="337.61058" xlink:href="#mccafd8e17d" y="297.448"/>
      </g>
     </g>
    </g>
    <g id="xtick_33">
     <g id="line2d_33">
      <g>
       <use style="stroke:#000000;stroke-width:0.6;" x="368.898107" xlink:href="#mccafd8e17d" y="297.448"/>
      </g>
     </g>
    </g>
    <g id="xtick_34">
     <g id="line2d_34">
      <g>
       <use style="stroke:#000000;stroke-width:0.6;" x="384.785244" xlink:href="#mccafd8e17d" y="297.448"/>
      </g>
     </g>
    </g>
    <g id="xtick_35">
     <g id="line2d_35">
      <g>
       <use style="stroke:#000000;stroke-width:0.6;" x="396.057346" xlink:href="#mccafd8e17d" y="297.448"/>
      </g>
     </g>
    </g>
    <g id="xtick_36">
     <g id="line2d_36">
      <g>
       <use style="stroke:#000000;stroke-width:0.6;" x="404.800668" xlink:href="#mccafd8e17d" y="297.448"/>
      </g>
     </g>
    </g>
    <g id="xtick_37">
     <g id="line2d_37">
      <g>
       <use style="stroke:#000000;stroke-width:0.6;" x="411.944482" xlink:href="#mccafd8e17d" y="297.448"/>
      </g>
     </g>
    </g>
    <g id="xtick_38">
     <g id="line2d_38">
      <g>
       <use style="stroke:#000000;stroke-width:0.6;" x="417.984491" xlink:href="#mccafd8e17d" y="297.448"/>
      </g>
     </g>
    </g>
    <g id="xtick_39">
     <g id="line2d_39">
      <g>
       <use style="stroke:#000000;stroke-width:0.6;" x="423.216585" xlink:href="#mccafd8e17d" y="297.448"/>
      </g>
     </g>
    </g>
    <g id="xtick_40">
     <g id="line2d_40">
      <g>
       <use style="stroke:#000000;stroke-width:0.6;" x="427.831618" xlink:href="#mccafd8e17d" y="297.448"/>
      </g>
     </g>
    </g>
    <g id="text_6">
     <!-- Number of Particles -->
     <g transform="translate(192.521809 327.24425)scale(0.12 -0.12)">
      <defs>
       <path d="M 9.8125 72.90625 
L 23.09375 72.90625 
L 55.421875 11.921875 
L 55.421875 72.90625 
L 64.984375 72.90625 
L 64.984375 0 
L 51.703125 0 
L 19.390625 60.984375 
L 19.390625 0 
L 9.8125 0 
z
" id="DejaVuSans-78"/>
       <path d="M 8.5 21.578125 
L 8.5 54.6875 
L 17.484375 54.6875 
L 17.484375 21.921875 
Q 17.484375 14.15625 20.5 10.265625 
Q 23.53125 6.390625 29.59375 6.390625 
Q 36.859375 6.390625 41.078125 11.03125 
Q 45.3125 15.671875 45.3125 23.6875 
L 45.3125 54.6875 
L 54.296875 54.6875 
L 54.296875 0 
L 45.3125 0 
L 45.3125 8.40625 
Q 42.046875 3.421875 37.71875 1 
Q 33.40625 -1.421875 27.6875 -1.421875 
Q 18.265625 -1.421875 13.375 4.4375 
Q 8.5 10.296875 8.5 21.578125 
z
M 31.109375 56 
z
" id="DejaVuSans-117"/>
       <path d="M 52 44.1875 
Q 55.375 50.25 60.0625 53.125 
Q 64.75 56 71.09375 56 
Q 79.640625 56 84.28125 50.015625 
Q 88.921875 44.046875 88.921875 33.015625 
L 88.921875 0 
L 79.890625 0 
L 79.890625 32.71875 
Q 79.890625 40.578125 77.09375 44.375 
Q 74.3125 48.1875 68.609375 48.1875 
Q 61.625 48.1875 57.5625 43.546875 
Q 53.515625 38.921875 53.515625 30.90625 
L 53.515625 0 
L 44.484375 0 
L 44.484375 32.71875 
Q 44.484375 40.625 41.703125 44.40625 
Q 38.921875 48.1875 33.109375 48.1875 
Q 26.21875 48.1875 22.15625 43.53125 
Q 18.109375 38.875 18.109375 30.90625 
L 18.109375 0 
L 9.078125 0 
L 9.078125 54.6875 
L 18.109375 54.6875 
L 18.109375 46.1875 
Q 21.1875 51.21875 25.484375 53.609375 
Q 29.78125 56 35.6875 56 
Q 41.65625 56 45.828125 52.96875 
Q 50 49.953125 52 44.1875 
z
" id="DejaVuSans-109"/>
       <path d="M 48.6875 27.296875 
Q 48.6875 37.203125 44.609375 42.84375 
Q 40.53125 48.484375 33.40625 48.484375 
Q 26.265625 48.484375 22.1875 42.84375 
Q 18.109375 37.203125 18.109375 27.296875 
Q 18.109375 17.390625 22.1875 11.75 
Q 26.265625 6.109375 33.40625 6.109375 
Q 40.53125 6.109375 44.609375 11.75 
Q 48.6875 17.390625 48.6875 27.296875 
z
M 18.109375 46.390625 
Q 20.953125 51.265625 25.265625 53.625 
Q 29.59375 56 35.59375 56 
Q 45.5625 56 51.78125 48.09375 
Q 58.015625 40.1875 58.015625 27.296875 
Q 58.015625 14.40625 51.78125 6.484375 
Q 45.5625 -1.421875 35.59375 -1.421875 
Q 29.59375 -1.421875 25.265625 0.953125 
Q 20.953125 3.328125 18.109375 8.203125 
L 18.109375 0 
L 9.078125 0 
L 9.078125 75.984375 
L 18.109375 75.984375 
z
" id="DejaVuSans-98"/>
       <path d="M 56.203125 29.59375 
L 56.203125 25.203125 
L 14.890625 25.203125 
Q 15.484375 15.921875 20.484375 11.0625 
Q 25.484375 6.203125 34.421875 6.203125 
Q 39.59375 6.203125 44.453125 7.46875 
Q 49.3125 8.734375 54.109375 11.28125 
L 54.109375 2.78125 
Q 49.265625 0.734375 44.1875 -0.34375 
Q 39.109375 -1.421875 33.890625 -1.421875 
Q 20.796875 -1.421875 13.15625 6.1875 
Q 5.515625 13.8125 5.515625 26.8125 
Q 5.515625 40.234375 12.765625 48.109375 
Q 20.015625 56 32.328125 56 
Q 43.359375 56 49.78125 48.890625 
Q 56.203125 41.796875 56.203125 29.59375 
z
M 47.21875 32.234375 
Q 47.125 39.59375 43.09375 43.984375 
Q 39.0625 48.390625 32.421875 48.390625 
Q 24.90625 48.390625 20.390625 44.140625 
Q 15.875 39.890625 15.1875 32.171875 
z
" id="DejaVuSans-101"/>
       <path d="M 41.109375 46.296875 
Q 39.59375 47.171875 37.8125 47.578125 
Q 36.03125 48 33.890625 48 
Q 26.265625 48 22.1875 43.046875 
Q 18.109375 38.09375 18.109375 28.8125 
L 18.109375 0 
L 9.078125 0 
L 9.078125 54.6875 
L 18.109375 54.6875 
L 18.109375 46.1875 
Q 20.953125 51.171875 25.484375 53.578125 
Q 30.03125 56 36.53125 56 
Q 37.453125 56 38.578125 55.875 
Q 39.703125 55.765625 41.0625 55.515625 
z
" id="DejaVuSans-114"/>
       <path id="DejaVuSans-32"/>
       <path d="M 30.609375 48.390625 
Q 23.390625 48.390625 19.1875 42.75 
Q 14.984375 37.109375 14.984375 27.296875 
Q 14.984375 17.484375 19.15625 11.84375 
Q 23.34375 6.203125 30.609375 6.203125 
Q 37.796875 6.203125 41.984375 11.859375 
Q 46.1875 17.53125 46.1875 27.296875 
Q 46.1875 37.015625 41.984375 42.703125 
Q 37.796875 48.390625 30.609375 48.390625 
z
M 30.609375 56 
Q 42.328125 56 49.015625 48.375 
Q 55.71875 40.765625 55.71875 27.296875 
Q 55.71875 13.875 49.015625 6.21875 
Q 42.328125 -1.421875 30.609375 -1.421875 
Q 18.84375 -1.421875 12.171875 6.21875 
Q 5.515625 13.875 5.515625 27.296875 
Q 5.515625 40.765625 12.171875 48.375 
Q 18.84375 56 30.609375 56 
z
" id="DejaVuSans-111"/>
       <path d="M 37.109375 75.984375 
L 37.109375 68.5 
L 28.515625 68.5 
Q 23.6875 68.5 21.796875 66.546875 
Q 19.921875 64.59375 19.921875 59.515625 
L 19.921875 54.6875 
L 34.71875 54.6875 
L 34.71875 47.703125 
L 19.921875 47.703125 
L 19.921875 0 
L 10.890625 0 
L 10.890625 47.703125 
L 2.296875 47.703125 
L 2.296875 54.6875 
L 10.890625 54.6875 
L 10.890625 58.5 
Q 10.890625 67.625 15.140625 71.796875 
Q 19.390625 75.984375 28.609375 75.984375 
z
" id="DejaVuSans-102"/>
       <path d="M 19.671875 64.796875 
L 19.671875 37.40625 
L 32.078125 37.40625 
Q 38.96875 37.40625 42.71875 40.96875 
Q 46.484375 44.53125 46.484375 51.125 
Q 46.484375 57.671875 42.71875 61.234375 
Q 38.96875 64.796875 32.078125 64.796875 
z
M 9.8125 72.90625 
L 32.078125 72.90625 
Q 44.34375 72.90625 50.609375 67.359375 
Q 56.890625 61.8125 56.890625 51.125 
Q 56.890625 40.328125 50.609375 34.8125 
Q 44.34375 29.296875 32.078125 29.296875 
L 19.671875 29.296875 
L 19.671875 0 
L 9.8125 0 
z
" id="DejaVuSans-80"/>
       <path d="M 34.28125 27.484375 
Q 23.390625 27.484375 19.1875 25 
Q 14.984375 22.515625 14.984375 16.5 
Q 14.984375 11.71875 18.140625 8.90625 
Q 21.296875 6.109375 26.703125 6.109375 
Q 34.1875 6.109375 38.703125 11.40625 
Q 43.21875 16.703125 43.21875 25.484375 
L 43.21875 27.484375 
z
M 52.203125 31.203125 
L 52.203125 0 
L 43.21875 0 
L 43.21875 8.296875 
Q 40.140625 3.328125 35.546875 0.953125 
Q 30.953125 -1.421875 24.3125 -1.421875 
Q 15.921875 -1.421875 10.953125 3.296875 
Q 6 8.015625 6 15.921875 
Q 6 25.140625 12.171875 29.828125 
Q 18.359375 34.515625 30.609375 34.515625 
L 43.21875 34.515625 
L 43.21875 35.40625 
Q 43.21875 41.609375 39.140625 45 
Q 35.0625 48.390625 27.6875 48.390625 
Q 23 48.390625 18.546875 47.265625 
Q 14.109375 46.140625 10.015625 43.890625 
L 10.015625 52.203125 
Q 14.9375 54.109375 19.578125 55.046875 
Q 24.21875 56 28.609375 56 
Q 40.484375 56 46.34375 49.84375 
Q 52.203125 43.703125 52.203125 31.203125 
z
" id="DejaVuSans-97"/>
       <path d="M 18.3125 70.21875 
L 18.3125 54.6875 
L 36.8125 54.6875 
L 36.8125 47.703125 
L 18.3125 47.703125 
L 18.3125 18.015625 
Q 18.3125 11.328125 20.140625 9.421875 
Q 21.96875 7.515625 27.59375 7.515625 
L 36.8125 7.515625 
L 36.8125 0 
L 27.59375 0 
Q 17.1875 0 13.234375 3.875 
Q 9.28125 7.765625 9.28125 18.015625 
L 9.28125 47.703125 
L 2.6875 47.703125 
L 2.6875 54.6875 
L 9.28125 54.6875 
L 9.28125 70.21875 
z
" id="DejaVuSans-116"/>
       <path d="M 9.421875 54.6875 
L 18.40625 54.6875 
L 18.40625 0 
L 9.421875 0 
z
M 9.421875 75.984375 
L 18.40625 75.984375 
L 18.40625 64.59375 
L 9.421875 64.59375 
z
" id="DejaVuSans-105"/>
       <path d="M 48.78125 52.59375 
L 48.78125 44.1875 
Q 44.96875 46.296875 41.140625 47.34375 
Q 37.3125 48.390625 33.40625 48.390625 
Q 24.65625 48.390625 19.8125 42.84375 
Q 14.984375 37.3125 14.984375 27.296875 
Q 14.984375 17.28125 19.8125 11.734375 
Q 24.65625 6.203125 33.40625 6.203125 
Q 37.3125 6.203125 41.140625 7.25 
Q 44.96875 8.296875 48.78125 10.40625 
L 48.78125 2.09375 
Q 45.015625 0.34375 40.984375 -0.53125 
Q 36.96875 -1.421875 32.421875 -1.421875 
Q 20.0625 -1.421875 12.78125 6.34375 
Q 5.515625 14.109375 5.515625 27.296875 
Q 5.515625 40.671875 12.859375 48.328125 
Q 20.21875 56 33.015625 56 
Q 37.15625 56 41.109375 55.140625 
Q 45.0625 54.296875 48.78125 52.59375 
z
" id="DejaVuSans-99"/>
       <path d="M 9.421875 75.984375 
L 18.40625 75.984375 
L 18.40625 0 
L 9.421875 0 
z
" id="DejaVuSans-108"/>
       <path d="M 44.28125 53.078125 
L 44.28125 44.578125 
Q 40.484375 46.53125 36.375 47.5 
Q 32.28125 48.484375 27.875 48.484375 
Q 21.1875 48.484375 17.84375 46.4375 
Q 14.5 44.390625 14.5 40.28125 
Q 14.5 37.15625 16.890625 35.375 
Q 19.28125 33.59375 26.515625 31.984375 
L 29.59375 31.296875 
Q 39.15625 29.25 43.1875 25.515625 
Q 47.21875 21.78125 47.21875 15.09375 
Q 47.21875 7.46875 41.1875 3.015625 
Q 35.15625 -1.421875 24.609375 -1.421875 
Q 20.21875 -1.421875 15.453125 -0.5625 
Q 10.6875 0.296875 5.421875 2 
L 5.421875 11.28125 
Q 10.40625 8.6875 15.234375 7.390625 
Q 20.0625 6.109375 24.8125 6.109375 
Q 31.15625 6.109375 34.5625 8.28125 
Q 37.984375 10.453125 37.984375 14.40625 
Q 37.984375 18.0625 35.515625 20.015625 
Q 33.0625 21.96875 24.703125 23.78125 
L 21.578125 24.515625 
Q 13.234375 26.265625 9.515625 29.90625 
Q 5.8125 33.546875 5.8125 39.890625 
Q 5.8125 47.609375 11.28125 51.796875 
Q 16.75 56 26.8125 56 
Q 31.78125 56 36.171875 55.265625 
Q 40.578125 54.546875 44.28125 53.078125 
z
" id="DejaVuSans-115"/>
      </defs>
      <use xlink:href="#DejaVuSans-78"/>
      <use x="74.804688" xlink:href="#DejaVuSans-117"/>
      <use x="138.183594" xlink:href="#DejaVuSans-109"/>
      <use x="235.595703" xlink:href="#DejaVuSans-98"/>
      <use x="299.072266" xlink:href="#DejaVuSans-101"/>
      <use x="360.595703" xlink:href="#DejaVuSans-114"/>
      <use x="401.708984" xlink:href="#DejaVuSans-32"/>
      <use x="433.496094" xlink:href="#DejaVuSans-111"/>
      <use x="494.677734" xlink:href="#DejaVuSans-102"/>
      <use x="529.882812" xlink:href="#DejaVuSans-32"/>
      <use x="561.669922" xlink:href="#DejaVuSans-80"/>
      <use x="617.472656" xlink:href="#DejaVuSans-97"/>
      <use x="678.751953" xlink:href="#DejaVuSans-114"/>
      <use x="719.865234" xlink:href="#DejaVuSans-116"/>
      <use x="759.074219" xlink:href="#DejaVuSans-105"/>
      <use x="786.857422" xlink:href="#DejaVuSans-99"/>
      <use x="841.837891" xlink:href="#DejaVuSans-108"/>
      <use x="869.621094" xlink:href="#DejaVuSans-101"/>
      <use x="931.144531" xlink:href="#DejaVuSans-115"/>
     </g>
    </g>
   </g>
   <g id="matplotlib.axis_2">
    <g id="ytick_1">
     <g id="line2d_41">
      <defs>
       <path d="M 0 0 
L -3.5 0 
" id="ma8ba361f19" style="stroke:#000000;stroke-width:0.8;"/>
      </defs>
      <g>
       <use style="stroke:#000000;stroke-width:0.8;" x="53.031742" xlink:href="#ma8ba361f19" y="176.272467"/>
      </g>
     </g>
     <g id="text_7">
      <!-- $\mathdefault{10^{1}}$ -->
      <g transform="translate(28.431742 180.071686)scale(0.1 -0.1)">
       <use transform="translate(0 0.684375)" xlink:href="#DejaVuSans-49"/>
       <use transform="translate(63.623047 0.684375)" xlink:href="#DejaVuSans-48"/>
       <use transform="translate(128.203125 38.965625)scale(0.7)" xlink:href="#DejaVuSans-49"/>
      </g>
     </g>
    </g>
    <g id="ytick_2">
     <g id="line2d_42">
      <defs>
       <path d="M 0 0 
L -2 0 
" id="mb995b42a89" style="stroke:#000000;stroke-width:0.6;"/>
      </defs>
      <g>
       <use style="stroke:#000000;stroke-width:0.6;" x="53.031742" xlink:href="#mb995b42a89" y="285.167759"/>
      </g>
     </g>
    </g>
    <g id="ytick_3">
     <g id="line2d_43">
      <g>
       <use style="stroke:#000000;stroke-width:0.6;" x="53.031742" xlink:href="#mb995b42a89" y="256.52455"/>
      </g>
     </g>
     <g id="text_8">
      <!-- $\mathdefault{6\times10^{0}}$ -->
      <g transform="translate(11.431742 260.323769)scale(0.1 -0.1)">
       <defs>
        <path d="M 33.015625 40.375 
Q 26.375 40.375 22.484375 35.828125 
Q 18.609375 31.296875 18.609375 23.390625 
Q 18.609375 15.53125 22.484375 10.953125 
Q 26.375 6.390625 33.015625 6.390625 
Q 39.65625 6.390625 43.53125 10.953125 
Q 47.40625 15.53125 47.40625 23.390625 
Q 47.40625 31.296875 43.53125 35.828125 
Q 39.65625 40.375 33.015625 40.375 
z
M 52.59375 71.296875 
L 52.59375 62.3125 
Q 48.875 64.0625 45.09375 64.984375 
Q 41.3125 65.921875 37.59375 65.921875 
Q 27.828125 65.921875 22.671875 59.328125 
Q 17.53125 52.734375 16.796875 39.40625 
Q 19.671875 43.65625 24.015625 45.921875 
Q 28.375 48.1875 33.59375 48.1875 
Q 44.578125 48.1875 50.953125 41.515625 
Q 57.328125 34.859375 57.328125 23.390625 
Q 57.328125 12.15625 50.6875 5.359375 
Q 44.046875 -1.421875 33.015625 -1.421875 
Q 20.359375 -1.421875 13.671875 8.265625 
Q 6.984375 17.96875 6.984375 36.375 
Q 6.984375 53.65625 15.1875 63.9375 
Q 23.390625 74.21875 37.203125 74.21875 
Q 40.921875 74.21875 44.703125 73.484375 
Q 48.484375 72.75 52.59375 71.296875 
z
" id="DejaVuSans-54"/>
        <path d="M 70.125 53.71875 
L 47.796875 31.296875 
L 70.125 8.984375 
L 64.3125 3.078125 
L 41.890625 25.484375 
L 19.484375 3.078125 
L 13.71875 8.984375 
L 35.984375 31.296875 
L 13.71875 53.71875 
L 19.484375 59.625 
L 41.890625 37.203125 
L 64.3125 59.625 
z
" id="DejaVuSans-215"/>
       </defs>
       <use transform="translate(0 0.765625)" xlink:href="#DejaVuSans-54"/>
       <use transform="translate(83.105469 0.765625)" xlink:href="#DejaVuSans-215"/>
       <use transform="translate(186.376953 0.765625)" xlink:href="#DejaVuSans-49"/>
       <use transform="translate(250 0.765625)" xlink:href="#DejaVuSans-48"/>
       <use transform="translate(314.580078 39.046875)scale(0.7)" xlink:href="#DejaVuSans-48"/>
      </g>
     </g>
    </g>
    <g id="ytick_4">
     <g id="line2d_44">
      <g>
       <use style="stroke:#000000;stroke-width:0.6;" x="53.031742" xlink:href="#mb995b42a89" y="232.307063"/>
      </g>
     </g>
    </g>
    <g id="ytick_5">
     <g id="line2d_45">
      <g>
       <use style="stroke:#000000;stroke-width:0.6;" x="53.031742" xlink:href="#mb995b42a89" y="211.328921"/>
      </g>
     </g>
    </g>
    <g id="ytick_6">
     <g id="line2d_46">
      <g>
       <use style="stroke:#000000;stroke-width:0.6;" x="53.031742" xlink:href="#mb995b42a89" y="192.824888"/>
      </g>
     </g>
    </g>
    <g id="ytick_7">
     <g id="line2d_47">
      <g>
       <use style="stroke:#000000;stroke-width:0.6;" x="53.031742" xlink:href="#mb995b42a89" y="67.377176"/>
      </g>
     </g>
     <g id="text_9">
      <!-- $\mathdefault{2\times10^{1}}$ -->
      <g transform="translate(11.431742 71.176395)scale(0.1 -0.1)">
       <use transform="translate(0 0.684375)" xlink:href="#DejaVuSans-50"/>
       <use transform="translate(83.105469 0.684375)" xlink:href="#DejaVuSans-215"/>
       <use transform="translate(186.376953 0.684375)" xlink:href="#DejaVuSans-49"/>
       <use transform="translate(250 0.684375)" xlink:href="#DejaVuSans-48"/>
       <use transform="translate(314.580078 38.965625)scale(0.7)" xlink:href="#DejaVuSans-49"/>
      </g>
     </g>
    </g>
   </g>
   <g id="line2d_48">
    <path clip-path="url(#paafb0a42a7)" d="M -1 284.389061 
L 171.57688 284.33207 
L 174.480615 281.231848 
L 188.456031 281.194827 
L 201.639854 280.885346 
L 208.077658 280.263561 
L 209.247372 280.019283 
L 210.383176 279.928333 
L 211.486981 279.719578 
L 214.623255 279.75591 
L 215.61527 279.498895 
L 220.230303 279.477896 
L 221.091492 279.399121 
L 222.759084 279.065435 
L 225.134508 279.11873 
L 225.895357 278.506812 
L 227.374118 278.603051 
L 228.093083 278.524848 
L 228.799093 278.57507 
L 229.492606 278.246357 
L 232.787193 278.222395 
L 235.236897 277.768505 
L 235.826119 277.505437 
L 236.406611 274.656934 
L 236.978628 274.169642 
L 237.542415 273.94102 
L 238.64622 274.033241 
L 239.186677 274.11619 
L 240.245728 274.121875 
L 241.782493 274.285485 
L 243.261254 274.237647 
L 243.742027 274.036648 
L 244.216972 223.056753 
L 245.149933 223.02471 
L 246.061195 223.138847 
L 246.951744 222.935772 
L 247.389542 222.857589 
L 250.324363 223.23337 
L 250.726238 223.122659 
L 251.51783 223.116125 
L 251.907709 223.096676 
L 252.293747 222.952959 
L 253.800952 222.893857 
L 254.168865 193.357722 
L 255.958332 193.397584 
L 256.306623 192.407958 
L 258.0031 192.464526 
L 258.661645 192.347214 
L 259.309304 192.307079 
L 259.946432 192.364178 
L 260.261152 192.501926 
L 260.573365 191.509944 
L 261.190425 191.797545 
L 262.396136 191.831936 
L 262.691854 191.87542 
L 263.276678 191.822764 
L 263.565849 191.99193 
L 264.980534 192.083601 
L 265.257443 192.059998 
L 265.532409 192.250624 
L 265.805459 192.210438 
L 266.076619 192.386165 
L 266.345916 192.347315 
L 266.613374 191.389983 
L 267.142875 191.490484 
L 267.665316 191.245064 
L 267.923948 191.449594 
L 268.689754 191.664606 
L 269.440879 191.140527 
L 269.688088 191.276739 
L 270.661616 191.183334 
L 270.901265 190.870682 
L 271.376211 191.349244 
L 271.611542 191.361434 
L 271.845468 190.389143 
L 272.078005 190.639756 
L 272.309171 189.696678 
L 272.538981 189.767059 
L 272.767451 188.816681 
L 272.994597 188.523327 
L 273.444975 188.955839 
L 274.110983 188.813994 
L 274.330493 188.996991 
L 275.409969 188.986893 
L 275.622341 188.033501 
L 275.833568 188.131222 
L 276.043662 188.404116 
L 276.460501 188.336185 
L 276.66727 188.17575 
L 277.077561 188.202784 
L 277.685054 187.804314 
L 278.084879 187.747406 
L 278.283272 187.933624 
L 278.480665 187.791717 
L 278.677069 166.970593 
L 279.066948 166.983091 
L 279.452986 166.967323 
L 279.644587 167.259642 
L 280.213835 167.099664 
L 280.58879 167.050265 
L 280.960191 167.226469 
L 281.144579 167.280939 
L 281.692595 167.008311 
L 282.233052 168.032711 
L 282.589259 168.042359 
L 282.766155 168.402617 
L 283.11757 168.379313 
L 283.982561 168.445323 
L 284.153291 167.016525 
L 284.661063 167.121864 
L 285.162338 167.7378 
L 285.492994 167.785064 
L 285.820883 167.893791 
L 286.788402 167.776548 
L 286.947357 167.657135 
L 287.263347 167.644456 
L 287.420391 167.981691 
L 287.732604 167.781173 
L 287.887782 168.253589 
L 288.196308 168.214309 
L 288.349664 168.404097 
L 288.502422 163.748022 
L 288.806164 163.862961 
L 289.10757 163.871901 
L 289.257407 164.051541 
L 289.703513 165.179058 
L 290.144596 165.22431 
L 290.290527 165.255226 
L 290.435917 165.475977 
L 290.580769 165.96596 
L 291.012141 165.995232 
L 291.154882 151.343558 
L 291.297106 151.29754 
L 291.438815 151.380904 
L 291.580013 151.79696 
L 291.720704 151.833803 
L 292.00058 152.278059 
L 292.278472 152.272998 
L 292.554406 152.469382 
L 292.82841 152.753817 
L 292.964698 152.627873 
L 293.100512 152.874012 
L 293.235858 151.742835 
L 293.505154 151.859514 
L 293.639112 151.865508 
L 293.772613 151.300873 
L 294.038258 151.342546 
L 294.433379 151.788995 
L 294.564205 151.716983 
L 294.954084 151.988134 
L 295.848993 151.677742 
L 295.975184 151.938437 
L 296.226355 153.086275 
L 296.351339 153.134998 
L 296.600118 129.825202 
L 297.092986 130.140256 
L 297.337114 130.098806 
L 297.458611 130.147894 
L 297.579731 130.438687 
L 297.940863 130.295707 
L 298.060504 129.074665 
L 298.887918 129.338822 
L 299.121148 129.274363 
L 299.352998 130.21089 
L 299.583484 130.382485 
L 299.812622 130.490545 
L 299.92669 130.437957 
L 300.040428 130.584489 
L 300.379672 128.858208 
L 300.492104 128.435926 
L 300.604214 128.474549 
L 300.827477 129.306788 
L 301.049475 129.357904 
L 301.270222 130.028 
L 301.599028 130.149894 
L 301.816709 130.657125 
L 301.925098 130.677125 
L 302.14098 130.828828 
L 302.462589 130.940305 
L 302.78158 132.062475 
L 302.887336 132.0315 
L 302.992807 131.198426 
L 303.097995 122.32167 
L 303.202901 122.3637 
L 303.307527 121.239387 
L 303.411875 121.891877 
L 303.515945 120.457441 
L 303.723261 121.204689 
L 304.032191 121.168181 
L 304.2368 121.333006 
L 304.743696 121.477817 
L 304.844293 121.376258 
L 304.944632 113.76467 
L 305.044715 114.059853 
L 305.244118 113.749429 
L 305.34344 113.914656 
L 305.541332 112.910579 
L 305.639904 112.565499 
L 305.738229 111.539693 
L 305.836308 111.57084 
L 306.419681 111.806347 
L 306.612224 111.957217 
L 306.994496 111.876035 
L 307.184242 112.972813 
L 307.560999 113.211945 
L 307.654626 106.14504 
L 307.748028 106.553367 
L 307.934169 107.473915 
L 308.119429 107.666388 
L 308.851834 108.093227 
L 309.032816 107.185424 
L 309.212965 107.224399 
L 309.302731 106.587347 
L 309.392291 100.89438 
L 309.481646 101.397035 
L 309.659749 101.60655 
L 309.837046 102.28562 
L 309.925394 102.306319 
L 310.18925 103.043539 
L 310.276809 102.763367 
L 310.364172 102.817061 
L 310.6251 103.573732 
L 310.798092 103.625777 
L 310.970323 103.341972 
L 311.1418 103.561965 
L 311.397617 102.442192 
L 311.820302 102.670892 
L 311.904294 102.709645 
L 311.988107 102.890521 
L 312.071741 102.608523 
L 312.155197 102.692205 
L 312.56983 102.904308 
L 312.734463 103.049979 
L 312.816521 101.652563 
L 312.898407 101.79951 
L 313.061667 101.826231 
L 313.143043 102.075179 
L 313.224251 102.048373 
L 314.185833 102.504845 
L 314.264909 102.222632 
L 314.343827 102.388754 
L 314.501186 103.524863 
L 314.57963 103.544984 
L 314.657917 103.72445 
L 314.814022 104.875277 
L 314.969509 104.91299 
L 315.047021 104.63837 
L 315.12438 102.65628 
L 315.201587 102.694225 
L 315.278642 102.722727 
L 315.355546 103.296252 
L 315.432299 103.028569 
L 315.508903 103.209827 
L 315.585356 97.643313 
L 315.661661 97.687332 
L 315.889688 96.281158 
L 316.040972 96.314371 
L 316.116395 94.645903 
L 316.191674 94.665494 
L 316.266808 94.767316 
L 316.341799 89.622015 
L 316.416646 89.712936 
L 316.936611 91.428491 
L 317.157358 91.661153 
L 317.230665 86.844123 
L 317.303835 86.880625 
L 317.376868 86.927477 
L 317.522528 82.292962 
L 317.740008 82.59142 
L 317.884327 82.631039 
L 317.956287 78.40282 
L 318.028116 78.450951 
L 318.171379 78.706835 
L 318.242815 78.744258 
L 318.314121 78.356717 
L 318.527263 68.287335 
L 318.598053 68.309348 
L 318.668716 67.967275 
L 318.739252 68.000595 
L 318.80966 68.013766 
L 319.020131 68.477897 
L 319.229477 68.731452 
L 319.43771 69.091484 
L 319.506876 68.922157 
L 319.57592 69.112887 
L 319.644843 68.947936 
L 319.713645 69.0304 
L 319.850886 69.576911 
L 320.259751 69.855567 
L 320.327482 69.959124 
L 320.395097 69.61637 
L 320.462594 69.682565 
L 320.597242 69.206092 
L 320.664393 68.546003 
L 320.731429 68.752674 
L 320.865158 69.068352 
L 320.998432 69.149771 
L 321.131254 69.29088 
L 321.263627 69.139816 
L 321.395555 69.294212 
L 321.461353 68.821123 
L 321.52704 68.913211 
L 321.592618 69.003508 
L 321.658085 68.83412 
L 321.723444 68.885442 
L 321.918868 70.271551 
L 321.983794 69.74753 
L 322.048612 69.796585 
L 322.306817 69.963371 
L 322.371103 69.295071 
L 322.435284 69.303348 
L 322.563332 69.357011 
L 322.690962 65.502658 
L 322.881632 65.696801 
L 323.008231 65.883722 
L 323.385594 66.880971 
L 323.635165 65.98 
L 323.69731 66.037068 
L 323.883156 66.705349 
L 323.944909 66.746494 
L 324.006566 66.00226 
L 324.068125 66.017371 
L 324.190954 66.068111 
L 324.374479 65.474711 
L 324.496353 66.327551 
L 324.73897 66.537846 
L 324.859717 66.614576 
L 324.980094 67.092653 
L 325.040144 66.356853 
L 325.100102 63.285969 
L 325.159968 63.299732 
L 325.457935 61.938057 
L 325.517258 61.974412 
L 325.57649 62.171404 
L 325.635634 62.017182 
L 325.694688 61.735864 
L 325.753653 61.761502 
L 325.930019 61.901891 
L 326.047157 62.384413 
L 326.105594 62.395792 
L 326.396483 63.549842 
L 326.454402 63.577989 
L 326.800133 65.220456 
L 326.857459 65.060057 
L 326.914701 65.148334 
L 326.97186 63.574541 
L 327.028936 63.861146 
L 327.426155 64.086537 
L 327.538911 64.831264 
L 327.595167 64.673554 
L 327.651343 64.682543 
L 327.819388 61.222332 
L 327.875243 61.291939 
L 327.986716 62.159081 
L 328.153332 61.968915 
L 328.264017 62.104685 
L 328.319242 61.691117 
L 328.37439 61.777971 
L 328.484453 62.009849 
L 328.758267 63.630043 
L 328.867258 63.699944 
L 328.921641 63.808606 
L 328.975948 63.527352 
L 329.03018 63.546356 
L 329.084336 63.874442 
L 329.138419 63.570976 
L 329.246359 63.097377 
L 329.300218 63.224968 
L 329.354004 63.635365 
L 329.407715 60.475848 
L 329.514918 60.533382 
L 329.568409 60.696527 
L 329.621828 60.540672 
L 329.728447 60.630991 
L 329.781648 59.584761 
L 329.887833 59.622081 
L 330.046574 59.777773 
L 330.204675 58.819914 
L 330.257233 58.83011 
L 330.309722 58.829872 
L 330.571114 58.017634 
L 330.778979 58.643416 
L 330.830773 58.688931 
L 330.985747 59.386939 
L 331.037269 58.836988 
L 331.14011 58.886744 
L 331.242682 59.471651 
L 331.293868 59.211744 
L 331.497944 53.914189 
L 331.548797 54.093691 
L 331.599585 53.352537 
L 331.700963 53.404551 
L 331.852539 53.799747 
L 332.153944 53.881481 
L 332.303782 54.99175 
L 332.403356 55.059264 
L 332.552245 52.379832 
L 332.70057 53.384306 
L 332.749887 53.240823 
L 332.848336 51.976754 
L 332.897468 52.02916 
L 332.946538 52.140173 
L 332.995547 51.992891 
L 333.142206 52.16726 
L 333.288319 52.929375 
L 333.433889 52.536288 
L 333.530636 52.580447 
L 333.67531 53.153235 
L 333.723416 52.928423 
L 333.771463 52.941268 
L 333.867381 53.218828 
L 333.915252 53.091636 
L 333.963065 52.201502 
L 334.010819 52.694413 
L 334.153734 52.850121 
L 334.201257 52.256268 
L 334.248722 52.558686 
L 334.34348 52.932489 
L 334.390774 52.810516 
L 334.485189 52.93419 
L 334.532312 51.971057 
L 334.579378 52.895341 
L 334.720238 52.776193 
L 334.813864 52.821099 
L 335.000448 52.608618 
L 335.139805 52.755753 
L 335.186147 52.415655 
L 335.232435 52.425171 
L 335.324847 52.638986 
L 335.370971 52.509344 
L 335.417041 51.539908 
L 335.509018 51.62876 
L 335.738023 52.240532 
L 335.874785 50.201749 
L 335.920267 50.801042 
L 336.011073 50.729149 
L 336.146887 51.024007 
L 336.192054 50.907015 
L 336.237169 50.761032 
L 336.282233 51.038305 
L 336.372204 49.396141 
L 336.417112 49.442816 
L 336.506775 49.667503 
L 336.551529 49.548275 
L 336.596233 48.791646 
L 336.640885 49.180467 
L 336.685487 49.208678 
L 336.730038 49.065329 
L 336.774538 49.608119 
L 336.907736 46.29928 
L 336.952035 46.334749 
L 337.260734 46.787615 
L 337.348489 45.929455 
L 337.479754 46.801949 
L 337.523411 46.877139 
L 337.56702 47.427519 
L 337.61058 47.305718 
L 337.654092 47.090631 
L 337.697556 47.117943 
L 337.740971 47.561552 
L 337.827658 47.343419 
L 337.914154 47.122919 
L 337.95733 47.277676 
L 338.172501 47.477514 
L 338.301039 48.114269 
L 338.386497 47.441986 
L 338.471769 48.320165 
L 338.514335 47.868801 
L 338.641758 48.563107 
L 338.726477 48.677978 
L 338.811013 47.362435 
L 338.895367 47.435244 
L 338.937477 47.15832 
L 338.97954 47.277913 
L 339.189185 48.190902 
L 339.23098 48.248598 
L 339.27273 48.624749 
L 339.314436 48.081554 
L 339.646493 48.645157 
L 339.770292 50.09175 
L 339.934752 50.208864 
L 340.057645 49.525009 
L 340.139361 49.786028 
L 340.261615 47.587295 
L 340.342907 47.665102 
L 340.464529 47.634101 
L 340.504986 47.644613 
L 340.545401 45.953984 
L 340.626106 46.298201 
L 340.706646 48.620239 
L 340.746854 48.007521 
L 340.827146 48.095887 
L 340.907273 46.75029 
L 340.987238 47.445905 
L 341.345071 49.474963 
L 341.424148 49.375651 
L 341.542465 48.86366 
L 341.581824 49.101875 
L 341.660425 49.312978 
L 341.699666 49.201945 
L 341.817155 47.79535 
L 341.85624 47.887897 
L 342.051081 48.468476 
L 342.089934 48.191479 
L 342.128747 47.965651 
L 342.20626 48.070631 
L 342.55318 48.67295 
L 342.591538 48.718923 
L 342.629859 48.604572 
L 342.706387 46.76759 
L 342.744595 46.857358 
L 342.782766 46.746532 
L 342.858997 46.842637 
L 343.011014 47.530305 
L 343.086802 48.406924 
L 343.124642 48.09096 
L 343.237941 48.229159 
L 343.275634 47.803813 
L 343.350913 47.848068 
L 343.388498 48.037055 
L 343.426047 47.640271 
L 343.46356 47.654921 
L 343.501037 48.04305 
L 343.538479 47.384705 
L 343.575885 46.031311 
L 343.650589 46.576827 
L 343.799572 47.12589 
L 343.873852 45.925907 
L 343.947991 46.048936 
L 344.243152 47.657721 
L 344.353267 45.764936 
L 344.389904 45.818546 
L 344.426506 46.220502 
L 344.499607 45.99791 
L 344.536107 46.103333 
L 344.572573 45.995714 
L 344.609005 44.700029 
L 344.681767 45.005617 
L 344.754394 45.498827 
L 344.790658 45.365669 
L 345.043566 43.22871 
L 345.115526 43.806585 
L 345.187355 44.065478 
L 345.22322 43.933179 
L 345.259052 43.383476 
L 345.330618 43.552528 
L 345.402054 43.749956 
L 345.544536 43.965789 
L 345.580076 43.471463 
L 345.651058 43.538639 
L 345.686502 43.579694 
L 345.721913 43.475807 
L 345.89849 44.857924 
L 346.249276 43.417833 
L 346.284182 43.433887 
L 346.388716 44.272109 
L 346.45825 43.424601 
L 346.492971 43.510023 
L 346.56232 43.946349 
L 346.735159 39.79293 
L 346.769636 39.821879 
L 346.941564 40.391106 
L 347.044361 40.564165 
L 347.078566 40.387799 
L 347.112742 39.923492 
L 347.181004 40.026838 
L 347.215091 40.134181 
L 347.249148 39.965296 
L 347.283175 39.845739 
L 347.38508 39.072706 
L 347.41899 39.102817 
L 347.554335 39.81003 
L 347.655539 39.823794 
L 347.722862 39.019716 
L 347.924143 39.76805 
L 348.024397 39.847641 
L 348.09109 39.420346 
L 348.124395 39.69449 
L 348.157671 39.715695 
L 348.290493 40.082391 
L 348.323628 39.74509 
L 348.389815 39.919441 
L 348.45589 39.991379 
L 348.521854 40.592818 
L 348.587707 40.4748 
L 348.620592 40.497205 
L 348.653449 40.149562 
L 348.719081 40.515098 
L 348.751856 40.758338 
L 348.817324 40.539272 
L 348.850017 40.565212 
L 348.882683 40.903301 
L 348.947933 40.483555 
L 349.045604 40.708596 
L 349.143033 40.923171 
L 349.175455 40.454072 
L 349.240219 40.802528 
L 349.337166 41.175164 
L 349.369428 41.353383 
L 349.498212 40.51459 
L 349.530342 40.579559 
L 349.658599 40.159221 
L 349.690598 38.097158 
L 349.786438 38.459527 
L 349.818332 38.365923 
L 349.850201 38.661753 
L 349.913861 38.635654 
L 350.104221 38.030662 
L 350.325146 38.597542 
L 350.482191 37.270742 
L 350.544832 37.580531 
L 350.607374 37.545221 
L 350.669817 37.86764 
L 350.701 37.535208 
L 350.763294 37.720429 
L 350.794403 37.769155 
L 350.887584 34.627644 
L 350.949582 34.779199 
L 351.227364 36.634204 
L 351.258107 36.523501 
L 351.319522 36.509269 
L 351.442063 37.542816 
L 351.594702 40.095176 
L 351.777088 37.331855 
L 351.807403 37.348943 
L 351.867964 37.613855 
L 351.898209 35.765552 
L 351.988804 36.099886 
L 352.079191 34.993708 
L 352.139333 35.296871 
L 352.319207 37.728321 
L 352.349106 37.376461 
L 352.378982 35.601195 
L 352.468473 35.897896 
L 352.528021 35.581618 
L 352.646846 34.398381 
L 352.676496 34.432156 
L 352.735729 34.533729 
L 352.794873 33.454442 
L 352.883421 33.670565 
L 353.030557 33.869931 
L 353.089258 33.614736 
L 353.118575 33.938364 
L 353.14787 34.060933 
L 353.177144 33.865673 
L 353.206395 33.764346 
L 353.235625 34.016472 
L 353.264833 33.821749 
L 353.294019 33.902825 
L 353.323184 33.180372 
L 353.410547 33.58913 
L 353.468682 33.725328 
L 353.584692 32.9925 
L 353.613641 33.04633 
L 353.729224 33.842974 
L 353.786888 33.335467 
L 353.873224 32.248937 
L 353.930677 33.623237 
L 353.988045 32.886084 
L 354.016698 32.669687 
L 354.07394 32.951594 
L 354.131099 33.037917 
L 354.216682 32.722441 
L 354.245168 33.503807 
L 354.330502 33.184394 
L 354.41565 32.825738 
L 354.443992 33.107995 
L 354.585394 33.378801 
L 354.613613 33.180412 
L 354.669991 33.400252 
L 354.838639 34.47996 
L 354.950669 33.963309 
L 354.978627 34.022128 
L 355.06238 33.870305 
L 355.090258 34.298579 
L 355.145954 33.634108 
L 355.173773 33.532388 
L 355.201572 33.639205 
L 355.229351 32.140741 
L 355.28485 34.410542 
L 355.340271 33.68585 
L 355.478481 33.812132 
L 355.533629 34.36728 
L 355.588699 34.35534 
L 355.780838 32.182337 
L 355.835562 32.69961 
L 355.862896 32.750542 
L 355.89021 32.687106 
L 355.917505 32.069811 
L 355.999277 32.332291 
L 356.053698 32.163737 
L 356.080879 32.516005 
L 356.108042 32.077273 
L 356.216506 30.107289 
L 356.243575 30.189777 
L 356.270626 30.219852 
L 356.297657 30.582471 
L 356.32467 30.112849 
L 356.351665 30.279962 
L 356.378641 28.995446 
L 356.486359 29.010638 
L 356.593782 29.5511 
L 356.647383 28.624768 
L 356.700911 29.189956 
L 356.861058 29.786579 
L 356.887686 30.507243 
L 356.914295 29.709881 
L 356.96746 29.932875 
L 357.100057 29.690035 
L 357.179401 27.87086 
L 357.232208 28.029003 
L 357.416472 26.390525 
L 357.442725 26.439845 
L 357.46896 26.326855 
L 357.547561 26.073222 
L 357.678213 26.722544 
L 357.730352 26.567396 
L 357.782422 26.739655 
L 357.808431 28.0237 
L 357.886355 27.822092 
L 358.041738 24.882176 
L 358.144986 25.142974 
L 358.222244 25.467112 
L 358.350669 24.880259 
L 358.401921 24.999256 
L 358.478674 26.547318 
L 358.52976 26.011318 
L 358.555278 26.041285 
L 358.580779 25.942717 
L 358.606263 25.87343 
L 358.657183 26.016148 
L 358.682618 26.246338 
L 358.708036 27.531623 
L 358.784193 26.680732 
L 358.860201 26.335258 
L 358.910792 26.625699 
L 358.986556 27.076216 
L 359.011778 26.870722 
L 359.036984 26.736535 
L 359.062173 26.946847 
L 359.212972 27.375472 
L 359.338196 25.666365 
L 359.363193 25.890224 
L 359.388174 26.485465 
L 359.413139 25.976171 
L 359.487938 24.694411 
L 359.51284 24.93419 
L 359.661917 26.3682 
L 359.884475 26.947788 
L 359.982986 26.490094 
L 360.007575 26.509962 
L 360.130289 28.193525 
L 360.252619 27.189652 
L 360.27704 28.006096 
L 360.374569 27.616625 
L 360.423243 27.853154 
L 360.52041 28.377742 
L 360.544664 27.808215 
L 360.593127 28.006889 
L 360.617337 28.725961 
L 360.66571 27.861809 
L 360.689874 27.923246 
L 360.786383 28.751855 
L 360.834548 28.318436 
L 360.858609 27.986973 
L 360.930702 28.176739 
L 360.954703 28.522857 
L 361.02662 27.985301 
L 361.170058 27.201667 
L 361.241581 27.484554 
L 361.265393 27.23257 
L 361.28919 27.119991 
L 361.312973 27.386532 
L 361.336742 27.453109 
L 361.384236 25.67483 
L 361.455369 26.366842 
L 361.573638 25.691366 
L 361.526373 26.398086 
L 361.667997 25.782393 
L 361.691551 26.638991 
L 361.738617 25.405935 
L 361.762129 25.484671 
L 361.949717 26.392989 
L 362.182947 24.067086 
L 362.229427 24.673026 
L 362.299044 24.33468 
L 362.322222 24.176775 
L 362.368537 25.704416 
L 362.437907 25.051014 
L 362.507154 25.302308 
L 362.53021 25.887077 
L 362.576279 25.77388 
L 362.645283 24.237332 
L 362.714165 24.262083 
L 362.737099 24.060619 
L 362.76002 24.15592 
L 362.80582 24.689804 
L 362.874421 24.335117 
L 362.920088 24.855979 
L 362.98849 24.400245 
L 363.011263 24.461413 
L 363.056772 24.278584 
L 363.102227 23.966587 
L 363.124935 24.367976 
L 363.19298 25.152338 
L 363.238277 25.549763 
L 363.283523 25.238378 
L 363.351293 24.176775 
L 363.396408 24.590817 
L 363.486483 23.829455 
L 363.553903 24.163551 
L 363.598786 24.586038 
L 363.666014 24.228832 
L 363.688397 24.260488 
L 363.733126 24.772212 
L 363.800124 24.295443 
L 363.911533 25.047805 
L 363.933777 24.996586 
L 364.022626 24.371098 
L 364.089131 24.715588 
L 364.133405 24.873558 
L 364.199722 24.839 
L 364.265928 24.230343 
L 364.310002 24.396838 
L 364.354028 24.262461 
L 364.463875 25.340435 
L 364.507728 25.038405 
L 364.529636 24.984284 
L 364.551532 25.158204 
L 364.617146 25.572637 
L 364.68265 25.21266 
L 364.70446 25.136799 
L 364.726259 25.182732 
L 364.813331 23.917643 
L 364.856795 24.034283 
L 364.965243 24.401428 
L 365.051787 26.767744 
L 365.073393 26.618542 
L 365.138139 24.682252 
L 365.202779 25.39678 
L 365.2888 25.568542 
L 365.33174 24.921469 
L 365.374633 25.674577 
L 365.524388 27.181415 
L 365.631007 27.146157 
L 365.652297 26.875508 
L 365.69484 27.305658 
L 365.949135 30.124543 
L 365.970252 30.086541 
L 365.991358 29.711349 
L 366.075666 30.11575 
L 366.138779 30.25732 
L 366.264701 31.547364 
L 366.285648 31.348112 
L 366.411099 30.136659 
L 366.494511 29.855527 
L 366.515336 29.916843 
L 366.577745 30.419414 
L 366.619296 30.114822 
L 366.660803 29.529159 
L 366.722981 30.053312 
L 366.78506 29.540425 
L 366.826392 29.743395 
L 366.908925 30.499737 
L 366.950126 30.033087 
L 367.093991 30.322906 
L 367.1145 30.026465 
L 367.196429 30.405722 
L 367.441193 31.531142 
L 367.522442 30.515492 
L 367.563004 31.078229 
L 367.583269 30.980792 
L 367.603523 31.29316 
L 367.623767 31.363766 
L 367.644001 31.266156 
L 367.664224 31.317963 
L 367.684437 30.867314 
L 367.704639 32.348785 
L 367.805495 32.908389 
L 367.825635 32.62912 
L 367.865885 31.990735 
L 367.946259 32.301775 
L 367.966327 32.207684 
L 368.126501 34.052839 
L 368.206343 33.688527 
L 368.246203 33.917354 
L 368.266118 33.798316 
L 368.305917 35.002428 
L 368.345676 33.102814 
L 368.405239 33.186498 
L 368.484516 32.205685 
L 368.524094 33.434543 
L 368.603131 33.155384 
L 368.622865 32.378114 
L 368.682009 33.608989 
L 368.760728 34.523836 
L 368.819664 34.971818 
L 368.839289 34.349229 
L 368.858905 34.578592 
L 368.898107 34.319786 
L 368.917694 34.847983 
L 368.93727 34.775323 
L 368.956837 34.816528 
L 369.054525 33.77501 
L 369.074033 33.832474 
L 369.268584 35.849057 
L 369.113021 33.624035 
L 369.346135 35.356086 
L 369.365499 35.260291 
L 369.404197 36.308152 
L 369.48148 35.748749 
L 369.500777 35.185158 
L 369.59712 35.235664 
L 369.61636 35.268823 
L 369.731603 34.104134 
L 369.789097 34.158022 
L 369.846507 34.963156 
L 369.903834 34.488946 
L 369.980139 34.690632 
L 370.03727 34.259415 
L 370.056295 35.022241 
L 370.075311 35.070867 
L 370.264965 32.461383 
L 370.28388 33.660408 
L 370.302786 33.715097 
L 370.321683 33.324226 
L 370.397179 33.89424 
L 370.510151 33.999571 
L 370.697718 32.804891 
L 370.716425 32.883817 
L 370.772493 34.466887 
L 370.865763 33.80121 
L 370.958811 32.728558 
L 370.977394 32.881879 
L 371.088708 33.772771 
L 371.218176 31.735536 
L 371.255088 31.59666 
L 371.310392 31.830727 
L 371.402391 31.237536 
L 371.420765 31.810338 
L 371.43913 31.86162 
L 371.457487 31.770199 
L 371.475835 31.806216 
L 371.549142 31.389161 
L 371.585744 31.700732 
L 371.640583 31.598229 
L 371.695346 32.52906 
L 371.877336 29.242839 
L 371.895489 29.750348 
L 371.968016 28.928527 
L 372.094615 27.770465 
L 372.112667 27.950176 
L 372.148747 28.255272 
L 372.220807 27.945374 
L 372.238801 27.853303 
L 372.256787 27.901867 
L 372.274765 26.996395 
L 372.346593 27.298722 
L 372.36453 28.676873 
L 372.45409 28.186063 
L 372.471978 28.130027 
L 372.489857 28.58872 
L 372.543446 27.568865 
L 372.561293 27.669249 
L 372.579131 27.735251 
L 372.614784 27.532115 
L 372.632598 27.446086 
L 372.685993 27.719452 
L 372.739314 29.26942 
L 372.86345 28.8668 
L 372.934208 26.627013 
L 373.004839 26.968323 
L 373.110548 29.572174 
L 373.128138 29.530675 
L 373.233514 28.693053 
L 373.25105 28.969258 
L 373.39105 29.984394 
L 373.443421 30.460006 
L 373.547954 30.743199 
L 373.652209 30.187178 
L 373.669558 30.247633 
L 373.756188 30.745456 
L 373.773491 30.225968 
L 373.790786 30.314486 
L 373.808074 30.063192 
L 373.825354 29.893696 
L 373.877148 30.261999 
L 373.96332 30.53304 
L 373.997736 30.400665 
L 374.152235 30.114376 
L 374.186485 30.253547 
L 374.425404 26.926819 
L 374.527353 28.985612 
L 374.476412 25.834428 
L 374.561277 28.804495 
L 374.64596 27.468867 
L 374.696681 29.89121 
L 374.764208 29.801215 
L 374.781072 29.665373 
L 374.814777 30.214858 
L 374.932518 30.744482 
L 375.016403 30.524035 
L 375.033158 31.363818 
L 375.100108 30.495543 
L 375.116828 29.699957 
L 375.183635 31.486847 
L 375.250329 30.661103 
L 375.300275 29.992219 
L 375.36677 30.365235 
L 375.383377 30.403526 
L 375.399976 30.217597 
L 375.416568 30.014429 
L 375.482867 32.231876 
L 375.532517 31.941035 
L 375.549053 32.014769 
L 375.565583 31.858498 
L 375.59862 31.481046 
L 375.648124 31.910879 
L 375.681092 31.726015 
L 375.697566 31.905659 
L 375.746945 31.260733 
L 375.87832 30.141547 
L 375.911095 30.399503 
L 375.943843 31.210848 
L 375.976563 30.243045 
L 376.009256 30.36221 
L 376.090869 30.161164 
L 376.041922 30.607768 
L 376.107171 30.387398 
L 376.221098 30.698692 
L 376.237346 30.60732 
L 376.269822 30.987392 
L 376.334694 31.301595 
L 376.399458 31.290008 
L 376.512539 30.409401 
L 376.528667 30.657374 
L 376.560903 30.772051 
L 376.577011 30.377222 
L 376.641376 30.074942 
L 376.657451 32.136563 
L 376.753762 30.678184 
L 376.897786 32.213121 
L 376.945677 31.407126 
L 376.993509 30.411904 
L 377.057194 32.196813 
L 377.104891 30.955336 
L 377.120776 31.148681 
L 377.184256 30.56861 
L 377.26346 29.170555 
L 377.295097 28.332751 
L 377.374078 29.012457 
L 377.389855 29.067369 
L 377.421391 28.848718 
L 377.437149 28.910982 
L 377.4529 28.615717 
L 377.484385 29.74988 
L 377.500118 29.669535 
L 377.562986 29.882887 
L 377.594382 29.509725 
L 377.719716 31.018895 
L 377.750987 30.938773 
L 377.875822 29.159341 
L 377.93809 28.940911 
L 378.062331 30.083934 
L 378.124305 28.602748 
L 378.139783 28.666716 
L 378.155254 28.075147 
L 378.17072 28.947831 
L 378.247958 28.674424 
L 378.294227 28.915406 
L 378.325043 28.637654 
L 378.355835 28.840755 
L 378.417346 28.662831 
L 378.432708 29.458465 
L 378.524758 28.822879 
L 378.570702 29.078732 
L 378.601301 28.700351 
L 378.616592 28.819913 
L 378.631877 27.962419 
L 378.677695 30.975749 
L 378.692956 30.915876 
L 378.814831 35.840571 
L 378.830038 35.77857 
L 378.84524 34.931127 
L 378.92116 36.011601 
L 378.936327 35.937035 
L 379.072561 35.4833 
L 379.087669 35.559181 
L 379.102771 35.659247 
L 379.148043 35.252683 
L 379.163122 35.216816 
L 379.268512 33.494973 
L 379.298571 34.129573 
L 379.313592 34.189737 
L 379.403598 33.253425 
L 379.433554 33.507992 
L 379.463487 33.280657 
L 379.508344 34.569596 
L 379.568074 33.81636 
L 379.582992 33.88125 
L 379.612811 33.843721 
L 379.627712 33.541758 
L 379.657497 36.733684 
L 379.746718 36.249302 
L 379.820913 37.80653 
L 379.865363 37.044276 
L 379.924551 36.763382 
L 380.013166 34.880965 
L 380.057398 35.174912 
L 380.145713 33.77945 
L 380.189796 34.098994 
L 380.263158 37.119066 
L 380.321749 36.910085 
L 380.336383 36.876739 
L 380.424072 35.419987 
L 380.438668 37.13821 
L 380.526129 35.472224 
L 380.598864 35.291258 
L 380.613395 35.353923 
L 380.62792 37.057174 
L 380.729448 36.687629 
L 380.917305 35.161926 
L 380.758408 36.819777 
L 380.946126 35.206674 
L 381.046834 37.474146 
L 381.0612 37.358152 
L 381.190255 35.830156 
L 381.204568 35.90158 
L 381.333152 35.40202 
L 381.404406 34.909592 
L 381.432872 34.957038 
L 381.475531 35.637403 
L 381.532338 34.427639 
L 381.857388 32.562618 
L 381.885526 33.031208 
L 381.983851 33.353458 
L 381.955784 32.582625 
L 381.997878 33.061653 
L 382.025915 33.491533 
L 382.053933 33.405506 
L 382.179764 32.214584 
L 382.249497 31.740316 
L 382.305193 31.997577 
L 382.319105 32.446335 
L 382.402472 31.965145 
L 382.416349 32.101477 
L 382.623921 29.816742 
L 382.734178 31.929263 
L 382.747938 31.912545 
L 382.885276 31.177476 
L 383.022134 30.42561 
L 383.049449 30.372128 
L 383.063099 30.514775 
L 383.076744 30.444608 
L 383.10402 32.923276 
L 383.199338 32.479005 
L 383.267281 32.268642 
L 383.348657 31.270391 
L 383.375745 32.154844 
L 383.389282 32.137503 
L 383.402814 31.546574 
L 383.443382 34.02063 
L 383.470405 33.848805 
L 383.497409 34.162081 
L 383.645598 37.127469 
L 383.672481 36.424563 
L 383.699346 36.441055 
L 383.793229 35.335427 
L 383.940305 33.68842 
L 383.953648 33.780183 
L 384.006976 33.475701 
L 384.033613 33.581058 
L 384.193053 32.234033 
L 384.285762 35.616547 
L 384.351848 35.154382 
L 384.417823 35.186692 
L 384.431005 34.883994 
L 384.601964 39.621947 
L 384.746041 41.153269 
L 384.628199 39.402128 
L 384.759113 41.080186 
L 384.876563 45.510652 
L 384.954668 44.158599 
L 385.006651 44.169296 
L 385.097456 43.317697 
L 385.071533 44.31643 
L 385.110411 43.447757 
L 385.123362 44.937498 
L 385.213898 43.550173 
L 385.342872 45.284071 
L 385.278438 43.499989 
L 385.381482 44.931029 
L 385.394344 43.97816 
L 385.458588 45.537714 
L 385.471424 45.505343 
L 385.56116 46.052256 
L 385.573963 45.84758 
L 385.650691 45.316058 
L 385.688999 45.381307 
L 385.701759 45.468931 
L 385.752762 45.126103 
L 385.765502 45.204716 
L 385.867275 44.623465 
L 385.803698 45.604635 
L 385.892677 44.692124 
L 385.918062 45.0921 
L 385.968784 44.090998 
L 385.99412 44.428718 
L 386.006782 44.505718 
L 386.01944 44.415101 
L 386.120556 48.765117 
L 386.145795 48.580504 
L 386.171017 49.000168 
L 386.196222 47.989626 
L 386.322009 46.575698 
L 386.384751 50.734972 
L 386.447393 49.130576 
L 386.497435 48.476529 
L 386.509935 48.563428 
L 386.572377 50.510432 
L 386.63472 50.419689 
L 386.684523 50.728752 
L 386.696964 50.170946 
L 386.734263 50.266188 
L 387.056041 46.180339 
L 386.796349 50.386477 
L 387.080685 46.235076 
L 387.093 46.249935 
L 387.105312 46.153944 
L 387.11762 45.936007 
L 387.166813 46.994727 
L 387.191387 47.253299 
L 387.240488 46.751989 
L 387.265015 47.017461 
L 387.460684 46.102522 
L 387.594641 52.608076 
L 387.643239 51.251104 
L 387.65538 51.256882 
L 387.667516 51.147842 
L 387.679649 51.169398 
L 387.691778 51.077575 
L 387.740256 55.1141 
L 387.849113 54.898055 
L 387.885332 54.497464 
L 388.029872 51.732573 
L 388.149917 53.249295 
L 388.08994 51.643603 
L 388.185859 52.850002 
L 388.209801 52.852246 
L 388.257643 52.26509 
L 388.329297 52.435178 
L 388.353152 53.260656 
L 388.400819 52.347538 
L 388.412727 52.411649 
L 388.543474 50.639871 
L 388.5672 50.725708 
L 388.579057 50.724186 
L 388.614607 50.928174 
L 388.85079 48.2298 
L 388.862561 48.576303 
L 388.921368 47.255072 
L 388.944865 47.457535 
L 388.956609 47.380821 
L 389.097258 46.129726 
L 389.132342 48.109597 
L 389.144029 48.034482 
L 389.202415 54.401427 
L 389.260713 52.193598 
L 389.400277 50.672445 
L 389.342186 52.50398 
L 389.411885 50.787532 
L 389.458282 51.368759 
L 389.493044 50.02188 
L 389.597145 48.298606 
L 389.65486 48.571105 
L 389.666393 48.609418 
L 389.689448 54.845182 
L 389.781534 53.843177 
L 389.976501 55.923097 
L 389.838978 53.74962 
L 389.999374 55.920358 
L 390.079327 53.694766 
L 390.147728 53.816538 
L 390.181884 53.971972 
L 390.193263 53.739633 
L 390.204638 54.650531 
L 390.295523 54.000733 
L 390.306868 53.46715 
L 390.352218 54.769493 
L 390.408832 53.89023 
L 390.442762 53.722669 
L 390.454065 54.119336 
L 390.510532 52.580295 
L 390.533096 52.058009 
L 390.578185 52.193193 
L 390.656967 53.014619 
L 390.690682 52.622733 
L 390.713142 52.924391 
L 390.937043 51.257349 
L 390.98167 52.547918 
L 391.037382 51.610607 
L 391.137465 50.80533 
L 391.14857 50.98795 
L 391.159671 51.530967 
L 391.226214 49.718194 
L 391.303704 50.638549 
L 391.336868 49.911445 
L 391.392078 49.224126 
L 391.425166 49.970026 
L 391.44721 49.635472 
L 391.458227 50.019126 
L 391.53526 49.085608 
L 391.830979 44.828717 
L 391.590192 49.102069 
L 391.896392 45.345076 
L 391.918172 45.506457 
L 391.929058 45.426924 
L 392.081139 42.7919 
L 392.13531 43.01411 
L 392.146136 42.951321 
L 392.167778 43.165569 
L 392.275808 42.063452 
L 392.297378 42.066519 
L 392.318937 42.255921 
L 392.362018 41.421577 
L 392.415803 41.145757 
L 392.437297 41.715653 
L 392.448039 41.655279 
L 392.458778 41.66505 
L 392.469515 41.593287 
L 392.651585 40.105045 
L 392.523152 41.6288 
L 392.662268 40.186193 
L 392.672949 40.517611 
L 392.747633 40.109842 
L 392.758291 40.188739 
L 392.779597 39.666077 
L 392.811535 40.230872 
L 392.822175 40.171368 
L 392.917807 45.228449 
L 392.939027 44.648447 
L 392.960236 44.762131 
L 392.981433 44.539652 
L 392.992027 43.503369 
L 393.087245 44.004213 
L 393.129491 47.222397 
L 393.203311 45.558962 
L 393.245431 44.377558 
L 393.276992 45.706242 
L 393.392497 49.697211 
L 393.40298 49.61231 
L 393.413461 50.022274 
L 393.423939 49.804337 
L 393.507663 51.255766 
L 393.549457 50.844285 
L 393.591207 49.999587 
L 393.601638 54.898212 
L 393.705791 54.587208 
L 393.716192 54.678654 
L 393.726589 54.579615 
L 393.736984 53.848616 
L 393.788915 56.263298 
L 393.809669 55.984199 
L 393.851143 56.383166 
L 393.871863 56.131935 
L 393.892573 55.047535 
L 393.985631 55.514163 
L 394.068164 57.162109 
L 394.109365 56.398687 
L 394.263485 52.807985 
L 394.273738 53.412373 
L 394.345436 51.389292 
L 394.406786 50.797399 
L 394.417002 51.019773 
L 394.427215 52.118533 
L 394.508824 50.781043 
L 394.519013 50.830569 
L 394.569919 49.708641 
L 394.641077 50.295943 
L 394.772885 48.906771 
L 394.793124 49.015333 
L 394.80324 48.879945 
L 394.813353 49.564116 
L 394.843676 49.129409 
L 394.904252 48.627841 
L 394.974805 51.094658 
L 395.035179 50.673768 
L 394.99494 51.112592 
L 395.085419 50.858948 
L 395.115533 50.841237 
L 395.135596 51.155642 
L 395.145623 52.584309 
L 395.245757 52.523763 
L 395.315699 51.316726 
L 395.37555 51.4904 
L 395.39548 51.619457 
L 395.4154 51.413652 
L 395.425357 51.422613 
L 395.742625 59.742958 
L 395.445261 51.079303 
L 395.752499 59.621877 
L 395.880627 57.83581 
L 396.008337 56.148948 
L 396.027948 57.154838 
L 396.204006 55.734521 
L 396.25277 58.209321 
L 396.320939 57.102309 
L 396.330668 57.179401 
L 396.350118 56.602841 
L 396.369559 56.828584 
L 396.602097 54.411481 
L 396.611756 54.52029 
L 396.660016 53.972799 
L 396.756359 53.697704 
L 396.698581 54.814804 
L 396.775599 53.894638 
L 396.794829 53.597783 
L 396.833262 52.611753 
L 396.919599 53.09271 
L 397.03442 55.175153 
L 397.043973 55.00106 
L 397.120315 55.261048 
L 397.15843 54.141983 
L 397.186992 53.562051 
L 397.196509 54.553368 
L 397.310522 55.361705 
L 397.225043 54.470047 
L 397.320008 55.232733 
L 397.367404 53.934933 
L 397.443119 54.709485 
L 397.499809 54.141983 
L 397.584692 57.353644 
L 397.650584 56.535485 
L 397.706975 57.010937 
L 397.735141 57.446857 
L 397.763286 56.165735 
L 397.931732 54.346271 
L 397.950404 54.707466 
L 397.969067 54.524665 
L 398.071553 58.454373 
L 398.108755 58.253657 
L 398.210877 57.066275 
L 398.266468 57.615555 
L 398.275726 57.71076 
L 398.303485 61.457124 
L 398.405102 61.411644 
L 398.414327 61.207057 
L 398.42355 63.427245 
L 398.43277 63.334994 
L 398.469631 63.829457 
L 398.497253 64.59315 
L 398.524856 62.874937 
L 398.55244 62.986852 
L 398.580004 63.258897 
L 398.589188 63.195649 
L 398.598369 65.623981 
L 398.699225 63.949631 
L 398.808954 64.808404 
L 398.836339 64.582178 
L 398.900161 65.083805 
L 398.927482 64.511073 
L 398.945685 64.581625 
L 399.036575 62.613856 
L 399.045652 64.463949 
L 399.054728 65.14571 
L 399.145365 64.073361 
L 399.163467 63.207457 
L 399.271906 60.423259 
L 399.298969 60.642251 
L 399.389044 59.278042 
L 399.39804 59.408681 
L 399.407034 57.8824 
L 399.460955 62.931879 
L 399.487887 62.677235 
L 399.604382 65.144041 
L 399.666967 66.01924 
L 399.720531 65.692258 
L 399.747286 65.617503 
L 399.809643 65.302082 
L 399.863013 66.714351 
L 400.049238 64.972275 
L 400.058084 65.930702 
L 400.111117 67.615444 
L 400.155256 65.372113 
L 400.181716 64.206791 
L 400.216968 63.707047 
L 400.260988 64.772949 
L 400.278582 64.611999 
L 400.296169 64.365495 
L 400.313747 64.885146 
L 400.419053 65.911092 
L 400.37521 64.871677 
L 400.436577 65.900496 
L 400.454092 65.520469 
L 400.462847 68.426488 
L 400.4716 68.896699 
L 400.506592 67.524598 
L 400.559022 68.035785 
L 400.576483 67.563797 
L 400.593936 69.223528 
L 400.663672 67.507473 
L 400.681086 67.803805 
L 400.724588 67.94511 
L 400.820124 65.605187 
L 400.863472 67.554616 
L 400.950025 66.862605 
L 401.088113 64.14256 
L 401.096727 64.1509 
L 401.234301 62.61503 
L 401.131166 64.26913 
L 401.242883 62.764724 
L 401.260042 64.160006 
L 401.345724 62.902514 
L 401.439759 61.431717 
L 401.456832 62.675482 
L 401.525049 63.874345 
L 401.5506 62.437083 
L 401.601652 62.305166 
L 401.610155 62.587688 
L 401.618655 62.513407 
L 401.661129 66.110594 
L 401.737467 63.950277 
L 401.847471 63.298878 
L 401.881256 63.680688 
L 401.940311 64.572706 
L 401.999276 64.097597 
L 402.007692 64.122096 
L 402.049747 65.87002 
L 402.116941 65.038777 
L 402.259347 63.529688 
L 402.133722 65.449568 
L 402.301133 64.037551 
L 402.309485 65.160181 
L 402.401237 63.326061 
L 402.409568 63.614546 
L 402.476148 62.186351 
L 402.567512 60.735844 
L 402.617257 61.356835 
L 402.625541 62.221117 
L 402.700025 60.775312 
L 402.724821 61.59864 
L 402.873271 57.773975 
L 402.897958 57.831464 
L 402.996551 61.809566 
L 403.01296 61.302101 
L 403.021161 61.094948 
L 403.05395 61.848301 
L 403.103081 61.506159 
L 403.111264 61.64668 
L 403.152151 60.813522 
L 403.160324 61.034625 
L 403.184831 60.403648 
L 403.217483 62.749531 
L 403.241954 62.273218 
L 403.250108 62.21903 
L 403.26641 62.726189 
L 403.37221 66.266905 
L 403.388461 65.818365 
L 403.542516 63.236082 
L 403.550607 63.185122 
L 403.582956 63.636594 
L 403.615278 63.429967 
L 403.623355 64.788043 
L 403.728196 64.112209 
L 403.744301 63.892103 
L 403.784533 62.809026 
L 403.800615 64.130709 
L 403.81669 63.864958 
L 403.921016 67.262508 
L 403.945052 66.978318 
L 403.95306 67.006947 
L 403.969073 66.787134 
L 404.128839 64.88998 
L 404.168679 65.215622 
L 404.216433 68.968215 
L 404.280015 67.88452 
L 404.367272 68.925744 
L 404.383117 67.999832 
L 404.438521 66.426477 
L 404.493846 67.535825 
L 404.501744 67.832099 
L 404.55698 66.810923 
L 404.564865 66.985154 
L 404.682944 64.014567 
L 404.698661 64.217947 
L 404.714372 64.963709 
L 404.722225 65.122321 
L 404.745774 64.134005 
L 404.769309 64.145228 
L 404.886775 61.289062 
L 404.925852 61.511472 
L 404.933663 63.795223 
L 405.035061 62.784085 
L 405.07399 63.180063 
L 405.081771 62.355194 
L 405.128426 61.127025 
L 405.143966 62.965836 
L 405.190547 61.661965 
L 405.229322 61.974012 
L 405.268059 61.320726 
L 405.329959 60.836904 
L 405.345419 61.808423 
L 405.368597 61.469204 
L 405.37632 61.621516 
L 405.407196 60.369995 
L 405.538151 58.050294 
L 405.568901 57.898202 
L 405.645669 56.983113 
L 405.61498 57.97305 
L 405.691658 57.286145 
L 405.699317 57.290478 
L 405.706976 57.64028 
L 405.783474 56.619689 
L 405.791116 56.702163 
L 405.806394 56.573539 
L 405.814032 56.74003 
L 405.928411 60.943106 
L 405.943636 61.23657 
L 405.958856 60.849021 
L 405.966463 61.219155 
L 405.974069 64.607045 
L 406.072814 61.844394 
L 406.25446 59.024455 
L 406.26201 60.530776 
L 406.360032 58.551679 
L 406.480339 56.755372 
L 406.487846 56.837309 
L 406.510359 61.177422 
L 406.630206 59.843882 
L 406.697459 60.076372 
L 406.652636 58.842068 
L 406.712389 59.606002 
L 406.727312 58.812414 
L 406.742231 58.858633 
L 406.757143 62.940845 
L 406.853936 62.293206 
L 406.905956 61.10922 
L 406.92823 61.675731 
L 407.032005 65.796619 
L 407.046807 65.136231 
L 407.165027 66.419366 
L 407.17978 66.279486 
L 407.187154 65.799504 
L 407.194527 67.968758 
L 407.275536 67.067943 
L 407.282892 66.985154 
L 407.290246 68.590035 
L 407.393068 67.620613 
L 407.517562 66.293582 
L 407.415067 67.663041 
L 407.561407 66.891761 
L 407.568709 67.221112 
L 407.627082 66.537927 
L 407.670804 66.848935 
L 407.685367 66.660537 
L 407.692647 66.774978 
L 407.772634 71.786565 
L 407.808937 71.434814 
L 407.837956 71.333337 
L 407.859706 76.139998 
L 408.011618 74.280027 
L 408.040487 74.463468 
L 408.069335 73.657469 
L 408.090957 73.737048 
L 408.270677 70.231868 
L 408.285019 70.779892 
L 408.435295 76.591166 
L 408.456716 76.351148 
L 408.520908 74.026726 
L 408.542282 78.749457 
L 408.549405 78.582314 
L 408.57788 79.548255 
L 408.648979 78.882292 
L 408.748301 77.405532 
L 408.776633 77.620793 
L 408.783712 77.896071 
L 408.833234 75.724667 
L 408.840304 75.739018 
L 408.953242 77.12539 
L 408.96029 76.96573 
L 409.023663 74.667933 
L 409.044765 77.261904 
L 409.07991 76.23067 
L 409.100981 77.976999 
L 409.178147 75.634463 
L 409.185154 75.650388 
L 409.19216 75.648547 
L 409.332023 73.627417 
L 409.56865 81.697512 
L 409.575588 81.527706 
L 409.631048 80.455063 
L 409.637975 85.721601 
L 409.741733 84.05784 
L 409.755547 84.956334 
L 409.858994 86.933902 
L 409.776258 84.750537 
L 409.886534 86.380946 
L 410.003364 83.902439 
L 410.017086 84.108831 
L 410.037659 84.4908 
L 410.071925 83.814166 
L 410.099315 84.459661 
L 410.195033 82.744147 
L 410.208687 82.473948 
L 410.229161 83.474483 
L 410.242804 83.381174 
L 410.249623 83.554461 
L 410.297328 82.079543 
L 410.317755 82.544182 
L 410.42652 79.840256 
L 410.44688 80.492942 
L 410.453664 80.636191 
L 410.467229 80.582977 
L 410.487568 86.564197 
L 410.582342 85.757741 
L 410.710599 83.869943 
L 410.595863 85.904639 
L 410.751014 83.909203 
L 410.764477 86.048831 
L 410.838438 83.353027 
L 410.858585 84.442177 
L 410.865298 84.381955 
L 410.87201 85.090364 
L 410.89214 85.938118 
L 410.952467 83.003178 
L 410.959165 83.205891 
L 411.052807 82.520276 
L 411.066166 83.213896 
L 411.072844 83.372175 
L 411.112887 81.953503 
L 411.119557 82.100973 
L 411.252718 79.625144 
L 411.259364 79.688834 
L 411.266009 80.130556 
L 411.345662 78.262549 
L 411.451614 80.272375 
L 411.458227 80.043897 
L 411.464838 84.106174 
L 411.570469 81.536031 
L 411.656085 82.125714 
L 411.702109 80.805559 
L 411.826758 83.293909 
L 411.73495 80.221791 
L 411.846403 82.741262 
L 411.970595 84.830396 
L 411.885664 82.476649 
L 412.003212 84.244463 
L 412.022769 83.636507 
L 412.068364 85.973424 
L 412.074873 85.499164 
L 412.081382 85.54927 
L 412.126909 85.095386 
L 412.133408 85.221313 
L 412.204832 84.335125 
L 412.1529 85.264977 
L 412.263173 84.45745 
L 412.276126 84.393635 
L 412.289075 84.437604 
L 412.295547 86.076611 
L 412.39251 83.624009 
L 412.47635 81.968201 
L 412.424777 83.989094 
L 412.547152 82.228535 
L 412.585718 84.972371 
L 412.656323 83.00667 
L 412.669146 81.644163 
L 412.726801 84.403996 
L 412.752397 83.125993 
L 412.797152 88.233735 
L 412.880132 87.493791 
L 412.899256 87.325676 
L 412.905629 87.75068 
L 412.912 89.151928 
L 413.001095 85.843778 
L 413.007451 85.8881 
L 413.013806 85.800644 
L 413.058263 86.290182 
L 413.096329 85.968994 
L 413.191333 88.015273 
L 413.197658 87.4546 
L 413.25454 88.81377 
L 413.286106 87.996475 
L 413.355461 91.683078 
L 413.405824 90.844912 
L 413.474968 91.433935 
L 413.456123 90.194385 
L 413.500081 90.616961 
L 413.569059 88.0689 
L 413.612891 89.49366 
L 413.694163 100.7813 
L 413.744093 99.981907 
L 413.800188 99.270777 
L 413.812642 100.832904 
L 413.843762 100.50224 
L 413.849983 100.537941 
L 413.881073 100.248773 
L 413.974194 97.791253 
L 414.023769 98.166639 
L 414.073281 102.434364 
L 414.153605 99.685643 
L 414.165947 99.409242 
L 414.184455 99.634447 
L 414.196788 99.809545 
L 414.326052 96.487043 
L 414.338341 96.030566 
L 414.344484 98.739915 
L 414.369046 97.931236 
L 414.46714 101.462362 
L 414.485505 101.134133 
L 414.491625 100.931232 
L 414.503862 102.98599 
L 414.546661 102.458522 
L 414.552771 102.605161 
L 414.564989 101.928541 
L 414.571097 107.995498 
L 414.674778 106.376363 
L 414.686958 106.093977 
L 414.699134 107.847319 
L 414.741721 107.344568 
L 414.857079 109.207508 
L 414.863142 108.618261 
L 415.056636 102.830386 
L 415.086783 103.107705 
L 415.068698 102.783518 
L 415.09281 102.870342 
L 415.159042 101.158743 
L 415.225163 101.686481 
L 415.273181 100.885514 
L 415.351084 98.11594 
L 415.410905 99.643943 
L 415.458696 98.225154 
L 415.512391 99.157404 
L 415.577918 104.669888 
L 415.649278 102.585984 
L 415.874398 99.281948 
L 415.921627 98.19303 
L 415.892115 99.682465 
L 415.939323 99.306967 
L 415.951116 106.428115 
L 416.051214 105.669346 
L 416.145191 103.169568 
L 416.227237 103.477611 
L 416.262346 102.799951 
L 416.303268 105.485419 
L 416.355819 105.994858 
L 416.33831 104.192757 
L 416.384983 105.067228 
L 416.46071 103.986275 
L 416.472347 108.351137 
L 416.571124 106.631384 
L 416.617521 104.874749 
L 416.675441 105.154366 
L 416.681228 107.129475 
L 416.773708 103.86176 
L 416.785252 105.764755 
L 416.796793 105.563579 
L 416.808331 106.956009 
L 416.819866 106.793191 
L 417.009695 103.972817 
L 417.032643 102.052569 
L 417.124298 102.791381 
L 417.403665 97.692656 
L 417.181473 103.524118 
L 417.48312 99.153604 
L 417.488789 101.095646 
L 417.596347 100.398937 
L 417.630252 99.721067 
L 417.6359 104.028486 
L 417.743056 101.958386 
L 417.782461 103.832061 
L 417.894829 103.157088 
L 417.911656 102.537949 
L 417.917263 102.82512 
L 417.92287 104.294206 
L 417.973294 102.014806 
L 418.023654 102.019891 
L 418.046015 103.484831 
L 418.113023 101.79783 
L 418.135333 102.258965 
L 418.440818 95.441225 
L 418.501631 97.517886 
L 418.5182 98.005216 
L 418.573379 96.885998 
L 418.600939 96.914851 
L 418.694499 94.640348 
L 418.611958 97.104014 
L 418.721974 95.329302 
L 418.826205 117.879849 
L 418.842637 117.525642 
L 418.848113 117.641453 
L 418.875481 116.983312 
L 418.880952 115.361254 
L 418.979305 118.455259 
L 419.115497 113.900606 
L 419.169842 111.701446 
L 419.207838 113.945575 
L 419.229534 112.657877 
L 419.234956 112.938184 
L 419.267473 110.11474 
L 419.305375 110.910617 
L 419.34324 109.472219 
L 419.359457 111.954944 
L 419.39727 111.485754 
L 419.402669 112.011481 
L 419.478175 108.570816 
L 419.58579 105.297216 
L 419.612648 110.615206 
L 419.698468 108.082789 
L 419.800137 105.425489 
L 419.725249 108.221749 
L 419.816166 107.875802 
L 419.821507 107.878165 
L 419.954808 105.257894 
L 419.837527 107.938592 
L 419.970774 106.277256 
L 419.986733 108.106104 
L 420.071739 105.486615 
L 420.082352 104.708324 
L 420.209482 100.49401 
L 420.235916 100.040767 
L 420.325657 102.082176 
L 420.352012 101.280333 
L 420.362549 100.992188 
L 420.367817 104.77212 
L 420.37835 104.648491 
L 420.457257 110.703472 
L 420.452001 104.558235 
L 420.499275 108.133617 
L 420.619829 105.419249 
L 420.640757 106.254009 
L 420.645987 107.085021 
L 420.740013 104.742502 
L 420.766091 104.893604 
L 420.802571 103.06708 
L 420.833813 109.890602 
L 420.917003 108.192556 
L 420.922197 108.369776 
L 420.96372 106.386946 
L 420.97928 106.843055 
L 421.186158 102.196031 
L 420.994834 107.672843 
L 421.211941 102.568411 
L 421.325185 108.354444 
L 421.253158 101.47145 
L 421.340602 107.101396 
L 421.40221 105.378904 
L 421.407339 107.900049 
L 421.438103 107.732394 
L 421.453476 107.596104 
L 421.458598 108.047642 
L 421.473963 107.758921 
L 421.530249 114.630091 
L 421.591559 111.551605 
L 421.596664 111.644342 
L 421.617077 110.382001 
L 421.637479 108.993025 
L 421.678252 113.090842 
L 421.718982 111.54468 
L 421.739331 111.251633 
L 421.744417 113.924382 
L 421.754586 113.755518 
L 421.851064 119.238597 
L 421.886548 117.073992 
L 421.947304 114.56668 
L 421.957421 118.444407 
L 421.992809 117.261572 
L 422.023117 116.665737 
L 422.159211 114.541889 
L 422.169273 114.491808 
L 422.174304 114.6825 
L 422.18939 113.952826 
L 422.254699 116.035781 
L 422.274772 115.822721 
L 422.304862 114.356967 
L 422.309875 114.249163 
L 422.424992 120.425015 
L 422.42999 120.409068 
L 422.449973 125.761567 
L 422.549738 123.255524 
L 422.584595 123.990099 
L 422.629367 120.721406 
L 422.679053 117.885022 
L 422.708834 124.409538 
L 422.713796 124.149627 
L 422.802993 130.596925 
L 422.812892 130.414094 
L 422.827734 137.334602 
L 422.926543 136.062929 
L 423.089034 131.911861 
L 423.093948 134.149324 
L 423.196989 130.561084 
L 423.201889 130.493879 
L 423.206788 131.934183 
L 423.265532 130.941591 
L 423.329073 139.806861 
L 423.294871 130.161171 
L 423.421755 133.855501 
L 423.436369 133.641307 
L 423.446108 134.006072 
L 423.450977 133.995423 
L 423.460713 134.273381 
L 423.499633 130.834928 
L 423.523938 131.191975 
L 423.548228 130.290605 
L 423.669454 144.078075 
L 423.877089 139.652151 
L 423.746842 144.103268 
L 423.896348 140.586208 
L 423.901161 140.580029 
L 424.016503 136.714331 
L 424.117149 146.991844 
L 424.13629 146.931921 
L 424.374772 139.132677 
L 424.379527 139.35039 
L 424.384282 140.478688 
L 424.474504 138.013564 
L 424.48873 139.633424 
L 424.592901 137.40583 
L 424.607085 138.464332 
L 424.611812 138.523339 
L 424.635437 137.454117 
L 424.701512 135.43546 
L 424.649606 137.734193 
L 424.72037 136.695501 
L 424.823928 145.224938 
L 424.833329 144.8899 
L 424.838029 145.406493 
L 424.880299 143.677366 
L 424.941276 145.106921 
L 424.960019 144.916014 
L 424.964704 144.916673 
L 425.044253 153.305584 
L 425.076961 150.77041 
L 425.081632 150.772716 
L 425.202868 167.557738 
L 425.314446 165.243356 
L 425.267994 168.740752 
L 425.319088 165.364776 
L 425.328371 179.994008 
L 425.430336 172.82811 
L 425.564341 168.198367 
L 425.508946 173.607023 
L 425.568954 168.551633 
L 425.605836 185.05047 
L 425.684095 182.239747 
L 425.716274 182.364361 
L 425.743835 181.116159 
L 425.835565 174.609568 
L 425.840146 175.624343 
L 425.885925 193.413148 
L 425.954494 189.190344 
L 425.959061 189.2485 
L 425.986452 188.259833 
L 426.022943 186.005891 
L 426.0594 189.683483 
L 426.082169 189.309886 
L 426.100374 192.803383 
L 426.150395 189.095148 
L 426.24118 183.774228 
L 426.263843 185.611383 
L 426.286493 186.651129 
L 426.277435 184.996253 
L 426.30913 185.065379 
L 426.349844 183.22856 
L 426.372444 185.843119 
L 426.408578 183.93565 
L 426.413093 189.559786 
L 426.51678 181.134865 
L 426.77704 195.620067 
L 426.561776 179.851093 
L 426.817271 191.621935 
L 426.861923 186.675308 
L 426.897609 191.977244 
L 426.933262 190.226419 
L 426.937716 190.220167 
L 427.044468 193.628612 
L 426.973332 187.582501 
L 427.053351 191.649485 
L 427.168646 185.982564 
L 427.177501 186.569403 
L 427.208477 187.224383 
L 427.270355 185.295875 
L 427.305671 190.052236 
L 427.283603 184.6286 
L 427.385015 186.080453 
L 427.530062 177.138971 
L 427.713894 169.586804 
L 427.731357 170.027623 
L 427.844677 176.404997 
L 427.87513 174.430639 
L 427.883827 173.754769 
L 427.90556 176.766723 
L 427.979362 175.133009 
L 428.022711 173.140053 
L 428.014045 175.932547 
L 428.027043 173.238513 
L 428.135192 188.751556 
L 428.139512 188.395239 
L 428.14815 187.895207 
L 428.217187 185.764813 
L 428.260273 187.226358 
L 428.264579 187.098112 
L 428.273189 189.702209 
L 428.286102 189.605907 
L 428.29901 190.574084 
L 428.316214 188.7136 
L 428.329112 188.376535 
L 428.393539 193.186404 
L 428.449291 192.102408 
L 428.517799 199.635959 
L 428.611803 197.048031 
L 428.650194 196.291748 
L 428.680028 198.052615 
L 428.688548 198.023804 
L 428.705582 198.628011 
L 428.731119 196.110547 
L 428.765143 196.693796 
L 428.769393 196.206208 
L 428.799137 203.812976 
L 428.862796 197.131613 
L 428.867037 199.105754 
L 428.917884 191.649485 
L 428.960207 192.149947 
L 429.120619 184.143319 
L 429.002485 192.2405 
L 429.141677 189.524535 
L 429.250996 196.297236 
L 429.162723 188.060105 
L 429.284571 193.09749 
L 429.305541 192.295544 
L 429.33488 196.392384 
L 429.364198 195.769731 
L 429.410223 198.539348 
L 429.468723 194.289991 
L 429.82204 174.269497 
L 429.850995 177.088294 
L 429.921225 181.485177 
L 429.966602 178.108772 
L 430.024278 178.98344 
L 429.99133 177.499282 
L 430.036626 178.451198 
L 430.102416 172.515295 
L 430.15579 172.81222 
L 430.159893 173.610185 
L 430.250043 169.97514 
L 430.356317 162.83865 
L 430.368561 167.864317 
L 430.539575 161.413165 
L 430.555823 162.331837 
L 430.563945 167.091804 
L 430.64912 163.472352 
L 430.673422 160.394846 
L 430.73411 164.252013 
L 430.758359 163.640981 
L 430.927684 152.985757 
L 431.052194 146.126906 
L 431.060213 146.335195 
L 431.076247 144.060704 
L 431.120306 144.345192 
L 431.152318 143.420743 
L 431.184304 145.672245 
L 431.236225 143.540295 
L 431.343842 141.599123 
L 431.355781 142.894916 
L 431.399527 144.358266 
L 431.447194 140.088297 
L 431.451164 141.701394 
L 431.554234 137.332809 
L 431.562151 137.354185 
L 431.601714 142.29825 
L 431.66493 137.119516 
L 431.672825 137.58136 
L 431.696501 136.12065 
L 431.704389 138.122189 
L 431.743808 137.305362 
L 431.751687 139.277786 
L 431.838252 135.630425 
L 431.846112 135.690072 
L 431.940311 131.337521 
L 431.955988 131.509054 
" style="fill:none;stroke:#1f77b4;stroke-linecap:square;stroke-width:1.5;"/>
   </g>
   <g id="patch_3">
    <path d="M 53.031742 297.448 
L 53.031742 10.8 
" style="fill:none;stroke:#000000;stroke-linecap:square;stroke-linejoin:miter;stroke-width:0.8;"/>
   </g>
   <g id="patch_4">
    <path d="M 450 297.448 
L 450 10.8 
" style="fill:none;stroke:#000000;stroke-linecap:square;stroke-linejoin:miter;stroke-width:0.8;"/>
   </g>
   <g id="patch_5">
    <path d="M 53.031742 297.448 
L 450 297.448 
" style="fill:none;stroke:#000000;stroke-linecap:square;stroke-linejoin:miter;stroke-width:0.8;"/>
   </g>
   <g id="patch_6">
    <path d="M 53.031742 10.8 
L 450 10.8 
" style="fill:none;stroke:#000000;stroke-linecap:square;stroke-linejoin:miter;stroke-width:0.8;"/>
   </g>
  </g>
 </g>
 <defs>
  <clipPath id="paafb0a42a7">
   <rect height="286.648" width="396.968258" x="53.031742" y="10.8"/>
  </clipPath>
 </defs>
</svg>
