<?xml version="1.0" encoding="utf-8" standalone="no"?>
<!DOCTYPE svg PUBLIC "-//W3C//DTD SVG 1.1//EN"
  "http://www.w3.org/Graphics/SVG/1.1/DTD/svg11.dtd">
<!-- Created with matplotlib (https://matplotlib.org/) -->
<svg height="345.6pt" version="1.1" viewBox="0 0 460.8 345.6" width="460.8pt" xmlns="http://www.w3.org/2000/svg" xmlns:xlink="http://www.w3.org/1999/xlink">
 <metadata>
  <rdf:RDF xmlns:cc="http://creativecommons.org/ns#" xmlns:dc="http://purl.org/dc/elements/1.1/" xmlns:rdf="http://www.w3.org/1999/02/22-rdf-syntax-ns#">
   <cc:Work>
    <dc:type rdf:resource="http://purl.org/dc/dcmitype/StillImage"/>
    <dc:date>2022-04-13T13:46:24.515991</dc:date>
    <dc:format>image/svg+xml</dc:format>
    <dc:creator>
     <cc:Agent>
      <dc:title>Matplotlib v3.3.4, https://matplotlib.org/</dc:title>
     </cc:Agent>
    </dc:creator>
   </cc:Work>
  </rdf:RDF>
 </metadata>
 <defs>
  <style type="text/css">*{stroke-linecap:butt;stroke-linejoin:round;}</style>
 </defs>
 <g id="figure_1">
  <g id="patch_1">
   <path d="M 0 345.6 
L 460.8 345.6 
L 460.8 0 
L 0 0 
z
" style="fill:#ffffff;"/>
  </g>
  <g id="axes_1">
   <g id="patch_2">
    <path d="M 35.832685 297.448 
L 450 297.448 
L 450 10.8 
L 35.832685 10.8 
z
" style="fill:#ffffff;"/>
   </g>
   <g id="matplotlib.axis_1">
    <g id="xtick_1">
     <g id="line2d_1">
      <defs>
       <path d="M 0 0 
L 0 3.5 
" id="mfc91e997fb" style="stroke:#000000;stroke-width:0.8;"/>
      </defs>
      <g>
       <use style="stroke:#000000;stroke-width:0.8;" x="54.658472" xlink:href="#mfc91e997fb" y="297.448"/>
      </g>
     </g>
     <g id="text_1">
      <!-- $\mathdefault{10^{0}}$ -->
      <g transform="translate(45.858472 312.046437)scale(0.1 -0.1)">
       <defs>
        <path d="M 12.40625 8.296875 
L 28.515625 8.296875 
L 28.515625 63.921875 
L 10.984375 60.40625 
L 10.984375 69.390625 
L 28.421875 72.90625 
L 38.28125 72.90625 
L 38.28125 8.296875 
L 54.390625 8.296875 
L 54.390625 0 
L 12.40625 0 
z
" id="DejaVuSans-49"/>
        <path d="M 31.78125 66.40625 
Q 24.171875 66.40625 20.328125 58.90625 
Q 16.5 51.421875 16.5 36.375 
Q 16.5 21.390625 20.328125 13.890625 
Q 24.171875 6.390625 31.78125 6.390625 
Q 39.453125 6.390625 43.28125 13.890625 
Q 47.125 21.390625 47.125 36.375 
Q 47.125 51.421875 43.28125 58.90625 
Q 39.453125 66.40625 31.78125 66.40625 
z
M 31.78125 74.21875 
Q 44.046875 74.21875 50.515625 64.515625 
Q 56.984375 54.828125 56.984375 36.375 
Q 56.984375 17.96875 50.515625 8.265625 
Q 44.046875 -1.421875 31.78125 -1.421875 
Q 19.53125 -1.421875 13.0625 8.265625 
Q 6.59375 17.96875 6.59375 36.375 
Q 6.59375 54.828125 13.0625 64.515625 
Q 19.53125 74.21875 31.78125 74.21875 
z
" id="DejaVuSans-48"/>
       </defs>
       <use transform="translate(0 0.765625)" xlink:href="#DejaVuSans-49"/>
       <use transform="translate(63.623047 0.765625)" xlink:href="#DejaVuSans-48"/>
       <use transform="translate(128.203125 39.046875)scale(0.7)" xlink:href="#DejaVuSans-48"/>
      </g>
     </g>
    </g>
    <g id="xtick_2">
     <g id="line2d_2">
      <g>
       <use style="stroke:#000000;stroke-width:0.8;" x="155.981239" xlink:href="#mfc91e997fb" y="297.448"/>
      </g>
     </g>
     <g id="text_2">
      <!-- $\mathdefault{10^{1}}$ -->
      <g transform="translate(147.181239 312.046437)scale(0.1 -0.1)">
       <use transform="translate(0 0.684375)" xlink:href="#DejaVuSans-49"/>
       <use transform="translate(63.623047 0.684375)" xlink:href="#DejaVuSans-48"/>
       <use transform="translate(128.203125 38.965625)scale(0.7)" xlink:href="#DejaVuSans-49"/>
      </g>
     </g>
    </g>
    <g id="xtick_3">
     <g id="line2d_3">
      <g>
       <use style="stroke:#000000;stroke-width:0.8;" x="257.304006" xlink:href="#mfc91e997fb" y="297.448"/>
      </g>
     </g>
     <g id="text_3">
      <!-- $\mathdefault{10^{2}}$ -->
      <g transform="translate(248.504006 312.046437)scale(0.1 -0.1)">
       <defs>
        <path d="M 19.1875 8.296875 
L 53.609375 8.296875 
L 53.609375 0 
L 7.328125 0 
L 7.328125 8.296875 
Q 12.9375 14.109375 22.625 23.890625 
Q 32.328125 33.6875 34.8125 36.53125 
Q 39.546875 41.84375 41.421875 45.53125 
Q 43.3125 49.21875 43.3125 52.78125 
Q 43.3125 58.59375 39.234375 62.25 
Q 35.15625 65.921875 28.609375 65.921875 
Q 23.96875 65.921875 18.8125 64.3125 
Q 13.671875 62.703125 7.8125 59.421875 
L 7.8125 69.390625 
Q 13.765625 71.78125 18.9375 73 
Q 24.125 74.21875 28.421875 74.21875 
Q 39.75 74.21875 46.484375 68.546875 
Q 53.21875 62.890625 53.21875 53.421875 
Q 53.21875 48.921875 51.53125 44.890625 
Q 49.859375 40.875 45.40625 35.40625 
Q 44.1875 33.984375 37.640625 27.21875 
Q 31.109375 20.453125 19.1875 8.296875 
z
" id="DejaVuSans-50"/>
       </defs>
       <use transform="translate(0 0.765625)" xlink:href="#DejaVuSans-49"/>
       <use transform="translate(63.623047 0.765625)" xlink:href="#DejaVuSans-48"/>
       <use transform="translate(128.203125 39.046875)scale(0.7)" xlink:href="#DejaVuSans-50"/>
      </g>
     </g>
    </g>
    <g id="xtick_4">
     <g id="line2d_4">
      <g>
       <use style="stroke:#000000;stroke-width:0.8;" x="358.626773" xlink:href="#mfc91e997fb" y="297.448"/>
      </g>
     </g>
     <g id="text_4">
      <!-- $\mathdefault{10^{3}}$ -->
      <g transform="translate(349.826773 312.046437)scale(0.1 -0.1)">
       <defs>
        <path d="M 40.578125 39.3125 
Q 47.65625 37.796875 51.625 33 
Q 55.609375 28.21875 55.609375 21.1875 
Q 55.609375 10.40625 48.1875 4.484375 
Q 40.765625 -1.421875 27.09375 -1.421875 
Q 22.515625 -1.421875 17.65625 -0.515625 
Q 12.796875 0.390625 7.625 2.203125 
L 7.625 11.71875 
Q 11.71875 9.328125 16.59375 8.109375 
Q 21.484375 6.890625 26.8125 6.890625 
Q 36.078125 6.890625 40.9375 10.546875 
Q 45.796875 14.203125 45.796875 21.1875 
Q 45.796875 27.640625 41.28125 31.265625 
Q 36.765625 34.90625 28.71875 34.90625 
L 20.21875 34.90625 
L 20.21875 43.015625 
L 29.109375 43.015625 
Q 36.375 43.015625 40.234375 45.921875 
Q 44.09375 48.828125 44.09375 54.296875 
Q 44.09375 59.90625 40.109375 62.90625 
Q 36.140625 65.921875 28.71875 65.921875 
Q 24.65625 65.921875 20.015625 65.03125 
Q 15.375 64.15625 9.8125 62.3125 
L 9.8125 71.09375 
Q 15.4375 72.65625 20.34375 73.4375 
Q 25.25 74.21875 29.59375 74.21875 
Q 40.828125 74.21875 47.359375 69.109375 
Q 53.90625 64.015625 53.90625 55.328125 
Q 53.90625 49.265625 50.4375 45.09375 
Q 46.96875 40.921875 40.578125 39.3125 
z
" id="DejaVuSans-51"/>
       </defs>
       <use transform="translate(0 0.765625)" xlink:href="#DejaVuSans-49"/>
       <use transform="translate(63.623047 0.765625)" xlink:href="#DejaVuSans-48"/>
       <use transform="translate(128.203125 39.046875)scale(0.7)" xlink:href="#DejaVuSans-51"/>
      </g>
     </g>
    </g>
    <g id="xtick_5">
     <g id="line2d_5">
      <defs>
       <path d="M 0 0 
L 0 2 
" id="m3049bdf1c5" style="stroke:#000000;stroke-width:0.6;"/>
      </defs>
      <g>
       <use style="stroke:#000000;stroke-width:0.6;" x="38.963377" xlink:href="#m3049bdf1c5" y="297.448"/>
      </g>
     </g>
    </g>
    <g id="xtick_6">
     <g id="line2d_6">
      <g>
       <use style="stroke:#000000;stroke-width:0.6;" x="44.839281" xlink:href="#m3049bdf1c5" y="297.448"/>
      </g>
     </g>
    </g>
    <g id="xtick_7">
     <g id="line2d_7">
      <g>
       <use style="stroke:#000000;stroke-width:0.6;" x="50.022196" xlink:href="#m3049bdf1c5" y="297.448"/>
      </g>
     </g>
    </g>
    <g id="xtick_8">
     <g id="line2d_8">
      <g>
       <use style="stroke:#000000;stroke-width:0.6;" x="85.159664" xlink:href="#m3049bdf1c5" y="297.448"/>
      </g>
     </g>
    </g>
    <g id="xtick_9">
     <g id="line2d_9">
      <g>
       <use style="stroke:#000000;stroke-width:0.6;" x="103.001718" xlink:href="#m3049bdf1c5" y="297.448"/>
      </g>
     </g>
    </g>
    <g id="xtick_10">
     <g id="line2d_10">
      <g>
       <use style="stroke:#000000;stroke-width:0.6;" x="115.660856" xlink:href="#m3049bdf1c5" y="297.448"/>
      </g>
     </g>
    </g>
    <g id="xtick_11">
     <g id="line2d_11">
      <g>
       <use style="stroke:#000000;stroke-width:0.6;" x="125.480047" xlink:href="#m3049bdf1c5" y="297.448"/>
      </g>
     </g>
    </g>
    <g id="xtick_12">
     <g id="line2d_12">
      <g>
       <use style="stroke:#000000;stroke-width:0.6;" x="133.50291" xlink:href="#m3049bdf1c5" y="297.448"/>
      </g>
     </g>
    </g>
    <g id="xtick_13">
     <g id="line2d_13">
      <g>
       <use style="stroke:#000000;stroke-width:0.6;" x="140.286144" xlink:href="#m3049bdf1c5" y="297.448"/>
      </g>
     </g>
    </g>
    <g id="xtick_14">
     <g id="line2d_14">
      <g>
       <use style="stroke:#000000;stroke-width:0.6;" x="146.162048" xlink:href="#m3049bdf1c5" y="297.448"/>
      </g>
     </g>
    </g>
    <g id="xtick_15">
     <g id="line2d_15">
      <g>
       <use style="stroke:#000000;stroke-width:0.6;" x="151.344963" xlink:href="#m3049bdf1c5" y="297.448"/>
      </g>
     </g>
    </g>
    <g id="xtick_16">
     <g id="line2d_16">
      <g>
       <use style="stroke:#000000;stroke-width:0.6;" x="186.482431" xlink:href="#m3049bdf1c5" y="297.448"/>
      </g>
     </g>
    </g>
    <g id="xtick_17">
     <g id="line2d_17">
      <g>
       <use style="stroke:#000000;stroke-width:0.6;" x="204.324485" xlink:href="#m3049bdf1c5" y="297.448"/>
      </g>
     </g>
    </g>
    <g id="xtick_18">
     <g id="line2d_18">
      <g>
       <use style="stroke:#000000;stroke-width:0.6;" x="216.983623" xlink:href="#m3049bdf1c5" y="297.448"/>
      </g>
     </g>
    </g>
    <g id="xtick_19">
     <g id="line2d_19">
      <g>
       <use style="stroke:#000000;stroke-width:0.6;" x="226.802814" xlink:href="#m3049bdf1c5" y="297.448"/>
      </g>
     </g>
    </g>
    <g id="xtick_20">
     <g id="line2d_20">
      <g>
       <use style="stroke:#000000;stroke-width:0.6;" x="234.825677" xlink:href="#m3049bdf1c5" y="297.448"/>
      </g>
     </g>
    </g>
    <g id="xtick_21">
     <g id="line2d_21">
      <g>
       <use style="stroke:#000000;stroke-width:0.6;" x="241.608911" xlink:href="#m3049bdf1c5" y="297.448"/>
      </g>
     </g>
    </g>
    <g id="xtick_22">
     <g id="line2d_22">
      <g>
       <use style="stroke:#000000;stroke-width:0.6;" x="247.484815" xlink:href="#m3049bdf1c5" y="297.448"/>
      </g>
     </g>
    </g>
    <g id="xtick_23">
     <g id="line2d_23">
      <g>
       <use style="stroke:#000000;stroke-width:0.6;" x="252.66773" xlink:href="#m3049bdf1c5" y="297.448"/>
      </g>
     </g>
    </g>
    <g id="xtick_24">
     <g id="line2d_24">
      <g>
       <use style="stroke:#000000;stroke-width:0.6;" x="287.805198" xlink:href="#m3049bdf1c5" y="297.448"/>
      </g>
     </g>
    </g>
    <g id="xtick_25">
     <g id="line2d_25">
      <g>
       <use style="stroke:#000000;stroke-width:0.6;" x="305.647252" xlink:href="#m3049bdf1c5" y="297.448"/>
      </g>
     </g>
    </g>
    <g id="xtick_26">
     <g id="line2d_26">
      <g>
       <use style="stroke:#000000;stroke-width:0.6;" x="318.30639" xlink:href="#m3049bdf1c5" y="297.448"/>
      </g>
     </g>
    </g>
    <g id="xtick_27">
     <g id="line2d_27">
      <g>
       <use style="stroke:#000000;stroke-width:0.6;" x="328.125581" xlink:href="#m3049bdf1c5" y="297.448"/>
      </g>
     </g>
    </g>
    <g id="xtick_28">
     <g id="line2d_28">
      <g>
       <use style="stroke:#000000;stroke-width:0.6;" x="336.148444" xlink:href="#m3049bdf1c5" y="297.448"/>
      </g>
     </g>
    </g>
    <g id="xtick_29">
     <g id="line2d_29">
      <g>
       <use style="stroke:#000000;stroke-width:0.6;" x="342.931678" xlink:href="#m3049bdf1c5" y="297.448"/>
      </g>
     </g>
    </g>
    <g id="xtick_30">
     <g id="line2d_30">
      <g>
       <use style="stroke:#000000;stroke-width:0.6;" x="348.807582" xlink:href="#m3049bdf1c5" y="297.448"/>
      </g>
     </g>
    </g>
    <g id="xtick_31">
     <g id="line2d_31">
      <g>
       <use style="stroke:#000000;stroke-width:0.6;" x="353.990497" xlink:href="#m3049bdf1c5" y="297.448"/>
      </g>
     </g>
    </g>
    <g id="xtick_32">
     <g id="line2d_32">
      <g>
       <use style="stroke:#000000;stroke-width:0.6;" x="389.127965" xlink:href="#m3049bdf1c5" y="297.448"/>
      </g>
     </g>
    </g>
    <g id="xtick_33">
     <g id="line2d_33">
      <g>
       <use style="stroke:#000000;stroke-width:0.6;" x="406.970019" xlink:href="#m3049bdf1c5" y="297.448"/>
      </g>
     </g>
    </g>
    <g id="xtick_34">
     <g id="line2d_34">
      <g>
       <use style="stroke:#000000;stroke-width:0.6;" x="419.629157" xlink:href="#m3049bdf1c5" y="297.448"/>
      </g>
     </g>
    </g>
    <g id="xtick_35">
     <g id="line2d_35">
      <g>
       <use style="stroke:#000000;stroke-width:0.6;" x="429.448348" xlink:href="#m3049bdf1c5" y="297.448"/>
      </g>
     </g>
    </g>
    <g id="xtick_36">
     <g id="line2d_36">
      <g>
       <use style="stroke:#000000;stroke-width:0.6;" x="437.471211" xlink:href="#m3049bdf1c5" y="297.448"/>
      </g>
     </g>
    </g>
    <g id="xtick_37">
     <g id="line2d_37">
      <g>
       <use style="stroke:#000000;stroke-width:0.6;" x="444.254445" xlink:href="#m3049bdf1c5" y="297.448"/>
      </g>
     </g>
    </g>
    <g id="text_5">
     <!-- Number of Particles -->
     <g transform="translate(183.92228 327.24425)scale(0.12 -0.12)">
      <defs>
       <path d="M 9.8125 72.90625 
L 23.09375 72.90625 
L 55.421875 11.921875 
L 55.421875 72.90625 
L 64.984375 72.90625 
L 64.984375 0 
L 51.703125 0 
L 19.390625 60.984375 
L 19.390625 0 
L 9.8125 0 
z
" id="DejaVuSans-78"/>
       <path d="M 8.5 21.578125 
L 8.5 54.6875 
L 17.484375 54.6875 
L 17.484375 21.921875 
Q 17.484375 14.15625 20.5 10.265625 
Q 23.53125 6.390625 29.59375 6.390625 
Q 36.859375 6.390625 41.078125 11.03125 
Q 45.3125 15.671875 45.3125 23.6875 
L 45.3125 54.6875 
L 54.296875 54.6875 
L 54.296875 0 
L 45.3125 0 
L 45.3125 8.40625 
Q 42.046875 3.421875 37.71875 1 
Q 33.40625 -1.421875 27.6875 -1.421875 
Q 18.265625 -1.421875 13.375 4.4375 
Q 8.5 10.296875 8.5 21.578125 
z
M 31.109375 56 
z
" id="DejaVuSans-117"/>
       <path d="M 52 44.1875 
Q 55.375 50.25 60.0625 53.125 
Q 64.75 56 71.09375 56 
Q 79.640625 56 84.28125 50.015625 
Q 88.921875 44.046875 88.921875 33.015625 
L 88.921875 0 
L 79.890625 0 
L 79.890625 32.71875 
Q 79.890625 40.578125 77.09375 44.375 
Q 74.3125 48.1875 68.609375 48.1875 
Q 61.625 48.1875 57.5625 43.546875 
Q 53.515625 38.921875 53.515625 30.90625 
L 53.515625 0 
L 44.484375 0 
L 44.484375 32.71875 
Q 44.484375 40.625 41.703125 44.40625 
Q 38.921875 48.1875 33.109375 48.1875 
Q 26.21875 48.1875 22.15625 43.53125 
Q 18.109375 38.875 18.109375 30.90625 
L 18.109375 0 
L 9.078125 0 
L 9.078125 54.6875 
L 18.109375 54.6875 
L 18.109375 46.1875 
Q 21.1875 51.21875 25.484375 53.609375 
Q 29.78125 56 35.6875 56 
Q 41.65625 56 45.828125 52.96875 
Q 50 49.953125 52 44.1875 
z
" id="DejaVuSans-109"/>
       <path d="M 48.6875 27.296875 
Q 48.6875 37.203125 44.609375 42.84375 
Q 40.53125 48.484375 33.40625 48.484375 
Q 26.265625 48.484375 22.1875 42.84375 
Q 18.109375 37.203125 18.109375 27.296875 
Q 18.109375 17.390625 22.1875 11.75 
Q 26.265625 6.109375 33.40625 6.109375 
Q 40.53125 6.109375 44.609375 11.75 
Q 48.6875 17.390625 48.6875 27.296875 
z
M 18.109375 46.390625 
Q 20.953125 51.265625 25.265625 53.625 
Q 29.59375 56 35.59375 56 
Q 45.5625 56 51.78125 48.09375 
Q 58.015625 40.1875 58.015625 27.296875 
Q 58.015625 14.40625 51.78125 6.484375 
Q 45.5625 -1.421875 35.59375 -1.421875 
Q 29.59375 -1.421875 25.265625 0.953125 
Q 20.953125 3.328125 18.109375 8.203125 
L 18.109375 0 
L 9.078125 0 
L 9.078125 75.984375 
L 18.109375 75.984375 
z
" id="DejaVuSans-98"/>
       <path d="M 56.203125 29.59375 
L 56.203125 25.203125 
L 14.890625 25.203125 
Q 15.484375 15.921875 20.484375 11.0625 
Q 25.484375 6.203125 34.421875 6.203125 
Q 39.59375 6.203125 44.453125 7.46875 
Q 49.3125 8.734375 54.109375 11.28125 
L 54.109375 2.78125 
Q 49.265625 0.734375 44.1875 -0.34375 
Q 39.109375 -1.421875 33.890625 -1.421875 
Q 20.796875 -1.421875 13.15625 6.1875 
Q 5.515625 13.8125 5.515625 26.8125 
Q 5.515625 40.234375 12.765625 48.109375 
Q 20.015625 56 32.328125 56 
Q 43.359375 56 49.78125 48.890625 
Q 56.203125 41.796875 56.203125 29.59375 
z
M 47.21875 32.234375 
Q 47.125 39.59375 43.09375 43.984375 
Q 39.0625 48.390625 32.421875 48.390625 
Q 24.90625 48.390625 20.390625 44.140625 
Q 15.875 39.890625 15.1875 32.171875 
z
" id="DejaVuSans-101"/>
       <path d="M 41.109375 46.296875 
Q 39.59375 47.171875 37.8125 47.578125 
Q 36.03125 48 33.890625 48 
Q 26.265625 48 22.1875 43.046875 
Q 18.109375 38.09375 18.109375 28.8125 
L 18.109375 0 
L 9.078125 0 
L 9.078125 54.6875 
L 18.109375 54.6875 
L 18.109375 46.1875 
Q 20.953125 51.171875 25.484375 53.578125 
Q 30.03125 56 36.53125 56 
Q 37.453125 56 38.578125 55.875 
Q 39.703125 55.765625 41.0625 55.515625 
z
" id="DejaVuSans-114"/>
       <path id="DejaVuSans-32"/>
       <path d="M 30.609375 48.390625 
Q 23.390625 48.390625 19.1875 42.75 
Q 14.984375 37.109375 14.984375 27.296875 
Q 14.984375 17.484375 19.15625 11.84375 
Q 23.34375 6.203125 30.609375 6.203125 
Q 37.796875 6.203125 41.984375 11.859375 
Q 46.1875 17.53125 46.1875 27.296875 
Q 46.1875 37.015625 41.984375 42.703125 
Q 37.796875 48.390625 30.609375 48.390625 
z
M 30.609375 56 
Q 42.328125 56 49.015625 48.375 
Q 55.71875 40.765625 55.71875 27.296875 
Q 55.71875 13.875 49.015625 6.21875 
Q 42.328125 -1.421875 30.609375 -1.421875 
Q 18.84375 -1.421875 12.171875 6.21875 
Q 5.515625 13.875 5.515625 27.296875 
Q 5.515625 40.765625 12.171875 48.375 
Q 18.84375 56 30.609375 56 
z
" id="DejaVuSans-111"/>
       <path d="M 37.109375 75.984375 
L 37.109375 68.5 
L 28.515625 68.5 
Q 23.6875 68.5 21.796875 66.546875 
Q 19.921875 64.59375 19.921875 59.515625 
L 19.921875 54.6875 
L 34.71875 54.6875 
L 34.71875 47.703125 
L 19.921875 47.703125 
L 19.921875 0 
L 10.890625 0 
L 10.890625 47.703125 
L 2.296875 47.703125 
L 2.296875 54.6875 
L 10.890625 54.6875 
L 10.890625 58.5 
Q 10.890625 67.625 15.140625 71.796875 
Q 19.390625 75.984375 28.609375 75.984375 
z
" id="DejaVuSans-102"/>
       <path d="M 19.671875 64.796875 
L 19.671875 37.40625 
L 32.078125 37.40625 
Q 38.96875 37.40625 42.71875 40.96875 
Q 46.484375 44.53125 46.484375 51.125 
Q 46.484375 57.671875 42.71875 61.234375 
Q 38.96875 64.796875 32.078125 64.796875 
z
M 9.8125 72.90625 
L 32.078125 72.90625 
Q 44.34375 72.90625 50.609375 67.359375 
Q 56.890625 61.8125 56.890625 51.125 
Q 56.890625 40.328125 50.609375 34.8125 
Q 44.34375 29.296875 32.078125 29.296875 
L 19.671875 29.296875 
L 19.671875 0 
L 9.8125 0 
z
" id="DejaVuSans-80"/>
       <path d="M 34.28125 27.484375 
Q 23.390625 27.484375 19.1875 25 
Q 14.984375 22.515625 14.984375 16.5 
Q 14.984375 11.71875 18.140625 8.90625 
Q 21.296875 6.109375 26.703125 6.109375 
Q 34.1875 6.109375 38.703125 11.40625 
Q 43.21875 16.703125 43.21875 25.484375 
L 43.21875 27.484375 
z
M 52.203125 31.203125 
L 52.203125 0 
L 43.21875 0 
L 43.21875 8.296875 
Q 40.140625 3.328125 35.546875 0.953125 
Q 30.953125 -1.421875 24.3125 -1.421875 
Q 15.921875 -1.421875 10.953125 3.296875 
Q 6 8.015625 6 15.921875 
Q 6 25.140625 12.171875 29.828125 
Q 18.359375 34.515625 30.609375 34.515625 
L 43.21875 34.515625 
L 43.21875 35.40625 
Q 43.21875 41.609375 39.140625 45 
Q 35.0625 48.390625 27.6875 48.390625 
Q 23 48.390625 18.546875 47.265625 
Q 14.109375 46.140625 10.015625 43.890625 
L 10.015625 52.203125 
Q 14.9375 54.109375 19.578125 55.046875 
Q 24.21875 56 28.609375 56 
Q 40.484375 56 46.34375 49.84375 
Q 52.203125 43.703125 52.203125 31.203125 
z
" id="DejaVuSans-97"/>
       <path d="M 18.3125 70.21875 
L 18.3125 54.6875 
L 36.8125 54.6875 
L 36.8125 47.703125 
L 18.3125 47.703125 
L 18.3125 18.015625 
Q 18.3125 11.328125 20.140625 9.421875 
Q 21.96875 7.515625 27.59375 7.515625 
L 36.8125 7.515625 
L 36.8125 0 
L 27.59375 0 
Q 17.1875 0 13.234375 3.875 
Q 9.28125 7.765625 9.28125 18.015625 
L 9.28125 47.703125 
L 2.6875 47.703125 
L 2.6875 54.6875 
L 9.28125 54.6875 
L 9.28125 70.21875 
z
" id="DejaVuSans-116"/>
       <path d="M 9.421875 54.6875 
L 18.40625 54.6875 
L 18.40625 0 
L 9.421875 0 
z
M 9.421875 75.984375 
L 18.40625 75.984375 
L 18.40625 64.59375 
L 9.421875 64.59375 
z
" id="DejaVuSans-105"/>
       <path d="M 48.78125 52.59375 
L 48.78125 44.1875 
Q 44.96875 46.296875 41.140625 47.34375 
Q 37.3125 48.390625 33.40625 48.390625 
Q 24.65625 48.390625 19.8125 42.84375 
Q 14.984375 37.3125 14.984375 27.296875 
Q 14.984375 17.28125 19.8125 11.734375 
Q 24.65625 6.203125 33.40625 6.203125 
Q 37.3125 6.203125 41.140625 7.25 
Q 44.96875 8.296875 48.78125 10.40625 
L 48.78125 2.09375 
Q 45.015625 0.34375 40.984375 -0.53125 
Q 36.96875 -1.421875 32.421875 -1.421875 
Q 20.0625 -1.421875 12.78125 6.34375 
Q 5.515625 14.109375 5.515625 27.296875 
Q 5.515625 40.671875 12.859375 48.328125 
Q 20.21875 56 33.015625 56 
Q 37.15625 56 41.109375 55.140625 
Q 45.0625 54.296875 48.78125 52.59375 
z
" id="DejaVuSans-99"/>
       <path d="M 9.421875 75.984375 
L 18.40625 75.984375 
L 18.40625 0 
L 9.421875 0 
z
" id="DejaVuSans-108"/>
       <path d="M 44.28125 53.078125 
L 44.28125 44.578125 
Q 40.484375 46.53125 36.375 47.5 
Q 32.28125 48.484375 27.875 48.484375 
Q 21.1875 48.484375 17.84375 46.4375 
Q 14.5 44.390625 14.5 40.28125 
Q 14.5 37.15625 16.890625 35.375 
Q 19.28125 33.59375 26.515625 31.984375 
L 29.59375 31.296875 
Q 39.15625 29.25 43.1875 25.515625 
Q 47.21875 21.78125 47.21875 15.09375 
Q 47.21875 7.46875 41.1875 3.015625 
Q 35.15625 -1.421875 24.609375 -1.421875 
Q 20.21875 -1.421875 15.453125 -0.5625 
Q 10.6875 0.296875 5.421875 2 
L 5.421875 11.28125 
Q 10.40625 8.6875 15.234375 7.390625 
Q 20.0625 6.109375 24.8125 6.109375 
Q 31.15625 6.109375 34.5625 8.28125 
Q 37.984375 10.453125 37.984375 14.40625 
Q 37.984375 18.0625 35.515625 20.015625 
Q 33.0625 21.96875 24.703125 23.78125 
L 21.578125 24.515625 
Q 13.234375 26.265625 9.515625 29.90625 
Q 5.8125 33.546875 5.8125 39.890625 
Q 5.8125 47.609375 11.28125 51.796875 
Q 16.75 56 26.8125 56 
Q 31.78125 56 36.171875 55.265625 
Q 40.578125 54.546875 44.28125 53.078125 
z
" id="DejaVuSans-115"/>
      </defs>
      <use xlink:href="#DejaVuSans-78"/>
      <use x="74.804688" xlink:href="#DejaVuSans-117"/>
      <use x="138.183594" xlink:href="#DejaVuSans-109"/>
      <use x="235.595703" xlink:href="#DejaVuSans-98"/>
      <use x="299.072266" xlink:href="#DejaVuSans-101"/>
      <use x="360.595703" xlink:href="#DejaVuSans-114"/>
      <use x="401.708984" xlink:href="#DejaVuSans-32"/>
      <use x="433.496094" xlink:href="#DejaVuSans-111"/>
      <use x="494.677734" xlink:href="#DejaVuSans-102"/>
      <use x="529.882812" xlink:href="#DejaVuSans-32"/>
      <use x="561.669922" xlink:href="#DejaVuSans-80"/>
      <use x="617.472656" xlink:href="#DejaVuSans-97"/>
      <use x="678.751953" xlink:href="#DejaVuSans-114"/>
      <use x="719.865234" xlink:href="#DejaVuSans-116"/>
      <use x="759.074219" xlink:href="#DejaVuSans-105"/>
      <use x="786.857422" xlink:href="#DejaVuSans-99"/>
      <use x="841.837891" xlink:href="#DejaVuSans-108"/>
      <use x="869.621094" xlink:href="#DejaVuSans-101"/>
      <use x="931.144531" xlink:href="#DejaVuSans-115"/>
     </g>
    </g>
   </g>
   <g id="matplotlib.axis_2">
    <g id="ytick_1">
     <g id="line2d_38">
      <defs>
       <path d="M 0 0 
L -3.5 0 
" id="m9ff6f89461" style="stroke:#000000;stroke-width:0.8;"/>
      </defs>
      <g>
       <use style="stroke:#000000;stroke-width:0.8;" x="35.832685" xlink:href="#m9ff6f89461" y="122.885742"/>
      </g>
     </g>
     <g id="text_6">
      <!-- $\mathdefault{10^{1}}$ -->
      <g transform="translate(11.232685 126.684961)scale(0.1 -0.1)">
       <use transform="translate(0 0.684375)" xlink:href="#DejaVuSans-49"/>
       <use transform="translate(63.623047 0.684375)" xlink:href="#DejaVuSans-48"/>
       <use transform="translate(128.203125 38.965625)scale(0.7)" xlink:href="#DejaVuSans-49"/>
      </g>
     </g>
    </g>
    <g id="ytick_2">
     <g id="line2d_39">
      <defs>
       <path d="M 0 0 
L -2 0 
" id="ma52795f277" style="stroke:#000000;stroke-width:0.6;"/>
      </defs>
      <g>
       <use style="stroke:#000000;stroke-width:0.6;" x="35.832685" xlink:href="#ma52795f277" y="268.392262"/>
      </g>
     </g>
    </g>
    <g id="ytick_3">
     <g id="line2d_40">
      <g>
       <use style="stroke:#000000;stroke-width:0.6;" x="35.832685" xlink:href="#ma52795f277" y="233.624353"/>
      </g>
     </g>
    </g>
    <g id="ytick_4">
     <g id="line2d_41">
      <g>
       <use style="stroke:#000000;stroke-width:0.6;" x="35.832685" xlink:href="#ma52795f277" y="206.656267"/>
      </g>
     </g>
    </g>
    <g id="ytick_5">
     <g id="line2d_42">
      <g>
       <use style="stroke:#000000;stroke-width:0.6;" x="35.832685" xlink:href="#ma52795f277" y="184.621737"/>
      </g>
     </g>
    </g>
    <g id="ytick_6">
     <g id="line2d_43">
      <g>
       <use style="stroke:#000000;stroke-width:0.6;" x="35.832685" xlink:href="#ma52795f277" y="165.991807"/>
      </g>
     </g>
    </g>
    <g id="ytick_7">
     <g id="line2d_44">
      <g>
       <use style="stroke:#000000;stroke-width:0.6;" x="35.832685" xlink:href="#ma52795f277" y="149.853828"/>
      </g>
     </g>
    </g>
    <g id="ytick_8">
     <g id="line2d_45">
      <g>
       <use style="stroke:#000000;stroke-width:0.6;" x="35.832685" xlink:href="#ma52795f277" y="135.619121"/>
      </g>
     </g>
    </g>
    <g id="ytick_9">
     <g id="line2d_46">
      <g>
       <use style="stroke:#000000;stroke-width:0.6;" x="35.832685" xlink:href="#ma52795f277" y="39.115217"/>
      </g>
     </g>
    </g>
   </g>
   <g id="line2d_47">
    <path clip-path="url(#pf169de4e6b)" d="M -1 208.496846 
L 190.676452 208.503333 
L 192.632504 167.305327 
L 208.518506 167.312677 
L 211.107719 167.312677 
L 212.347348 143.497678 
L 218.070195 143.516708 
L 219.130582 142.691399 
L 232.568571 142.924125 
L 233.333876 143.085283 
L 239.019698 143.196395 
L 239.681424 125.543348 
L 241.608911 125.632569 
L 242.23309 125.055173 
L 245.802932 125.122712 
L 247.484815 125.233811 
L 248.031455 112.532979 
L 249.104774 112.682607 
L 249.631774 112.268444 
L 251.175929 112.335037 
L 251.678837 111.904299 
L 252.176061 111.992713 
L 252.66773 111.56946 
L 253.634888 111.619829 
L 254.110611 110.65528 
L 255.507678 110.809031 
L 255.963681 100.568519 
L 257.741859 100.754115 
L 258.175399 100.428513 
L 259.868066 100.598274 
L 260.281252 100.228386 
L 262.290912 100.483035 
L 263.835068 100.661137 
L 264.58729 100.782739 
L 264.958633 99.590643 
L 267.821686 100.27801 
L 268.166817 92.073253 
L 269.186258 92.3051 
L 271.156912 92.752561 
L 271.476942 92.403802 
L 271.794661 92.500421 
L 272.110103 91.815835 
L 272.734282 91.955474 
L 275.438445 92.675534 
L 275.728901 85.779675 
L 276.304124 85.857935 
L 276.58894 79.824707 
L 277.153101 80.057667 
L 277.432492 79.860507 
L 278.260176 80.12969 
L 278.532647 80.202761 
L 278.803441 79.375764 
L 279.340081 79.50603 
L 279.605966 74.291775 
L 279.870255 74.317541 
L 280.132966 69.381955 
L 280.911817 69.472664 
L 281.1684 69.610287 
L 281.423496 69.150139 
L 281.929293 69.298561 
L 282.180029 68.445562 
L 282.429343 68.249088 
L 282.677253 68.298631 
L 282.923775 68.231386 
L 283.168922 68.388468 
L 284.13608 68.58468 
L 284.374585 68.728175 
L 284.611803 67.834056 
L 285.779084 68.000559 
L 286.00887 66.913517 
L 286.464874 67.039009 
L 286.9162 67.269468 
L 287.140139 63.517548 
L 287.362944 63.125553 
L 287.584627 63.076214 
L 288.243052 63.211553 
L 288.460355 63.271206 
L 288.676591 63.063588 
L 288.89177 63.115724 
L 289.105901 63.290353 
L 289.318996 63.31683 
L 289.742113 62.998463 
L 290.369258 63.125717 
L 290.576336 62.988258 
L 291.191785 63.271957 
L 291.597354 63.607906 
L 293.377531 64.379722 
L 293.570955 64.236619 
L 294.901628 64.426932 
L 295.274545 64.833098 
L 295.459825 64.475831 
L 295.644328 64.675687 
L 295.828061 64.580171 
L 297.44802 65.353708 
L 297.975019 65.544484 
L 298.149293 65.117848 
L 298.495782 65.184572 
L 298.668009 61.756791 
L 298.839564 61.781598 
L 299.010453 61.63008 
L 299.350254 61.749722 
L 299.68745 62.044845 
L 299.855084 62.089828 
L 300.022082 61.898514 
L 300.354189 61.977571 
L 300.519307 58.689824 
L 301.010976 58.48919 
L 301.173653 58.620946 
L 301.497212 58.334043 
L 301.658104 58.450035 
L 301.81841 58.094948 
L 302.295853 58.775112 
L 303.080258 58.970406 
L 303.390146 59.12124 
L 303.544275 55.97667 
L 304.003451 56.304248 
L 304.155451 56.337037 
L 304.306927 56.541636 
L 304.608325 56.637669 
L 304.758253 56.705227 
L 304.907673 56.579258 
L 305.056586 56.818975 
L 305.204997 53.927807 
L 305.35291 54.061999 
L 305.500327 51.174858 
L 305.647252 51.38129 
L 305.793687 51.266647 
L 305.939638 50.866535 
L 306.662214 51.616068 
L 306.947955 51.783828 
L 307.231852 51.772966 
L 307.373117 51.671207 
L 307.79421 52.286556 
L 308.072717 52.094481 
L 308.487199 52.241113 
L 308.624497 52.554034 
L 308.761368 52.580623 
L 308.897814 52.307078 
L 309.573771 52.567651 
L 309.707725 52.42544 
L 309.841273 52.491195 
L 309.974417 52.020743 
L 310.107159 52.040201 
L 310.371447 52.434616 
L 310.502999 49.617867 
L 311.025306 49.883465 
L 311.15492 48.663033 
L 311.284154 48.541347 
L 311.413009 48.616682 
L 311.669592 48.415191 
L 311.797325 46.433552 
L 312.051683 46.442217 
L 312.30458 46.578767 
L 312.430486 46.491745 
L 312.681221 46.988002 
L 312.806055 44.814589 
L 313.178446 44.970516 
L 313.301879 43.622447 
L 313.424967 43.662865 
L 313.547711 43.329552 
L 314.156351 44.096608 
L 314.277075 43.582667 
L 314.637273 43.833172 
L 314.875777 44.029072 
L 315.112995 44.230196 
L 315.231127 42.993237 
L 315.466442 43.109414 
L 315.700506 41.589975 
L 315.933332 41.790315 
L 316.280276 41.498799 
L 316.510062 41.796234 
L 316.738655 41.882113 
L 316.852507 41.998349 
L 316.966066 41.652821 
L 317.192307 39.565822 
L 317.304994 39.924771 
L 317.641331 40.473378 
L 317.864136 40.839799 
L 317.975117 40.899697 
L 318.196243 41.336258 
L 318.416263 41.236731 
L 318.744244 41.290452 
L 318.85303 40.726204 
L 319.069798 41.502464 
L 319.285504 41.726357 
L 319.500158 41.051467 
L 319.607093 41.181347 
L 319.820188 40.913762 
L 320.032255 41.057834 
L 320.243306 41.280539 
L 320.453349 41.088136 
L 320.766545 41.317527 
L 320.974111 41.452559 
L 321.077528 41.882459 
L 321.180703 40.148708 
L 321.283636 40.162855 
L 321.386329 40.350965 
L 321.692978 38.716854 
L 321.794721 38.496673 
L 321.997504 38.627662 
L 322.199357 38.386043 
L 322.299938 37.713634 
L 322.400289 37.821437 
L 322.600307 37.488128 
L 322.699976 37.545729 
L 322.79942 38.072306 
L 322.997636 37.939568 
L 323.096411 37.992597 
L 323.39141 37.661954 
L 323.489305 37.715663 
L 323.781691 37.521165 
L 323.878723 36.649628 
L 323.975541 36.729337 
L 324.168541 36.917507 
L 324.264725 37.300329 
L 324.360698 37.227531 
L 324.456463 37.110631 
L 324.55202 37.299901 
L 324.64737 36.967946 
L 324.837452 35.640525 
L 324.932186 35.672968 
L 325.21517 35.914654 
L 325.309095 36.021489 
L 325.496346 34.683843 
L 325.682804 34.978373 
L 325.775737 34.048408 
L 325.868475 34.587517 
L 325.961017 33.511328 
L 326.053366 33.661418 
L 326.329253 33.825384 
L 326.512222 34.264796 
L 326.603422 33.288674 
L 326.694433 33.382607 
L 326.966343 33.654003 
L 327.056607 33.48772 
L 327.146687 33.710146 
L 327.326295 31.652865 
L 327.415825 31.800801 
L 327.505173 31.823564 
L 327.59434 31.692694 
L 327.772134 30.934392 
L 327.860762 30.773157 
L 328.213501 31.044356 
L 328.388815 30.750745 
L 328.476212 30.932469 
L 328.737363 30.293334 
L 328.82407 30.524588 
L 328.910607 30.543244 
L 328.996974 29.870965 
L 329.083172 29.982958 
L 329.255062 29.973371 
L 329.340756 30.115729 
L 329.511646 29.839023 
L 329.596842 29.870601 
L 329.766742 30.485344 
L 329.935988 30.656819 
L 330.188642 30.452966 
L 330.356277 30.754909 
L 330.523275 30.884584 
L 330.689641 30.857617 
L 330.772589 30.897104 
L 330.855381 30.696381 
L 330.938018 30.730587 
L 331.020499 30.990208 
L 331.102826 30.898189 
L 331.185 30.998996 
L 331.26702 30.901718 
L 331.348888 31.143091 
L 331.430604 30.908185 
L 331.512168 30.951223 
L 331.593582 30.851759 
L 331.917737 31.244569 
L 332.319602 31.579949 
L 332.479326 31.830242 
L 332.638473 32.021177 
L 332.71783 32.17501 
L 332.797045 31.802919 
L 332.955049 32.013582 
L 333.033838 32.602273 
L 333.112487 31.731562 
L 333.190995 31.86691 
L 333.269364 32.024939 
L 333.347593 31.805651 
L 333.503636 32.011232 
L 333.58145 31.981423 
L 333.736667 30.814508 
L 333.81407 30.830909 
L 334.045467 31.079586 
L 334.275654 31.376463 
L 334.352116 30.636953 
L 334.428446 30.749553 
L 334.580708 30.957092 
L 334.883663 30.59799 
L 335.034361 30.678362 
L 335.184545 30.121964 
L 335.259445 30.236908 
L 335.334219 30.283969 
L 335.632047 30.910273 
L 335.854102 31.135082 
L 335.927872 30.708096 
L 336.001519 30.768073 
L 336.29488 31.41589 
L 336.367915 31.287503 
L 336.44083 30.727794 
L 336.513624 30.802211 
L 336.586297 30.973201 
L 336.658851 30.890844 
L 336.731286 30.983209 
L 336.803601 31.306257 
L 336.875798 31.136198 
L 336.947876 31.167027 
L 337.019837 30.936549 
L 337.09168 31.044452 
L 337.163406 31.03131 
L 337.377885 31.571173 
L 337.449147 31.298628 
L 337.733044 32.080848 
L 337.803733 31.748311 
L 337.944772 32.339191 
L 338.015122 32.285614 
L 338.365194 30.908858 
L 338.573909 31.2174 
L 338.643261 30.744568 
L 338.712504 30.880796 
L 338.850664 30.638825 
L 339.057094 31.1448 
L 339.125689 31.30453 
L 339.26256 30.989823 
L 339.330836 31.049421 
L 339.535031 31.079985 
L 339.602886 31.000385 
L 339.670637 31.171372 
L 339.873264 30.818567 
L 339.9406 30.923347 
L 340.007833 30.836779 
L 340.141991 31.041823 
L 340.275742 31.606684 
L 340.342465 30.62122 
L 340.409087 30.627931 
L 340.475609 30.396894 
L 340.54203 30.464852 
L 340.740693 30.700048 
L 340.806716 30.601802 
L 340.872639 30.773705 
L 340.938464 30.722373 
L 341.004191 30.637786 
L 341.069819 31.534754 
L 341.13535 31.372575 
L 341.331359 31.567008 
L 341.526499 30.690511 
L 341.656113 30.767238 
L 341.785346 31.09143 
L 341.84982 31.26519 
L 341.978487 30.676775 
L 342.106778 30.841319 
L 342.362245 30.768841 
L 342.42588 30.090756 
L 342.489424 30.394334 
L 342.552876 30.312463 
L 342.679506 30.537512 
L 342.805772 30.214369 
L 342.86877 30.2636 
L 343.057224 30.767293 
L 343.182413 31.03636 
L 343.369531 29.434881 
L 343.555857 29.537033 
L 343.617791 29.757321 
L 343.741398 28.917277 
L 343.803071 28.387694 
L 343.864658 28.396928 
L 343.926159 28.529384 
L 344.110148 27.989239 
L 344.354275 29.011955 
L 344.536487 28.64709 
L 344.597056 28.763833 
L 344.657543 29.08526 
L 344.717946 29.046632 
L 344.838505 28.731291 
L 344.958734 28.985678 
L 345.317464 29.0567 
L 345.495738 28.770089 
L 345.614187 27.579058 
L 345.791266 27.810884 
L 345.850134 27.707895 
L 345.967634 27.91831 
L 346.026267 27.577966 
L 346.201698 28.266798 
L 346.318265 28.74018 
L 346.376433 28.575068 
L 346.550476 28.265024 
L 346.723834 29.039855 
L 346.781469 28.808009 
L 346.839028 28.935842 
L 346.896512 29.104076 
L 347.125699 27.253254 
L 347.18281 27.246339 
L 347.29681 26.704938 
L 347.353699 26.741392 
L 347.410515 26.900637 
L 347.467258 26.432506 
L 347.523927 26.508657 
L 347.637048 27.164349 
L 347.749879 27.131367 
L 347.974676 27.490489 
L 348.365328 24.888714 
L 348.420854 25.104801 
L 348.697435 24.63073 
L 348.862553 25.088536 
L 348.917455 25.411495 
L 348.972288 25.330515 
L 349.027054 25.379707 
L 349.245436 26.206571 
L 349.299862 26.140786 
L 349.408514 26.235785 
L 349.46274 26.446535 
L 349.516898 26.379023 
L 349.678975 26.034027 
L 349.840458 25.612352 
L 349.894154 25.747397 
L 349.947785 25.665412 
L 350.108285 25.281451 
L 350.427541 25.477934 
L 350.586305 24.962706 
L 350.639099 25.029999 
L 350.69183 25.034721 
L 350.902124 24.625272 
L 350.954541 24.717222 
L 351.006895 24.621077 
L 351.111418 24.061346 
L 351.163586 24.15308 
L 351.267737 24.265802 
L 351.319721 23.971208 
L 351.57872 25.483068 
L 351.630338 25.474169 
L 351.784828 25.218228 
L 352.041112 24.13427 
L 352.245071 24.448848 
L 352.295913 24.512853 
L 352.397421 24.240132 
L 352.599739 25.069171 
L 352.650173 25.11543 
L 352.951571 24.52669 
L 353.151362 25.105499 
L 353.201168 25.099462 
L 353.35025 25.422781 
L 353.399832 25.242516 
L 353.449358 25.478449 
L 353.548243 25.58091 
L 353.646907 25.281651 
L 353.696156 24.781512 
L 353.74535 24.81578 
L 353.843573 25.021963 
L 353.941577 24.628836 
L 353.990497 24.729519 
L 354.185637 24.294745 
L 354.234287 24.376333 
L 354.717851 25.130941 
L 354.765917 25.100148 
L 354.861891 24.748379 
L 354.909799 24.786723 
L 354.957655 24.754071 
L 355.00546 24.567441 
L 355.19616 25.431911 
L 355.243706 25.334372 
L 355.433378 25.812339 
L 355.527909 25.963482 
L 355.716362 24.753972 
L 356.044227 25.990275 
L 356.137456 25.769289 
L 356.230487 25.215616 
L 356.323323 25.363568 
L 356.369667 25.295115 
L 356.415963 25.399159 
L 356.692718 25.83558 
L 356.784584 25.94997 
L 356.830445 26.648513 
L 356.922025 26.513624 
L 357.013414 26.643228 
L 357.195625 26.110197 
L 357.286448 26.387942 
L 357.33179 26.350084 
L 357.467535 26.216075 
L 357.602862 26.732202 
L 357.647879 26.65097 
L 357.69285 26.92259 
L 357.782654 26.789642 
L 358.006365 27.417758 
L 358.050971 27.351729 
L 358.228945 26.620812 
L 358.361954 27.429476 
L 358.494563 27.474491 
L 358.670755 27.205769 
L 358.758587 27.297491 
L 358.846244 27.988977 
L 358.890008 27.586284 
L 358.933727 27.621063 
L 358.977404 27.548862 
L 359.064627 27.301734 
L 359.108173 27.401739 
L 359.325263 25.870325 
L 359.368552 25.927368 
L 359.411799 26.213775 
L 359.455004 25.937536 
L 359.541286 26.135913 
L 359.670393 25.69201 
L 359.713345 25.54334 
L 359.756254 25.621599 
L 359.799122 25.719817 
L 360.098034 24.099907 
L 360.267934 24.915233 
L 360.43718 24.365549 
L 360.47939 24.408485 
L 360.521559 24.239972 
L 360.605777 24.296272 
L 360.773731 25.146631 
L 361.190833 24.150771 
L 361.315197 24.296382 
L 361.356573 24.231217 
L 361.397911 24.175777 
L 361.604019 24.840268 
L 361.809165 24.143539 
L 361.85008 24.185359 
L 362.094774 23.829455 
L 362.135424 23.861965 
L 362.216612 23.909877 
L 362.37854 24.468892 
L 362.459281 24.279152 
L 362.499596 25.343339 
L 362.580116 24.922335 
L 362.660488 25.567571 
L 362.740714 25.394859 
L 362.900729 24.885992 
L 362.980518 24.721784 
L 363.020359 24.795013 
L 363.060163 24.486584 
L 363.219023 25.638411 
L 363.298238 26.071549 
L 363.337792 26.04752 
L 363.495653 25.499741 
L 363.613679 25.404474 
L 363.848785 25.752605 
L 363.926876 25.684805 
L 363.965869 26.735739 
L 364.043752 26.354413 
L 364.082642 26.302336 
L 364.121497 26.400393 
L 364.199106 26.825479 
L 364.237859 26.776457 
L 364.39253 26.459406 
L 364.431113 26.642818 
L 364.469662 26.966611 
L 364.508178 26.53651 
L 364.546659 26.51545 
L 364.585108 26.089957 
L 364.661903 26.461128 
L 364.738565 26.499273 
L 364.815094 26.076911 
L 364.929638 27.163471 
L 364.967753 27.073705 
L 365.005835 27.237642 
L 365.043884 27.045204 
L 365.0819 27.196871 
L 365.119884 27.231969 
L 365.157835 27.125227 
L 365.195753 27.114754 
L 365.233638 26.988241 
L 365.384855 28.246519 
L 365.460268 28.04642 
L 365.648239 29.274478 
L 365.723203 29.101837 
L 365.760638 28.984015 
L 365.79804 29.081303 
L 365.984577 29.339258 
L 366.021789 29.149089 
L 366.05897 29.359813 
L 366.09612 29.277379 
L 366.133239 29.485278 
L 366.170326 29.296095 
L 366.318363 28.484712 
L 366.465903 27.687373 
L 366.502711 27.969406 
L 366.576235 27.316898 
L 366.612951 27.603482 
L 366.759508 27.453075 
L 366.90558 27.74135 
L 366.978434 28.415215 
L 367.014816 28.198064 
L 367.160043 27.870299 
L 367.196275 28.142208 
L 367.26865 27.998347 
L 367.340906 27.311554 
L 367.37699 27.422515 
L 367.413044 28.449419 
L 367.485063 27.936139 
L 367.521029 27.987263 
L 367.592872 27.649577 
L 367.62875 27.759596 
L 367.700418 28.875092 
L 367.807701 28.580789 
L 367.879078 28.342521 
L 367.914723 28.388063 
L 368.021485 28.953588 
L 368.057015 28.555464 
L 368.127989 28.383545 
L 368.198849 28.08993 
L 368.269595 28.236205 
L 368.304925 28.398772 
L 368.340227 27.980826 
L 368.410746 28.227587 
L 368.481153 27.955399 
L 368.551447 27.997195 
L 368.691698 27.452712 
L 368.726691 27.611127 
L 368.761657 27.546823 
L 368.831504 27.332363 
L 368.866386 27.442895 
L 368.936068 27.64756 
L 368.970867 27.938074 
L 369.040384 27.810349 
L 369.179088 27.486025 
L 369.213696 27.688935 
L 369.28283 27.613793 
L 369.317357 27.544913 
L 369.351856 27.697894 
L 369.386328 27.675201 
L 369.420774 27.828982 
L 369.455192 27.575107 
L 369.489584 27.555864 
L 369.592597 27.862556 
L 369.626882 27.787236 
L 369.797904 27.35283 
L 369.832028 27.459248 
L 369.866127 27.413299 
L 370.205665 25.501235 
L 370.239475 25.839267 
L 370.307017 25.78483 
L 370.374456 25.940116 
L 370.408137 25.81225 
L 370.441792 25.932831 
L 370.475422 26.408601 
L 370.542603 26.099595 
L 370.743535 25.525311 
L 370.776934 25.658311 
L 370.976801 27.619983 
L 371.076395 27.389042 
L 371.175764 27.162438 
L 371.274909 27.7764 
L 371.307908 27.572911 
L 371.373831 27.423668 
L 371.439656 26.838508 
L 371.505383 27.211556 
L 371.538209 27.197762 
L 371.636542 28.819098 
L 371.669271 28.621976 
L 371.734656 28.531972 
L 371.767312 28.421277 
L 371.865134 28.477694 
L 371.930229 29.45917 
L 371.995227 29.371432 
L 372.027691 29.312891 
L 372.06013 29.548673 
L 372.124937 29.445858 
L 372.286538 28.939191 
L 372.351013 29.542886 
L 372.415393 29.209408 
L 372.447548 29.325678 
L 372.479679 29.192574 
L 372.511787 29.131859 
L 372.575933 29.198835 
L 372.639985 29.254647 
L 372.767811 31.018542 
L 372.895266 30.775842 
L 372.958855 31.209685 
L 373.022353 30.910547 
L 373.180698 30.215021 
L 373.275432 30.266956 
L 373.401427 29.657527 
L 373.43287 29.777574 
L 373.46429 29.511465 
L 373.495688 29.578984 
L 373.527063 29.398374 
L 373.558416 29.463782 
L 373.589747 29.8109 
L 373.652341 29.635095 
L 373.714847 29.226073 
L 373.746066 29.357257 
L 373.808439 29.804333 
L 373.870723 29.612725 
L 373.901833 29.787778 
L 373.963985 29.536751 
L 374.118983 28.786195 
L 374.149917 29.097666 
L 374.18083 29.056327 
L 374.211721 29.43322 
L 374.304263 29.271485 
L 374.335067 29.199782 
L 374.396611 29.80939 
L 374.427351 29.517007 
L 374.488766 29.323377 
L 374.519442 29.535516 
L 374.550096 29.427377 
L 374.61134 29.319685 
L 374.733573 29.877337 
L 374.764078 29.725573 
L 374.794563 29.917324 
L 374.825026 29.859628 
L 374.855468 29.918242 
L 374.977025 29.391369 
L 375.007363 29.52259 
L 375.098248 29.413014 
L 375.128502 29.172022 
L 375.219138 29.239911 
L 375.249309 30.367367 
L 375.339697 29.992047 
L 375.369785 29.749386 
L 375.4299 30.0719 
L 375.609753 31.466914 
L 375.729248 31.087629 
L 375.878161 32.065169 
L 375.937586 32.479686 
L 376.056195 31.457878 
L 376.144942 31.337602 
L 376.204008 32.596794 
L 376.233511 33.676439 
L 376.321902 33.501594 
L 376.351326 33.511457 
L 376.586014 32.571832 
L 376.615262 32.795652 
L 376.702891 35.301335 
L 376.819457 35.251928 
L 376.90668 34.598785 
L 377.022709 35.866576 
L 377.10953 35.196516 
L 377.138433 35.205008 
L 377.167316 36.581636 
L 377.253853 36.280828 
L 377.397704 36.698272 
L 377.483789 35.882498 
L 377.541086 36.104115 
L 377.569706 36.158134 
L 377.598308 36.097157 
L 377.655456 35.739691 
L 377.76953 36.612008 
L 377.826456 36.426125 
L 377.883308 36.163751 
L 377.96845 36.924727 
L 377.996794 36.824371 
L 378.109987 36.279702 
L 378.13824 37.63831 
L 378.22289 37.487148 
L 378.335504 37.098748 
L 378.363613 37.116155 
L 378.447831 37.487148 
L 378.503887 37.406127 
L 378.643715 37.137601 
L 378.671628 37.104042 
L 378.699522 37.27884 
L 378.7831 36.333803 
L 378.838731 36.418844 
L 379.253735 34.729818 
L 379.281263 34.776004 
L 379.391204 35.122674 
L 379.418647 35.076237 
L 379.555603 34.38808 
L 379.582943 34.492029 
L 379.746628 34.121079 
L 379.801055 34.650232 
L 379.855414 34.644988 
L 379.991019 34.148601 
L 380.01809 34.078517 
L 380.045145 34.299413 
L 380.099204 36.169998 
L 380.153196 35.950946 
L 380.180168 35.709888 
L 380.234061 35.783574 
L 380.34165 37.835126 
L 380.368506 37.686099 
L 380.395346 37.881822 
L 380.448977 37.586649 
L 380.5293 37.275361 
L 380.556042 37.973624 
L 380.662848 37.93406 
L 380.769395 37.655935 
L 380.742782 37.985186 
L 380.795992 37.726991 
L 380.822572 37.889467 
L 380.849136 37.70429 
L 380.875685 39.237073 
L 380.955234 38.607693 
L 380.981718 38.231653 
L 381.034639 38.543337 
L 381.140291 38.909256 
L 381.166665 38.739486 
L 381.350837 37.914396 
L 381.377084 37.97986 
L 381.429532 37.848911 
L 381.455733 37.77005 
L 381.481918 37.896696 
L 381.508087 38.088093 
L 381.586502 37.906671 
L 381.690839 37.368569 
L 381.820913 41.370651 
L 381.846881 41.326794 
L 381.898773 41.098668 
L 381.976495 42.602449 
L 382.028234 42.525892 
L 382.054081 42.608432 
L 382.105729 42.467602 
L 382.13153 42.416296 
L 382.157316 42.86478 
L 382.234584 42.514908 
L 382.337397 42.187983 
L 382.363062 42.220696 
L 382.388713 42.337801 
L 382.43997 42.074042 
L 382.669889 40.841207 
L 382.695362 40.848199 
L 382.72082 40.747355 
L 382.746263 40.704125 
L 382.771691 40.381493 
L 382.822504 40.418047 
L 382.94928 42.625116 
L 382.974592 42.893842 
L 383.050439 42.806029 
L 383.277198 41.761565 
L 383.302322 43.7448 
L 383.402673 42.967966 
L 383.552772 42.36993 
L 383.577739 42.523179 
L 383.62763 42.187983 
L 383.75211 41.259543 
L 383.801804 41.483567 
L 383.851442 41.908219 
L 383.901024 41.760398 
L 383.975292 41.400392 
L 384.024735 42.661002 
L 384.098795 42.633169 
L 384.123454 42.679804 
L 384.17273 43.912767 
L 384.246542 43.325319 
L 384.295681 43.404821 
L 384.418288 42.787305 
L 384.564968 48.458597 
L 384.638125 47.910635 
L 384.662484 48.454484 
L 384.711161 48.182268 
L 384.735479 50.680114 
L 384.832618 50.377464 
L 384.977926 49.636062 
L 385.291122 48.879033 
L 385.315122 48.920073 
L 385.410991 49.795122 
L 385.387043 48.890349 
L 385.482756 49.75112 
L 385.578261 50.159166 
L 385.625936 54.171662 
L 385.697352 54.038777 
L 385.744898 54.25656 
L 385.768652 54.032757 
L 385.839836 53.825568 
L 385.863539 53.840499 
L 385.887229 57.630391 
L 385.981861 57.571291 
L 386.07629 56.961082 
L 386.099866 57.811448 
L 386.194042 57.251038 
L 386.217555 57.077156 
L 386.264542 63.969177 
L 386.381792 63.388034 
L 386.615359 62.937842 
L 386.638648 63.090925 
L 386.70844 61.894661 
L 386.754907 62.37883 
L 386.894013 62.044201 
L 386.917155 62.76888 
L 386.986507 61.537613 
L 387.0096 61.528792 
L 387.032681 61.678022 
L 387.078807 61.548124 
L 387.124884 61.083774 
L 387.262827 66.970855 
L 387.285776 66.568024 
L 387.423217 66.009811 
L 387.446082 66.047233 
L 387.537424 71.501926 
L 387.651335 70.852373 
L 387.674082 70.826846 
L 387.696817 70.497428 
L 387.787641 70.691415 
L 387.810317 71.63776 
L 387.900907 71.300849 
L 388.104054 70.303482 
L 388.126568 70.599707 
L 388.149071 71.971195 
L 388.238967 71.766474 
L 388.306268 71.305538 
L 388.328679 76.294933 
L 388.418209 75.950148 
L 388.440563 75.991282 
L 388.462906 75.857302 
L 388.596724 74.775559 
L 388.70793 77.8506 
L 388.730137 77.637138 
L 388.752333 77.65419 
L 388.774518 77.513002 
L 388.796692 77.798782 
L 388.885276 83.954448 
L 388.929501 83.837747 
L 389.127965 82.889954 
L 389.259779 81.59493 
L 389.30363 82.115824 
L 389.369324 81.593405 
L 389.522229 81.197581 
L 389.565819 81.303882 
L 389.69633 80.719727 
L 389.739747 80.98623 
L 389.783122 80.746913 
L 389.826455 80.25659 
L 389.848105 80.273373 
L 389.977782 79.203896 
L 389.999358 79.125922 
L 390.042478 79.331711 
L 390.085556 79.679746 
L 390.128592 79.452743 
L 390.214537 78.657422 
L 390.235997 78.949257 
L 390.257447 79.33266 
L 390.343141 78.902323 
L 390.428668 78.561745 
L 390.70549 83.657987 
L 390.85383 82.592585 
L 390.917252 86.119516 
L 390.980582 85.826169 
L 391.127999 84.948095 
L 391.191027 84.97097 
L 391.295873 85.127293 
L 391.337741 84.398656 
L 391.37957 96.828266 
L 391.504819 96.380903 
L 391.650493 94.18201 
L 391.671264 104.291422 
L 391.774973 103.657431 
L 391.961037 101.665847 
L 391.981662 101.714405 
L 392.084643 102.669575 
L 392.105211 103.265623 
L 392.207904 103.092702 
L 392.228414 103.149637 
L 392.248914 103.128581 
L 392.289886 108.663677 
L 392.371716 108.211834 
L 392.392149 108.255281 
L 392.473789 106.877728 
L 392.514552 108.68934 
L 392.595966 108.040375 
L 392.839306 106.230108 
L 392.656927 108.203198 
L 392.859524 106.354608 
L 392.879732 107.296281 
L 392.960473 106.977259 
L 392.980636 106.810227 
L 393.041067 106.925444 
L 393.061192 107.304448 
L 393.121513 106.587657 
L 393.141601 106.832799 
L 393.341984 104.214551 
L 393.381951 105.060405 
L 393.401921 105.0694 
L 393.421882 104.868454 
L 393.441834 105.519785 
L 393.461777 105.679923 
L 393.501635 105.593657 
L 393.581244 116.570895 
L 393.640857 115.981179 
L 393.779639 115.145715 
L 393.819211 114.883681 
L 393.838984 115.456779 
L 393.858748 115.220879 
L 393.917985 115.337825 
L 394.075565 113.859818 
L 394.095222 113.911591 
L 394.114871 113.910343 
L 394.330433 111.417721 
L 394.349977 111.482341 
L 394.486545 110.429789 
L 394.758415 126.487733 
L 394.874418 125.057782 
L 394.990116 122.482895 
L 395.06708 123.619221 
L 395.0863 123.512321 
L 395.201443 122.055588 
L 395.220604 122.303907 
L 395.278038 123.12651 
L 395.3545 122.859008 
L 395.373595 122.810978 
L 395.41176 123.545707 
L 395.43083 122.549871 
L 395.48799 123.146728 
L 395.583093 122.664421 
L 395.621076 123.006101 
L 395.640056 124.46044 
L 395.73483 123.550542 
L 395.848291 121.573197 
L 395.886047 121.694544 
L 395.904912 122.046466 
L 395.980294 121.565132 
L 396.111901 120.432053 
L 396.186929 120.647213 
L 396.243117 121.420764 
L 396.280535 120.530672 
L 396.317921 121.15531 
L 396.504379 118.742685 
L 396.560163 119.257406 
L 396.634431 128.917791 
L 396.671518 128.804434 
L 396.745599 127.905904 
L 396.801077 128.35002 
L 396.819555 128.543729 
L 396.87494 128.074876 
L 397.04068 126.638585 
L 397.059058 126.645616 
L 397.224107 128.865253 
L 397.242407 129.316714 
L 397.297264 128.669128 
L 397.333797 129.265227 
L 397.388539 128.798605 
L 397.406772 129.544452 
L 397.424997 129.355077 
L 397.443214 129.333302 
L 397.661235 126.154268 
L 397.75176 127.269396 
L 397.769842 126.753046 
L 397.968262 125.121733 
L 397.986256 125.671298 
L 398.076115 125.138711 
L 398.094064 124.94935 
L 398.112007 125.847078 
L 398.183704 125.432467 
L 398.2374 124.359714 
L 398.308893 124.813238 
L 398.326748 124.486214 
L 398.362436 125.574192 
L 398.38027 125.777932 
L 398.469328 139.388241 
L 398.504902 139.152903 
L 398.522677 138.952288 
L 398.540446 138.955899 
L 398.593709 142.357354 
L 398.664626 141.343866 
L 398.735428 140.910242 
L 398.753111 141.033903 
L 398.876693 144.256046 
L 398.894319 144.26931 
L 398.947156 143.733803 
L 399.070195 146.614951 
L 399.087743 145.9436 
L 399.140348 147.363429 
L 399.19289 147.768283 
L 399.175383 146.829928 
L 399.21039 147.561872 
L 399.227883 146.937376 
L 399.297786 148.392162 
L 399.385009 147.557045 
L 399.506832 152.381032 
L 399.524207 152.187291 
L 399.576293 151.316567 
L 399.610983 152.046546 
L 399.628318 152.347008 
L 399.662966 151.101309 
L 399.68028 151.282231 
L 399.732182 150.840529 
L 399.749469 150.904218 
L 399.835802 149.565873 
L 399.990776 156.892031 
L 400.02514 155.54718 
L 400.110935 155.600784 
L 400.145206 156.190201 
L 400.213668 155.554202 
L 400.452449 151.01997 
L 400.469456 151.01075 
L 400.486455 151.10984 
L 400.554389 153.180961 
L 400.60527 151.820145 
L 400.656093 153.429111 
L 400.757562 153.104038 
L 400.774451 155.048871 
L 400.791334 155.357463 
L 400.825079 154.262057 
L 400.942984 152.637749 
L 400.976614 152.763062 
L 401.027009 151.432708 
L 401.077348 152.600802 
L 401.094114 154.340364 
L 401.19458 153.269841 
L 401.394825 150.770719 
L 401.411472 151.730125 
L 401.477993 150.427138 
L 401.511216 151.367754 
L 401.544414 150.932235 
L 401.577587 151.779533 
L 401.594164 151.627989 
L 401.726557 154.565265 
L 401.643858 150.932935 
L 401.759593 154.016368 
L 401.891489 157.213315 
L 402.104981 154.943968 
L 402.121361 155.150952 
L 402.170463 154.51905 
L 402.301136 152.857217 
L 402.350038 153.351038 
L 402.366327 153.520968 
L 402.44768 160.610267 
L 402.528883 159.947184 
L 402.577533 162.347652 
L 402.642316 160.886707 
L 402.739312 160.402592 
L 402.755457 160.089094 
L 402.771597 160.499481 
L 402.78773 160.360816 
L 402.803858 161.461635 
L 402.900499 160.692666 
L 402.916585 161.478197 
L 402.980871 160.32351 
L 402.996928 160.851788 
L 403.061097 159.141616 
L 403.157176 159.325787 
L 403.205136 159.003283 
L 403.253045 158.179985 
L 403.316842 158.50299 
L 403.348706 158.002418 
L 403.364629 158.90134 
L 403.444159 159.2813 
L 403.412364 158.426354 
L 403.460048 159.194949 
L 403.475931 158.782243 
L 403.491808 165.017521 
L 403.586951 163.970461 
L 403.650266 163.238756 
L 403.808157 171.756058 
L 403.823914 171.130844 
L 403.934062 179.600662 
L 403.949775 179.216352 
L 403.965482 180.327347 
L 404.043935 179.216512 
L 404.090939 177.572468 
L 404.122247 179.300797 
L 404.137893 179.158365 
L 404.153533 179.753976 
L 404.216039 178.382121 
L 404.309631 177.684399 
L 404.403025 183.729141 
L 404.465177 182.683775 
L 404.511734 182.106322 
L 404.620175 184.418466 
L 404.635645 184.05862 
L 404.790045 188.60952 
L 404.867042 187.664597 
L 404.913176 186.80322 
L 405.051288 184.784673 
L 404.989958 186.842553 
L 405.066607 184.974237 
L 405.219505 191.290884 
L 405.25002 190.97631 
L 405.35666 189.85504 
L 405.310989 191.014377 
L 405.371873 190.471097 
L 405.44786 193.021808 
L 405.478218 192.622453 
L 405.523715 191.220469 
L 405.538871 193.337753 
L 405.584306 192.589542 
L 405.644813 191.683079 
L 405.675036 191.835906 
L 405.690139 193.075859 
L 405.765579 190.562237 
L 405.931092 186.782929 
L 405.946108 187.596444 
L 405.961119 188.239498 
L 406.036096 187.21139 
L 406.051076 187.897555 
L 406.066051 187.438026 
L 406.110945 189.00061 
L 406.155793 187.911579 
L 406.170733 189.034255 
L 406.245354 187.346356 
L 406.260263 187.741291 
L 406.379353 183.411212 
L 406.409076 183.418065 
L 406.498122 188.066064 
L 406.557387 187.141378 
L 406.572191 185.910369 
L 406.616572 190.969321 
L 406.660908 189.663234 
L 406.690441 190.656219 
L 406.764186 195.026349 
L 406.808374 192.661372 
L 406.911308 190.552211 
L 406.925993 191.654013 
L 406.999345 189.866477 
L 407.072575 190.424136 
L 407.116455 194.581204 
L 407.18949 193.84135 
L 407.276973 191.255569 
L 407.291537 191.885358 
L 407.306095 193.496245 
L 407.393347 192.514809 
L 407.567333 189.925217 
L 407.422393 192.78528 
L 407.654069 190.257372 
L 407.769451 196.096263 
L 407.783853 194.74465 
L 407.984981 191.631241 
L 408.070898 198.462983 
L 408.0995 198.284797 
L 408.113794 198.472653 
L 408.128083 198.232231 
L 408.156648 195.782419 
L 408.213722 199.649866 
L 408.242231 197.164811 
L 408.28496 197.506484 
L 408.313423 196.713726 
L 408.327648 197.337779 
L 408.44128 195.665854 
L 408.455463 195.718753 
L 408.469642 195.993225 
L 408.483816 195.696706 
L 408.497986 199.185699 
L 408.597046 198.737211 
L 408.611179 198.632219 
L 408.625308 198.991847 
L 408.681778 198.854772 
L 408.695884 199.326425 
L 408.752263 197.885571 
L 408.766346 197.744682 
L 408.780425 198.466499 
L 408.7945 198.412238 
L 408.836696 198.830004 
L 408.864805 197.99298 
L 408.934998 195.121927 
L 408.991072 195.365921 
L 409.144907 191.515943 
L 409.200714 192.916659 
L 409.270374 196.945813 
L 409.326022 195.710353 
L 409.395484 197.575528 
L 409.437108 197.193856 
L 409.478693 195.805969 
L 409.492546 198.200058 
L 409.589395 198.189337 
L 409.617027 199.649866 
L 409.630837 199.658159 
L 409.644642 199.579084 
L 409.727382 197.958754 
L 409.741157 198.196338 
L 409.892397 210.915297 
L 409.90612 210.815728 
L 409.947264 211.405541 
L 409.98837 210.340124 
L 410.288646 204.704901 
L 410.410898 208.537336 
L 410.505749 207.196255 
L 410.438019 208.628016 
L 410.519282 208.16771 
L 410.546337 207.701152 
L 410.654388 205.377039 
L 410.586887 207.994548 
L 410.68136 206.103852 
L 410.789081 206.884971 
L 410.802527 206.504194 
L 410.829408 205.676422 
L 410.909952 202.017578 
L 410.963566 202.923085 
L 410.97696 204.536267 
L 411.057234 201.23946 
L 411.08396 201.010028 
L 411.190701 203.388847 
L 411.217346 203.308549 
L 411.270587 201.454524 
L 411.350329 202.237071 
L 411.416669 202.251109 
L 411.496147 201.302309 
L 411.509379 201.692143 
L 411.549052 201.202885 
L 411.628291 207.242743 
L 411.667857 206.324713 
L 411.694214 205.406615 
L 411.707387 206.804435 
L 411.720556 206.716448 
L 411.773192 208.542528 
L 411.838899 208.13572 
L 412.074635 203.381933 
L 411.865154 208.302046 
L 412.113802 203.541396 
L 412.179002 206.504194 
L 412.244107 205.483827 
L 412.399965 202.375716 
L 412.412928 203.245958 
L 412.477687 201.065756 
L 412.490628 200.678105 
L 412.503565 201.042816 
L 412.529426 203.835883 
L 412.606921 202.189602 
L 412.735776 200.627745 
L 412.697159 202.314785 
L 412.761501 200.967636 
L 412.774359 202.180954 
L 412.851423 199.958149 
L 412.877082 199.137456 
L 412.953967 199.173245 
L 412.979565 203.462089 
L 413.094575 202.772795 
L 413.132845 202.454548 
L 413.145594 205.987501 
L 413.234735 203.254284 
L 413.247455 203.100321 
L 413.260171 204.377069 
L 413.33639 202.184694 
L 413.361767 204.222156 
L 413.37445 204.383128 
L 413.412478 201.955377 
L 413.425146 206.21768 
L 413.46313 206.153001 
L 413.475784 206.070942 
L 413.652557 200.673318 
L 413.665157 201.010028 
L 413.715519 199.620513 
L 413.7281 199.645607 
L 413.753253 199.564982 
L 413.778391 198.936005 
L 413.816071 199.758664 
L 413.903865 201.722752 
L 413.928917 200.436711 
L 414.041475 199.345154 
L 413.966469 201.392438 
L 414.053964 199.562073 
L 414.091409 200.061862 
L 414.128822 198.757304 
L 414.203553 196.357177 
L 414.215995 197.471019 
L 414.228435 204.444968 
L 414.327822 203.696488 
L 414.365035 204.179625 
L 414.389826 203.896204 
L 414.426986 202.896829 
L 414.501213 203.208624 
L 414.525927 204.391854 
L 414.587652 202.426616 
L 414.649291 203.90991 
L 414.710844 202.882404 
L 414.747734 203.108865 
L 414.845957 200.513052 
L 414.882734 200.697258 
L 414.894986 200.125983 
L 414.907235 199.981807 
L 415.029536 203.243817 
L 415.102754 200.594953 
L 415.139317 202.652314 
L 415.151498 202.703212 
L 415.163676 203.426769 
L 415.200189 200.839495 
L 415.236671 201.431436 
L 415.248825 201.686812 
L 415.297408 200.686312 
L 415.309546 200.958703 
L 415.467027 195.571716 
L 415.51537 194.385939 
L 415.623947 194.427244 
L 415.648039 192.857343 
L 415.696183 193.202232 
L 415.684152 192.558442 
L 415.720236 192.849332 
L 415.816314 192.343771 
L 415.744275 194.151387 
L 415.840301 192.505051 
L 415.96004 191.012822 
L 415.971996 190.910139 
L 415.983948 191.366657 
L 416.019787 191.106924 
L 416.115214 198.062582 
L 416.150946 207.84164 
L 416.234208 205.664785 
L 416.376578 203.200305 
L 416.30545 206.121811 
L 416.388421 203.719738 
L 416.471235 212.391206 
L 416.542095 207.460672 
L 416.553894 207.385225 
L 416.577482 206.51951 
L 416.612841 208.805092 
L 416.659942 207.523192 
L 416.753992 206.293684 
L 416.695234 207.91766 
L 416.765734 207.388282 
L 416.824398 213.127353 
L 416.906397 212.060311 
L 416.97656 211.309511 
L 417.046611 210.38508 
L 417.069937 211.605161 
L 417.081595 210.948793 
L 417.13984 213.146405 
L 417.18638 211.645329 
L 417.256099 210.310171 
L 417.36047 217.873897 
L 417.38363 217.0457 
L 417.626076 209.184685 
L 417.637588 208.831176 
L 417.672105 210.102785 
L 417.695102 209.927184 
L 417.809905 218.84402 
L 417.912972 216.239612 
L 418.038616 214.08964 
L 417.981549 216.777295 
L 418.061422 215.174042 
L 418.141149 219.085913 
L 418.129769 214.761653 
L 418.243444 217.981867 
L 418.254796 217.304495 
L 418.36815 236.405083 
L 418.50379 229.697633 
L 418.548911 231.173307 
L 418.650263 230.360136 
L 418.605246 231.452251 
L 418.66151 230.79124 
L 418.672754 230.990818 
L 418.695234 229.871817 
L 418.818667 224.98788 
L 418.841073 225.724548 
L 418.885849 252.083245 
L 419.008749 242.409456 
L 419.153554 236.042175 
L 419.186903 236.551849 
L 419.198014 237.317823 
L 419.242428 233.639691 
L 419.253525 233.660542 
L 419.286798 233.912896 
L 419.297884 233.772 
L 419.51901 226.671863 
L 419.530037 227.141964 
L 419.563102 229.05872 
L 419.629157 227.658844 
L 419.640157 226.715692 
L 419.695114 230.360136 
L 419.73903 227.198863 
L 419.760971 228.008651 
L 419.793863 225.354748 
L 419.826731 226.733935 
L 419.870516 224.818023 
L 419.892392 228.680691 
L 419.914257 228.664387 
L 419.925186 228.589447 
L 419.947035 228.867956 
L 420.012517 233.796052 
L 420.067011 230.959579 
L 420.110557 229.638701 
L 420.143189 231.762606 
L 420.16493 231.520575 
L 420.175797 231.794645 
L 420.20838 230.466038 
L 420.251787 230.600547 
L 420.273475 229.150311 
L 420.338473 228.316537 
L 420.392565 234.458654 
L 420.414184 234.261216 
L 420.597511 244.096841 
L 420.608271 243.39061 
L 420.640536 244.891451 
L 420.72646 241.854901 
L 420.780078 244.043084 
L 420.83363 241.544318 
L 420.844333 240.044198 
L 420.908494 243.113909 
L 420.94054 241.583334 
L 420.972562 238.917721 
L 420.983231 239.001912 
L 421.057841 236.066738 
L 421.100418 237.234692 
L 421.142955 238.144889 
L 421.164208 237.084178 
L 421.323277 231.934824 
L 421.502864 227.988587 
L 421.523943 228.573168 
L 421.608162 230.101385 
L 421.576599 227.641389 
L 421.639702 229.440229 
L 421.660716 228.29313 
L 421.713208 228.850148 
L 421.723699 233.024884 
L 421.818004 230.769855 
L 421.82847 230.324753 
L 421.838933 233.460984 
L 421.849394 233.388473 
L 421.922551 235.235534 
L 421.964301 234.239362 
L 422.037267 235.0118 
L 422.099714 232.611629 
L 422.224341 239.83944 
L 422.296878 241.407736 
L 422.245078 239.218943 
L 422.348617 240.319463 
L 422.358957 240.047259 
L 422.389964 241.619682 
L 422.400295 244.753718 
L 422.50347 242.399906 
L 422.554966 241.246921 
L 422.565258 241.546111 
L 422.606403 246.964639 
L 422.678313 246.92346 
L 422.832012 241.66234 
L 422.719352 247.011735 
L 422.862687 242.272721 
L 422.995368 251.795712 
L 423.015745 251.002016 
L 423.269663 258.693215 
L 423.046292 250.794237 
L 423.320271 257.456147 
L 423.330386 256.350343 
L 423.360716 261.257822 
L 423.380924 261.04387 
L 423.441494 265.690039 
L 423.491905 265.417893 
L 423.522124 262.523422 
L 423.572443 267.893073 
L 423.5825 267.852179 
L 423.612657 263.299816 
L 423.622705 273.72647 
L 423.642793 273.240476 
L 423.763132 284.418545 
L 423.672909 270.874743 
L 423.843176 280.210957 
L 424.032698 265.3813 
L 424.04265 268.302145 
L 424.122187 262.655521 
L 424.132119 263.588389 
L 424.280831 254.924441 
L 424.379694 258.924686 
L 424.340176 253.528678 
L 424.39944 255.975756 
L 424.55709 243.712713 
L 424.616063 246.782 
L 424.665148 243.930583 
L 424.674958 243.82993 
L 424.792511 240.962523 
L 424.802293 241.077634 
L 424.812072 244.371043 
L 424.88047 240.068693 
L 424.90975 241.058063 
L 424.919506 241.447112 
L 424.92926 239.719702 
L 424.987737 235.21494 
L 425.046136 236.911611 
L 425.191797 231.864503 
L 425.20149 231.787015 
L 425.211181 232.915572 
L 425.269285 230.379513 
L 425.288636 230.620375 
L 425.385263 227.875493 
L 425.317647 231.658977 
L 425.404563 228.996036 
L 425.433497 229.2746 
L 425.452776 228.593427 
L 425.462412 228.864685 
L 425.587492 225.659713 
L 425.597099 225.665228 
L 425.635505 222.783256 
L 425.693051 226.980042 
L 425.702635 226.919477 
L 425.807919 222.852973 
L 425.817478 225.712472 
L 425.836589 225.134292 
L 425.855692 226.933204 
L 426.055776 237.90803 
L 426.065281 237.519231 
L 426.084285 236.951487 
L 426.160219 250.286961 
L 426.245489 247.911605 
L 426.368365 238.549692 
L 426.424962 242.33083 
L 426.47207 240.300136 
L 426.481486 240.795802 
L 426.509721 244.096841 
L 426.594317 242.035873 
L 426.603706 241.854901 
L 426.622479 242.476346 
L 426.631863 244.226522 
L 426.706859 238.917292 
L 426.819114 236.062234 
L 426.893791 244.436849 
L 426.931083 239.658835 
L 427.070645 234.82057 
L 426.996267 240.585397 
L 427.079933 235.357222 
L 427.209766 229.31743 
L 427.228282 228.408813 
L 427.237537 227.065711 
L 427.339217 227.229632 
L 427.348448 227.834388 
L 427.385357 225.336575 
L 427.431449 221.178218 
L 427.495896 223.500028 
L 427.587801 231.491338 
L 427.624509 229.736338 
L 427.688675 230.684392 
L 427.7436 227.065711 
L 427.953512 220.761358 
L 427.971718 221.157738 
L 427.999013 219.385918 
L 428.126166 215.419108 
L 428.1443 216.676504 
L 428.352314 225.55674 
L 428.38839 222.090156 
L 428.406417 221.112963 
L 428.424437 222.801335 
L 428.5324 230.693757 
L 428.541385 230.322891 
L 428.613199 232.628646 
L 428.640099 230.211665 
L 429.059399 219.192356 
L 428.658023 230.236571 
L 429.068278 219.194833 
L 429.077154 219.348957 
L 429.086028 218.253249 
L 429.156959 213.819286 
L 429.201233 217.482761 
L 429.342612 211.941532 
L 429.377885 215.956847 
L 429.448348 211.13471 
L 429.501121 212.541936 
L 429.580162 209.163956 
L 429.615246 211.683608 
L 429.650302 207.556647 
L 429.659061 207.632309 
L 429.68533 208.637378 
L 429.676575 207.378093 
L 429.711582 207.825216 
L 429.807709 211.803251 
L 429.825164 210.807371 
L 429.842612 211.559288 
L 429.955855 208.104005 
L 429.981947 207.611851 
L 430.06013 213.692761 
L 430.19878 228.50954 
L 430.21608 228.059199 
L 430.224728 228.687576 
L 430.345618 223.94064 
L 430.35424 224.031498 
L 430.431765 231.629673 
L 430.466177 228.03876 
L 430.474776 227.399674 
L 430.526333 231.223551 
L 430.543505 231.429494 
L 430.552089 230.797244 
L 430.672084 228.057406 
L 430.612127 233.35597 
L 430.689199 228.886496 
L 430.697754 229.078778 
L 430.808822 235.106836 
L 430.817354 234.871934 
L 430.825884 233.759387 
L 430.84294 238.307844 
L 430.88555 237.261415 
L 430.953641 243.04585 
L 430.996145 240.985173 
L 431.021627 242.282251 
L 431.064065 238.97226 
L 431.081029 240.999388 
L 431.16575 236.006576 
L 431.174213 236.362686 
" style="fill:none;stroke:#1f77b4;stroke-linecap:square;stroke-width:1.5;"/>
   </g>
   <g id="patch_3">
    <path d="M 35.832685 297.448 
L 35.832685 10.8 
" style="fill:none;stroke:#000000;stroke-linecap:square;stroke-linejoin:miter;stroke-width:0.8;"/>
   </g>
   <g id="patch_4">
    <path d="M 450 297.448 
L 450 10.8 
" style="fill:none;stroke:#000000;stroke-linecap:square;stroke-linejoin:miter;stroke-width:0.8;"/>
   </g>
   <g id="patch_5">
    <path d="M 35.832685 297.448 
L 450 297.448 
" style="fill:none;stroke:#000000;stroke-linecap:square;stroke-linejoin:miter;stroke-width:0.8;"/>
   </g>
   <g id="patch_6">
    <path d="M 35.832685 10.8 
L 450 10.8 
" style="fill:none;stroke:#000000;stroke-linecap:square;stroke-linejoin:miter;stroke-width:0.8;"/>
   </g>
  </g>
 </g>
 <defs>
  <clipPath id="pf169de4e6b">
   <rect height="286.648" width="414.167315" x="35.832685" y="10.8"/>
  </clipPath>
 </defs>
</svg>
