<?xml version="1.0" encoding="utf-8" standalone="no"?>
<!DOCTYPE svg PUBLIC "-//W3C//DTD SVG 1.1//EN"
  "http://www.w3.org/Graphics/SVG/1.1/DTD/svg11.dtd">
<!-- Created with matplotlib (https://matplotlib.org/) -->
<svg height="345.6pt" version="1.1" viewBox="0 0 460.8 345.6" width="460.8pt" xmlns="http://www.w3.org/2000/svg" xmlns:xlink="http://www.w3.org/1999/xlink">
 <metadata>
  <rdf:RDF xmlns:cc="http://creativecommons.org/ns#" xmlns:dc="http://purl.org/dc/elements/1.1/" xmlns:rdf="http://www.w3.org/1999/02/22-rdf-syntax-ns#">
   <cc:Work>
    <dc:type rdf:resource="http://purl.org/dc/dcmitype/StillImage"/>
    <dc:date>2022-05-06T23:32:24.291654</dc:date>
    <dc:format>image/svg+xml</dc:format>
    <dc:creator>
     <cc:Agent>
      <dc:title>Matplotlib v3.3.4, https://matplotlib.org/</dc:title>
     </cc:Agent>
    </dc:creator>
   </cc:Work>
  </rdf:RDF>
 </metadata>
 <defs>
  <style type="text/css">*{stroke-linecap:butt;stroke-linejoin:round;}</style>
 </defs>
 <g id="figure_1">
  <g id="patch_1">
   <path d="M 0 345.6 
L 460.8 345.6 
L 460.8 0 
L 0 0 
z
" style="fill:#ffffff;"/>
  </g>
  <g id="axes_1">
   <g id="patch_2">
    <path d="M 36.012685 297.448 
L 450 297.448 
L 450 10.8 
L 36.012685 10.8 
z
" style="fill:#ffffff;"/>
   </g>
   <g id="matplotlib.axis_1">
    <g id="xtick_1">
     <g id="line2d_1">
      <defs>
       <path d="M 0 0 
L 0 3.5 
" id="mbf41ca0b98" style="stroke:#000000;stroke-width:0.8;"/>
      </defs>
      <g>
       <use style="stroke:#000000;stroke-width:0.8;" x="54.83029" xlink:href="#mbf41ca0b98" y="297.448"/>
      </g>
     </g>
     <g id="text_1">
      <!-- $\mathdefault{10^{0}}$ -->
      <g transform="translate(46.03029 312.046437)scale(0.1 -0.1)">
       <defs>
        <path d="M 12.40625 8.296875 
L 28.515625 8.296875 
L 28.515625 63.921875 
L 10.984375 60.40625 
L 10.984375 69.390625 
L 28.421875 72.90625 
L 38.28125 72.90625 
L 38.28125 8.296875 
L 54.390625 8.296875 
L 54.390625 0 
L 12.40625 0 
z
" id="DejaVuSans-49"/>
        <path d="M 31.78125 66.40625 
Q 24.171875 66.40625 20.328125 58.90625 
Q 16.5 51.421875 16.5 36.375 
Q 16.5 21.390625 20.328125 13.890625 
Q 24.171875 6.390625 31.78125 6.390625 
Q 39.453125 6.390625 43.28125 13.890625 
Q 47.125 21.390625 47.125 36.375 
Q 47.125 51.421875 43.28125 58.90625 
Q 39.453125 66.40625 31.78125 66.40625 
z
M 31.78125 74.21875 
Q 44.046875 74.21875 50.515625 64.515625 
Q 56.984375 54.828125 56.984375 36.375 
Q 56.984375 17.96875 50.515625 8.265625 
Q 44.046875 -1.421875 31.78125 -1.421875 
Q 19.53125 -1.421875 13.0625 8.265625 
Q 6.59375 17.96875 6.59375 36.375 
Q 6.59375 54.828125 13.0625 64.515625 
Q 19.53125 74.21875 31.78125 74.21875 
z
" id="DejaVuSans-48"/>
       </defs>
       <use transform="translate(0 0.765625)" xlink:href="#DejaVuSans-49"/>
       <use transform="translate(63.623047 0.765625)" xlink:href="#DejaVuSans-48"/>
       <use transform="translate(128.203125 39.046875)scale(0.7)" xlink:href="#DejaVuSans-48"/>
      </g>
     </g>
    </g>
    <g id="xtick_2">
     <g id="line2d_2">
      <g>
       <use style="stroke:#000000;stroke-width:0.8;" x="142.333517" xlink:href="#mbf41ca0b98" y="297.448"/>
      </g>
     </g>
     <g id="text_2">
      <!-- $\mathdefault{10^{1}}$ -->
      <g transform="translate(133.533517 312.046437)scale(0.1 -0.1)">
       <use transform="translate(0 0.684375)" xlink:href="#DejaVuSans-49"/>
       <use transform="translate(63.623047 0.684375)" xlink:href="#DejaVuSans-48"/>
       <use transform="translate(128.203125 38.965625)scale(0.7)" xlink:href="#DejaVuSans-49"/>
      </g>
     </g>
    </g>
    <g id="xtick_3">
     <g id="line2d_3">
      <g>
       <use style="stroke:#000000;stroke-width:0.8;" x="229.836744" xlink:href="#mbf41ca0b98" y="297.448"/>
      </g>
     </g>
     <g id="text_3">
      <!-- $\mathdefault{10^{2}}$ -->
      <g transform="translate(221.036744 312.046437)scale(0.1 -0.1)">
       <defs>
        <path d="M 19.1875 8.296875 
L 53.609375 8.296875 
L 53.609375 0 
L 7.328125 0 
L 7.328125 8.296875 
Q 12.9375 14.109375 22.625 23.890625 
Q 32.328125 33.6875 34.8125 36.53125 
Q 39.546875 41.84375 41.421875 45.53125 
Q 43.3125 49.21875 43.3125 52.78125 
Q 43.3125 58.59375 39.234375 62.25 
Q 35.15625 65.921875 28.609375 65.921875 
Q 23.96875 65.921875 18.8125 64.3125 
Q 13.671875 62.703125 7.8125 59.421875 
L 7.8125 69.390625 
Q 13.765625 71.78125 18.9375 73 
Q 24.125 74.21875 28.421875 74.21875 
Q 39.75 74.21875 46.484375 68.546875 
Q 53.21875 62.890625 53.21875 53.421875 
Q 53.21875 48.921875 51.53125 44.890625 
Q 49.859375 40.875 45.40625 35.40625 
Q 44.1875 33.984375 37.640625 27.21875 
Q 31.109375 20.453125 19.1875 8.296875 
z
" id="DejaVuSans-50"/>
       </defs>
       <use transform="translate(0 0.765625)" xlink:href="#DejaVuSans-49"/>
       <use transform="translate(63.623047 0.765625)" xlink:href="#DejaVuSans-48"/>
       <use transform="translate(128.203125 39.046875)scale(0.7)" xlink:href="#DejaVuSans-50"/>
      </g>
     </g>
    </g>
    <g id="xtick_4">
     <g id="line2d_4">
      <g>
       <use style="stroke:#000000;stroke-width:0.8;" x="317.339972" xlink:href="#mbf41ca0b98" y="297.448"/>
      </g>
     </g>
     <g id="text_4">
      <!-- $\mathdefault{10^{3}}$ -->
      <g transform="translate(308.539972 312.046437)scale(0.1 -0.1)">
       <defs>
        <path d="M 40.578125 39.3125 
Q 47.65625 37.796875 51.625 33 
Q 55.609375 28.21875 55.609375 21.1875 
Q 55.609375 10.40625 48.1875 4.484375 
Q 40.765625 -1.421875 27.09375 -1.421875 
Q 22.515625 -1.421875 17.65625 -0.515625 
Q 12.796875 0.390625 7.625 2.203125 
L 7.625 11.71875 
Q 11.71875 9.328125 16.59375 8.109375 
Q 21.484375 6.890625 26.8125 6.890625 
Q 36.078125 6.890625 40.9375 10.546875 
Q 45.796875 14.203125 45.796875 21.1875 
Q 45.796875 27.640625 41.28125 31.265625 
Q 36.765625 34.90625 28.71875 34.90625 
L 20.21875 34.90625 
L 20.21875 43.015625 
L 29.109375 43.015625 
Q 36.375 43.015625 40.234375 45.921875 
Q 44.09375 48.828125 44.09375 54.296875 
Q 44.09375 59.90625 40.109375 62.90625 
Q 36.140625 65.921875 28.71875 65.921875 
Q 24.65625 65.921875 20.015625 65.03125 
Q 15.375 64.15625 9.8125 62.3125 
L 9.8125 71.09375 
Q 15.4375 72.65625 20.34375 73.4375 
Q 25.25 74.21875 29.59375 74.21875 
Q 40.828125 74.21875 47.359375 69.109375 
Q 53.90625 64.015625 53.90625 55.328125 
Q 53.90625 49.265625 50.4375 45.09375 
Q 46.96875 40.921875 40.578125 39.3125 
z
" id="DejaVuSans-51"/>
       </defs>
       <use transform="translate(0 0.765625)" xlink:href="#DejaVuSans-49"/>
       <use transform="translate(63.623047 0.765625)" xlink:href="#DejaVuSans-48"/>
       <use transform="translate(128.203125 39.046875)scale(0.7)" xlink:href="#DejaVuSans-51"/>
      </g>
     </g>
    </g>
    <g id="xtick_5">
     <g id="line2d_5">
      <g>
       <use style="stroke:#000000;stroke-width:0.8;" x="404.843199" xlink:href="#mbf41ca0b98" y="297.448"/>
      </g>
     </g>
     <g id="text_5">
      <!-- $\mathdefault{10^{4}}$ -->
      <g transform="translate(396.043199 312.046437)scale(0.1 -0.1)">
       <defs>
        <path d="M 37.796875 64.3125 
L 12.890625 25.390625 
L 37.796875 25.390625 
z
M 35.203125 72.90625 
L 47.609375 72.90625 
L 47.609375 25.390625 
L 58.015625 25.390625 
L 58.015625 17.1875 
L 47.609375 17.1875 
L 47.609375 0 
L 37.796875 0 
L 37.796875 17.1875 
L 4.890625 17.1875 
L 4.890625 26.703125 
z
" id="DejaVuSans-52"/>
       </defs>
       <use transform="translate(0 0.684375)" xlink:href="#DejaVuSans-49"/>
       <use transform="translate(63.623047 0.684375)" xlink:href="#DejaVuSans-48"/>
       <use transform="translate(128.203125 38.965625)scale(0.7)" xlink:href="#DejaVuSans-52"/>
      </g>
     </g>
    </g>
    <g id="xtick_6">
     <g id="line2d_6">
      <defs>
       <path d="M 0 0 
L 0 2 
" id="medb313df87" style="stroke:#000000;stroke-width:0.6;"/>
      </defs>
      <g>
       <use style="stroke:#000000;stroke-width:0.6;" x="41.275869" xlink:href="#medb313df87" y="297.448"/>
      </g>
     </g>
    </g>
    <g id="xtick_7">
     <g id="line2d_7">
      <g>
       <use style="stroke:#000000;stroke-width:0.6;" x="46.350351" xlink:href="#medb313df87" y="297.448"/>
      </g>
     </g>
    </g>
    <g id="xtick_8">
     <g id="line2d_8">
      <g>
       <use style="stroke:#000000;stroke-width:0.6;" x="50.826362" xlink:href="#medb313df87" y="297.448"/>
      </g>
     </g>
    </g>
    <g id="xtick_9">
     <g id="line2d_9">
      <g>
       <use style="stroke:#000000;stroke-width:0.6;" x="81.171386" xlink:href="#medb313df87" y="297.448"/>
      </g>
     </g>
    </g>
    <g id="xtick_10">
     <g id="line2d_10">
      <g>
       <use style="stroke:#000000;stroke-width:0.6;" x="96.57994" xlink:href="#medb313df87" y="297.448"/>
      </g>
     </g>
    </g>
    <g id="xtick_11">
     <g id="line2d_11">
      <g>
       <use style="stroke:#000000;stroke-width:0.6;" x="107.512482" xlink:href="#medb313df87" y="297.448"/>
      </g>
     </g>
    </g>
    <g id="xtick_12">
     <g id="line2d_12">
      <g>
       <use style="stroke:#000000;stroke-width:0.6;" x="115.992421" xlink:href="#medb313df87" y="297.448"/>
      </g>
     </g>
    </g>
    <g id="xtick_13">
     <g id="line2d_13">
      <g>
       <use style="stroke:#000000;stroke-width:0.6;" x="122.921036" xlink:href="#medb313df87" y="297.448"/>
      </g>
     </g>
    </g>
    <g id="xtick_14">
     <g id="line2d_14">
      <g>
       <use style="stroke:#000000;stroke-width:0.6;" x="128.779096" xlink:href="#medb313df87" y="297.448"/>
      </g>
     </g>
    </g>
    <g id="xtick_15">
     <g id="line2d_15">
      <g>
       <use style="stroke:#000000;stroke-width:0.6;" x="133.853578" xlink:href="#medb313df87" y="297.448"/>
      </g>
     </g>
    </g>
    <g id="xtick_16">
     <g id="line2d_16">
      <g>
       <use style="stroke:#000000;stroke-width:0.6;" x="138.329589" xlink:href="#medb313df87" y="297.448"/>
      </g>
     </g>
    </g>
    <g id="xtick_17">
     <g id="line2d_17">
      <g>
       <use style="stroke:#000000;stroke-width:0.6;" x="168.674613" xlink:href="#medb313df87" y="297.448"/>
      </g>
     </g>
    </g>
    <g id="xtick_18">
     <g id="line2d_18">
      <g>
       <use style="stroke:#000000;stroke-width:0.6;" x="184.083167" xlink:href="#medb313df87" y="297.448"/>
      </g>
     </g>
    </g>
    <g id="xtick_19">
     <g id="line2d_19">
      <g>
       <use style="stroke:#000000;stroke-width:0.6;" x="195.015709" xlink:href="#medb313df87" y="297.448"/>
      </g>
     </g>
    </g>
    <g id="xtick_20">
     <g id="line2d_20">
      <g>
       <use style="stroke:#000000;stroke-width:0.6;" x="203.495648" xlink:href="#medb313df87" y="297.448"/>
      </g>
     </g>
    </g>
    <g id="xtick_21">
     <g id="line2d_21">
      <g>
       <use style="stroke:#000000;stroke-width:0.6;" x="210.424263" xlink:href="#medb313df87" y="297.448"/>
      </g>
     </g>
    </g>
    <g id="xtick_22">
     <g id="line2d_22">
      <g>
       <use style="stroke:#000000;stroke-width:0.6;" x="216.282323" xlink:href="#medb313df87" y="297.448"/>
      </g>
     </g>
    </g>
    <g id="xtick_23">
     <g id="line2d_23">
      <g>
       <use style="stroke:#000000;stroke-width:0.6;" x="221.356806" xlink:href="#medb313df87" y="297.448"/>
      </g>
     </g>
    </g>
    <g id="xtick_24">
     <g id="line2d_24">
      <g>
       <use style="stroke:#000000;stroke-width:0.6;" x="225.832816" xlink:href="#medb313df87" y="297.448"/>
      </g>
     </g>
    </g>
    <g id="xtick_25">
     <g id="line2d_25">
      <g>
       <use style="stroke:#000000;stroke-width:0.6;" x="256.177841" xlink:href="#medb313df87" y="297.448"/>
      </g>
     </g>
    </g>
    <g id="xtick_26">
     <g id="line2d_26">
      <g>
       <use style="stroke:#000000;stroke-width:0.6;" x="271.586394" xlink:href="#medb313df87" y="297.448"/>
      </g>
     </g>
    </g>
    <g id="xtick_27">
     <g id="line2d_27">
      <g>
       <use style="stroke:#000000;stroke-width:0.6;" x="282.518937" xlink:href="#medb313df87" y="297.448"/>
      </g>
     </g>
    </g>
    <g id="xtick_28">
     <g id="line2d_28">
      <g>
       <use style="stroke:#000000;stroke-width:0.6;" x="290.998876" xlink:href="#medb313df87" y="297.448"/>
      </g>
     </g>
    </g>
    <g id="xtick_29">
     <g id="line2d_29">
      <g>
       <use style="stroke:#000000;stroke-width:0.6;" x="297.92749" xlink:href="#medb313df87" y="297.448"/>
      </g>
     </g>
    </g>
    <g id="xtick_30">
     <g id="line2d_30">
      <g>
       <use style="stroke:#000000;stroke-width:0.6;" x="303.78555" xlink:href="#medb313df87" y="297.448"/>
      </g>
     </g>
    </g>
    <g id="xtick_31">
     <g id="line2d_31">
      <g>
       <use style="stroke:#000000;stroke-width:0.6;" x="308.860033" xlink:href="#medb313df87" y="297.448"/>
      </g>
     </g>
    </g>
    <g id="xtick_32">
     <g id="line2d_32">
      <g>
       <use style="stroke:#000000;stroke-width:0.6;" x="313.336044" xlink:href="#medb313df87" y="297.448"/>
      </g>
     </g>
    </g>
    <g id="xtick_33">
     <g id="line2d_33">
      <g>
       <use style="stroke:#000000;stroke-width:0.6;" x="343.681068" xlink:href="#medb313df87" y="297.448"/>
      </g>
     </g>
    </g>
    <g id="xtick_34">
     <g id="line2d_34">
      <g>
       <use style="stroke:#000000;stroke-width:0.6;" x="359.089621" xlink:href="#medb313df87" y="297.448"/>
      </g>
     </g>
    </g>
    <g id="xtick_35">
     <g id="line2d_35">
      <g>
       <use style="stroke:#000000;stroke-width:0.6;" x="370.022164" xlink:href="#medb313df87" y="297.448"/>
      </g>
     </g>
    </g>
    <g id="xtick_36">
     <g id="line2d_36">
      <g>
       <use style="stroke:#000000;stroke-width:0.6;" x="378.502103" xlink:href="#medb313df87" y="297.448"/>
      </g>
     </g>
    </g>
    <g id="xtick_37">
     <g id="line2d_37">
      <g>
       <use style="stroke:#000000;stroke-width:0.6;" x="385.430717" xlink:href="#medb313df87" y="297.448"/>
      </g>
     </g>
    </g>
    <g id="xtick_38">
     <g id="line2d_38">
      <g>
       <use style="stroke:#000000;stroke-width:0.6;" x="391.288777" xlink:href="#medb313df87" y="297.448"/>
      </g>
     </g>
    </g>
    <g id="xtick_39">
     <g id="line2d_39">
      <g>
       <use style="stroke:#000000;stroke-width:0.6;" x="396.36326" xlink:href="#medb313df87" y="297.448"/>
      </g>
     </g>
    </g>
    <g id="xtick_40">
     <g id="line2d_40">
      <g>
       <use style="stroke:#000000;stroke-width:0.6;" x="400.839271" xlink:href="#medb313df87" y="297.448"/>
      </g>
     </g>
    </g>
    <g id="xtick_41">
     <g id="line2d_41">
      <g>
       <use style="stroke:#000000;stroke-width:0.6;" x="431.184295" xlink:href="#medb313df87" y="297.448"/>
      </g>
     </g>
    </g>
    <g id="xtick_42">
     <g id="line2d_42">
      <g>
       <use style="stroke:#000000;stroke-width:0.6;" x="446.592848" xlink:href="#medb313df87" y="297.448"/>
      </g>
     </g>
    </g>
    <g id="text_6">
     <!-- Number of Particles -->
     <g transform="translate(184.01228 327.24425)scale(0.12 -0.12)">
      <defs>
       <path d="M 9.8125 72.90625 
L 23.09375 72.90625 
L 55.421875 11.921875 
L 55.421875 72.90625 
L 64.984375 72.90625 
L 64.984375 0 
L 51.703125 0 
L 19.390625 60.984375 
L 19.390625 0 
L 9.8125 0 
z
" id="DejaVuSans-78"/>
       <path d="M 8.5 21.578125 
L 8.5 54.6875 
L 17.484375 54.6875 
L 17.484375 21.921875 
Q 17.484375 14.15625 20.5 10.265625 
Q 23.53125 6.390625 29.59375 6.390625 
Q 36.859375 6.390625 41.078125 11.03125 
Q 45.3125 15.671875 45.3125 23.6875 
L 45.3125 54.6875 
L 54.296875 54.6875 
L 54.296875 0 
L 45.3125 0 
L 45.3125 8.40625 
Q 42.046875 3.421875 37.71875 1 
Q 33.40625 -1.421875 27.6875 -1.421875 
Q 18.265625 -1.421875 13.375 4.4375 
Q 8.5 10.296875 8.5 21.578125 
z
M 31.109375 56 
z
" id="DejaVuSans-117"/>
       <path d="M 52 44.1875 
Q 55.375 50.25 60.0625 53.125 
Q 64.75 56 71.09375 56 
Q 79.640625 56 84.28125 50.015625 
Q 88.921875 44.046875 88.921875 33.015625 
L 88.921875 0 
L 79.890625 0 
L 79.890625 32.71875 
Q 79.890625 40.578125 77.09375 44.375 
Q 74.3125 48.1875 68.609375 48.1875 
Q 61.625 48.1875 57.5625 43.546875 
Q 53.515625 38.921875 53.515625 30.90625 
L 53.515625 0 
L 44.484375 0 
L 44.484375 32.71875 
Q 44.484375 40.625 41.703125 44.40625 
Q 38.921875 48.1875 33.109375 48.1875 
Q 26.21875 48.1875 22.15625 43.53125 
Q 18.109375 38.875 18.109375 30.90625 
L 18.109375 0 
L 9.078125 0 
L 9.078125 54.6875 
L 18.109375 54.6875 
L 18.109375 46.1875 
Q 21.1875 51.21875 25.484375 53.609375 
Q 29.78125 56 35.6875 56 
Q 41.65625 56 45.828125 52.96875 
Q 50 49.953125 52 44.1875 
z
" id="DejaVuSans-109"/>
       <path d="M 48.6875 27.296875 
Q 48.6875 37.203125 44.609375 42.84375 
Q 40.53125 48.484375 33.40625 48.484375 
Q 26.265625 48.484375 22.1875 42.84375 
Q 18.109375 37.203125 18.109375 27.296875 
Q 18.109375 17.390625 22.1875 11.75 
Q 26.265625 6.109375 33.40625 6.109375 
Q 40.53125 6.109375 44.609375 11.75 
Q 48.6875 17.390625 48.6875 27.296875 
z
M 18.109375 46.390625 
Q 20.953125 51.265625 25.265625 53.625 
Q 29.59375 56 35.59375 56 
Q 45.5625 56 51.78125 48.09375 
Q 58.015625 40.1875 58.015625 27.296875 
Q 58.015625 14.40625 51.78125 6.484375 
Q 45.5625 -1.421875 35.59375 -1.421875 
Q 29.59375 -1.421875 25.265625 0.953125 
Q 20.953125 3.328125 18.109375 8.203125 
L 18.109375 0 
L 9.078125 0 
L 9.078125 75.984375 
L 18.109375 75.984375 
z
" id="DejaVuSans-98"/>
       <path d="M 56.203125 29.59375 
L 56.203125 25.203125 
L 14.890625 25.203125 
Q 15.484375 15.921875 20.484375 11.0625 
Q 25.484375 6.203125 34.421875 6.203125 
Q 39.59375 6.203125 44.453125 7.46875 
Q 49.3125 8.734375 54.109375 11.28125 
L 54.109375 2.78125 
Q 49.265625 0.734375 44.1875 -0.34375 
Q 39.109375 -1.421875 33.890625 -1.421875 
Q 20.796875 -1.421875 13.15625 6.1875 
Q 5.515625 13.8125 5.515625 26.8125 
Q 5.515625 40.234375 12.765625 48.109375 
Q 20.015625 56 32.328125 56 
Q 43.359375 56 49.78125 48.890625 
Q 56.203125 41.796875 56.203125 29.59375 
z
M 47.21875 32.234375 
Q 47.125 39.59375 43.09375 43.984375 
Q 39.0625 48.390625 32.421875 48.390625 
Q 24.90625 48.390625 20.390625 44.140625 
Q 15.875 39.890625 15.1875 32.171875 
z
" id="DejaVuSans-101"/>
       <path d="M 41.109375 46.296875 
Q 39.59375 47.171875 37.8125 47.578125 
Q 36.03125 48 33.890625 48 
Q 26.265625 48 22.1875 43.046875 
Q 18.109375 38.09375 18.109375 28.8125 
L 18.109375 0 
L 9.078125 0 
L 9.078125 54.6875 
L 18.109375 54.6875 
L 18.109375 46.1875 
Q 20.953125 51.171875 25.484375 53.578125 
Q 30.03125 56 36.53125 56 
Q 37.453125 56 38.578125 55.875 
Q 39.703125 55.765625 41.0625 55.515625 
z
" id="DejaVuSans-114"/>
       <path id="DejaVuSans-32"/>
       <path d="M 30.609375 48.390625 
Q 23.390625 48.390625 19.1875 42.75 
Q 14.984375 37.109375 14.984375 27.296875 
Q 14.984375 17.484375 19.15625 11.84375 
Q 23.34375 6.203125 30.609375 6.203125 
Q 37.796875 6.203125 41.984375 11.859375 
Q 46.1875 17.53125 46.1875 27.296875 
Q 46.1875 37.015625 41.984375 42.703125 
Q 37.796875 48.390625 30.609375 48.390625 
z
M 30.609375 56 
Q 42.328125 56 49.015625 48.375 
Q 55.71875 40.765625 55.71875 27.296875 
Q 55.71875 13.875 49.015625 6.21875 
Q 42.328125 -1.421875 30.609375 -1.421875 
Q 18.84375 -1.421875 12.171875 6.21875 
Q 5.515625 13.875 5.515625 27.296875 
Q 5.515625 40.765625 12.171875 48.375 
Q 18.84375 56 30.609375 56 
z
" id="DejaVuSans-111"/>
       <path d="M 37.109375 75.984375 
L 37.109375 68.5 
L 28.515625 68.5 
Q 23.6875 68.5 21.796875 66.546875 
Q 19.921875 64.59375 19.921875 59.515625 
L 19.921875 54.6875 
L 34.71875 54.6875 
L 34.71875 47.703125 
L 19.921875 47.703125 
L 19.921875 0 
L 10.890625 0 
L 10.890625 47.703125 
L 2.296875 47.703125 
L 2.296875 54.6875 
L 10.890625 54.6875 
L 10.890625 58.5 
Q 10.890625 67.625 15.140625 71.796875 
Q 19.390625 75.984375 28.609375 75.984375 
z
" id="DejaVuSans-102"/>
       <path d="M 19.671875 64.796875 
L 19.671875 37.40625 
L 32.078125 37.40625 
Q 38.96875 37.40625 42.71875 40.96875 
Q 46.484375 44.53125 46.484375 51.125 
Q 46.484375 57.671875 42.71875 61.234375 
Q 38.96875 64.796875 32.078125 64.796875 
z
M 9.8125 72.90625 
L 32.078125 72.90625 
Q 44.34375 72.90625 50.609375 67.359375 
Q 56.890625 61.8125 56.890625 51.125 
Q 56.890625 40.328125 50.609375 34.8125 
Q 44.34375 29.296875 32.078125 29.296875 
L 19.671875 29.296875 
L 19.671875 0 
L 9.8125 0 
z
" id="DejaVuSans-80"/>
       <path d="M 34.28125 27.484375 
Q 23.390625 27.484375 19.1875 25 
Q 14.984375 22.515625 14.984375 16.5 
Q 14.984375 11.71875 18.140625 8.90625 
Q 21.296875 6.109375 26.703125 6.109375 
Q 34.1875 6.109375 38.703125 11.40625 
Q 43.21875 16.703125 43.21875 25.484375 
L 43.21875 27.484375 
z
M 52.203125 31.203125 
L 52.203125 0 
L 43.21875 0 
L 43.21875 8.296875 
Q 40.140625 3.328125 35.546875 0.953125 
Q 30.953125 -1.421875 24.3125 -1.421875 
Q 15.921875 -1.421875 10.953125 3.296875 
Q 6 8.015625 6 15.921875 
Q 6 25.140625 12.171875 29.828125 
Q 18.359375 34.515625 30.609375 34.515625 
L 43.21875 34.515625 
L 43.21875 35.40625 
Q 43.21875 41.609375 39.140625 45 
Q 35.0625 48.390625 27.6875 48.390625 
Q 23 48.390625 18.546875 47.265625 
Q 14.109375 46.140625 10.015625 43.890625 
L 10.015625 52.203125 
Q 14.9375 54.109375 19.578125 55.046875 
Q 24.21875 56 28.609375 56 
Q 40.484375 56 46.34375 49.84375 
Q 52.203125 43.703125 52.203125 31.203125 
z
" id="DejaVuSans-97"/>
       <path d="M 18.3125 70.21875 
L 18.3125 54.6875 
L 36.8125 54.6875 
L 36.8125 47.703125 
L 18.3125 47.703125 
L 18.3125 18.015625 
Q 18.3125 11.328125 20.140625 9.421875 
Q 21.96875 7.515625 27.59375 7.515625 
L 36.8125 7.515625 
L 36.8125 0 
L 27.59375 0 
Q 17.1875 0 13.234375 3.875 
Q 9.28125 7.765625 9.28125 18.015625 
L 9.28125 47.703125 
L 2.6875 47.703125 
L 2.6875 54.6875 
L 9.28125 54.6875 
L 9.28125 70.21875 
z
" id="DejaVuSans-116"/>
       <path d="M 9.421875 54.6875 
L 18.40625 54.6875 
L 18.40625 0 
L 9.421875 0 
z
M 9.421875 75.984375 
L 18.40625 75.984375 
L 18.40625 64.59375 
L 9.421875 64.59375 
z
" id="DejaVuSans-105"/>
       <path d="M 48.78125 52.59375 
L 48.78125 44.1875 
Q 44.96875 46.296875 41.140625 47.34375 
Q 37.3125 48.390625 33.40625 48.390625 
Q 24.65625 48.390625 19.8125 42.84375 
Q 14.984375 37.3125 14.984375 27.296875 
Q 14.984375 17.28125 19.8125 11.734375 
Q 24.65625 6.203125 33.40625 6.203125 
Q 37.3125 6.203125 41.140625 7.25 
Q 44.96875 8.296875 48.78125 10.40625 
L 48.78125 2.09375 
Q 45.015625 0.34375 40.984375 -0.53125 
Q 36.96875 -1.421875 32.421875 -1.421875 
Q 20.0625 -1.421875 12.78125 6.34375 
Q 5.515625 14.109375 5.515625 27.296875 
Q 5.515625 40.671875 12.859375 48.328125 
Q 20.21875 56 33.015625 56 
Q 37.15625 56 41.109375 55.140625 
Q 45.0625 54.296875 48.78125 52.59375 
z
" id="DejaVuSans-99"/>
       <path d="M 9.421875 75.984375 
L 18.40625 75.984375 
L 18.40625 0 
L 9.421875 0 
z
" id="DejaVuSans-108"/>
       <path d="M 44.28125 53.078125 
L 44.28125 44.578125 
Q 40.484375 46.53125 36.375 47.5 
Q 32.28125 48.484375 27.875 48.484375 
Q 21.1875 48.484375 17.84375 46.4375 
Q 14.5 44.390625 14.5 40.28125 
Q 14.5 37.15625 16.890625 35.375 
Q 19.28125 33.59375 26.515625 31.984375 
L 29.59375 31.296875 
Q 39.15625 29.25 43.1875 25.515625 
Q 47.21875 21.78125 47.21875 15.09375 
Q 47.21875 7.46875 41.1875 3.015625 
Q 35.15625 -1.421875 24.609375 -1.421875 
Q 20.21875 -1.421875 15.453125 -0.5625 
Q 10.6875 0.296875 5.421875 2 
L 5.421875 11.28125 
Q 10.40625 8.6875 15.234375 7.390625 
Q 20.0625 6.109375 24.8125 6.109375 
Q 31.15625 6.109375 34.5625 8.28125 
Q 37.984375 10.453125 37.984375 14.40625 
Q 37.984375 18.0625 35.515625 20.015625 
Q 33.0625 21.96875 24.703125 23.78125 
L 21.578125 24.515625 
Q 13.234375 26.265625 9.515625 29.90625 
Q 5.8125 33.546875 5.8125 39.890625 
Q 5.8125 47.609375 11.28125 51.796875 
Q 16.75 56 26.8125 56 
Q 31.78125 56 36.171875 55.265625 
Q 40.578125 54.546875 44.28125 53.078125 
z
" id="DejaVuSans-115"/>
      </defs>
      <use xlink:href="#DejaVuSans-78"/>
      <use x="74.804688" xlink:href="#DejaVuSans-117"/>
      <use x="138.183594" xlink:href="#DejaVuSans-109"/>
      <use x="235.595703" xlink:href="#DejaVuSans-98"/>
      <use x="299.072266" xlink:href="#DejaVuSans-101"/>
      <use x="360.595703" xlink:href="#DejaVuSans-114"/>
      <use x="401.708984" xlink:href="#DejaVuSans-32"/>
      <use x="433.496094" xlink:href="#DejaVuSans-111"/>
      <use x="494.677734" xlink:href="#DejaVuSans-102"/>
      <use x="529.882812" xlink:href="#DejaVuSans-32"/>
      <use x="561.669922" xlink:href="#DejaVuSans-80"/>
      <use x="617.472656" xlink:href="#DejaVuSans-97"/>
      <use x="678.751953" xlink:href="#DejaVuSans-114"/>
      <use x="719.865234" xlink:href="#DejaVuSans-116"/>
      <use x="759.074219" xlink:href="#DejaVuSans-105"/>
      <use x="786.857422" xlink:href="#DejaVuSans-99"/>
      <use x="841.837891" xlink:href="#DejaVuSans-108"/>
      <use x="869.621094" xlink:href="#DejaVuSans-101"/>
      <use x="931.144531" xlink:href="#DejaVuSans-115"/>
     </g>
    </g>
   </g>
   <g id="matplotlib.axis_2">
    <g id="ytick_1">
     <g id="line2d_43">
      <defs>
       <path d="M 0 0 
L -3.5 0 
" id="m96bf923976" style="stroke:#000000;stroke-width:0.8;"/>
      </defs>
      <g>
       <use style="stroke:#000000;stroke-width:0.8;" x="36.012685" xlink:href="#m96bf923976" y="171.138659"/>
      </g>
     </g>
     <g id="text_7">
      <!-- $\mathdefault{10^{0}}$ -->
      <g transform="translate(11.412685 174.937877)scale(0.1 -0.1)">
       <use transform="translate(0 0.765625)" xlink:href="#DejaVuSans-49"/>
       <use transform="translate(63.623047 0.765625)" xlink:href="#DejaVuSans-48"/>
       <use transform="translate(128.203125 39.046875)scale(0.7)" xlink:href="#DejaVuSans-48"/>
      </g>
     </g>
    </g>
    <g id="ytick_2">
     <g id="line2d_44">
      <defs>
       <path d="M 0 0 
L -2 0 
" id="m83627ecba3" style="stroke:#000000;stroke-width:0.6;"/>
      </defs>
      <g>
       <use style="stroke:#000000;stroke-width:0.6;" x="36.012685" xlink:href="#m83627ecba3" y="284.769661"/>
      </g>
     </g>
    </g>
    <g id="ytick_3">
     <g id="line2d_45">
      <g>
       <use style="stroke:#000000;stroke-width:0.6;" x="36.012685" xlink:href="#m83627ecba3" y="256.142644"/>
      </g>
     </g>
    </g>
    <g id="ytick_4">
     <g id="line2d_46">
      <g>
       <use style="stroke:#000000;stroke-width:0.6;" x="36.012685" xlink:href="#m83627ecba3" y="235.831452"/>
      </g>
     </g>
    </g>
    <g id="ytick_5">
     <g id="line2d_47">
      <g>
       <use style="stroke:#000000;stroke-width:0.6;" x="36.012685" xlink:href="#m83627ecba3" y="220.076868"/>
      </g>
     </g>
    </g>
    <g id="ytick_6">
     <g id="line2d_48">
      <g>
       <use style="stroke:#000000;stroke-width:0.6;" x="36.012685" xlink:href="#m83627ecba3" y="207.204435"/>
      </g>
     </g>
    </g>
    <g id="ytick_7">
     <g id="line2d_49">
      <g>
       <use style="stroke:#000000;stroke-width:0.6;" x="36.012685" xlink:href="#m83627ecba3" y="196.320948"/>
      </g>
     </g>
    </g>
    <g id="ytick_8">
     <g id="line2d_50">
      <g>
       <use style="stroke:#000000;stroke-width:0.6;" x="36.012685" xlink:href="#m83627ecba3" y="186.893243"/>
      </g>
     </g>
    </g>
    <g id="ytick_9">
     <g id="line2d_51">
      <g>
       <use style="stroke:#000000;stroke-width:0.6;" x="36.012685" xlink:href="#m83627ecba3" y="178.577418"/>
      </g>
     </g>
    </g>
    <g id="ytick_10">
     <g id="line2d_52">
      <g>
       <use style="stroke:#000000;stroke-width:0.6;" x="36.012685" xlink:href="#m83627ecba3" y="122.20045"/>
      </g>
     </g>
    </g>
    <g id="ytick_11">
     <g id="line2d_53">
      <g>
       <use style="stroke:#000000;stroke-width:0.6;" x="36.012685" xlink:href="#m83627ecba3" y="93.573432"/>
      </g>
     </g>
    </g>
    <g id="ytick_12">
     <g id="line2d_54">
      <g>
       <use style="stroke:#000000;stroke-width:0.6;" x="36.012685" xlink:href="#m83627ecba3" y="73.262241"/>
      </g>
     </g>
    </g>
    <g id="ytick_13">
     <g id="line2d_55">
      <g>
       <use style="stroke:#000000;stroke-width:0.6;" x="36.012685" xlink:href="#m83627ecba3" y="57.507656"/>
      </g>
     </g>
    </g>
    <g id="ytick_14">
     <g id="line2d_56">
      <g>
       <use style="stroke:#000000;stroke-width:0.6;" x="36.012685" xlink:href="#m83627ecba3" y="44.635223"/>
      </g>
     </g>
    </g>
    <g id="ytick_15">
     <g id="line2d_57">
      <g>
       <use style="stroke:#000000;stroke-width:0.6;" x="36.012685" xlink:href="#m83627ecba3" y="33.751737"/>
      </g>
     </g>
    </g>
    <g id="ytick_16">
     <g id="line2d_58">
      <g>
       <use style="stroke:#000000;stroke-width:0.6;" x="36.012685" xlink:href="#m83627ecba3" y="24.324032"/>
      </g>
     </g>
    </g>
    <g id="ytick_17">
     <g id="line2d_59">
      <g>
       <use style="stroke:#000000;stroke-width:0.6;" x="36.012685" xlink:href="#m83627ecba3" y="16.008206"/>
      </g>
     </g>
    </g>
   </g>
   <g id="line2d_60">
    <path clip-path="url(#p2fb28ff89d)" d="M -1 260.330641 
L 54.83029 260.315262 
L 81.171386 246.371406 
L 96.57994 236.589374 
L 107.512482 229.089641 
L 115.992421 229.089641 
L 128.779096 217.979134 
L 133.853578 217.979134 
L 142.333517 209.891878 
L 149.262132 203.610251 
L 155.120192 198.534 
L 157.742071 198.534 
L 164.670685 192.47248 
L 170.528745 187.72165 
L 175.603228 183.913013 
L 180.079239 180.822036 
L 184.083167 178.302766 
L 187.70516 176.255985 
L 191.011781 174.612216 
L 194.053578 173.322012 
L 196.869841 172.350139 
L 199.49172 171.671968 
L 201.944324 171.271233 
L 204.248191 171.138659 
L 205.709993 171.197519 
L 206.420335 168.491047 
L 207.802384 168.709972 
L 209.13593 163.989257 
L 212.278395 164.864545 
L 212.876867 162.796886 
L 214.046256 162.796886 
L 215.73552 163.749924 
L 216.282323 164.121585 
L 216.82137 164.121585 
L 217.877054 164.950811 
L 218.904202 164.950811 
L 220.394674 159.570816 
L 221.356806 159.570816 
L 222.295178 160.51568 
L 223.660673 156.016037 
L 224.105148 156.016037 
L 225.408207 157.63318 
L 226.252734 157.63318 
L 227.078901 158.857631 
L 227.485345 158.857631 
L 228.679228 160.942653 
L 229.45481 162.519376 
L 229.836744 161.130398 
L 230.214879 161.970815 
L 230.960043 159.391165 
L 232.051089 162.118544 
L 232.40792 160.898623 
L 232.761431 161.891524 
L 233.458738 159.61322 
L 233.802651 160.635587 
L 234.816103 157.593088 
L 235.477026 159.740739 
L 236.447347 157.066117 
L 237.080731 157.066117 
L 237.703732 155.483605 
L 238.011443 155.483605 
L 238.619491 154.041397 
L 238.919905 155.154868 
L 239.217963 155.154868 
L 239.513701 154.478911 
L 240.387353 158.15857 
L 240.958824 156.879102 
L 241.24137 154.442244 
L 241.52183 153.905779 
L 241.800235 155.182926 
L 242.076616 155.182926 
L 242.623419 154.186634 
L 242.893898 155.530819 
L 243.162466 155.070828 
L 243.429149 152.874227 
L 244.21815 151.761395 
L 244.477551 149.820131 
L 244.735194 149.523983 
L 244.991102 147.7292 
L 246.245413 146.647507 
L 246.491382 146.647507 
L 246.73577 147.941951 
L 246.978596 147.782267 
L 247.459643 147.782267 
L 247.697902 149.151342 
L 248.636274 148.71242 
L 248.867291 150.199938 
L 249.325154 150.143111 
L 249.552034 148.54922 
L 250.001769 151.693524 
L 250.224656 151.702001 
L 250.446244 150.102577 
L 251.319895 150.362805 
L 252.173912 150.889089 
L 252.384451 151.063499 
L 252.59383 149.651742 
L 253.419997 150.559243 
L 253.623762 152.490701 
L 253.826441 151.121828 
L 254.028044 151.431749 
L 254.228584 150.135 
L 254.428071 150.135 
L 254.626516 150.469073 
L 255.215709 146.942609 
L 255.410094 146.942609 
L 255.603489 147.307505 
L 255.795906 146.238464 
L 255.987353 146.625473 
L 256.177841 146.625473 
L 256.367378 145.605108 
L 256.555975 146.014051 
L 256.74364 145.039027 
L 257.116213 145.920366 
L 257.301139 144.989924 
L 257.485169 145.462734 
L 257.668313 145.462734 
L 257.850578 144.571821 
L 258.212506 145.583715 
L 258.392185 144.731509 
L 258.571019 145.271437 
L 258.749016 147.270097 
L 258.926182 146.420487 
L 259.102527 146.420487 
L 259.278057 148.51822 
L 259.45278 147.668648 
L 259.626703 148.332789 
L 259.799834 147.517723 
L 259.97218 148.209707 
L 260.143747 145.985198 
L 260.314544 146.676906 
L 260.484576 145.956369 
L 260.653851 145.956369 
L 260.822376 145.264371 
L 260.990156 145.985198 
L 261.32351 144.682832 
L 261.489097 145.434329 
L 261.653966 144.822088 
L 261.818123 145.605108 
L 261.981573 145.017975 
L 262.30638 146.68426 
L 262.467748 146.68426 
L 262.628434 146.12246 
L 262.788443 144.213427 
L 262.947782 143.716359 
L 263.106455 144.571821 
L 263.890033 142.38933 
L 264.044828 142.38933 
L 264.198995 142.007199 
L 264.352539 140.413908 
L 264.505466 140.413908 
L 264.809485 139.755075 
L 265.111091 139.755075 
L 265.559059 138.877641 
L 265.707216 139.779258 
L 265.854797 139.520153 
L 266.001808 139.520153 
L 266.148252 139.274857 
L 266.294133 139.274857 
L 266.439457 140.223537 
L 266.584228 138.824623 
L 266.872124 140.78531 
L 267.015259 140.592931 
L 267.157856 140.592931 
L 267.299921 140.413908 
L 267.441456 139.066799 
L 267.582466 140.095157 
L 267.862926 139.827674 
L 268.002384 138.549035 
L 268.141331 138.549035 
L 268.279773 137.326376 
L 268.555152 137.241849 
L 268.82855 137.168755 
L 268.964515 136.024818 
L 269.099995 135.975913 
L 269.234994 134.890452 
L 269.369516 134.890452 
L 269.503562 135.910811 
L 269.637138 135.894555 
L 269.770245 138.079077 
L 270.166793 138.102138 
L 270.428878 135.975913 
L 270.559246 136.024818 
L 270.689168 135.032913 
L 271.204459 135.372915 
L 271.332198 134.450878 
L 271.586394 134.701392 
L 271.712857 133.827152 
L 271.838901 133.827152 
L 271.964528 132.984017 
L 272.214543 134.305562 
L 272.338937 133.481406 
L 272.709693 134.078409 
L 272.954869 135.570983 
L 273.076866 134.780044 
L 273.198473 134.780044 
L 273.319692 136.090131 
L 273.440526 136.090131 
L 273.560977 137.462043 
L 273.681047 136.661293 
L 273.920055 137.286905 
L 274.038998 136.523149 
L 274.157569 136.861176 
L 274.51108 134.738075 
L 274.62819 135.101712 
L 274.744941 134.445678 
L 274.861333 134.827319 
L 274.977371 136.281319 
L 275.208387 135.011772 
L 275.552301 136.352597 
L 275.66625 135.759372 
L 275.779859 134.160841 
L 276.006064 134.633369 
L 276.118663 136.177403 
L 276.230929 136.177403 
L 276.342865 135.630083 
L 276.565752 137.241849 
L 276.676707 137.803507 
L 276.78734 139.544176 
L 276.897651 138.989831 
L 277.117317 136.833347 
L 277.226676 136.352597 
L 277.444454 133.405592 
L 277.552877 133.991036 
L 277.876302 132.824732 
L 278.196997 130.258312 
L 278.303297 129.941087 
L 278.515009 131.151594 
L 278.620424 129.945664 
L 278.725547 131.494283 
L 278.934926 130.032743 
L 279.246847 129.310565 
L 279.350255 129.977721 
L 279.658799 129.558707 
L 279.761093 129.558707 
L 279.863112 130.258312 
L 280.066333 129.006163 
L 280.167537 129.722077 
L 280.369141 128.541227 
L 280.669555 128.278272 
L 280.769167 127.317776 
L 280.967612 128.051952 
L 281.066448 127.95231 
L 281.165027 127.025799 
L 281.654122 131.061714 
L 281.848011 130.074066 
L 282.423812 130.037332 
L 282.518937 130.051103 
L 282.708474 129.184905 
L 282.991019 129.256656 
L 283.084736 130.198327 
L 283.271479 129.364557 
L 283.457309 129.432163 
L 283.642235 128.633726 
L 283.734362 128.717624 
L 283.826265 127.114406 
L 284.009409 128.160579 
L 284.373069 128.541227 
L 284.553602 127.143992 
L 284.643548 127.300784 
L 284.822804 126.640216 
L 285.001218 127.827074 
L 285.090112 127.182066 
L 285.178799 127.38157 
L 285.355553 128.664612 
L 285.443623 128.899351 
L 285.880937 125.722709 
L 286.054463 126.790595 
L 286.14093 125.447611 
L 286.313276 126.523696 
L 286.399157 126.523696 
L 286.570338 125.491967 
L 286.825672 126.094243 
L 286.910404 124.824487 
L 286.994947 125.138668 
L 287.079303 125.463734 
L 287.247454 126.606886 
L 287.414865 125.702408 
L 287.498295 124.493459 
L 287.581542 125.637523 
L 287.830194 124.430757 
L 287.995062 122.943353 
L 288.077229 124.083993 
L 288.159219 123.732924 
L 288.322669 123.732924 
L 288.566534 123.063682 
L 288.647476 123.063682 
L 288.728246 122.744956 
L 288.889272 121.42608 
L 289.209292 119.923065 
L 289.368297 119.008036 
L 289.447551 119.008036 
L 289.605565 120.545363 
L 289.684326 120.545363 
L 289.762924 121.000735 
L 289.919634 120.77055 
L 289.997747 120.77055 
L 290.153494 119.65871 
L 290.231129 119.65871 
L 290.385924 119.457484 
L 290.463086 119.933405 
L 290.616941 121.114611 
L 290.693636 121.62803 
L 290.846562 119.223598 
L 291.150581 120.643705 
L 291.226207 120.506803 
L 291.37701 121.646118 
L 291.452187 121.526911 
L 291.527216 121.415294 
L 291.602097 120.615579 
L 291.676831 121.922196 
L 291.751418 121.125306 
L 291.974306 122.318269 
L 292.048312 122.318269 
L 292.26947 120.788203 
L 292.342904 120.742323 
L 292.416196 121.400918 
L 292.489348 121.368592 
L 292.562359 121.34347 
L 292.635229 120.62964 
L 292.853008 122.024455 
L 292.925324 122.024455 
L 292.997503 122.75989 
L 293.069545 122.053727 
L 293.14145 122.079359 
L 293.498952 122.152698 
L 293.570051 121.487265 
L 293.641017 121.541339 
L 293.853122 123.199544 
L 293.993871 121.214554 
L 294.134101 122.853375 
L 294.204022 121.526911 
L 294.273815 121.646118 
L 294.34348 121.068304 
L 294.413017 121.200259 
L 294.551711 121.339883 
L 294.896248 119.223598 
L 295.033193 120.238058 
L 295.101481 119.744323 
L 295.169646 119.933405 
L 295.23769 119.933405 
L 295.373412 122.447585 
L 295.441092 121.951382 
L 295.508651 121.469258 
L 295.576091 121.70406 
L 295.710612 122.20045 
L 295.777694 123.195763 
L 295.844658 122.733759 
L 295.978234 122.285092 
L 296.177721 122.864609 
L 296.310132 122.436482 
L 296.376166 122.744956 
L 296.442085 122.333024 
L 296.639158 123.332135 
L 296.769974 122.566233 
L 296.835214 122.92834 
L 296.900342 122.566233 
L 297.030264 123.686888 
L 297.095059 123.332135 
L 297.353139 119.933405 
L 297.417386 121.014949 
L 297.481525 120.728218 
L 297.545556 120.450791 
L 297.609478 121.570212 
L 297.673294 121.300446 
L 297.800605 122.92834 
L 297.92749 122.421684 
L 297.990774 122.421684 
L 298.053953 122.909584 
L 298.179997 121.72944 
L 298.49329 123.625601 
L 298.80402 120.643705 
L 298.865863 120.506803 
L 298.989247 119.699778 
L 299.050789 119.58013 
L 299.357012 122.55138 
L 299.539569 121.602723 
L 299.600227 121.541339 
L 299.660788 120.788203 
L 299.781622 122.8384 
L 299.841895 122.079359 
L 299.962155 122.035429 
L 300.022143 121.314782 
L 300.261151 123.518604 
L 300.380094 122.112343 
L 300.557813 123.729085 
L 300.675832 123.048618 
L 300.910777 123.38151 
L 301.027706 121.415294 
L 301.202429 123.840574 
L 301.260492 122.492031 
L 301.318467 123.366311 
L 301.376353 122.774831 
L 301.434151 122.92834 
L 301.491861 123.090058 
L 301.664468 121.444065 
L 301.721829 122.344094 
L 301.779105 121.114611 
L 301.836294 121.311197 
L 302.177633 122.421684 
L 302.290735 121.487265 
L 302.403501 122.462394 
L 302.572025 121.143137 
L 302.628034 120.728218 
L 302.683961 121.014949 
L 302.739805 121.311197 
L 302.962366 119.79579 
L 303.017804 120.116574 
L 303.07316 120.116574 
L 303.183631 120.788203 
L 303.403616 122.988428 
L 303.513132 120.915569 
L 303.622334 122.436482 
L 303.676817 122.138018 
L 303.731223 122.569947 
L 303.78555 122.285092 
L 303.8398 121.300446 
L 303.893973 121.743951 
L 303.948069 121.487265 
L 304.056029 120.545363 
L 304.109895 121.000735 
L 304.163684 120.77055 
L 304.217398 120.54887 
L 304.324597 121.516094 
L 304.378084 121.311197 
L 304.431495 121.114611 
L 304.484831 121.62803 
L 304.538093 121.444065 
L 304.59128 121.444065 
L 304.644393 121.976941 
L 304.697431 121.805689 
L 304.750396 120.940388 
L 304.856105 122.92834 
L 304.908849 122.774831 
L 304.96152 121.907611 
L 305.014118 123.226022 
L 305.066644 123.093828 
L 305.119096 122.96964 
L 305.171477 122.127012 
L 305.223786 122.744956 
L 305.276022 123.38151 
L 305.432303 122.55138 
L 305.536134 122.466097 
L 305.639682 121.602723 
L 306.204208 127.449744 
L 306.407429 124.379893 
L 306.458065 124.430757 
L 306.559134 124.489537 
L 306.760471 121.831142 
L 306.860741 121.922196 
L 306.910776 121.311197 
L 307.010651 121.415294 
L 307.06049 122.240906 
L 307.110263 121.646118 
L 307.209615 121.907611 
L 307.506123 118.730426 
L 307.555316 118.900747 
L 307.604447 119.078622 
L 307.653513 117.962579 
L 307.702517 118.797121 
L 307.897901 123.902235 
L 307.946591 123.408126 
L 308.043783 123.408126 
L 308.140727 123.944691 
L 308.189107 123.472847 
L 308.237425 123.759805 
L 308.285682 124.056863 
L 308.52605 121.617182 
L 308.621774 121.933138 
L 308.717257 121.168117 
L 308.860033 122.92834 
L 309.002274 119.79579 
L 309.096807 121.225279 
L 309.191105 119.933405 
L 309.238167 121.014949 
L 309.425832 117.952801 
L 309.612576 116.034202 
L 309.705604 115.629104 
L 309.752033 116.037289 
L 309.798406 115.84949 
L 309.844721 115.84949 
L 310.075458 114.58288 
L 310.167362 113.858677 
L 310.304802 115.775875 
L 310.396153 114.34669 
L 310.441747 114.811715 
L 310.487285 115.886355 
L 310.5782 115.67796 
L 310.714165 114.823644 
L 310.804539 114.749159 
L 310.849645 114.680771 
L 310.984644 113.371594 
L 311.074378 113.328684 
L 311.1639 112.158985 
L 311.208582 112.679998 
L 311.386787 113.754355 
L 311.475577 113.754355 
L 311.56416 113.200269 
L 311.652538 113.797785 
L 311.696649 113.260138 
L 311.74071 113.855775 
L 311.784719 113.855775 
L 311.916443 112.314205 
L 312.004005 112.425496 
L 312.047711 112.489647 
L 312.178528 114.408537 
L 312.265489 112.896787 
L 312.308895 114.123763 
L 312.395559 114.232117 
L 312.568297 116.522155 
L 312.611359 116.058903 
L 312.654372 116.058903 
L 312.697337 115.607751 
L 312.740253 115.763621 
L 312.78312 116.534676 
L 312.82594 115.495098 
L 312.868711 115.668794 
L 313.039316 117.051876 
L 313.124332 117.486597 
L 313.209158 119.254017 
L 313.2515 118.847225 
L 313.630472 115.972524 
L 313.797699 117.486597 
L 313.922638 116.581667 
L 313.964193 116.91237 
L 314.088586 118.607372 
L 314.17129 116.8081 
L 314.212574 117.17918 
L 314.295008 117.17918 
L 314.377264 116.086713 
L 314.459342 116.861776 
L 314.500315 116.64442 
L 314.663765 117.268567 
L 314.704518 117.074121 
L 314.745228 115.668794 
L 314.826516 115.926336 
L 314.867095 115.763621 
L 315.069342 113.89352 
L 315.14994 113.89352 
L 315.390715 111.274081 
L 315.430696 111.716491 
L 315.470636 111.101878 
L 315.629974 110.3661 
L 315.709394 110.305691 
L 315.749041 111.292966 
L 315.828212 110.67236 
L 316.182456 113.754355 
L 316.221613 113.200269 
L 316.26073 113.777511 
L 316.299807 114.370238 
L 316.338843 113.823869 
L 316.37784 113.855775 
L 316.416797 112.772745 
L 316.49459 112.862914 
L 316.533427 112.862914 
L 316.610983 114.103301 
L 316.649701 113.041112 
L 316.72702 112.55951 
L 316.765621 112.635117 
L 316.996404 117.354977 
L 317.034732 117.486597 
L 317.225794 115.015045 
L 317.30195 115.328302 
L 317.339972 116.095988 
L 317.4159 115.668794 
L 317.453807 115.668794 
L 317.529509 116.037289 
L 317.718106 118.355951 
L 317.755713 118.355951 
L 317.830816 117.560648 
L 317.868312 118.451677 
L 317.905771 117.431963 
L 318.055239 113.68209 
L 318.092514 114.514813 
L 318.129753 114.514813 
L 318.166955 113.635918 
L 318.241251 114.182292 
L 318.46327 116.297543 
L 318.536989 115.754433 
L 318.610566 114.657015 
L 318.6473 115.000054 
L 318.793886 115.485979 
L 318.830444 115.264824 
L 318.976326 116.845981 
L 319.012709 116.64756 
L 319.049057 117.074121 
L 319.085371 116.272674 
L 319.12165 116.095988 
L 319.26642 114.432126 
L 319.446611 116.247822 
L 319.482547 116.120733 
L 319.554316 116.000266 
L 319.733151 118.607372 
L 319.768817 118.517846 
L 319.840048 117.79347 
L 319.911147 119.604027 
L 319.946646 119.539201 
L 320.017546 118.770428 
L 320.052946 119.386137 
L 320.123648 119.318321 
L 320.264658 122.020798 
L 320.334967 121.325537 
L 320.370073 121.34347 
L 320.440188 121.400918 
L 320.545118 120.102716 
L 320.580031 120.154709 
L 320.754113 117.243005 
L 320.788834 116.707284 
L 320.823524 116.798636 
L 320.996497 118.504602 
L 321.030997 118.633942 
L 321.134311 117.140941 
L 321.168686 117.29095 
L 321.237344 118.730426 
L 321.305879 118.425244 
L 321.510742 114.645143 
L 321.646707 114.895297 
L 321.782188 115.592506 
L 321.883482 114.904264 
L 321.917187 115.15928 
L 321.950862 115.422217 
L 322.018122 117.201506 
L 322.051708 116.874418 
L 322.152287 115.947883 
L 322.252601 116.91237 
L 322.28598 116.021858 
L 322.35265 116.359792 
L 322.452437 116.8081 
L 322.485641 116.55973 
L 322.518817 116.934527 
L 322.618169 116.861776 
L 322.816097 120.130436 
L 323.013 116.522155 
L 323.045718 116.99791 
L 323.143704 118.122677 
L 323.17631 117.988668 
L 323.241438 117.861666 
L 323.27396 119.03491 
L 323.37136 118.703784 
L 323.500839 119.675816 
L 323.533141 118.940942 
L 323.565414 120.213727 
L 323.59766 119.481299 
L 323.662071 120.742323 
L 323.694235 120.019687 
L 323.85465 117.332554 
L 323.886652 117.962579 
L 323.918627 119.267545 
L 323.982496 117.99193 
L 324.01439 118.014776 
L 324.109913 116.207476 
L 324.141701 116.247822 
L 324.173462 116.294433 
L 324.363473 118.359247 
L 324.395049 118.435154 
L 324.615352 121.772991 
L 324.64672 121.200259 
L 324.678062 122.050067 
L 324.740669 122.20045 
L 324.771934 121.6425 
L 324.834386 121.976941 
L 324.865573 122.156369 
L 325.052164 119.199957 
L 325.114158 119.4133 
L 325.268701 122.009829 
L 325.299534 121.570212 
L 325.330343 121.143137 
L 325.361126 122.138018 
L 325.391885 121.718561 
L 325.422618 122.744956 
L 325.514671 122.25931 
L 325.637061 123.671556 
L 325.789497 120.158178 
L 325.81991 120.531336 
L 325.8503 120.531336 
L 325.941323 119.648451 
L 326.001885 119.771763 
L 326.032129 120.18247 
L 326.062349 119.254017 
L 326.152867 118.355951 
L 326.243169 120.311149 
L 326.303251 119.867971 
L 326.512795 122.156369 
L 326.363239 119.457484 
L 326.542636 121.976941 
L 326.572453 121.100356 
L 326.632018 122.20045 
L 326.661765 121.339883 
L 326.691489 121.200259 
L 326.72119 119.699778 
L 326.810153 120.140837 
L 326.869347 121.311197 
L 326.957964 121.125306 
L 327.075801 119.539201 
L 327.105203 119.539201 
L 327.163939 120.154709 
L 327.193273 119.430287 
L 327.222584 119.430287 
L 327.251873 118.727095 
L 327.281139 120.019687 
L 327.310383 120.019687 
L 327.456264 118.607372 
L 327.514461 118.620655 
L 327.630587 119.348822 
L 327.659563 118.727095 
L 327.717449 119.481299 
L 327.775247 119.604027 
L 327.89058 121.922196 
L 327.97685 121.311197 
L 328.005564 121.415294 
L 328.148806 122.050067 
L 328.17739 121.487265 
L 328.205952 123.090058 
L 328.291511 123.438568 
L 328.433681 122.744956 
L 328.518729 123.180643 
L 328.688256 128.191055 
L 328.772736 125.787751 
L 328.800855 126.094243 
L 328.96913 129.037378 
L 329.108793 124.430757 
L 329.164515 124.446422 
L 329.192345 124.852213 
L 329.247944 124.146082 
L 329.275714 124.571994 
L 329.331191 123.917668 
L 329.386588 124.056863 
L 329.441904 123.472847 
L 329.552295 125.718648 
L 329.634879 124.666467 
L 329.662367 125.186638 
L 329.689835 124.935523 
L 329.826879 127.199001 
L 329.96343 126.761305 
L 329.990681 127.38157 
L 330.045126 126.992103 
L 330.072319 125.999969 
L 330.153781 126.640216 
L 330.180896 126.640216 
L 330.207992 128.143176 
L 330.289165 127.689396 
L 330.316184 127.556531 
L 330.424068 126.494626 
L 330.450991 127.211708 
L 330.50478 126.209352 
L 330.638922 124.430757 
L 330.665693 125.946795 
L 330.772591 125.816245 
L 330.852568 125.79996 
L 330.932376 125.015048 
L 330.985489 125.046909 
L 331.012018 125.07481 
L 331.038528 124.336912 
L 331.065019 125.154651 
L 331.144383 126.131201 
L 331.170801 125.411361 
L 331.197201 125.496002 
L 331.328924 124.239421 
L 331.381486 124.352535 
L 331.64321 120.573433 
L 331.669283 120.74585 
L 331.695339 120.238058 
L 331.721377 120.238058 
L 331.87723 116.037289 
L 331.903144 116.845981 
L 331.92904 116.845981 
L 332.084045 119.508535 
L 332.109818 118.451677 
L 332.161312 119.648451 
L 332.238421 120.531336 
L 332.26409 120.158178 
L 332.315375 119.79579 
L 332.519825 124.146082 
L 332.62164 121.718561 
L 332.647051 120.728218 
L 332.723182 122.009829 
L 332.799161 121.239584 
L 332.874988 123.41193 
L 332.925456 122.958371 
L 332.950665 122.020798 
L 332.975857 123.275249 
L 333.001032 123.074984 
L 333.076458 124.777007 
L 333.126659 124.599523 
L 333.276866 122.240906 
L 333.501068 127.642193 
L 333.60029 127.471076 
L 333.773309 123.545323 
L 333.822598 123.621774 
L 333.847219 123.671556 
L 334.019119 119.840456 
L 334.043613 120.615579 
L 334.26335 121.339883 
L 334.360604 123.438568 
L 334.384879 122.156369 
L 334.481823 120.130436 
L 334.530203 121.243162 
L 334.55437 121.469258 
L 334.578521 121.000735 
L 334.771181 118.451677 
L 334.795195 118.713772 
L 334.938962 120.475285 
L 335.034505 118.122677 
L 335.082186 118.135778 
L 335.106004 118.474822 
L 335.129808 118.175111 
L 335.201129 116.707284 
L 335.248602 117.431963 
L 335.272316 117.431963 
L 335.4615 114.45278 
L 335.485082 113.696531 
L 335.532201 115.668794 
L 335.55574 114.904264 
L 335.579263 114.904264 
L 335.720099 112.893963 
L 335.743521 112.893963 
L 335.837065 112.004444 
L 335.88375 111.274081 
L 335.907072 112.255917 
L 335.930379 113.271553 
L 335.953672 112.08991 
L 336.023464 112.489647 
L 336.069922 112.367024 
L 336.093129 112.862914 
L 336.162667 112.814983 
L 336.27828 111.067002 
L 336.301361 111.577471 
L 336.439551 114.931179 
L 336.508458 113.291539 
L 336.531399 114.46754 
L 336.57724 115.147238 
L 336.623026 114.680771 
L 336.645898 114.170578 
L 336.714432 114.904264 
L 336.737249 114.991063 
L 336.782843 114.021571 
L 336.851131 114.928188 
L 336.919296 115.180363 
L 336.941991 116.522155 
L 337.009993 115.607751 
L 337.032634 115.168314 
L 337.055261 115.926336 
L 337.077874 116.707284 
L 337.145635 115.252746 
L 337.168195 115.437388 
L 337.190741 115.036042 
L 337.213274 115.231619 
L 337.235794 114.264395 
L 337.258301 115.644364 
L 337.303274 115.264824 
L 337.32574 115.264824 
L 337.370633 115.714646 
L 337.482635 114.573994 
L 337.571999 115.972524 
L 337.594308 115.656577 
L 337.7501 112.523164 
L 337.794495 113.68209 
L 337.860991 112.635117 
L 337.971559 111.016091 
L 337.993634 111.880748 
L 338.081806 109.764023 
L 338.147801 109.782118 
L 338.169774 110.653803 
L 338.213682 109.342723 
L 338.235616 109.709794 
L 338.345101 108.722561 
L 338.366961 109.108567 
L 338.541383 113.673428 
L 338.563129 114.749159 
L 338.628295 113.420287 
L 338.649991 113.937122 
L 338.758291 113.797785 
L 338.887844 111.555714 
L 338.909393 111.563871 
L 339.059897 113.937122 
L 339.145632 115.33738 
L 339.188427 114.904264 
L 339.295205 115.288993 
L 339.465428 109.709794 
L 339.486652 110.358215 
L 339.507865 110.358215 
L 339.634892 107.318139 
L 339.656021 107.958076 
L 339.698246 108.303519 
L 339.782555 112.17835 
L 339.845664 111.784839 
L 339.992512 108.863355 
L 340.034365 110.397659 
L 340.097057 109.702054 
L 340.242939 106.760729 
L 340.263734 107.049101 
L 340.388263 108.936487 
L 340.429682 107.192973 
L 340.491727 107.742659 
L 340.533033 108.954163 
L 340.594909 107.647608 
L 340.615512 107.547959 
L 340.738896 105.743056 
L 340.923224 107.296443 
L 341.045614 105.71309 
L 341.065974 105.696965 
L 341.086324 105.237056 
L 341.147306 106.132619 
L 341.309449 107.725579 
L 341.531272 104.920226 
L 341.591545 105.604962 
L 341.631674 105.246151 
L 341.67176 104.118341 
L 341.751807 104.430246 
L 341.771793 104.430246 
L 341.831686 104.348132 
L 341.871562 105.046617 
L 341.990941 106.385342 
L 342.010801 106.385342 
L 342.149531 107.414723 
L 342.228579 105.227965 
L 342.287757 105.621045 
L 342.425482 101.942596 
L 342.46474 103.207412 
L 342.484354 103.43781 
L 342.503958 102.831679 
L 342.523552 102.239956 
L 342.562709 103.558995 
L 342.601826 103.222439 
L 342.660426 102.491437 
L 342.67994 103.173089 
L 342.699443 103.446453 
L 342.718936 102.46831 
L 342.757893 102.200302 
L 342.777356 102.483025 
L 342.874524 102.950797 
L 342.893927 102.83805 
L 342.913321 102.317305 
L 342.971443 103.689299 
L 343.010142 102.668545 
L 343.029476 102.586206 
L 343.222283 106.009256 
L 343.24151 105.955855 
L 343.356669 107.116168 
L 343.375828 106.628061 
L 343.49058 105.676243 
L 343.509672 105.678545 
L 343.643047 102.755315 
L 343.662062 103.62843 
L 343.700064 103.706709 
L 343.794904 104.850454 
L 343.813843 104.481387 
L 343.927282 102.668545 
L 343.946156 102.755315 
L 343.96502 102.846547 
L 344.021557 103.890037 
L 344.07801 103.370904 
L 344.096809 103.489696 
L 344.190665 103.585017 
L 344.228142 102.60941 
L 344.246867 102.755315 
L 344.265583 102.081607 
L 344.302987 102.390629 
L 344.452234 100.952322 
L 344.563787 101.734071 
L 344.582347 101.539052 
L 344.712016 100.313834 
L 344.748983 100.393016 
L 344.951662 98.108272 
L 345.080079 100.045934 
L 345.116689 99.881477 
L 345.134982 100.18948 
L 345.153265 100.116651 
L 345.17154 100.434658 
L 345.208063 99.541299 
L 345.262782 100.148127 
L 345.299217 98.925711 
L 345.408314 99.139279 
L 345.5352 100.657582 
L 345.607516 99.580011 
L 345.625574 100.767571 
L 345.643623 100.801637 
L 345.769726 102.65164 
L 345.787707 101.892934 
L 346.074247 98.21804 
L 346.092084 99.448563 
L 346.163349 98.828888 
L 346.269997 97.700115 
L 346.287743 97.849164 
L 346.42941 100.73754 
L 346.500046 99.233122 
L 346.552937 100.250615 
L 346.623344 99.39458 
L 346.588157 100.313834 
L 346.676063 100.100924 
L 346.763768 100.601719 
L 346.72871 99.317603 
L 346.781284 100.480322 
L 346.833785 99.485242 
L 346.886214 100.323722 
L 346.921127 100.226938 
L 346.938571 100.134353 
L 347.008268 102.17528 
L 347.077837 101.892934 
L 347.268498 99.156496 
L 347.406562 101.051118 
L 347.423785 101.065254 
L 347.612723 105.743056 
L 347.664089 104.197715 
L 347.681195 103.422691 
L 347.749545 104.992394 
L 347.817771 105.879378 
L 347.868861 105.357745 
L 347.987804 103.025451 
L 348.004765 103.595865 
L 348.258283 99.787845 
L 348.275124 99.969484 
L 348.325603 101.332891 
L 348.376015 100.379146 
L 348.493383 97.342037 
L 348.543573 97.996993 
L 348.560288 98.225494 
L 348.576996 97.372952 
L 348.61039 97.482278 
L 348.643755 95.855984 
L 348.727038 96.736515 
L 348.77692 97.980331 
L 348.893059 97.656073 
L 348.909621 97.656073 
L 349.074848 100.10289 
L 348.959265 97.453091 
L 349.091332 99.300306 
L 349.23936 97.300255 
L 349.452166 99.961652 
L 349.549984 96.881542 
L 349.598799 98.849749 
L 349.631307 98.912406 
L 349.647551 98.978982 
L 349.680017 97.29844 
L 349.744867 98.257192 
L 349.761063 99.085765 
L 349.85809 98.367425 
L 349.90651 98.585162 
L 349.938756 97.363856 
L 350.019252 98.225494 
L 350.083527 96.987555 
L 350.163717 97.402072 
L 350.243739 98.459236 
L 350.323592 97.958128 
L 350.339542 97.79757 
L 350.355486 98.367425 
L 350.371423 97.849164 
L 350.387354 98.796673 
L 350.435105 97.635906 
L 350.482797 98.330019 
L 350.514558 98.084132 
L 350.530429 98.700202 
L 350.546292 98.585162 
L 350.56215 99.217784 
L 350.593845 97.900834 
L 350.609682 97.900834 
L 350.688771 96.743663 
L 350.657155 97.980331 
L 350.720361 97.656073 
L 350.736146 98.677542 
L 350.814972 98.002548 
L 350.830718 97.591944 
L 350.862189 98.965657 
L 350.893635 98.519324 
L 351.03482 100.258511 
L 351.066123 100.252589 
L 351.081765 99.10869 
L 351.159878 100.671561 
L 351.20667 101.105675 
L 351.253403 100.410856 
L 351.268968 100.83975 
L 351.284527 100.881922 
L 351.300079 100.535993 
L 351.346698 101.892934 
L 351.362225 101.553385 
L 351.377746 101.553385 
L 351.439765 103.085287 
L 351.486213 102.023446 
L 351.671439 98.571984 
L 351.686834 98.330019 
L 351.732981 99.102957 
L 351.763715 99.39458 
L 351.779072 99.169894 
L 351.825107 97.79757 
L 351.917011 97.913763 
L 352.039205 99.271498 
L 352.054451 99.485242 
L 352.084926 98.796673 
L 352.115377 98.136147 
L 352.145803 99.338755 
L 352.191396 98.330019 
L 352.221761 98.571984 
L 352.252103 97.967377 
L 352.267264 97.967377 
L 352.358106 97.088473 
L 352.373225 96.297916 
L 352.403446 98.257192 
L 352.448731 97.372952 
L 352.463814 97.372952 
L 352.478892 96.593861 
L 352.554188 98.421733 
L 352.674353 100.024355 
L 352.644348 98.227358 
L 352.704335 99.961652 
L 352.853891 96.59564 
L 352.868815 96.958774 
L 352.913549 97.372952 
L 352.898644 96.643724 
L 352.958232 97.110136 
L 353.047439 95.31467 
L 353.091964 95.495337 
L 353.136437 95.562678 
L 353.29906 98.585162 
L 353.460991 95.266648 
L 353.475678 95.744623 
L 353.490359 95.889112 
L 353.534369 95.323252 
L 353.666092 92.729211 
L 353.6807 92.900295 
L 353.72449 93.712566 
L 353.782798 92.86345 
L 353.811918 92.740378 
L 353.82647 93.249825 
L 353.855557 94.301323 
L 353.957186 94.086845 
L 354.015139 95.362758 
L 354.073003 94.77815 
L 354.116343 93.975962 
L 354.174053 94.374778 
L 354.202875 94.927216 
L 354.260454 94.095134 
L 354.289211 93.386061 
L 354.361008 93.921476 
L 354.489902 95.254652 
L 354.61836 92.895486 
L 354.632607 93.254681 
L 354.746386 94.629711 
L 354.760584 94.047086 
L 354.774777 94.047086 
L 354.817325 93.633929 
L 354.831497 94.69542 
L 354.845664 94.784912 
L 354.873981 96.681168 
L 354.958808 95.633612 
L 354.972927 95.633612 
L 355.085693 94.690361 
L 355.141951 95.819405 
L 355.198126 95.466024 
L 355.240202 95.302658 
L 355.380122 97.198731 
L 355.449889 96.544068 
L 355.421998 97.502358 
L 355.463827 97.126392 
L 355.47776 97.722157 
L 355.533441 96.232681 
L 355.561251 97.088473 
L 355.575148 96.996554 
L 355.672287 100.116651 
L 355.699996 98.849749 
L 355.796817 97.110136 
L 355.810628 97.431217 
L 355.838236 99.580011 
L 355.920939 97.643238 
L 355.934706 97.643238 
L 356.058379 95.633612 
L 356.072096 95.659599 
L 356.113217 95.722045 
L 356.386222 100.363302 
L 356.427004 98.449857 
L 356.494877 100.244694 
L 356.603223 101.563627 
L 356.521992 100.157968 
L 356.616744 100.559879 
L 356.68428 99.969484 
L 356.697772 100.952322 
L 356.71126 100.952322 
L 356.859312 106.411184 
L 356.872743 105.789208 
L 356.966625 104.74269 
L 356.993406 105.357745 
L 357.006789 105.357745 
L 357.127028 107.173756 
L 357.140365 106.609149 
L 357.180346 108.236634 
L 357.220285 107.528548 
L 357.273472 109.740772 
L 357.353114 108.582327 
L 357.379624 108.532378 
L 357.445818 111.026803 
L 357.498691 110.569096 
L 357.511897 110.083331 
L 357.55149 112.314205 
L 357.564678 112.916562 
L 357.591041 110.3661 
L 357.604216 110.43188 
L 357.617386 109.483453 
L 357.683168 112.004444 
L 357.709448 110.632607 
L 357.748836 110.992001 
L 357.814391 109.629895 
L 357.840581 110.973275 
L 357.932105 110.495144 
L 357.945162 110.495144 
L 358.179423 117.538094 
L 358.412248 112.411565 
L 358.463794 113.440357 
L 358.643656 118.607372 
L 358.72048 118.171832 
L 358.758834 118.080131 
L 358.899134 122.053727 
L 358.924587 119.348822 
L 359.026231 119.840456 
L 359.038918 119.933405 
L 359.17819 123.438568 
L 359.190825 123.625601 
L 359.203457 122.344094 
L 359.216084 122.540244 
L 359.228708 122.020798 
L 359.253941 124.69407 
L 359.266552 124.165507 
L 359.304359 125.718648 
L 359.367287 123.759805 
L 359.37986 124.824487 
L 359.505363 121.845695 
L 359.530413 121.13957 
L 359.555448 123.332135 
L 359.592969 122.333024 
L 359.71777 124.666467 
L 359.667899 122.009829 
L 359.742682 124.165507 
L 359.804889 121.62803 
L 359.904208 117.861666 
L 359.928998 118.91749 
L 359.941386 119.467688 
L 360.015634 118.435154 
L 360.089736 117.444811 
L 360.102072 118.044171 
L 360.114405 118.660532 
L 360.163694 117.329352 
L 360.176007 117.965839 
L 360.188315 116.71987 
L 360.262082 118.171832 
L 360.286639 117.651008 
L 360.335706 116.012602 
L 360.409187 116.609892 
L 360.433649 116.609892 
L 360.494736 114.86841 
L 360.555725 115.495098 
L 360.580093 116.272674 
L 360.628783 114.068251 
L 360.786594 110.439782 
L 360.931687 112.269787 
L 360.810815 109.381048 
L 360.943753 111.487808 
L 360.967874 111.487808 
L 361.232196 108.224262 
L 361.244167 109.078139 
L 361.303966 108.026895 
L 361.3398 108.323361 
L 361.363671 108.236634 
L 361.470904 112.314205 
L 361.506581 111.651002 
L 361.518466 111.091143 
L 361.565969 112.646332 
L 361.601557 112.09267 
L 361.625264 112.114761 
L 361.672633 110.083331 
L 361.731762 111.883492 
L 361.861523 113.89352 
L 361.932115 110.87713 
L 361.990842 111.142163 
L 362.014308 112.034747 
L 362.084617 110.898473 
L 362.16648 108.392896 
L 362.224847 109.619598 
L 362.248168 110.675011 
L 362.32968 110.284703 
L 362.434225 108.614832 
L 362.445824 108.933963 
L 362.51534 110.653803 
L 362.561614 109.578442 
L 362.584729 110.347704 
L 362.630918 109.004713 
L 362.642457 109.404063 
L 362.677052 106.270456 
L 362.75765 107.296443 
L 362.815116 109.108567 
L 362.872495 108.514913 
L 362.918336 108.009678 
L 362.964122 108.994597 
L 363.021276 109.075604 
L 363.032697 109.609305 
L 363.066938 107.296443 
L 363.101149 107.940893 
L 363.135329 108.642359 
L 363.146715 108.236634 
L 363.192227 107.075433 
L 363.24904 107.977725 
L 363.283087 108.712526 
L 363.339764 107.335022 
L 363.452866 104.947272 
L 363.464157 105.568228 
L 363.486731 105.9373 
L 363.498012 105.227965 
L 363.509291 105.227965 
L 363.610645 101.942596 
L 363.655605 103.016911 
L 363.711729 104.67998 
L 363.790165 104.456919 
L 363.801357 104.740449 
L 363.846092 103.31704 
L 363.86844 102.77227 
L 363.913096 103.569835 
L 364.035629 108.564837 
L 364.046749 108.49247 
L 364.057866 109.414297 
L 364.135591 107.647608 
L 364.257411 104.794286 
L 364.268466 105.696965 
L 364.33473 110.717466 
L 364.466911 109.813159 
L 364.598635 105.227965 
L 364.620544 105.944257 
L 364.631494 106.086016 
L 364.642441 105.328104 
L 364.675263 103.872536 
L 364.729903 105.568228 
L 364.751737 105.485715 
L 364.76265 106.130287 
L 364.806268 104.259574 
L 364.828058 104.677742 
L 364.882479 102.789234 
L 364.947681 103.813535 
L 364.969391 103.813535 
L 365.1102 105.676243 
L 365.001931 103.325653 
L 365.14262 105.428529 
L 365.175013 105.094131 
L 365.207378 105.694662 
L 365.34731 109.238179 
L 365.41172 109.075604 
L 365.433166 109.024953 
L 365.443885 108.029355 
L 365.529523 109.047737 
L 365.550903 108.127908 
L 365.593626 108.206948 
L 365.604299 108.742641 
L 365.657621 106.658815 
L 365.668276 105.814617 
L 365.74278 108.234159 
L 365.89135 110.632607 
L 365.923111 111.749281 
L 365.965418 110.284703 
L 365.997118 110.728088 
L 366.039342 108.137778 
L 366.102591 110.159037 
L 366.113123 110.959906 
L 366.197268 109.363158 
L 366.207773 109.363158 
L 366.35454 106.130287 
L 366.40682 107.499451 
L 366.552822 108.85328 
L 366.573634 108.253962 
L 366.584035 109.189836 
L 366.594434 109.146638 
L 366.677522 110.505699 
L 366.708633 109.999981 
L 366.812153 108.85328 
L 366.781126 110.200876 
L 366.822489 109.414297 
L 366.843154 109.557882 
L 366.853482 109.136482 
L 366.884449 109.309541 
L 366.90508 108.026895 
L 366.956609 110.600837 
L 367.100517 112.837531 
L 367.162026 113.998255 
L 367.141534 112.635117 
L 367.223436 113.905142 
L 367.243883 112.772745 
L 367.315364 114.573994 
L 367.335762 113.512129 
L 367.529003 108.584826 
L 367.56956 110.117248 
L 367.589822 110.524178 
L 367.630315 109.136482 
L 367.670764 109.919422 
L 367.68087 109.854589 
L 367.701073 111.292966 
L 367.791855 110.513618 
L 367.862313 107.550386 
L 367.932641 108.742641 
L 367.952711 108.85328 
L 367.97277 111.024125 
L 368.022872 107.45343 
L 368.052901 107.647608 
L 368.092903 106.451159 
L 368.132863 109.342723 
L 368.142847 109.989576 
L 368.202693 107.958076 
L 368.212658 108.127908 
L 368.252493 106.943965 
L 368.302227 108.923868 
L 368.312166 108.654879 
L 368.460942 106.998883 
L 368.470839 107.260315 
L 368.530172 108.672414 
L 368.559803 107.173756 
L 368.579544 107.318139 
L 368.737107 104.023767 
L 368.746933 104.023767 
L 368.874441 101.196791 
L 368.923369 102.72778 
L 368.981999 101.430718 
L 369.001522 101.432759 
L 369.030789 99.897107 
L 369.118452 100.585774 
L 369.302858 104.913468 
L 369.438166 101.430718 
L 369.447813 101.604622 
L 369.524896 101.332891 
L 369.56338 102.600971 
L 369.669008 101.65388 
L 369.601824 103.558995 
L 369.678596 102.331958 
L 369.716924 101.95088 
L 369.803021 103.362281 
L 369.86985 100.75956 
L 369.927039 102.040053 
L 370.003158 103.102402 
L 369.955602 101.965381 
L 370.04116 102.239956 
L 370.154939 99.678919 
L 370.183331 100.585774 
L 370.19279 101.430718 
L 370.258938 98.093414 
L 370.324972 96.135934 
L 370.343817 98.002548 
L 370.372068 99.710007 
L 370.456695 98.502414 
L 370.522386 97.402072 
L 370.494247 99.10869 
L 370.578602 98.093414 
L 370.653428 98.736112 
L 370.672111 98.061863 
L 370.68145 98.64735 
L 370.821249 95.309522 
L 370.858443 94.281317 
L 370.886314 95.369633 
L 370.895599 95.369633 
L 370.923443 95.835077 
L 370.969804 94.547328 
L 370.997594 94.751115 
L 371.006853 94.060334 
L 371.108549 95.550582 
L 371.117781 95.211845 
L 371.200765 94.654969 
L 371.209974 95.689074 
L 371.237589 95.722045 
L 371.421175 93.125401 
L 371.430331 93.125401 
L 371.439485 92.908309 
L 371.476078 93.653572 
L 371.485221 93.449493 
L 371.540032 94.547328 
L 371.594763 93.495104 
L 371.685808 95.744623 
L 371.722165 93.890143 
L 371.767563 92.07653 
L 371.776636 91.673294 
L 371.803842 92.938782 
L 371.876296 92.020205 
L 371.894388 91.959288 
L 371.92151 93.035186 
L 371.99374 90.954629 
L 372.047823 89.963022 
L 372.101829 90.514467 
L 372.191668 91.778718 
L 372.209611 91.524994 
L 372.272343 89.72637 
L 372.334972 89.998435 
L 372.361781 90.785151 
L 372.442095 90.480029 
L 372.486641 88.85958 
L 372.566693 89.192778 
L 372.841142 84.756346 
L 372.876411 85.507469 
L 373.008378 89.73223 
L 373.078574 87.68988 
L 373.22731 84.159488 
L 373.236041 84.695315 
L 373.514383 79.572239 
L 373.549033 79.770574 
L 373.55769 79.880136 
L 373.583651 79.030328 
L 373.62688 79.409993 
L 373.644157 79.108321 
L 373.678689 80.728192 
L 373.687317 80.426348 
L 373.695943 81.015466 
L 373.764881 78.651491 
L 373.77349 78.802753 
L 373.782096 78.802753 
L 373.850879 79.466914 
L 373.833695 78.703984 
L 373.893804 79.073636 
L 373.910961 78.179366 
L 373.988071 79.51844 
L 373.996629 79.296428 
L 374.005185 79.290977 
L 374.073565 79.756213 
L 374.158867 76.872946 
L 374.167387 76.872946 
L 374.175905 77.919428 
L 374.218465 76.465101 
L 374.27797 77.25056 
L 374.337381 77.738499 
L 374.354339 76.65781 
L 374.388232 77.336057 
L 374.3967 77.411425 
L 374.405167 76.686149 
L 374.447471 77.127315 
L 374.455927 76.811925 
L 374.540376 77.771896 
L 374.590955 78.416766 
L 374.61622 77.127315 
L 374.666699 77.465209 
L 374.742292 75.969522 
L 374.77584 76.553758 
L 374.792604 75.301212 
L 374.834479 73.634524 
L 374.934793 74.33704 
L 374.976512 73.397582 
L 375.068134 75.523885 
L 375.076452 75.523885 
L 375.209298 77.402124 
L 375.093083 75.180695 
L 375.225871 77.101693 
L 375.341681 75.094449 
L 375.34994 75.747972 
L 375.506514 77.940404 
L 375.514737 77.855526 
L 375.522958 77.568873 
L 375.588663 78.698624 
L 375.596868 78.631158 
L 375.613273 78.565956 
L 375.703374 79.770574 
L 375.72791 79.426403 
L 375.768769 79.471296 
L 375.858502 78.668623 
L 375.866649 78.661127 
L 375.89922 77.618739 
L 375.964279 78.930921 
L 375.988647 78.15508 
L 376.045445 78.541403 
L 376.037336 78.090751 
L 376.053552 78.16247 
L 376.150703 81.78497 
L 376.174952 80.200807 
L 376.231473 78.811355 
L 376.295965 79.572239 
L 376.416595 80.628423 
L 376.568844 79.22237 
L 376.448698 80.81117 
L 376.608808 79.682288 
L 376.648731 82.645865 
L 376.752333 81.282024 
L 376.760291 81.282024 
L 376.768247 81.500674 
L 376.808002 80.156095 
L 376.823893 80.169503 
L 376.839777 80.19186 
L 376.92702 82.018541 
L 376.950778 81.22786 
L 376.958695 80.823691 
L 377.021966 82.114058 
L 377.037767 81.78497 
L 377.116675 85.016912 
L 377.179684 84.150731 
L 377.19542 84.391732 
L 377.226872 83.19798 
L 377.242589 82.747904 
L 377.266151 84.124471 
L 377.274002 84.124471 
L 377.344587 85.052827 
L 377.305389 83.504936 
L 377.383744 84.440887 
L 377.415041 85.961459 
L 377.516578 83.480379 
L 377.555559 83.178504 
L 377.641175 83.362744 
L 377.718842 80.978857 
L 377.79635 83.658803 
L 377.850511 83.118923 
L 377.881426 82.464126 
L 377.927752 83.687188 
L 378.012535 86.035275 
L 378.058701 85.16079 
L 378.081763 85.840523 
L 378.204524 82.815292 
L 378.349789 88.348696 
L 378.395547 87.162819 
L 378.524897 85.486676 
L 378.426022 87.960572 
L 378.547678 85.58425 
L 378.555269 85.622051 
L 378.570445 85.196852 
L 378.661378 82.950454 
L 378.69164 84.467383 
L 378.80491 85.025887 
L 378.774738 83.357851 
L 378.81245 84.894053 
L 378.947903 82.47009 
L 378.955414 83.094633 
L 379.067902 86.369374 
L 379.097843 86.26828 
L 379.276993 83.149309 
L 379.284439 83.162687 
L 379.31421 82.275014 
L 379.336523 84.511588 
L 379.351391 84.33007 
L 379.358822 84.614104 
L 379.418224 83.901426 
L 379.455303 84.194541 
L 379.477533 83.42764 
L 379.507153 85.133768 
L 379.566323 83.880316 
L 379.662279 84.526757 
L 379.595874 83.810866 
L 379.691755 84.437103 
L 379.713847 83.637838 
L 379.735926 85.580342 
L 379.802087 84.33007 
L 379.912101 86.09867 
L 379.860801 83.901426 
L 379.963331 85.904883 
L 379.977956 85.109338 
L 380.021796 88.236163 
L 380.043697 87.440467 
L 380.072879 88.324753 
L 380.131176 87.232368 
L 380.153014 87.37599 
L 380.276528 85.303965 
L 380.320025 85.523072 
L 380.32727 85.523072 
L 380.363473 86.588513 
L 380.414099 85.398442 
L 380.435775 85.552997 
L 380.450219 84.826408 
L 380.471875 86.036595 
L 380.551174 85.305257 
L 380.644678 89.254881 
L 380.687756 88.715501 
L 380.702104 88.100197 
L 380.737952 90.54594 
L 380.766606 89.927644 
L 380.845293 92.754741 
L 380.909552 91.492637 
L 380.952331 90.942497 
L 380.96658 92.606606 
L 380.995062 92.228743 
L 381.137153 95.548854 
L 381.151333 95.170799 
L 381.412712 90.061974 
L 381.433826 90.52046 
L 381.46899 92.361088 
L 381.539222 89.979249 
L 381.574289 88.795314 
L 381.623328 90.827444 
L 381.630329 90.827444 
L 381.672305 89.446209 
L 381.700263 91.021434 
L 381.721218 90.80327 
L 381.728201 91.444925 
L 381.81189 89.558298 
L 381.902347 89.921751 
L 381.937081 88.234759 
L 381.944024 88.234759 
L 381.978719 86.956346 
L 382.034167 88.882458 
L 382.041092 88.47714 
L 382.06186 89.804099 
L 382.144819 87.767405 
L 382.193128 85.961459 
L 382.234488 88.044281 
L 382.248264 87.960572 
L 382.262035 88.161808 
L 382.30332 87.217356 
L 382.461162 85.23295 
L 382.46801 85.23295 
L 382.55692 84.445932 
L 382.481702 85.549092 
L 382.56375 85.253594 
L 382.65925 87.75632 
L 382.693299 86.927914 
L 382.849533 83.880316 
L 382.856312 84.517907 
L 382.903725 83.013384 
L 382.95784 83.77248 
L 382.978114 84.069513 
L 383.018628 82.799637 
L 383.025376 82.799637 
L 383.038868 82.799637 
L 383.065839 83.357851 
L 383.173532 80.819137 
L 383.186973 80.819137 
L 383.227265 82.416455 
L 383.307721 81.916237 
L 383.347885 81.411431 
L 383.388007 82.341504 
L 383.401372 82.92628 
L 383.454783 81.468196 
L 383.494793 82.089269 
L 383.514781 81.802522 
L 383.541417 82.645865 
L 383.548073 82.513056 
L 383.568034 83.791048 
L 383.65441 81.985584 
L 383.667681 81.892761 
L 383.687579 82.877981 
L 383.74059 81.17148 
L 383.773684 81.365159 
L 383.786914 80.80093 
L 383.800139 82.992799 
L 383.833182 82.757523 
L 383.912367 84.888943 
L 383.872795 82.613514 
L 383.951897 84.331327 
L 384.030836 83.266233 
L 384.037406 84.760164 
L 384.050545 84.543197 
L 384.070243 84.614104 
L 384.076807 84.159488 
L 384.08337 83.713124 
L 384.129278 86.804976 
L 384.155487 86.147614 
L 384.220929 87.39107 
L 384.181677 85.915402 
L 384.240539 86.354724 
L 384.253608 85.935133 
L 384.273201 87.30479 
L 384.344959 86.294856 
L 384.377531 86.472093 
L 384.403569 85.269085 
L 384.416581 84.822582 
L 384.423086 86.257656 
L 384.520519 88.217911 
L 384.468586 86.252345 
L 384.546459 87.75632 
L 384.714639 84.826408 
L 384.772682 83.658803 
L 384.830637 84.511588 
L 384.862796 84.945193 
L 384.907773 83.767529 
L 384.914194 83.767529 
L 384.971933 83.334619 
L 384.927032 84.624245 
L 384.997567 83.815822 
L 385.074365 85.532177 
L 385.05518 82.984326 
L 385.112706 84.644536 
L 385.176521 83.115279 
L 385.214759 85.133768 
L 385.221128 84.802189 
L 385.272044 86.804976 
L 385.303832 86.057715 
L 385.386356 88.881028 
L 385.424383 88.240377 
L 385.456044 86.896802 
L 385.538238 87.728621 
L 385.739808 83.946171 
L 385.74609 84.05454 
L 385.771207 85.01563 
L 385.846459 82.968596 
L 385.9028 83.500023 
L 385.934065 82.455779 
L 386.052636 83.941196 
L 386.108673 82.886429 
L 386.121114 84.577366 
L 386.127333 84.331327 
L 386.164627 85.904883 
L 386.232904 84.405589 
L 386.270094 84.888943 
L 386.35673 83.333396 
L 386.406147 84.33007 
L 386.455501 82.823724 
L 386.566312 80.791829 
L 386.480154 83.549181 
L 386.572459 81.616912 
L 386.58475 82.231152 
L 386.627735 80.69188 
L 386.670672 80.77932 
L 386.835832 75.684927 
L 386.707436 81.458922 
L 386.884631 76.248429 
L 386.921189 78.242799 
L 386.896821 76.116669 
L 387.018506 77.191965 
L 387.02458 77.06176 
L 387.067071 78.146637 
L 387.073138 78.027591 
L 387.079203 78.953587 
L 387.157964 76.481204 
L 387.170066 76.501343 
L 387.254677 78.923369 
L 387.19426 76.172507 
L 387.321025 77.422795 
L 387.435353 75.833855 
L 387.441361 76.416837 
L 387.447368 76.415832 
L 387.561317 74.714192 
L 387.465383 76.622418 
L 387.591247 75.223412 
L 387.740545 78.208954 
L 387.782243 80.098054 
L 387.847677 78.310587 
L 387.859562 77.947749 
L 387.889258 79.121336 
L 387.895195 79.053058 
L 388.007812 81.686839 
L 388.025563 81.15309 
L 388.120095 79.287707 
L 388.149589 79.325876 
L 388.202619 80.371232 
L 388.255576 78.91474 
L 388.32607 80.42072 
L 388.279088 78.273499 
L 388.361268 78.72865 
L 388.384715 77.940404 
L 388.460819 79.34443 
L 388.583435 80.501849 
L 388.495893 78.442297 
L 388.589264 80.435354 
L 388.647505 79.7253 
L 388.653324 80.557169 
L 388.68822 81.490231 
L 388.757917 79.726403 
L 388.769521 79.720886 
L 388.827486 80.632951 
L 388.87958 79.044397 
L 388.948927 81.024625 
L 388.995088 80.349884 
L 389.02391 80.426348 
L 389.046952 79.795998 
L 389.202122 76.861751 
L 389.207857 76.991219 
L 389.247977 75.390893 
L 389.293777 75.033525 
L 389.259432 76.06092 
L 389.310937 75.344074 
L 389.333806 76.415832 
L 389.413738 75.254511 
L 389.419441 75.254511 
L 389.425144 75.253539 
L 389.646864 71.558085 
L 389.709167 72.504956 
L 389.754415 71.67737 
L 389.979847 69.249203 
L 389.985466 69.381499 
L 390.120066 72.197794 
L 390.248613 69.239362 
L 390.270924 69.774731 
L 390.304367 69.427632 
L 390.309938 70.311582 
L 390.365602 69.845563 
L 390.487778 71.27465 
L 390.532108 71.634346 
L 390.615089 69.60614 
L 390.725448 70.140413 
L 390.686859 68.984459 
L 390.730957 69.821381 
L 390.829993 68.425581 
L 390.851966 69.056168 
L 390.857457 69.421038 
L 390.939731 68.065253 
L 390.94521 68.129555 
L 390.956164 67.643458 
L 391.010891 69.272175 
L 391.038225 68.825264 
L 391.043689 68.825264 
L 391.049153 68.599885 
L 391.087376 69.832219 
L 391.131013 69.675804 
L 391.223575 68.243363 
L 391.283348 69.164825 
L 391.288777 69.318165 
L 391.321337 68.352741 
L 391.359287 68.403152 
L 391.3972 68.154195 
L 391.418848 69.033336 
L 391.429667 68.7702 
L 391.435075 70.09334 
L 391.521505 68.75483 
L 391.543082 69.788886 
L 391.623886 70.163974 
L 391.672286 68.566886 
L 391.67766 68.664363 
L 391.720625 67.468342 
L 391.725992 67.576905 
L 391.774262 66.794795 
L 391.747453 67.721131 
L 391.833176 67.045871 
L 391.886655 68.825264 
L 391.950731 68.416768 
L 391.977397 67.119922 
L 392.057284 68.26569 
L 392.110449 69.728142 
L 392.179452 69.426808 
L 392.343494 66.668779 
L 392.354053 67.492525 
L 392.433153 65.150484 
L 392.443687 64.836407 
L 392.491055 66.669542 
L 392.506831 67.123011 
L 392.590861 66.121095 
L 392.606595 66.645154 
L 392.622324 66.589582 
L 392.627565 66.923565 
L 392.679938 66.016163 
L 392.721785 66.166162 
L 392.727013 65.927215 
L 392.742691 67.448851 
L 392.820987 66.501455 
L 392.93553 67.759638 
L 392.85226 65.953353 
L 392.951123 67.377997 
L 392.971903 68.80015 
L 393.080814 66.671829 
L 393.091171 66.671829 
L 393.163585 64.992369 
L 393.194578 66.84073 
L 393.246176 65.340133 
L 393.251332 65.376128 
L 393.266796 64.919743 
L 393.302854 63.423252 
L 393.354305 65.83179 
L 393.359447 65.899605 
L 393.374866 65.097943 
L 393.410822 65.267521 
L 393.436483 65.691358 
L 393.625842 61.029916 
L 393.630947 61.152946 
L 393.666661 60.025426 
L 393.687054 60.170358 
L 393.839652 57.843295 
L 393.854879 58.677773 
L 393.941046 57.19441 
L 394.122875 54.936514 
L 393.971411 57.971774 
L 394.158129 55.949927 
L 394.163163 56.387616 
L 394.203409 54.953469 
L 394.263698 55.88752 
L 394.363968 55.323023 
L 394.308852 56.355725 
L 394.378985 55.600521 
L 394.388994 55.600521 
L 394.493924 54.831139 
L 394.399 56.105582 
L 394.498913 54.986856 
L 394.608516 56.330119 
L 394.61349 56.067733 
L 394.673133 54.333649 
L 394.757466 54.803346 
L 394.811936 55.60275 
L 394.787187 54.327199 
L 394.871268 55.201612 
L 394.979803 53.577948 
L 394.999504 54.313765 
L 395.088029 56.261926 
L 395.117492 56.069992 
L 395.274243 54.363226 
L 395.342618 56.419536 
L 395.396256 55.709899 
L 395.517879 54.86441 
L 395.444952 56.542356 
L 395.522735 55.10698 
L 395.527592 55.460945 
L 395.605206 53.232903 
L 395.711669 51.933165 
L 395.653635 53.715543 
L 395.730993 52.390103 
L 395.735823 52.390103 
L 395.755136 52.797921 
L 395.808194 51.195652 
L 395.813014 51.369693 
L 395.981325 48.567345 
L 396.03407 49.541201 
L 396.005309 48.439746 
L 396.096309 48.761906 
L 396.105876 48.640923 
L 396.125001 49.68086 
L 396.139339 49.421264 
L 396.210946 48.45112 
L 396.25861 49.950925 
L 396.263373 50.012225 
L 396.301456 49.264461 
L 396.320483 49.449337 
L 396.349006 49.027318 
L 396.391751 49.646953 
L 396.439188 49.045824 
L 396.443929 49.04351 
L 396.519696 47.673452 
L 396.467622 49.225369 
L 396.54807 48.708238 
L 396.666068 50.031254 
L 396.67078 50.538825 
L 396.755501 48.809681 
L 396.769603 49.513054 
L 396.8916 51.028827 
L 396.797791 49.488678 
L 396.929059 50.194854 
L 396.95713 49.601793 
L 396.985179 50.999959 
L 397.003867 50.630184 
L 397.115803 52.869531 
L 397.125116 52.426751 
L 397.283091 49.623895 
L 397.292363 49.588633 
L 397.463492 47.187186 
L 397.481946 47.363236 
L 397.780581 51.773324 
L 397.51422 47.316938 
L 397.794307 51.278375 
L 397.798882 51.278375 
L 397.871998 50.038869 
L 397.922184 50.204895 
L 397.999614 52.070534 
L 398.035997 51.030785 
L 398.045087 50.943268 
L 398.14947 48.260522 
L 398.181182 49.097228 
L 398.221916 49.76341 
L 398.258087 48.258711 
L 398.262606 47.864031 
L 398.267124 48.800488 
L 398.366394 48.496197 
L 398.3709 49.105107 
L 398.456414 47.722895 
L 398.469899 48.061945 
L 398.474393 47.796072 
L 398.501345 49.230951 
L 398.568641 48.45476 
L 398.702877 51.07242 
L 398.783192 49.367518 
L 398.743055 51.361292 
L 398.83664 49.987502 
L 398.85444 50.446739 
L 398.921114 49.270049 
L 398.947751 50.154719 
L 399.045261 48.964471 
L 398.965499 50.808749 
L 399.076235 48.973707 
L 399.089501 49.470407 
L 399.155765 47.444515 
L 399.169004 47.7733 
L 399.191058 48.273196 
L 399.397748 43.81334 
L 399.41967 44.408874 
L 399.489736 43.364129 
L 399.494111 43.367675 
L 399.529092 42.423375 
L 399.612042 42.996118 
L 399.616403 43.172394 
L 399.69046 42.053982 
L 399.703514 42.46214 
L 399.820798 40.251322 
L 399.838143 40.757044 
L 399.868477 39.546002 
L 399.924747 39.834283 
L 399.946368 40.120265 
L 399.980935 38.580269 
L 399.989572 38.598163 
L 400.118889 37.362961 
L 400.200564 38.502258 
L 400.127495 37.219666 
L 400.273492 38.292453 
L 400.380486 39.212039 
L 400.342003 38.037103 
L 400.397578 38.598507 
L 400.401849 38.464861 
L 400.453071 40.255651 
L 400.465865 40.71645 
L 400.521259 39.624938 
L 400.589325 38.966667 
L 400.538287 39.919584 
L 400.610571 39.816819 
L 400.614819 40.132127 
L 400.695435 39.226051 
L 400.712385 39.348198 
L 400.716622 39.348198 
L 400.822377 38.332401 
L 400.788567 39.459833 
L 400.835048 38.86941 
L 400.847715 39.212039 
L 400.90677 37.741568 
L 400.932052 37.81421 
L 401.011999 36.551066 
L 401.066602 37.095747 
L 401.104359 38.034393 
L 401.12951 36.966674 
L 401.17976 37.335053 
L 401.204861 37.577664 
L 401.325947 35.967025 
L 401.380102 37.909949 
L 401.442492 37.232909 
L 401.504781 34.968186 
L 401.566967 36.117185 
L 401.600092 35.372692 
L 401.637323 36.905923 
L 401.748796 38.626055 
L 401.761162 38.244711 
L 401.769404 37.986999 
L 401.785882 38.821921 
L 401.872274 38.143983 
L 402.056741 36.198132 
L 401.896921 38.220183 
L 402.069007 37.045313 
L 402.077182 37.225294 
L 402.14252 35.943071 
L 402.154758 36.000587 
L 402.166992 35.93509 
L 402.285056 36.70602 
L 402.224034 35.739325 
L 402.289121 36.658745 
L 402.354095 36.060439 
L 402.325683 37.160461 
L 402.406806 36.213572 
L 402.410857 36.43918 
L 402.503926 35.589496 
L 402.524128 35.098558 
L 402.645115 33.880395 
L 402.649142 33.884311 
L 402.669267 33.320202 
L 402.681337 34.10638 
L 402.749661 33.687283 
L 402.837898 35.453523 
L 402.869933 34.861508 
L 402.977854 32.555213 
L 403.001795 32.909696 
L 403.017748 34.296014 
L 403.117298 34.026455 
L 403.252268 32.241032 
L 403.260193 32.243332 
L 403.276037 31.419258 
L 403.287916 30.914228 
L 403.35911 32.74863 
L 403.374913 32.483352 
L 403.508974 30.562681 
L 403.51291 30.836509 
L 403.52078 30.841206 
L 403.524715 30.954953 
L 403.587613 30.000266 
L 403.599394 30.039949 
L 403.611173 30.069133 
L 403.771776 27.624376 
L 403.958941 30.086439 
L 404.001703 28.649096 
L 404.009473 28.924383 
L 404.02889 28.473215 
L 404.036655 28.550816 
L 404.056058 28.022129 
L 404.137446 29.145167 
L 404.141317 28.916009 
L 404.180008 27.856192 
L 404.230247 29.021872 
L 404.257272 28.649096 
L 404.26499 28.378 
L 404.268848 28.420544 
L 404.284277 29.263346 
L 404.35748 28.020088 
L 404.376721 28.186799 
L 404.395952 27.514568 
L 404.461264 28.341942 
L 404.491961 27.792266 
L 404.591553 27.919218 
L 404.560937 27.30797 
L 404.595378 27.849338 
L 404.725209 26.100872 
L 404.625967 28.138904 
L 404.729021 26.190132 
L 404.831796 27.719601 
L 404.843199 27.203128 
L 404.858397 26.709092 
L 404.941876 27.563889 
L 405.040298 29.381656 
L 405.066753 28.615873 
L 405.100739 28.203462 
L 405.123379 29.335025 
L 405.138466 29.051277 
L 405.228857 30.255614 
L 405.21757 28.990394 
L 405.251422 29.454904 
L 405.375287 28.587088 
L 405.386527 28.707311 
L 405.40151 29.012426 
L 405.480069 28.006061 
L 405.539815 27.27099 
L 405.595742 27.43645 
L 405.603192 27.383048 
L 405.614366 27.12868 
L 405.677619 28.379031 
L 405.681336 28.282527 
L 405.75932 27.648853 
L 405.822333 29.202097 
L 405.870448 29.933417 
L 405.85935 29.014525 
L 405.925891 29.262024 
L 405.944354 28.63871 
L 406.003375 30.421508 
L 406.007061 30.362307 
L 406.018116 31.049606 
L 406.106442 29.135688 
L 406.110117 29.350915 
L 406.128491 29.451982 
L 406.121143 29.223205 
L 406.132165 29.255684 
L 406.249535 28.275332 
L 406.19823 29.656325 
L 406.253197 28.402747 
L 406.297113 29.590124 
L 406.267841 28.362542 
L 406.373844 28.819854 
L 406.475913 27.755029 
L 406.395739 29.093326 
L 406.486832 28.076253 
L 406.530479 29.216871 
L 406.588598 28.010906 
L 406.595856 28.205257 
L 406.603114 28.251445 
L 406.62125 27.725672 
L 406.653875 27.969107 
L 406.769647 25.906445 
L 406.870659 26.886752 
L 406.784094 25.748226 
L 406.89587 26.088312 
L 406.90307 26.205394 
L 406.90667 26.12238 
L 406.989365 28.782561 
L 407.028852 28.240406 
L 407.111282 27.43921 
L 407.143489 28.018303 
L 407.243514 28.429576 
L 407.179242 26.985455 
L 407.257781 28.147864 
L 407.29699 27.17323 
L 407.375286 27.404349 
L 407.467611 29.537891 
L 407.531397 28.487688 
L 407.683342 25.805439 
L 407.866282 27.573208 
L 407.767885 25.798971 
L 407.876809 27.194156 
L 407.887334 26.678873 
L 407.939913 27.526892 
L 407.981923 27.324223 
L 408.002911 28.186799 
L 408.111165 27.59412 
L 408.239968 26.174634 
L 408.302472 26.782906 
L 408.30941 26.963662 
L 408.361408 25.785559 
L 408.382188 26.034256 
L 408.38565 26.034256 
L 408.475555 25.235086 
L 408.503176 25.259847 
L 408.623779 27.36226 
L 408.627219 27.151321 
L 408.634099 26.92803 
L 408.692524 28.851442 
L 408.730281 27.613531 
L 408.850167 28.544343 
L 408.768 27.045206 
L 408.877516 28.229883 
L 408.935569 27.728708 
L 408.962857 29.043923 
L 408.976494 28.814636 
L 409.088811 29.605061 
L 409.041202 28.193976 
L 409.102402 29.497703 
L 409.112593 29.441358 
L 409.298936 27.015194 
L 409.339472 27.34624 
L 409.31921 26.389055 
L 409.417045 27.27099 
L 409.494459 26.928278 
L 409.440622 27.861271 
L 409.514629 27.622358 
L 409.541504 28.204488 
L 409.575072 27.222076 
L 409.618666 27.460545 
L 409.709048 26.56315 
L 409.722419 27.650872 
L 409.725762 27.532678 
L 409.729103 27.661981 
L 409.78587 26.506407 
L 409.812555 26.734663 
L 409.859208 25.597143 
L 409.925756 25.906445 
L 410.00546 27.378038 
L 410.041935 27.290225 
L 410.05519 27.429426 
L 410.101546 26.406596 
L 410.207292 24.396701 
L 410.233682 24.544341 
L 410.296286 25.636463 
L 410.36536 25.173847 
L 410.388357 24.682155 
L 410.453985 25.650533 
L 410.46382 25.502242 
L 410.568563 26.500543 
L 410.483481 25.266453 
L 410.594704 26.304394 
L 410.611033 25.698271 
L 410.617562 26.606011 
L 410.705602 25.982209 
L 410.708859 26.13979 
L 410.796687 25.149382 
L 410.806434 25.514596 
L 410.832411 26.385402 
L 410.822672 25.252063 
L 410.884314 25.34582 
L 411.023451 23.829455 
L 411.02668 23.929953 
L 411.117 24.89351 
L 411.139547 24.100523 
L 411.152425 24.148037 
L 411.357877 28.819854 
L 411.38668 28.588902 
L 411.437831 27.608236 
L 411.495294 28.501908 
L 411.52718 30.237139 
L 411.625858 29.342704 
L 411.648105 30.620572 
L 411.72111 29.120948 
L 411.727452 28.929879 
L 411.749639 30.147075 
L 411.854062 32.356215 
L 411.8667 31.640152 
L 411.91721 30.688736 
L 411.964502 31.965262 
L 411.970803 31.94473 
L 411.986551 32.643791 
L 412.071479 31.447356 
L 412.074621 31.45326 
L 412.087186 31.640152 
L 412.090326 31.537704 
L 412.175023 32.707822 
L 412.156218 31.212022 
L 412.203214 32.166651 
L 412.3064 31.060447 
L 412.234512 32.811391 
L 412.315766 32.125364 
L 412.32201 32.224937 
L 412.325131 32.381894 
L 412.393732 31.200017 
L 412.421761 31.872677 
L 412.493296 30.710753 
L 412.443547 32.12737 
L 412.530565 31.917372 
L 412.586401 33.361724 
L 412.651438 32.63565 
L 412.657627 32.63565 
L 412.68237 32.077257 
L 412.737983 32.881581 
L 412.765758 32.208848 
L 412.812007 34.359758 
L 412.882812 33.451757 
L 412.885887 33.536652 
L 412.935061 32.445162 
L 412.962693 32.782478 
L 412.978036 32.195064 
L 413.051594 33.752037 
L 413.054656 33.63431 
L 413.125011 34.768429 
L 413.103612 33.567682 
L 413.167772 34.160067 
L 413.17998 34.781094 
L 413.247057 32.733467 
L 413.25924 32.24132 
L 413.338336 33.032965 
L 413.341374 33.022676 
L 413.356565 33.794971 
L 413.432427 32.909696 
L 413.453641 33.244106 
L 413.496034 32.497538 
L 413.568597 32.895929 
L 413.613879 34.180714 
L 413.644037 32.605428 
L 413.677184 32.765841 
L 413.683207 32.693551 
L 413.686219 32.91585 
L 413.68923 32.91585 
L 413.737376 33.466339 
L 413.791467 32.044079 
L 413.797472 32.577554 
L 413.878452 31.489265 
L 413.803477 32.605428 
L 413.917381 31.938743 
L 414.007066 32.516077 
L 413.974206 31.54334 
L 414.024977 31.647218 
L 414.027962 31.647218 
L 414.153096 29.992712 
L 414.156071 30.223017 
L 414.21254 31.489265 
L 414.173912 30.130823 
L 414.260027 30.134073 
L 414.268925 30.100506 
L 414.27189 30.190722 
L 414.274855 30.764751 
L 414.357784 28.924644 
L 414.375531 29.027384 
L 414.378488 29.183901 
L 414.425769 28.263772 
L 414.472992 28.375166 
L 414.47889 28.375166 
L 414.481839 28.14172 
L 414.561376 30.590106 
L 414.681836 28.618208 
L 414.6965 29.33529 
L 414.834067 33.319906 
L 414.7346 29.252778 
L 414.83991 33.07415 
L 414.842831 32.981551 
L 414.886621 34.846649 
L 414.889538 35.123505 
L 414.93036 33.551865 
L 414.988601 34.39641 
L 415.069989 34.939624 
L 415.110617 33.36855 
L 415.128016 34.358232 
L 415.203319 32.627511 
L 415.220676 33.516378 
L 415.347716 31.925349 
L 415.255365 34.252162 
L 415.35348 31.932188 
L 415.459965 33.620257 
L 415.474332 33.103598 
L 415.48295 32.72414 
L 415.52027 34.66728 
L 415.571884 33.603221 
L 415.591937 35.017913 
L 415.666328 33.295016 
L 415.680617 33.664228 
L 415.820368 30.152765 
L 415.703469 33.849089 
L 415.834599 30.851984 
L 415.908517 31.36425 
L 415.868733 30.039949 
L 415.93407 30.348408 
L 416.092684 31.547851 
L 415.996462 29.647776 
L 416.095511 31.298129 
L 416.253454 29.701241 
L 416.135058 31.90484 
L 416.281589 30.448823 
L 416.287213 30.724244 
L 416.360257 29.088067 
L 416.377093 29.354094 
L 416.435961 28.34117 
L 416.486347 29.423304 
L 416.494738 29.859976 
L 416.567384 28.667797 
L 416.592498 29.051277 
L 416.595288 29.051277 
L 416.600866 28.755202 
L 416.68166 29.905152 
L 416.703917 29.157811 
L 416.706699 29.157811 
L 416.839962 30.565697 
L 416.715041 28.967329 
L 416.842733 30.557199 
L 416.881511 30.832365 
L 416.96171 29.525111 
L 417.094084 33.750837 
L 417.116101 32.989772 
L 417.253422 30.441993 
L 417.313687 30.25806 
L 417.379321 31.419258 
L 417.390249 31.110529 
L 417.458478 32.367754 
L 417.48846 31.587338 
L 417.559232 35.256019 
L 417.621729 33.422018 
L 417.624444 33.422018 
L 417.684124 34.619581 
L 417.651583 33.214541 
L 417.732883 33.36855 
L 417.786986 32.548252 
L 417.814009 33.576937 
L 417.84911 32.995352 
L 417.970363 35.52034 
L 417.973053 35.492274 
L 418.04293 33.943393 
L 418.096594 35.13224 
L 418.198347 36.421376 
L 418.142149 34.609742 
L 418.211716 36.074537 
L 418.254463 35.492274 
L 418.294495 37.052231 
L 418.307829 36.781464 
L 418.353132 37.712016 
L 418.374432 35.881824 
L 418.42763 37.537892 
L 418.547055 35.246 
L 418.555003 36.203278 
L 418.557652 36.203278 
L 418.581485 34.584848 
L 418.639682 38.212351 
L 418.642325 38.212351 
L 418.795315 42.46022 
L 418.850556 40.736558 
L 418.910967 41.942173 
L 418.916215 42.422224 
L 418.958178 40.897838 
L 418.992238 42.06955 
L 419.0864 39.410487 
L 419.102071 39.623875 
L 419.16469 38.367949 
L 419.320789 36.218398 
L 419.328577 36.303771 
L 419.338959 36.916752 
L 419.406371 35.522548 
L 419.429678 35.797464 
L 419.543418 35.078925 
L 419.494345 36.560162 
L 419.545999 35.376462 
L 419.592428 36.25059 
L 419.62335 34.336565 
L 419.651672 35.188449 
L 419.654246 34.95949 
L 419.713393 36.680907 
L 419.744216 36.576736 
L 419.764751 37.484154 
L 419.833974 34.35579 
L 419.839096 34.409552 
L 419.926076 33.127469 
L 419.946512 34.463703 
L 419.949066 34.463703 
L 419.984802 34.993973 
L 419.961833 33.810597 
L 420.012856 34.032806 
L 420.132492 31.806734 
L 420.140115 32.201094 
L 420.145197 32.374968 
L 420.193438 30.479441 
L 420.206122 30.480535 
L 420.27961 29.438968 
L 420.228944 30.851984 
L 420.325152 29.618938 
L 420.340321 30.348408 
L 420.37569 29.192602 
L 420.44381 30.253712 
L 420.526903 27.911079 
L 420.579685 28.240406 
L 420.582197 28.240406 
L 420.634903 30.492298 
L 420.700057 29.025022 
L 420.70256 29.025284 
L 420.705064 28.923336 
L 420.80507 26.975795 
L 420.717579 28.931711 
L 420.832525 27.702153 
L 420.907303 28.499063 
L 420.847492 27.210108 
L 420.942149 27.594372 
L 420.949612 27.284978 
L 421.031607 29.684391 
L 421.034089 29.540021 
L 421.093607 30.788194 
L 421.133234 30.175263 
L 421.237058 31.587338 
L 421.254335 31.366774 
L 421.256802 31.366774 
L 421.350446 32.085271 
L 421.37751 30.162251 
L 421.44386 31.40269 
L 421.407013 29.982732 
L 421.488028 30.348408 
L 421.512544 31.475477 
L 421.61045 31.01488 
L 421.683715 29.922378 
L 421.642215 31.654003 
L 421.742224 30.061835 
L 421.856546 31.14507 
L 421.902664 30.115661 
L 421.951148 31.233249 
L 421.968103 31.106352 
L 422.081748 30.175263 
L 422.045515 31.474633 
L 422.096232 30.605199 
L 422.103471 30.694514 
L 422.113122 30.160353 
L 422.139649 30.334242 
L 422.259993 28.981219 
L 422.180609 31.26931 
L 422.264799 29.276031 
L 422.37277 29.925877 
L 422.305624 28.975977 
L 422.379957 29.800098 
L 422.389538 30.188552 
L 422.682974 26.53061 
L 422.713855 28.312094 
L 422.794504 27.201383 
L 422.89862 26.763207 
L 422.832397 27.570185 
L 422.903346 27.36226 
L 422.950571 28.781518 
L 423.00952 27.339983 
L 423.023654 27.625638 
L 423.026009 27.418139 
L 423.058967 28.836558 
L 423.127145 28.143768 
L 423.129493 28.143768 
L 423.263135 31.695592 
L 423.138887 28.073442 
L 423.277175 31.512913 
L 423.30524 30.495581 
L 423.349634 32.259436 
L 423.375312 31.806734 
L 423.447583 31.737796 
L 423.494138 33.954255 
L 423.621868 32.156325 
L 423.538311 34.387854 
L 423.624187 32.273246 
L 423.633459 31.570127 
L 423.682101 32.721517 
L 423.728369 32.439669 
L 423.788433 34.073661 
L 423.827655 31.997224 
L 423.832266 32.156325 
L 423.910579 30.952735 
L 423.846098 32.766133 
L 423.947376 31.598629 
L 423.993322 30.435436 
L 424.050677 31.692195 
L 424.059845 31.421505 
L 424.119388 32.257423 
L 424.144552 31.021544 
L 424.160556 31.136432 
L 424.203962 30.068322 
L 424.279234 30.223017 
L 424.365727 31.641282 
L 424.311123 29.818346 
L 424.417983 30.761443 
L 424.52907 28.096954 
L 424.429333 30.78047 
L 424.547176 29.027121 
L 424.558488 28.784385 
L 424.592403 30.659311 
L 424.599183 30.604101 
L 424.68946 33.355493 
L 424.624031 30.295042 
L 424.739021 31.967258 
L 424.835705 33.237008 
L 424.750276 31.682289 
L 424.864886 32.656297 
L 424.882833 31.89089 
L 424.929903 34.260685 
L 424.943341 34.121234 
L 425.072995 35.86398 
L 425.075227 35.607202 
L 425.133201 34.730464 
L 425.093074 35.818137 
L 425.188862 35.130992 
L 425.333201 37.621833 
L 425.195536 35.125065 
L 425.350928 37.145592 
L 425.468161 35.214711 
L 425.379717 37.81421 
L 425.479202 35.47368 
L 425.540973 35.824182 
L 425.499068 34.993973 
L 425.547585 35.148782 
L 425.675198 32.200807 
L 425.585033 36.02746 
L 425.683983 32.691512 
L 425.69057 33.194451 
L 425.708131 32.192767 
L 425.743229 31.434147 
L 425.787056 33.200654 
L 425.811139 32.634487 
L 425.813328 32.634487 
L 425.902953 34.516404 
L 425.868002 32.482194 
L 425.926963 33.661834 
L 426.035908 32.894757 
L 426.001079 34.061854 
L 426.038084 33.220452 
L 426.094608 34.11517 
L 426.081572 33.043845 
L 426.14888 33.586492 
L 426.222566 32.637976 
L 426.192242 33.896059 
L 426.263681 33.135724 
L 426.363038 31.587338 
L 426.278817 33.494626 
L 426.373823 32.368908 
L 426.375979 33.113321 
L 426.438463 31.419258 
L 426.483646 32.187026 
L 426.498695 31.217886 
L 426.567415 33.234938 
L 426.588865 32.431575 
L 426.595297 33.05414 
L 426.68096 31.363408 
L 426.693793 31.88662 
L 426.69807 31.769553 
L 426.764296 33.094467 
L 426.779234 32.882752 
L 426.781368 32.986248 
L 426.830407 31.530659 
L 426.866613 32.030073 
L 426.941046 31.186342 
L 426.909164 32.96981 
L 426.977146 31.820651 
L 427.051363 32.255122 
L 427.076775 31.053775 
L 427.081009 31.167652 
L 427.085242 31.167652 
L 427.150798 30.387667 
L 427.093708 31.687949 
L 427.199363 30.758134 
L 427.33838 33.743636 
L 427.363602 33.049433 
L 427.397204 33.868652 
L 427.485269 31.789983 
L 427.5083 31.301768 
L 427.529225 32.090709 
L 427.537592 31.918227 
L 427.579399 33.148405 
L 427.650364 32.526219 
L 427.760724 30.720664 
L 427.777354 30.928352 
L 427.843802 32.136828 
L 427.833427 30.927244 
L 427.89149 31.159845 
L 427.893562 31.159845 
L 428.054834 36.966674 
L 428.08577 36.580637 
L 428.089892 36.580637 
L 428.244176 32.315858 
L 428.102258 36.58974 
L 428.246229 32.601943 
L 428.252387 32.952205 
L 428.318011 31.452979 
L 428.348733 31.820651 
L 428.473414 29.973026 
L 428.356921 31.825197 
L 428.479535 30.303749 
L 428.589551 31.553489 
L 428.528471 29.574126 
L 428.605822 30.88655 
L 428.642408 29.534962 
L 428.685047 32.651934 
L 428.691134 32.367754 
L 428.808631 34.180714 
L 428.818743 33.944599 
L 428.824809 33.685786 
L 428.830874 34.740338 
L 428.843001 34.539715 
L 428.94794 38.71539 
L 428.964059 38.265164 
L 428.988225 39.066983 
L 429.032488 36.583563 
L 429.088749 34.207452 
L 429.042541 36.630085 
L 429.156954 35.515292 
L 429.259032 33.862331 
L 429.168977 35.86398 
L 429.285008 34.437994 
L 429.36881 34.892176 
L 429.334913 33.308347 
L 429.382759 33.840666 
L 429.384752 33.840666 
L 429.514028 37.332728 
L 429.516013 37.247483 
L 429.56165 36.997911 
L 429.605251 37.942033 
L 429.613173 37.633889 
L 429.678467 40.852311 
L 429.73378 40.637225 
L 429.777184 40.742776 
L 429.857941 39.588457 
L 429.967967 45.580581 
L 429.981698 44.450696 
L 430.161702 38.774842 
L 429.997384 44.961413 
L 430.19292 39.09071 
L 430.216316 40.934595 
L 430.307815 40.484391 
L 430.362221 40.9817 
L 430.358337 40.114515 
L 430.399094 40.269002 
L 430.402974 40.447011 
L 430.497894 38.443263 
L 430.524971 37.880256 
L 430.579067 39.511721 
L 430.606086 38.782107 
L 430.696652 35.168766 
L 430.74666 35.99675 
L 430.750504 36.806648 
L 430.854146 35.483449 
L 430.856063 35.724091 
L 430.923084 36.925943 
L 430.965152 35.432117 
L 431.075834 38.282899 
L 431.083455 37.648629 
L 431.136762 36.036422 
L 431.182395 36.687428 
" style="fill:none;stroke:#1f77b4;stroke-linecap:square;stroke-width:1.5;"/>
   </g>
   <g id="patch_3">
    <path d="M 36.012685 297.448 
L 36.012685 10.8 
" style="fill:none;stroke:#000000;stroke-linecap:square;stroke-linejoin:miter;stroke-width:0.8;"/>
   </g>
   <g id="patch_4">
    <path d="M 450 297.448 
L 450 10.8 
" style="fill:none;stroke:#000000;stroke-linecap:square;stroke-linejoin:miter;stroke-width:0.8;"/>
   </g>
   <g id="patch_5">
    <path d="M 36.012685 297.448 
L 450 297.448 
" style="fill:none;stroke:#000000;stroke-linecap:square;stroke-linejoin:miter;stroke-width:0.8;"/>
   </g>
   <g id="patch_6">
    <path d="M 36.012685 10.8 
L 450 10.8 
" style="fill:none;stroke:#000000;stroke-linecap:square;stroke-linejoin:miter;stroke-width:0.8;"/>
   </g>
  </g>
 </g>
 <defs>
  <clipPath id="p2fb28ff89d">
   <rect height="286.648" width="413.987315" x="36.012685" y="10.8"/>
  </clipPath>
 </defs>
</svg>
